<svg xmlns="http://www.w3.org/2000/svg" width="206.88" height="195.69" viewBox="0 0 206.88 195.69">
  <g id="Group_18324" data-name="Group 18324" transform="translate(-625.976 -1433.861)">
    <path id="Path_16758" data-name="Path 16758" d="M33.8,8.933c23.991,0,53.084,11.914,53.084,35.9S73.533,84.623,49.541,84.623,0,68.829,0,44.838,9.8,8.933,33.8,8.933Z" transform="translate(685.976 1484.928)" fill="#c822d4"/>
    <g id="Group_18317" data-name="Group 18317" transform="translate(691.371 1499.304)">
      <path id="Path_270" data-name="Path 270" d="M29.956,8.933c21.266,0,47.053,10.56,47.053,31.826s-11.831,35.265-33.1,35.265S0,62.024,0,40.759,8.691,8.933,29.956,8.933Z" transform="translate(0 -8.933)" fill="#c822d4"/>
      <text id="Fitness" transform="translate(38.633 36.623)" fill="#fff" font-size="11" font-family="Raleway-Bold, Raleway" font-weight="700"><tspan x="-18.755" y="0">Fitness</tspan></text>
    </g>
    <g id="Group_18318" data-name="Group 18318" transform="translate(691.371 1499.304)">
      <path id="Path_270-2" data-name="Path 270" d="M29.956,8.933c21.266,0,47.053,10.56,47.053,31.826s-11.831,35.265-33.1,35.265S0,62.024,0,40.759,8.691,8.933,29.956,8.933Z" transform="translate(0 -8.933)" fill="#c822d4"/>
      <text id="Fitness-2" data-name="Fitness" transform="translate(38.633 36.623)" fill="#fff" font-size="12" font-family="Raleway-Bold, Raleway" font-weight="700"><tspan x="-20.46" y="0">Fitness</tspan></text>
    </g>
  </g>
</svg>
