<svg xmlns="http://www.w3.org/2000/svg" width="206.88" height="195.69" viewBox="0 0 206.88 195.69">
  <g id="Group_18325" data-name="Group 18325" transform="translate(-322 -1513.086)">
    <path id="Path_16761" data-name="Path 16761" d="M33.8,8.933c23.991,0,53.084,11.914,53.084,35.9S73.533,84.623,49.541,84.623,0,68.829,0,44.838,9.8,8.933,33.8,8.933Z" transform="translate(382 1564.152)" fill="#02cc45"/>
    <g id="Group_18320" data-name="Group 18320" transform="translate(387.395 1578.528)">
      <path id="Path_270" data-name="Path 270" d="M29.956,8.933c21.266,0,47.053,10.56,47.053,31.826s-11.831,35.265-33.1,35.265S0,62.024,0,40.759,8.691,8.933,29.956,8.933Z" transform="translate(0 -8.933)" fill="#c822d4"/>
      <text id="Fitness" transform="translate(38.633 36.623)" fill="#fff" font-size="11" font-family="Raleway-Bold, Raleway" font-weight="700"><tspan x="-18.755" y="0">Fitness</tspan></text>
    </g>
    <g id="Group_18321" data-name="Group 18321" transform="translate(387.395 1578.528)">
      <path id="Path_270-2" data-name="Path 270" d="M29.956,8.933c21.266,0,47.053,10.56,47.053,31.826s-11.831,35.265-33.1,35.265S0,62.024,0,40.759,8.691,8.933,29.956,8.933Z" transform="translate(0 -8.933)" fill="#02cc45"/>
      <text id="Lake" transform="translate(37.292 35.623)" fill="#fff" font-size="12" font-family="Raleway-Bold, Raleway" font-weight="700"><tspan x="-13.728" y="0">Lake</tspan></text>
    </g>
  </g>
</svg>
