<svg xmlns="http://www.w3.org/2000/svg" width="226.851" height="497.93" viewBox="0 0 226.851 497.93">
  <g id="Group_19090" data-name="Group 19090" transform="translate(-1430.891 -956.813)">
    <g id="Group_19063" data-name="Group 19063" transform="translate(-68.155 -11.036)">
      <path id="Path_16983" data-name="Path 16983" d="M78.484,5.719c28.117,0,28.128,42.511,28.128,71.549S54.832,104.4,26.715,104.4,7.343,66.406,7.343,37.368,50.368,5.719,78.484,5.719Z" transform="translate(1581.704 995.129)" fill="#c9edef"/>
      <path id="Path_16984" data-name="Path 16984" d="M78.038,5.719c11.959,0,19.553,7.641,23.538,19.107-4.123,6.934-8.871-4.3-23.538-2.536s-16.593-3.185-29.258-.524-14.487.815-23.148,2.14-15.514,2.087-14.713.739C21.053,7.547,54.717,5.719,78.038,5.719Z" transform="translate(1581.704 995.129)" fill="#2c4a66"/>
      <g id="Group_19019" data-name="Group 19019" transform="translate(1457.905 907.025)">
        <g id="Group_18981" data-name="Group 18981">
          <path id="Path_16979" data-name="Path 16979" d="M196.7,104.042a1.766,1.766,0,1,1-1.766-1.765A1.766,1.766,0,0,1,196.7,104.042Z" fill="#606bf1"/>
        </g>
        <g id="Group_18982" data-name="Group 18982">
          <path id="Path_16980" data-name="Path 16980" d="M204.069,104.042a1.765,1.765,0,1,1-1.765-1.765A1.765,1.765,0,0,1,204.069,104.042Z" fill="#fbd15b"/>
        </g>
        <g id="Group_18983" data-name="Group 18983">
          <path id="Path_16981" data-name="Path 16981" d="M210.913,104.228a1.765,1.765,0,1,1-1.765-1.765A1.765,1.765,0,0,1,210.913,104.228Z" fill="#ff8578"/>
        </g>
      </g>
      <g id="picture" transform="translate(1595 965.516)">
        <g id="Group_19062" data-name="Group 19062" transform="translate(0 72)">
          <g id="Group_19061" data-name="Group 19061">
            <path id="Path_17064" data-name="Path 17064" d="M29.008,72H2.637A2.64,2.64,0,0,0,0,74.637V91.515a2.64,2.64,0,0,0,2.637,2.637H29.008a2.442,2.442,0,0,0,.441-.038,2.63,2.63,0,0,0,2.2-2.6V74.637A2.64,2.64,0,0,0,29.008,72ZM2.637,93.1a1.582,1.582,0,0,1-1.576-1.443l10.516-6.876L22.271,93.1Zm27.954-1.582a1.579,1.579,0,0,1-1.324,1.56,1.435,1.435,0,0,1-.258.023h-5.02L17,87.659l6.249-5,7.341,4.4Zm0-5.678-7.112-4.267a.527.527,0,0,0-.6.04l-6.734,5.385-4.217-3.28a.527.527,0,0,0-.612-.025L1.055,90.4V74.637a1.582,1.582,0,0,1,1.582-1.582H29.008a1.582,1.582,0,0,1,1.582,1.582Z" transform="translate(0 -72)" fill="#2c4a66"/>
            <path id="Path_17065" data-name="Path 17065" d="M195.165,120a3.165,3.165,0,1,0,3.165,3.165A3.165,3.165,0,0,0,195.165,120Zm0,5.274a2.11,2.11,0,1,1,2.11-2.11A2.11,2.11,0,0,1,195.165,125.274Z" transform="translate(-179.342 -116.835)" fill="#2c4a66"/>
          </g>
        </g>
      </g>
      <rect id="Rectangle_2661" data-name="Rectangle 2661" width="14" height="2" transform="translate(1639 1027)" fill="#2c4a66"/>
      <rect id="Rectangle_2662" data-name="Rectangle 2662" width="14" height="2" transform="translate(1656 1027)" fill="#2c4a66"/>
      <rect id="Rectangle_2663" data-name="Rectangle 2663" width="14" height="2" transform="translate(1622 1027)" fill="#2c4a66"/>
      <circle id="Ellipse_393" data-name="Ellipse 393" cx="4.5" cy="4.5" r="4.5" transform="translate(1595 1023)" fill="#2c4a66"/>
      <rect id="Rectangle_2664" data-name="Rectangle 2664" width="27" height="2" transform="translate(1634 1040)" fill="#2c4a66"/>
      <rect id="Rectangle_2665" data-name="Rectangle 2665" width="30" height="2" transform="translate(1634 1043)" fill="#2c4a66"/>
      <rect id="Rectangle_2666" data-name="Rectangle 2666" width="44" height="2" transform="translate(1634 1050)" fill="#2c4a66"/>
      <rect id="Rectangle_2667" data-name="Rectangle 2667" width="44" height="2" transform="translate(1634 1053)" fill="#2c4a66"/>
      <g id="picture-2" data-name="picture" transform="translate(1646.354 991.516)">
        <g id="Group_19062-2" data-name="Group 19062" transform="translate(0 72)">
          <g id="Group_19061-2" data-name="Group 19061">
            <path id="Path_17064-2" data-name="Path 17064" d="M29.008,72H2.637A2.64,2.64,0,0,0,0,74.637V91.515a2.64,2.64,0,0,0,2.637,2.637H29.008a2.442,2.442,0,0,0,.441-.038,2.63,2.63,0,0,0,2.2-2.6V74.637A2.64,2.64,0,0,0,29.008,72ZM2.637,93.1a1.582,1.582,0,0,1-1.576-1.443l10.516-6.876L22.271,93.1Zm27.954-1.582a1.579,1.579,0,0,1-1.324,1.56,1.435,1.435,0,0,1-.258.023h-5.02L17,87.659l6.249-5,7.341,4.4Zm0-5.678-7.112-4.267a.527.527,0,0,0-.6.04l-6.734,5.385-4.217-3.28a.527.527,0,0,0-.612-.025L1.055,90.4V74.637a1.582,1.582,0,0,1,1.582-1.582H29.008a1.582,1.582,0,0,1,1.582,1.582Z" transform="translate(0 -72)" fill="#2c4a66"/>
            <path id="Path_17065-2" data-name="Path 17065" d="M195.165,120a3.165,3.165,0,1,0,3.165,3.165A3.165,3.165,0,0,0,195.165,120Zm0,5.274a2.11,2.11,0,1,1,2.11-2.11A2.11,2.11,0,0,1,195.165,125.274Z" transform="translate(-179.342 -116.835)" fill="#2c4a66"/>
          </g>
        </g>
      </g>
      <rect id="Rectangle_2668" data-name="Rectangle 2668" width="27" height="2" transform="translate(1612 1068)" fill="#2c4a66"/>
      <rect id="Rectangle_2669" data-name="Rectangle 2669" width="30" height="2" transform="translate(1609 1071)" fill="#2c4a66"/>
      <rect id="Rectangle_2670" data-name="Rectangle 2670" width="44" height="2" transform="translate(1595 1078)" fill="#2c4a66"/>
      <rect id="Rectangle_2671" data-name="Rectangle 2671" width="44" height="2" transform="translate(1595 1081)" fill="#2c4a66"/>
    </g>
    <g id="Group_19064" data-name="Group 19064" transform="translate(1155.787 42.074)">
      <path id="Path_16972" data-name="Path 16972" d="M54.91,5.719c18.965,0,18.973,25.5,18.973,42.912S38.956,64.9,19.991,64.9,6.924,42.117,6.924,24.7,35.945,5.719,54.91,5.719Z" transform="translate(269.047 1003.559)" fill="#feb426"/>
      <g id="Group_18976" data-name="Group 18976" transform="translate(30.063 935.672)">
        <path id="Path_16973" data-name="Path 16973" d="M269.975,99.69l-9.558,4.079,9.558,4.019-1.251,2.888-11.462-5.12v-3.543l11.462-5.151Z" fill="#f9fbfc"/>
        <path id="Path_16974" data-name="Path 16974" d="M284.059,90.253,277.123,116.9l-3.3-.774,6.967-26.616Z" fill="#f9fbfc"/>
        <path id="Path_16975" data-name="Path 16975" d="M300.646,102.013v3.543l-11.463,5.12-1.249-2.888,9.527-4.019-9.527-4.079,1.249-2.828Z" fill="#f9fbfc"/>
      </g>
    </g>
    <g id="Group_19080" data-name="Group 19080">
      <path id="Path_16978" data-name="Path 16978" d="M54.91,5.719c18.965,0,18.973,25.5,18.973,42.912S38.956,64.9,19.991,64.9,6.924,42.117,6.924,24.7,35.945,5.719,54.91,5.719Z" transform="translate(1583.86 1092.795)" fill="#2676ff"/>
      <path id="Path_17066" data-name="Path 17066" d="M111.44,75.206A45.139,45.139,0,0,1,105.461,94.6h-8.2a45.13,45.13,0,0,1-5.978-19.394C99.7,70.5,99.923,59.961,99.923,59.961h.85V76.646a2.569,2.569,0,1,0,1.18,0V59.961h.85S103.023,70.5,111.44,75.206Z" transform="translate(1522.875 1048.783)" fill="#fff"/>
    </g>
    <g id="Group_19072" data-name="Group 19072" transform="translate(-50 3)">
      <g id="Group_19068" data-name="Group 19068" transform="translate(1134.455 -84.917)">
        <g id="Group_19025" data-name="Group 19025" transform="translate(-5.643 43.147)">
          <path id="Path_16978-2" data-name="Path 16978" d="M45.081,5.719C60.231,5.719,60.237,26.086,60.237,40s-27.9,13-43.049,13S6.75,34.794,6.75,20.882,29.932,5.719,45.081,5.719Z" transform="translate(516.047 989.863)" fill="#2bdad1"/>
        </g>
      </g>
      <g id="Group_19071" data-name="Group 19071" transform="translate(1283.672 852.837)">
        <path id="Path_17070" data-name="Path 17070" d="M394.751,128.708h-6.859l-2.668,7.483h2.6v.658h-5.3v-.658h1.628l8.834-23.8h2.841l8.729,23.8h1.593v.658H394.82v-.658h2.459Zm-6.548-.762h6.271l-3.014-9.077Z" transform="translate(0)" fill="#fff"/>
      </g>
    </g>
    <g id="Group_19089" data-name="Group 19089" transform="translate(36.974 -472)">
      <g id="Group_19086" data-name="Group 19086" transform="translate(1467.551 1761.118) rotate(-147)">
        <path id="Path_2821" data-name="Path 2821" d="M10.753,22.51a8.1,8.1,0,0,0,1.792-1.127,7.761,7.761,0,0,0,1.284-2.635A3.2,3.2,0,0,1,14.65,17.5a17,17,0,0,0,1.569-1.043.93.93,0,0,0,.344-.691.818.818,0,0,0-.461-.6,2.364,2.364,0,0,0-1.488-.23c-2,.281-3.432,2.155-5.053,3.191.609-.389.742-1.816.82-2.443a24.829,24.829,0,0,1,.71-3.177c.541-2.062,1.207-4.091,1.872-6.119a9.79,9.79,0,0,0,.6-2.122,1.19,1.19,0,0,0-.216-.972c-.384-.365-1.056.078-1.354.375A4.539,4.539,0,0,0,11.135,5.1L8.612,10.778c.576-3,2.212-5.684,3.043-8.623A2.631,2.631,0,0,0,11.77.8a1,1,0,0,0-.982-.8,1.393,1.393,0,0,0-.9.715C8.157,3.3,7.806,6.566,6.424,9.351c-.1.206-.274.443-.5.4-.487-.094,1.935-7.468,1.72-8.192-.129-.431-.44-.883-.89-.888a.884.884,0,0,0-.679.372,2.642,2.642,0,0,0-.351.719c-.482,1.323-.939,2.654-1.344,4-.4,1.324-.618,2.725-1.059,4.029-.077.229-.476.907-.426,1.124L2.477,6.566a3.087,3.087,0,0,0-.265-1.155A1.054,1.054,0,0,0,1.265,4.8C.333,4.869.345,5.825.331,6.488.309,7.564.286,8.615.316,9.695c.038,1.415-.429,2.861-.289,4.241.16,1.6.55,3.2.555,4.805A59.786,59.786,0,0,1,.028,29.128a.506.506,0,0,0,.073.464.473.473,0,0,0,.288.1A25.866,25.866,0,0,0,6.714,29.2c1.738-.239,1.05-2.111,1.453-3.376A5.949,5.949,0,0,1,10.753,22.51Z" fill="#f79c6d"/>
      </g>
      <path id="Path_17127" data-name="Path 17127" d="M664.706,11748.356l2.963,37.334s-16,38.073-19.995,35.969c-3.535-1.86-10.338-6-10.313-6.292.21-2.525,13.891-29.677,13.891-29.677l2.526-37.334Z" transform="translate(834.093 -10080.252)" fill="#7fccba"/>
      <path id="Path_2832" data-name="Path 2832" d="M600.3,305.269" transform="translate(875.771 1321.161)" fill="none" stroke="#222e46" stroke-miterlimit="10" stroke-width="0.706"/>
      <path id="Path_2861" data-name="Path 2861" d="M610.69,331.223a54.392,54.392,0,0,0,3.851,33.965" transform="translate(882.646 1340.491)" fill="none" stroke="#cecece" stroke-linecap="round" stroke-miterlimit="10" stroke-width="0.5" style="mix-blend-mode: multiply;isolation: isolate"/>
      <path id="Path_2820" data-name="Path 2820" d="M635.464,343.259a14.281,14.281,0,0,1-3.838-2.7,20.012,20.012,0,0,1-3.495-3.7c-.586-.9-.892-2.34-1.8-2.985-2.429-1.72-7.748,1.725-10.043,2.692-.837-1.811-.068-3.931.816-5.719,2.678-5.423,6.367-11.88,11.292-15.462a40.842,40.842,0,0,1,18.847-7.492c5.356-.67,8.64,2.259,8.218,7.736a2.245,2.245,0,0,0,.056.93,2.722,2.722,0,0,0,.827.968c3.388,3.127,3.812,8.492,2.893,12.7a22.618,22.618,0,0,1-2.615,7.119c-1.949,3.158-5.7,6.25-9.559,6.4-1.49.059-2.936-.272-4.442-.133C640.149,343.837,637.848,344.276,635.464,343.259Z" transform="translate(887.412 1323.045)" fill="#9cddcf"/>
      <path id="Path_2823" data-name="Path 2823" d="M655.69,374.2a16.854,16.854,0,0,1,3.678,1.352,15.53,15.53,0,0,1,8.567,13.281c.023,3.341-1.162,6.559-2.329,9.689q-5.2,13.934-10.4,27.864c-2.9,7.766-5.049,16.615-9.518,23.627s-16.58,21.3-26.375,16.706c-11.43-5.356-4.835-25.861-3.093-34.427,2.619-12.883,6.651-25.421,10.664-37.922,1.57-4.887,2.669-9.884,4.1-14.8,1.094-3.751,3.432-5.337,7.677-5.454,3.725-.1,6.485.075,10.256-.321A19.923,19.923,0,0,1,655.69,374.2Z" transform="translate(868.966 1363.17)" fill="#0d3b5e"/>
      <path id="Path_2824" data-name="Path 2824" d="M38.525,49.8a204.554,204.554,0,0,1,6.663,20.5,95.381,95.381,0,0,1,2.329,10.51c.407,2.839-1.912,5.433-2.537,8.159-.366,1.591-.262,3.252-.679,4.85-.82,3.134-2.755,4.412-5.385,1.952-4.514-4.224-6.906-12.117-9.962-17.486C22.506,66.963,16.834,55.222,11.439,43.369c-2.7-5.939-5.334-11.913-7.963-17.885C.329,18.335-1.95,11.145,2.431,3.728,4.767-.227,7.4-.517,11.478.5,21.067,2.88,24.4,11.848,27.9,20.1a97.287,97.287,0,0,1,4.259,12.984c1.012,3.791,2.774,6.906,4.09,10.582C36.979,45.7,37.748,47.744,38.525,49.8Z" transform="matrix(0.719, 0.695, -0.695, 0.719, 1498.316, 1792.371)" fill="#0d3b5e"/>
      <path id="Path_2827" data-name="Path 2827" d="M98.769,15.7c3.582,3.427,5.318,7.119,3.544,13.585a21.106,21.106,0,0,1-6.613,10.4c-4.245,3.62-9.737,5.4-15.148,6.756C70.918,48.864,60.474,50.766,50.5,50.56c-7.485-.154-14.117,1.743-21.6,2.027C20.6,52.9,1.948,51.075.149,40.408-1.95,27.961,18.663,21.716,26.7,18.274c12.086-5.178,24.688-9,37.254-12.813C68.862,3.97,73.6,2.032,78.457.411c7.991-2.664,11.629,8.338,16.833,12.36A43.64,43.64,0,0,1,98.769,15.7Z" transform="matrix(0.259, -0.966, 0.966, 0.259, 1489.055, 1819.543)" fill="#0f4573"/>
      <path id="Path_2828" data-name="Path 2828" d="M54.237,29.961A208.423,208.423,0,0,1,70.583,44.336c2.5,2.542,5.192,4.818,7.389,7.631A15.671,15.671,0,0,1,81.378,58c.475,1.561-.654,5.67-.222,7.263.85,3.127-.192,5.2-3.7,4.374C71.442,68.22,65.44,62.564,60.115,59.43,48.887,52.821,38.124,45.46,27.544,37.865c-5.3-3.805-10.554-7.677-15.809-11.549C5.449,21.683-.108,16.581,0,7.967.059,3.375,2.2,1.812,6.237.662c9.5-2.706,16.86,3.413,24.006,8.828A97.175,97.175,0,0,1,40.4,18.631c2.764,2.785,5.843,4.61,8.814,7.143C50.857,27.175,52.541,28.566,54.237,29.961Z" transform="matrix(0.616, 0.788, -0.788, 0.616, 1531.554, 1787.356)" fill="#0f4573"/>
      <path id="Path_2829" data-name="Path 2829" d="M13.452,16.052c-.637.747-2.368,3.238-3.4,3.156a3.123,3.123,0,0,1-1.56-.787A72.541,72.541,0,0,0,0,12.806c1.18-1.426,2.828-2.542,4.037-3.974A55.012,55.012,0,0,0,10.121,0C9.73.647,19.9,6.11,18.974,8.338c-.509,1.228-1.874,2.066-2.5,3.331A21.746,21.746,0,0,1,13.452,16.052Z" transform="matrix(0.588, 0.809, -0.809, 0.588, 1532.43, 1874.508)" fill="#f79c6d"/>
      <path id="Path_2830" data-name="Path 2830" d="M25.8,12.077a3.485,3.485,0,0,0-1.79-4.046c-2.2-1.418-5-1.286-7.148-2.9-1.8-1.35-3.226-3.249-5.2-4.385-.312-.18-3-1.1-3.008-.591-.019,1.534,1.623,2.718,1.586,4.254-.033,1.357-1.331,2.291-2.492,3L2.962,10.318a1.437,1.437,0,0,0-.557.492,1.445,1.445,0,0,0-.033.949l.473,2.434a1.065,1.065,0,0,1,0,.591c-.1.263-.384.4-.623.548A3.841,3.841,0,0,0,.646,18.517a14.962,14.962,0,0,0,.567,3.646,31.113,31.113,0,0,1-.094,13.642c-.408,1.764-1.675,3.8-.841,5.573a5.953,5.953,0,0,0,3.345,2.582,1.669,1.669,0,0,0,.7.164c1.406-.07,2.361-1.434,3.039-2.457,1.01-1.523,2.258-2.914,3.322-4.406,2.778-3.891,4.941-8.057,7.419-12.117q1.806-2.965,3.446-6.025C22.55,17.261,25.193,14.584,25.8,12.077Z" transform="matrix(0.588, 0.809, -0.809, 0.588, 1533.127, 1879.834)" fill="#765056"/>
      <path id="Path_2831" data-name="Path 2831" d="M616.892,327.286c-.038-.047-.077-.1-.113-.148-1.108-1.514-.82-4.184-.279-5.84a49.582,49.582,0,0,0,1.094-5.028,19.942,19.942,0,0,1,5.334-9.415,5.1,5.1,0,0,1,2.893-1.661c5.864-.591,3.144,7.56,2.122,10.369a27.628,27.628,0,0,1-6.927,10.606C619.875,327.246,618.2,328.862,616.892,327.286Z" transform="translate(887.481 1321.084)" fill="#765056"/>
      <g id="Group_13867" data-name="Group 13867" transform="translate(1483.766 1655.374)">
        <path id="Path_2833" data-name="Path 2833" d="M619.736,328.893c.125-2.382-1.895-6.883-4.7-7.017-3.013-.143-6.426.523-8.309,3.1a10.935,10.935,0,0,0-1.808,4.585,10.263,10.263,0,0,0,.054,4.409,5.738,5.738,0,0,0,2.519,3.523c2.259,1.323,5.206.508,7.384-.944C617.489,334.811,619.572,332.023,619.736,328.893Z" transform="translate(-604.709 -321.858)" fill="#ec545a"/>
        <path id="Path_2834" data-name="Path 2834" d="M615.533,327.773c.073-1.387-1.1-4.013-2.739-4.09-1.757-.085-3.748.3-4.845,1.808a6.416,6.416,0,0,0-1.054,2.673,5.992,5.992,0,0,0,.033,2.57,3.347,3.347,0,0,0,1.467,2.055c1.317.771,3.036.295,4.306-.551A5.994,5.994,0,0,0,615.533,327.773Z" transform="translate(-603.173 -320.506)" fill="#feb8a5"/>
      </g>
      <path id="Path_2836" data-name="Path 2836" d="M626.374,325.544a10.982,10.982,0,0,0,5.716,3.845,15.242,15.242,0,0,0,3.894.248c1.549-.033,2.17-.157,2.7,1.378.673,1.933,1.443,3.491,1.364,5.6A25.754,25.754,0,0,1,635.869,349c-3.6,5.526-12.768,7.375-18.339,3.42-6.7-4.76-.93-13.675-3.727-19.773-1.028-2.238-3.219-4.022-4.14-6.189-.738-1.734.016-2.57,1.209-4.048,1.387-1.717,3.212-3.1,4.491-4.9,1.476-2.076,1.267-4.428,1.917-6.729-.125.445,1.286,2.34,1.534,2.786q.832,1.5,1.682,2.985,1.706,2.971,3.575,5.838A30.517,30.517,0,0,0,626.374,325.544Z" transform="translate(882.529 1325.268)" fill="#dc7554"/>
      <path id="Path_2837" data-name="Path 2837" d="M619.559,295.631c-5.479-.347-10.891.176-13.292,5.637-2.612,5.943-3.25,12.639-3.078,19.054.166,6.114.777,12.471,4.955,17.407,8.1,9.561,20.754-2.692,23.821-10.434,3.571-9.013,4.746-25.447-6.567-30.43A17.136,17.136,0,0,0,619.559,295.631Z" transform="translate(877.906 1313.922)" fill="#f79c6d"/>
      <path id="Path_2838" data-name="Path 2838" d="M623.79,307.973c4.753-1.354,3.271,12.075-3.1,11.951a1.639,1.639,0,0,1-1.633-1.275,2.47,2.47,0,0,1,.073-.79c.663-3.242.471-7.523,3.7-9.455A4.047,4.047,0,0,1,623.79,307.973Z" transform="translate(889.733 1323.104)" fill="#f79c6d"/>
      <g id="Group_13872" data-name="Group 13872" transform="translate(1480.506 1622.929)">
        <g id="Group_13869" data-name="Group 13869">
          <path id="Path_2839" data-name="Path 2839" d="M617.679,306.842c.017-.734-1.2-1.987-1.809-2.322a5.9,5.9,0,0,0-3.242-.621,2.639,2.639,0,0,0-2.294,1.12.576.576,0,0,0-.017.656.587.587,0,0,0,.263.141c.876.276,1.713-.085,2.575.061a5.222,5.222,0,0,1,2.219.831c.382.293.939.963,1.443.995A.861.861,0,0,0,617.679,306.842Z" transform="translate(-597.345 -302.801)" fill="#603940"/>
          <path id="Path_2840" data-name="Path 2840" d="M611.089,310.88a3.116,3.116,0,0,1,.412-3.825,1.425,1.425,0,0,1,1.185-.324,1.522,1.522,0,0,1,.96,1.275,3.1,3.1,0,0,1-.649,2.879,1.422,1.422,0,0,1-1.05.455A1.24,1.24,0,0,1,611.089,310.88Z" transform="translate(-597.052 -300.701)" fill="#603940"/>
          <path id="Path_2841" data-name="Path 2841" d="M602.857,305.155a.668.668,0,0,1,.143-.56c1.031-1.434,3.146-1.52,4.658-1.143a2.892,2.892,0,0,1,2.23,1.546.551.551,0,0,1-.106.653.659.659,0,0,1-.307.091c-.986.1-1.809-.412-2.753-.431a7.737,7.737,0,0,0-1.516.1,9.121,9.121,0,0,1-1.3.323A1.017,1.017,0,0,1,602.857,305.155Z" transform="translate(-602.841 -303.262)" fill="#603940"/>
          <path id="Path_2842" data-name="Path 2842" d="M605.871,310.492a2.969,2.969,0,0,0,.29-3.865,1.6,1.6,0,0,0-1.2-.546,1.578,1.578,0,0,0-1.265,1.078,2.939,2.939,0,0,0,.145,2.975,1.568,1.568,0,0,0,1.029.651A1.393,1.393,0,0,0,605.871,310.492Z" transform="translate(-602.451 -301.163)" fill="#603940"/>
        </g>
        <path id="Path_2843" data-name="Path 2843" d="M606.043,313.227c-.3-.993.689-1.982,1.549-2.736a2.977,2.977,0,0,0-.29,2.366,4.287,4.287,0,0,0,1.556,1.944c-.176-.12-.851-.049-1.106-.127a3.13,3.13,0,0,1-1.134-.63A1.787,1.787,0,0,1,606.043,313.227Z" transform="translate(-600.497 -297.878)" fill="#dc7554"/>
        <g id="Group_13871" data-name="Group 13871" transform="translate(7.939 18.297)">
          <g id="Group_13870" data-name="Group 13870">
            <path id="Path_2844" data-name="Path 2844" d="M611.57,319a4.727,4.727,0,0,1-4.119-2.418.5.5,0,0,1,.879-.473,3.608,3.608,0,0,0,6.785-1.837.5.5,0,0,1,.482-.518.509.509,0,0,1,.516.482,4.705,4.705,0,0,1-3.4,4.617A4.405,4.405,0,0,1,611.57,319Z" transform="translate(-607.391 -313.749)" fill="#dc7554"/>
          </g>
        </g>
      </g>
      <path id="Path_2845" data-name="Path 2845" d="M636.225,323.737c1.5-.9,3.323-.752,3.683,1.171a5.214,5.214,0,0,0,3.333-3.5,11.29,11.29,0,0,0,.223-4.988,4.2,4.2,0,0,0,1.869-7.235,6.015,6.015,0,0,0,1.192-7.342,5.226,5.226,0,0,0-7.7-1.7,7.76,7.76,0,0,0-1.338-3.856,5.316,5.316,0,0,0-4.264-2.164c-.939.01-3.924.59-4.083,1.874a5.328,5.328,0,0,0-3.927-5.717,4.78,4.78,0,0,0-5.582,3.828,7.4,7.4,0,0,0-5.864-2.806c-2.24.157-4.388,2.087-4.268,4.33-2.036-.115-3.795,1.654-4.369,3.613a13.547,13.547,0,0,0,.1,6.065c-1.694.2-3.659,1-4.044,2.825a4.161,4.161,0,0,0,2.385,4.756,10.752,10.752,0,0,0,.935,9.816c.251-1.551.45-3.121.757-4.662.293-1.469.81-2.556.5-4.121,1.743-1.124,1.72-2.917,2.048-4.725a12.351,12.351,0,0,0,5.294,2.27,5.322,5.322,0,0,0,5.1-2.1,6.931,6.931,0,0,0,4,2.488,5.118,5.118,0,0,0,4.458-1.241,2.46,2.46,0,0,0,4.009,2.165c-.666,2.472-1.24,5.587-.717,8.136l.014.068c.173.785.539,1.49.694,2.287.185.946.12,2.066,1.216,2.462C633.459,326.312,635.017,324.461,636.225,323.737Z" transform="translate(876.365 1309.929)" fill="#765056"/>
      <path id="Path_2846" data-name="Path 2846" d="M619.753,391.475c-2.218-14.888-12.019-29.7-10.086-44.925a61.563,61.563,0,0,1,4.992-16.4q1.486,2.293,2.975,4.582a2.084,2.084,0,0,0,.85.869,2.107,2.107,0,0,0,1.853-.478c4.665-3,9.669-6.445,11.245-11.765.285-.963.539-2.089,1.431-2.551a2.889,2.889,0,0,1,1.295-.246c5.592-.1,10.9,2.257,13.5,6.881,5.074,9.036,11.952,18.55,16.066,27.987,3.94,9.038,3.165,18.9,6.549,28.156a71.651,71.651,0,0,1,3.2,37.135c-.469,2.6-1.753,5.768-4.4,5.831a6.11,6.11,0,0,1-3.516-1.516c-6.831-4.887-13.785-9.746-21.452-13.246-8.422-3.847-16.7-4.651-25.88-4.381A31.259,31.259,0,0,0,619.753,391.475Z" transform="translate(882.563 1332.552)" fill="#9cddcf"/>
      <path id="Path_2848" data-name="Path 2848" d="M621.162,322.182a7.592,7.592,0,0,0-.63.515.244.244,0,0,1-.159.085.241.241,0,0,1-.159-.1c-.757-.822-1.361-1.792-2.071-2.657a.444.444,0,0,1-.146-.373.453.453,0,0,1,.155-.2,16.853,16.853,0,0,1,4.2-2.622,22.5,22.5,0,0,1,5.686-1.576,3.663,3.663,0,0,1,2.486.509,2.769,2.769,0,0,1,1.534,2.019.43.43,0,0,1-.03.3.467.467,0,0,1-.354.152A21.526,21.526,0,0,0,621.162,322.182Z" transform="translate(888.948 1328.562)" fill="#0d3b5e"/>
      <path id="Path_2849" data-name="Path 2849" d="M630.19,319.917a7.043,7.043,0,0,1-1.694,6.855,7.727,7.727,0,0,0-2.846-.8c-.154-.037-.33-.1-.365-.256-.031-.138.07-.267.159-.377,1.185-1.453,1.15-3.521.979-5.388a9.37,9.37,0,0,0-.557-2.751,3.663,3.663,0,0,0-1.856-1.986c1.188-.325,2.793.52,3.718,1.223A6.969,6.969,0,0,1,630.19,319.917Z" transform="translate(893.431 1328.514)" fill="#0f4573"/>
      <path id="Path_2850" data-name="Path 2850" d="M633.836,326.807a8.984,8.984,0,0,0-.487-5.238,4.916,4.916,0,0,0-2.092-2.662,4.836,4.836,0,0,0-2.258-.363,17.536,17.536,0,0,0-3.971.548c-3.631.933-5.627,4.826-6.25,8.336a10.291,10.291,0,0,0,.056,4.409,5.747,5.747,0,0,0,2.519,3.524c2.259,1.321,5.206.506,7.384-.946A12.213,12.213,0,0,0,633.836,326.807Z" transform="translate(889.378 1331.045)" fill="#ec545a"/>
      <path id="Path_2851" data-name="Path 2851" d="M0,1.884A146.282,146.282,0,0,0,39.365,0" transform="matrix(0.259, -0.966, 0.966, 0.259, 1544.392, 1798.255)" fill="none" stroke="#cecece" stroke-linecap="round" stroke-miterlimit="10" stroke-width="0.5" style="mix-blend-mode: multiply;isolation: isolate"/>
      <path id="Path_2852" data-name="Path 2852" d="M5.807,0A129.952,129.952,0,0,1,17.114,9.365,106.522,106.522,0,0,1,27.19,19.159c.3.357-.56,1.954-.892,2.321-1.847,2.038-2.793,4.142-4.685,6.449a34.313,34.313,0,0,1-4.092,4.007,1.273,1.273,0,0,1-.789-.243L0,21.985" transform="matrix(0.588, 0.809, -0.809, 0.588, 1538.033, 1849.277)" fill="none" stroke="#cecece" stroke-linecap="round" stroke-miterlimit="10" stroke-width="0.5" style="mix-blend-mode: multiply;isolation: isolate"/>
      <g id="Group_13874" data-name="Group 13874" transform="matrix(0.588, 0.809, -0.809, 0.588, 1528.734, 1884.349)">
        <path id="Path_2857" data-name="Path 2857" d="M0,34.225a30.643,30.643,0,0,0,6.447-7.188,144.226,144.226,0,0,0,11.7-19.5A22.2,22.2,0,0,0,20.7,0" transform="translate(0 2.586)" fill="none" stroke="#603b42" stroke-linecap="round" stroke-miterlimit="10" stroke-width="0.5"/>
        <path id="Path_2858" data-name="Path 2858" d="M0,0C1.71,1.493,2.172,3.931,2.45,6.183,2.973,10.416,3.1,15.076.6,18.531" transform="translate(2.059 10.153)" fill="none" stroke="#603b42" stroke-linecap="round" stroke-miterlimit="10" stroke-width="0.5"/>
        <path id="Path_2859" data-name="Path 2859" d="M0,0C2.76,2.132,5.677,4.336,9.122,4.882a2.649,2.649,0,0,0,1.328-.047" transform="translate(9.675 0)" fill="none" stroke="#603b42" stroke-linecap="round" stroke-miterlimit="10" stroke-width="0.5"/>
        <path id="Path_2860" data-name="Path 2860" d="M0,10.069A17.133,17.133,0,0,0,7.642,0" transform="translate(3.456 1.356)" fill="none" stroke="#603b42" stroke-linecap="round" stroke-miterlimit="10" stroke-width="0.5"/>
      </g>
      <path id="Path_2863" data-name="Path 2863" d="M626.44,318.769a50.243,50.243,0,0,1,8.323-5.109,16.876,16.876,0,0,1,9.519-1.548,1.775,1.775,0,0,1,1.136.513,1.842,1.842,0,0,1,.237,1.314,10.018,10.018,0,0,1-2.607,6.447c-2.875,3.416-6.005,6.867-10.158,8.509" transform="translate(895.241 1326.131)" fill="none" stroke="#cecece" stroke-linecap="round" stroke-miterlimit="10" stroke-width="0.5" style="mix-blend-mode: multiply;isolation: isolate"/>
      <path id="Path_16765" data-name="Path 16765" d="M779.955,10906.146a54.728,54.728,0,0,1,6.983,10.347c2.717,5.5,2.533,7.91,3.887,11.661" transform="translate(750.944 -9238.042)" fill="none" stroke="#75bbaa" stroke-width="0.3"/>
      <g id="Group_19087" data-name="Group 19087" transform="translate(-164.614 -60.644)">
        <path id="Path_17117" data-name="Path 17117" d="M115.731,41.892a17.892,17.892,0,0,1-5.241,12.653L36.736,127.728a17.893,17.893,0,1,1-25.305-25.305L85.185,29.239a17.893,17.893,0,0,1,30.546,12.653Z" transform="matrix(0.574, 0.819, -0.819, 0.574, 1723.052, 1693.891)" fill="#adebee"/>
        <path id="Path_17118" data-name="Path 17118" d="M272.341,41.892A17.892,17.892,0,0,1,267.1,54.545l-47.9,47.9C231,84.41,238.6,61.75,235.753,35.281l6.042-6.042a17.893,17.893,0,0,1,30.546,12.653Z" transform="matrix(0.574, 0.819, -0.819, 0.574, 1633.224, 1565.604)" fill="#26bfb8"/>
        <rect id="Rectangle_2673" data-name="Rectangle 2673" width="15.657" height="6.71" rx="3.355" transform="translate(1731.935 1777.613) rotate(10)" fill="#f35244"/>
        <path id="Path_17119" data-name="Path 17119" d="M0,0H6.71V22.367H0Z" transform="translate(1735.173 1784.997) rotate(10)" fill="#fff"/>
        <rect id="Rectangle_2674" data-name="Rectangle 2674" width="15.657" height="6.71" rx="3.355" transform="translate(1726.883 1806.244) rotate(10)" fill="#f35244"/>
        <path id="Path_17120" data-name="Path 17120" d="M311.99,132.686l9.489,9.489-5.767,3.845a5.457,5.457,0,0,1-7.567-7.567Z" transform="matrix(0.574, 0.819, -0.819, 0.574, 1664.146, 1457.733)" fill="#fff"/>
        <path id="Path_17121" data-name="Path 17121" d="M325.685,169.432a2.372,2.372,0,1,1,2.372-2.372A2.372,2.372,0,0,1,325.685,169.432Z" transform="matrix(0.574, 0.819, -0.819, 0.574, 1677.775, 1432.437)" fill="#121212"/>
        <rect id="Rectangle_2675" data-name="Rectangle 2675" width="15.657" height="6.71" rx="3.355" transform="translate(1643.215 1791.364) rotate(10)" fill="#f35244"/>
        <path id="Path_17122" data-name="Path 17122" d="M0,0H6.71V22.367H0Z" transform="translate(1651.505 1770.116) rotate(10)" fill="#fff"/>
        <rect id="Rectangle_2676" data-name="Rectangle 2676" width="15.657" height="6.71" rx="3.355" transform="translate(1648.267 1762.732) rotate(10)" fill="#f35244"/>
        <path id="Path_17123" data-name="Path 17123" d="M140.8,322.852l-9.489-9.489,5.767-3.845a5.456,5.456,0,0,1,7.567,7.567Z" transform="matrix(0.574, 0.819, -0.819, 0.574, 1838.712, 1488.394)" fill="#fff"/>
        <path id="Path_17124" data-name="Path 17124" d="M165.685,329.431a2.372,2.372,0,1,1,2.372-2.372A2.372,2.372,0,0,1,165.685,329.431Z" transform="matrix(0.574, 0.819, -0.819, 0.574, 1834.557, 1459.961)" fill="#121212"/>
      </g>
      <path id="Path_17129" data-name="Path 17129" d="M5,8.333A8.077,8.077,0,0,0,3.352,9.659a7.774,7.774,0,0,0-.97,2.765,3.19,3.19,0,0,1-.672,1.337A16.633,16.633,0,0,0,.272,14.979a.94.94,0,0,0-.262.726.821.821,0,0,0,.527.537,2.359,2.359,0,0,0,1.5.058C4,15.786,5.2,13.761,6.691,12.543c-.56.457-.527,1.891-.532,2.523A24.975,24.975,0,0,1,5.822,18.3c-.3,2.113-.726,4.2-1.15,6.3a9.713,9.713,0,0,0-.351,2.176,1.186,1.186,0,0,0,.328.942c.422.318,1.038-.2,1.3-.53a4.544,4.544,0,0,0,.686-1.516q.924-2.968,1.848-5.932c-.223,3.043-1.537,5.9-2.022,8.916A2.623,2.623,0,0,0,6.5,30.013a1,1,0,0,0,1.068.677,1.393,1.393,0,0,0,.813-.815C9.8,27.11,9.774,23.826,10.825,20.9c.078-.216.222-.471.45-.454.5.038-1.055,7.642-.759,8.336.178.414.539.825.986.78a.883.883,0,0,0,.632-.448,2.594,2.594,0,0,0,.265-.755c.324-1.368.625-2.743.872-4.128.243-1.361.3-2.778.585-4.125.05-.235.366-.956.291-1.165l.921,4.269a3.107,3.107,0,0,0,.4,1.117,1.056,1.056,0,0,0,1.012.5c.918-.178.794-1.125.731-1.785-.1-1.071-.2-2.118-.356-3.188-.2-1.4.1-2.891-.2-4.247-.344-1.567-.916-3.111-1.108-4.709A59.69,59.69,0,0,1,14.886.517a.508.508,0,0,0-.126-.454.492.492,0,0,0-.3-.063A25.911,25.911,0,0,0,8.237,1.223c-1.7.44-.8,2.219-1.05,3.523A5.959,5.959,0,0,1,5,8.333Z" transform="translate(1525.361 1718.311) rotate(48)" fill="#f79c6d"/>
      <path id="Path_17130" data-name="Path 17130" d="M695.379,11749.841c7.052.85,41.344,10.459,44.106,22.89s-23.2,39.694-25.69,39.694-10.221-.886-10.221-3.344,17.679-32.9,16.022-33.7-8.318-6.049-8.318-6.049S688.327,11748.991,695.379,11749.841Z" transform="matrix(0.966, 0.259, -0.259, 0.966, 3901.628, -9862.815)" fill="#7fccba"/>
      <path id="Path_17131" data-name="Path 17131" d="M10.051,15.579c-.925.331-3.666,1.631-4.515,1.049a3.137,3.137,0,0,1-.961-1.459A72.364,72.364,0,0,0,0,6.07c1.731-.649,3.718-.8,5.48-1.438A55.087,55.087,0,0,0,15.153,0c-.661.366,5.44,10.167,3.526,11.639-1.052.81-2.652.858-3.821,1.645A21.68,21.68,0,0,1,10.051,15.579Z" transform="matrix(0.719, 0.695, -0.695, 0.719, 1466.382, 1871.436)" fill="#f79c6d"/>
      <path id="Path_17132" data-name="Path 17132" d="M34.771,17.639a3.485,3.485,0,0,0-.11-4.423c-1.494-2.151-4.128-3.1-5.5-5.412-1.145-1.931-1.741-4.233-3.13-6.033-.22-.284-2.354-2.163-2.554-1.7-.6,1.411.462,3.133-.159,4.538-.548,1.242-2.1,1.609-3.446,1.82l-5.54.869a1.417,1.417,0,0,0-.7.241,1.432,1.432,0,0,0-.393.865q-.246,1.214-.492,2.43a1.084,1.084,0,0,1-.223.548,1.343,1.343,0,0,1-.787.267A3.843,3.843,0,0,0,9.066,14,14.959,14.959,0,0,0,8.2,17.583a31.084,31.084,0,0,1-5.29,12.573c-1.05,1.474-3,2.874-2.9,4.831A5.942,5.942,0,0,0,2.11,38.649a1.676,1.676,0,0,0,.588.42c1.328.473,2.731-.424,3.748-1.111,1.514-1.022,3.2-1.83,4.751-2.8,4.053-2.537,7.642-5.562,11.48-8.371q2.8-2.049,5.486-4.254C29.792,21.191,33.257,19.725,34.771,17.639Z" transform="matrix(0.719, 0.695, -0.695, 0.719, 1458.362, 1868.334)" fill="#765056"/>
      <g id="Group_19088" data-name="Group 19088" transform="matrix(0.719, 0.695, -0.695, 0.719, 1455.037, 1873.161)">
        <path id="Path_2853" data-name="Path 2853" d="M0,23.668A30.61,30.61,0,0,0,8.71,19.5,144.281,144.281,0,0,0,26.995,5.979,22.206,22.206,0,0,0,32.248,0" transform="translate(0 6.618)" fill="none" stroke="#603b42" stroke-linecap="round" stroke-miterlimit="10" stroke-width="0.5"/>
        <path id="Path_2854" data-name="Path 2854" d="M6.552,0c1.007,2.034.5,4.461-.108,6.649C5.3,10.758,3.636,15.113,0,17.344" transform="translate(5.573 6.457)" fill="none" stroke="#603b42" stroke-linecap="round" stroke-miterlimit="10" stroke-width="0.5"/>
        <path id="Path_2855" data-name="Path 2855" d="M0,0C1.731,3.029,3.58,6.182,6.553,8.007A2.64,2.64,0,0,0,7.8,8.473" transform="translate(23.052 0)" fill="none" stroke="#603b42" stroke-linecap="round" stroke-miterlimit="10" stroke-width="0.5"/>
        <path id="Path_2856" data-name="Path 2856" d="M0,6.368A17.132,17.132,0,0,0,10.917,0" transform="translate(12.929 1.799)" fill="none" stroke="#603b42" stroke-linecap="round" stroke-miterlimit="10" stroke-width="0.5"/>
      </g>
    </g>
  </g>
</svg>
