<svg xmlns="http://www.w3.org/2000/svg" width="412.972" height="469.801" viewBox="0 0 412.972 469.801">
  <g id="Group_19079" data-name="Group 19079" transform="translate(-816.866 -971.015)">
    <g id="Group_19057" data-name="Group 19057" transform="translate(294.761 17.412)">
      <path id="Path_16978" data-name="Path 16978" d="M54.91,5.719c18.965,0,18.973,25.5,18.973,42.912S38.956,64.9,19.991,64.9,6.924,42.117,6.924,24.7,35.945,5.719,54.91,5.719Z" transform="translate(516.047 989.863)" fill="#feb426"/>
    </g>
    <g id="Group_19073" data-name="Group 19073" transform="translate(-148.342 7.973)">
      <path id="Path_16968" data-name="Path 16968" d="M745.077,11195.163c-1.711-.277-8.236-1.271-12.681,3.188s-6.309,27.11-8.992,34.5-14.824,26.88-16.341,31.979,2.238,7.556,5.816,4.149,22.943-31.18,22.943-31.18,7.6-32.176,7.825-34.393S746.787,11195.44,745.077,11195.163Z" transform="translate(339.631 -10056.756)" fill="#fcb89a"/>
      <g id="Group_13712" data-name="Group 13712" transform="translate(1068.262 1062.75)">
        <path id="Path_2456" data-name="Path 2456" d="M694.867,234.043a6.079,6.079,0,0,0-3.924-1.053c-3.334.143-6.67,1.925-9.3,3.87-3.815,2.818-4.8,7.911-9.5,10.045-3.825,1.736-12.528,2.13-13.35,7-.939,5.57.532,12.621,1.888,18.02,5.114,20.321,20.751,33.959,35.805,47.365,2.731,2.431,5.814,4.994,9.471,5.023,2.364.019,4.588-1.042,6.674-2.151q3.789-2.015,7.406-4.335a2.578,2.578,0,0,0,1.243-1.326,2.613,2.613,0,0,0-.292-1.651q-1.415-3.375-2.828-6.751,1.96,1.418,3.918,2.839a2.735,2.735,0,0,0,1.542.68,2.906,2.906,0,0,0,1.5-.638,18.308,18.308,0,0,1,9.57-3.226c3.189,0,5.127-.673,6.579-3.933,2.692-6.05.147-13.265-3.937-18.474a34.742,34.742,0,0,0-8.495-7.745c-3.471-2.238-7.331-3.848-10.7-6.239a35.609,35.609,0,0,1-10.921-13.373c-3.141-6.318-4.357-13.019-8.323-18.907C697.565,237.124,696.506,235.191,694.867,234.043Z" transform="translate(-647.501 -208.524)" fill="#222e46"/>
        <g id="Group_13708" data-name="Group 13708" transform="translate(8.582 187.92)">
          <path id="Path_2457" data-name="Path 2457" d="M693.328,463.289a104.577,104.577,0,0,1,.686-22.125c.365-2.911.6-5.769.727-8.607.348-7.4.037-14.662-.236-22.3-.29-8.087-1.177-16.253-3.692-23.978-.245-.75-.516-1.685-.827-2.675.375-1.867.765-3.73,1.1-5.6a282.244,282.244,0,0,0,3.7-29.58c.388-5.391,2.333-14.121.52-19.272-1.245-3.533-7.708-6.9-10.961-8.321a46.117,46.117,0,0,0-13.584-3.137c-3.947-.423-8.487-.025-10.994,3.052-4.583,5.624-1.753,16.987-.56,23.319q3.044,16.189,6.088,32.376a20.257,20.257,0,0,0,4.173,9.059c1.32,17.121,5.045,34,8.122,50.873a274.789,274.789,0,0,1,4.235,31.24c.475,7.248,1.314,17.036-3.707,22.973a39.966,39.966,0,0,1,10.364-5.207c1.641-.545,6.139-1.581,6.7-3.5.485-2.518-.3-5.619-.454-8.207C694.517,470.2,693.631,466.77,693.328,463.289Z" transform="translate(-657.248 -317.554)" fill="#f99c78"/>
          <path id="Path_2458" data-name="Path 2458" d="M693.852,416.56a2.088,2.088,0,0,0,.006-.333c-.135-3.464-.269-6.929-.62-10.379a11.289,11.289,0,0,0-1.527-5.323c-1.529.536-3.446,1.028-4.56,2.306a8.072,8.072,0,0,0-.993,1.786,9.487,9.487,0,0,1-3.96,4.233c-1.481.783-3.3.76-4.7,1.685-1.243.823-2.366,1.743-3.7,2.457a76.373,76.373,0,0,1-10.273,4.561,5.343,5.343,0,0,0-2.337,1.311,2.451,2.451,0,0,0-.425,2.75,2.3,2.3,0,0,0,2.229.7c2.9-.186,5.731-.607,8.638-.812,4.5-.317,9.036-.852,13.522-1.569a5.225,5.225,0,0,0,1.917-1.1,3.207,3.207,0,0,0,.651-1.2,43.137,43.137,0,0,0,1.6-5.394,7.753,7.753,0,0,1,.947,2.341c.226.968.344,1.925.56,2.893a.474.474,0,0,0,.785.356l1.535-.576a1.126,1.126,0,0,0,.617-.408A.71.71,0,0,0,693.852,416.56Z" transform="translate(-654.214 -240.158)" fill="#0f4573"/>
        </g>
        <g id="Group_13709" data-name="Group 13709" transform="translate(1.104 185.016)">
          <path id="Path_2459" data-name="Path 2459" d="M761.151,418.354c-1.869-1.755-4.906-2.75-7.179-4-3.052-1.678-6.423-2.762-9.529-4.362A104.8,104.8,0,0,1,726.1,397.6c-2.263-1.863-4.558-3.583-6.887-5.213-6.075-4.246-12.378-7.861-18.978-11.707a94.62,94.62,0,0,0-18.644-8.64q3.728-9.663,6.755-19.577c1.569-5.174,5.4-13.257,4.766-18.681-.433-3.723-5.992-8.433-8.848-10.54a46.14,46.14,0,0,0-12.556-6.061c-3.755-1.285-8.27-1.9-11.4.545-5.713,4.473-5.466,16.18-5.7,22.618q-.609,16.462-1.22,32.923c-.176,4.789,1.3,10.255,4.892,13.62a9.566,9.566,0,0,0,4,2.25c2.907,1.716,6.355,3,8.16,3.885,6.752,3.324,14.04,5.294,21.151,7.666,7.339,2.449,14.523,5.346,21.692,8.236a274.645,274.645,0,0,1,28.675,13.1c6.382,3.469,15.1,7.986,17.442,15.4a39.93,39.93,0,0,1,1.133-11.545C760.95,424.208,762.475,419.852,761.151,418.354Z" transform="translate(-653.379 -316.052)" fill="#fcb89a"/>
          <path id="Path_2460" data-name="Path 2460" d="M722.131,375.7a15.441,15.441,0,0,0-3.191-2.652,54.141,54.141,0,0,0-6.224-3.914c-1.33-.659-3.423-1.952-4.672-1.115a2.711,2.711,0,0,0-.907,1.83q-.252,1.264-.443,2.548a4.437,4.437,0,0,0,.019,1.925,7.97,7.97,0,0,0,.976,1.8,9.488,9.488,0,0,1,1.442,5.634c-.137,1.681-1.141,3.222-1.111,4.909.025,1.5.2,2.948.081,4.463a76.862,76.862,0,0,1-1.685,11.191,5.417,5.417,0,0,0-.153,2.692,2.433,2.433,0,0,0,2.1,1.828c.891-.021,1.4-.812,1.8-1.527,1.405-2.569,2.578-5.211,3.974-7.8,2.163-4.011,4.158-8.16,5.97-12.366a5.3,5.3,0,0,0,.1-2.223,3.181,3.181,0,0,0-.659-1.194,43.13,43.13,0,0,0-3.7-4.241,7.753,7.753,0,0,1,2.491.441c1.444.5,4.519,1.7,4.453-.752A2.583,2.583,0,0,0,722.131,375.7Z" transform="translate(-604.156 -267.831)" fill="#0f4573"/>
        </g>
        <path id="Path_2461" data-name="Path 2461" d="M685.407,262.131a12.147,12.147,0,0,0,4.125,6.421,16.778,16.778,0,0,0,3.852,1.962c1.591.646,2.275.794,2.145,2.59-.164,2.261-.068,4.185-1.073,6.3a28.545,28.545,0,0,1-9.691,10.75,12.613,12.613,0,0,1-9.332,2.155,15.471,15.471,0,0,1-6.162-3.164,36.252,36.252,0,0,1-8.1-8.746c-1.218-1.852-2.345-2.754-.618-4.107,1.666-1.3,3.993-1.411,5.655-3.065,2.42-2.4,3.373-5.982,3.3-9.393-.062-2.727-1.507-5.5-1.494-8.114.014-2.085,1.144-2.605,3.007-3.585,2.165-1.137,4.627-1.738,6.718-3.005,2.412-1.465,3.232-3.947,4.906-6-.325.4.28,2.944.336,3.508q.186,1.89.4,3.775.432,3.772,1.073,7.507A33.963,33.963,0,0,0,685.407,262.131Z" transform="translate(-646.408 -199.064)" fill="#f99c78"/>
        <path id="Path_2462" data-name="Path 2462" d="M674.669,226.364c-6.075-.325-12.065.317-14.662,6.39-2.828,6.614-3.462,14.038-3.2,21.141.251,6.773,1,13.808,5.682,19.23,9.075,10.5,22.958-3.212,26.271-11.821,3.858-10.024,4.975-28.24-7.609-33.635A18.956,18.956,0,0,0,674.669,226.364Z" transform="translate(-649.127 -214.761)" fill="#fcb89a"/>
        <path id="Path_2463" data-name="Path 2463" d="M677.83,238.63c5.25-1.552,3.757,13.34-3.307,13.275a1.815,1.815,0,0,1-1.823-1.4,2.743,2.743,0,0,1,.073-.875c.7-3.6.437-8.34,4-10.515A4.454,4.454,0,0,1,677.83,238.63Z" transform="translate(-634.264 -203.362)" fill="#fcb89a"/>
        <g id="Group_13711" data-name="Group 13711" transform="translate(7.843 27.093)">
          <g id="Group_13710" data-name="Group 13710">
            <path id="Path_2464" data-name="Path 2464" d="M671.388,238.184a4.556,4.556,0,0,0-1.165-1.517c-1.086-.947-3.659-2.642-5.18-1.942a2.362,2.362,0,0,0-.87.87c-1.374,1.968,1.8,1.138,2.8,1.3a8.574,8.574,0,0,1,4.049,1.815c.176.128.406.259.6.155A3.351,3.351,0,0,0,671.388,238.184Z" transform="translate(-650.366 -234.145)" fill="#222e46"/>
            <path id="Path_2465" data-name="Path 2465" d="M656.868,235.893a.3.3,0,0,1,.054-.2,1.469,1.469,0,0,1,.816-.543,13.436,13.436,0,0,1,4.173-.8,3.148,3.148,0,0,1,1.017.095,1.253,1.253,0,0,1,.781.619c.224.474.224,1.4-.408,1.473-1.09.126-2.008-.439-3.054-.448-1-.01-2.008.122-3.011.027C657.083,236.1,656.9,236.046,656.868,235.893Z" transform="translate(-656.866 -234.345)" fill="#222e46"/>
          </g>
          <path id="Path_2466" data-name="Path 2466" d="M659.677,244.332c-.348-1.1.74-2.205,1.685-3.05a3.31,3.31,0,0,0-.3,2.625,4.758,4.758,0,0,0,1.747,2.136c-.2-.131-.945-.044-1.227-.128a3.518,3.518,0,0,1-1.264-.686A1.99,1.99,0,0,1,659.677,244.332Z" transform="translate(-654.305 -227.874)" fill="#222e46"/>
          <path id="Path_2467" data-name="Path 2467" d="M665.814,251.182c-2.77.075-5.481-1.707-5.263-4.749a13.17,13.17,0,0,0,10.257-2.292C670.942,247.17,669.291,251.089,665.814,251.182Z" transform="translate(-653.439 -225.207)" fill="#fae0d2"/>
          <path id="Path_2468" data-name="Path 2468" d="M663.826,240.708a3.423,3.423,0,0,1,2.7-2.571,3.46,3.46,0,0,1,2.642.671,1.115,1.115,0,0,1,.377.441" transform="translate(-650.373 -230.847)" fill="none" stroke="#222e46" stroke-linecap="round" stroke-linejoin="round" stroke-width="0.572"/>
          <path id="Path_2469" data-name="Path 2469" d="M661.82,240.624c.016-1.15-.715-2.839-1.838-3.036a3.115,3.115,0,0,0-2.973,1.405" transform="translate(-656.732 -231.351)" fill="none" stroke="#222e46" stroke-linecap="round" stroke-linejoin="round" stroke-width="0.572"/>
        </g>
        <path id="Path_2470" data-name="Path 2470" d="M685.022,252.161c.711,1.815,1.883,4.045,3.609,4.387,2.2.433,2.988-2.919,5.452-1.6a5.5,5.5,0,0,1,2.3,3.042c1.123,2.936.5,5.644,1.141,8.69a2.27,2.27,0,0,0,.841,1.564,1.98,1.98,0,0,0,1.094.22c4.569-.1,7.25-4.876,6.077-8.868-.762-2.582-.887-5.282-1.531-7.905a82.063,82.063,0,0,0-2.7-8.444,44.266,44.266,0,0,0-4.455-9.647,15.777,15.777,0,0,0-8.141-6.546,6.657,6.657,0,0,1-1.554-.584,13.716,13.716,0,0,1-1.277-1.075,7.35,7.35,0,0,0-4.824-1.16,27.346,27.346,0,0,0-18,7.1,22.714,22.714,0,0,0-7.24,17.726c.11,1.635.56,3.471,1.995,4.266-.46-4.13,3.029-6.684,6.359-8.371,2.391-1.214,5.058-1.772,7.528-2.816,3.858-1.633,7.117-4.391,10.273-7.148a51.087,51.087,0,0,0,2.578,15.826C684.668,251.2,684.829,251.666,685.022,252.161Z" transform="translate(-650.051 -216.684)" fill="#222e46"/>
        <path id="Path_2471" data-name="Path 2471" d="M656.8,234.613" transform="translate(-649.081 -207.003)" fill="none" stroke="#222e46" stroke-miterlimit="10" stroke-width="0.706"/>
        <path id="Path_2472" data-name="Path 2472" d="M728.142,410.512c-2.924-17.585-5.512-35.235-9.073-52.69-1.048-5.139-2.18-10.263-3.431-15.364-.387-1.579-3.862-11.346-4.813-15.706a15.624,15.624,0,0,0-.224-1.813.494.494,0,0,1,.075-.257c-.039.037-.071.073-.108.11-.071-.377-.149-.756-.25-1.154-2.657-10.464-3.289-21.837-3.628-32.6a118.363,118.363,0,0,1,.663-16.425c.188-3.411,1.749-6.956,1.135-10.41a11.192,11.192,0,0,1-.512-3.251c.085-.848,1.7-4.113.723-4.641a1.008,1.008,0,0,0-.6-.054q-3.581.412-7.156.878c-2.354.305-2.911.263-4.132,2.364-2.057,3.537-4.028,7.194-6.813,10.226-4.214,4.589-11.756,5.746-16.543,1.2a12.8,12.8,0,0,1-3.742-8.576c-5.184,1.212-6.572,7.128-9.144,11.125-2.557,3.976-5.213,7.969-6.639,12.517-2.946,9.382.823,16,3.908,24.417a51.7,51.7,0,0,1,2.008,28.605c.02-.091.112-.164.238-.23-.792,2.08-.593,5.253-1.019,7.35-.616,3.05-1.233,6.1-1.732,9.179-1.018,6.3-1.8,12.639-2.486,18.986a353.63,353.63,0,0,0-1.38,59.6c12.921-10.225,29.037-9.778,44.325-12.706,4.457-.852,8.746-3.007,13.273-3.355C717.8,417.325,730.016,421.78,728.142,410.512Z" transform="translate(-652.808 -186.83)" fill="#ec545a"/>
        <path id="Path_2473" data-name="Path 2473" d="M669.922,410.423" transform="translate(-636.843 -43.006)" fill="none" stroke="#6fb7b6" stroke-miterlimit="10" stroke-width="0.763"/>
        <path id="Path_2474" data-name="Path 2474" d="M683.782,220.537c3.158.812,4.942,3.792,5.729,6.745.924,3.481.885,6.013-2.151,8.568a15.986,15.986,0,0,1-6.32,2.986c-4.455,1.169-7.615-.472-9.676-4.629-1.022-2.06-1.766-4.7-.514-6.771C673.185,223.591,679.066,219.327,683.782,220.537Z" transform="translate(-636.59 -220.328)" fill="#222e46"/>
        <path id="Path_2476" data-name="Path 2476" d="M654.907,352.393c2.184-3.413,6.032-5.468,9.971-6.415s8.037-.928,12.086-1.055c16.017-.506,32.518-3.678,45.562-12.987" transform="translate(-650.849 -116.219)" fill="none" stroke="#cecece" stroke-linecap="round" stroke-linejoin="round" stroke-width="0.5" style="mix-blend-mode: multiply;isolation: isolate"/>
      </g>
      <g id="Group_18971" data-name="Group 18971" transform="translate(1083.277 1178.465)">
        <rect id="Rectangle_2606" data-name="Rectangle 2606" width="80" height="44" rx="8" transform="translate(0.131 0.189)" fill="#d6d6d6"/>
        <g id="Rectangle_2607" data-name="Rectangle 2607" transform="translate(1.131 1.189)" fill="#2ee6dc" stroke="rgba(18,18,18,0.37)" stroke-width="1">
          <rect width="79" height="42" rx="8" stroke="none"/>
          <rect x="0.5" y="0.5" width="78" height="41" rx="7.5" fill="none"/>
        </g>
      </g>
      <path id="Path_16965" data-name="Path 16965" d="M775.225,11190.079c2.776-.528,9.093,6.391,10.722,10.885s14.993,36.592,14.993,40.336,1.186,5.254,0,7.016-13.879,24.238-17.62,27.027-7.433-3.348-4.12-8,8.8-18.257,9.291-22.135-15.066-40.887-15.066-40.887S772.448,11190.607,775.225,11190.079Z" transform="translate(349.208 -10057.572)" fill="#fcb89a"/>
      <path id="Path_16966" data-name="Path 16966" d="M.338,21.915c.031-.041.073-.082.106-.124,1.049-2.3,1.871-4.715,2.69-7.084.511-1.484.667-3.083,1.031-4.6.315-1.318,1.21-2.5,1.629-3.815.32-1,.678-1.966,1.045-2.95.226-.606.521-1.489,1.4-1.254a1.03,1.03,0,0,1,.676.866A3.039,3.039,0,0,1,8.789,4.1q-.5,2.071-1.01,4.14c.024-.214.609-.712.754-.9C9.359,6.28,10.01,5.06,10.8,3.967c.805-1.11,1.654-2.189,2.523-3.253a2.563,2.563,0,0,1,.553-.55A.856.856,0,0,1,14.624.04a1.067,1.067,0,0,1,.533,1.1c-.034.737-4.633,6.751-4.215,7,.194.112.429-.051.589-.208C13.7,5.81,15.07,2.917,17.492,1.092A1.361,1.361,0,0,1,18.553.723a.977.977,0,0,1,.65,1.049,2.563,2.563,0,0,1-.543,1.212c-1.709,2.439-4.079,4.39-5.571,6.967l4.146-4.421a4.4,4.4,0,0,1,1.249-1.038c.371-.179,1.132-.371,1.368.088a1.16,1.16,0,0,1-.114.965,9.541,9.541,0,0,1-1.234,1.762c-1.263,1.655-2.528,3.309-3.689,5.035a24.242,24.242,0,0,0-1.675,2.7c-.273.551-.855,1.823-1.541,1.986,1.826-.434,3.745-1.7,5.68-1.317a2.307,2.307,0,0,1,1.3.689.8.8,0,0,1,.233.7.91.91,0,0,1-.538.528,16.873,16.873,0,0,1-1.78.456,3.13,3.13,0,0,0-1.159.887A7.593,7.593,0,0,1,13.3,20.982a7.961,7.961,0,0,1-2.012.463,5.806,5.806,0,0,0-3.445,2.218C7.427,24.223-1.867,25,.338,21.915Z" transform="translate(1129.276 1235.432) rotate(-163)" fill="#fcb89a"/>
      <path id="Path_16967" data-name="Path 16967" d="M10.18,23.95A5.752,5.752,0,0,0,7,21.432a7.754,7.754,0,0,1-1.937-.649A7.49,7.49,0,0,1,3.254,18.6,3.079,3.079,0,0,0,2.2,17.618,16.329,16.329,0,0,1,.486,17a.9.9,0,0,1-.48-.57.792.792,0,0,1,.3-.664,2.279,2.279,0,0,1,1.343-.555c1.945-.194,3.713,1.239,5.471,1.844-.661-.227-1.111-1.537-1.326-2.107A24.058,24.058,0,0,0,4.4,12.126c-.979-1.815-2.066-3.566-3.152-5.317A9.441,9.441,0,0,1,.2,4.954a1.154,1.154,0,0,1-.018-.964c.278-.428,1.008-.165,1.357.045A4.367,4.367,0,0,1,2.669,5.179Q4.5,7.555,6.331,9.933C5.109,7.25,2.961,5.1,1.511,2.533a2.5,2.5,0,0,1-.418-1.245.965.965,0,0,1,.74-.971A1.348,1.348,0,0,1,2.843.782C5.056,2.812,6.129,5.8,8.06,8.094c.143.17.359.352.561.26.435-.2-3.519-6.568-3.483-7.3C5.16.623,5.35.128,5.77.02a.858.858,0,0,1,.723.194,2.51,2.51,0,0,1,.492.6C7.74,1.939,8.471,3.085,9.159,4.257c.676,1.153,1.2,2.418,1.913,3.541.125.2.654.743.656.957q-.3-2.088-.6-4.176a2.94,2.94,0,0,1-.015-1.144,1.019,1.019,0,0,1,.748-.789c.891-.147,1.1.753,1.262,1.372.266,1,.528,1.985.745,3.007.287,1.336,1.057,2.587,1.24,3.915.214,1.534.214,3.125.576,4.636.509,2.129,1.763,6.435,1.785,6.456C19.392,24.061,10.617,24.668,10.18,23.95Z" transform="translate(1038.605 1233.841) rotate(-124)" fill="#fcb89a"/>
    </g>
    <g id="Group_19035" data-name="Group 19035" transform="matrix(0.866, 0.5, -0.5, 0.866, -1094.433, -678.784)">
      <path id="Path_16986" data-name="Path 16986" d="M2662.564,445.268c13.889-4.3,26.124,10.633,19.222,23.5a10.945,10.945,0,0,0-.976,7.569l1.976,8.806a4.771,4.771,0,0,1-3.243,5.6l-5.262,1.631a4.771,4.771,0,0,1-5.842-2.786c-3.37-8.426-4-11.778-8.436-14.071C2647.035,468.812,2648.671,449.573,2662.564,445.268Z" transform="translate(-30.398 -32.283)" fill="#feb426"/>
      <g id="Group_19028" data-name="Group 19028" transform="translate(2627.11 423.817)">
        <path id="Path_16987" data-name="Path 16987" d="M2687.7,498.768c-2.469-6.9-4.922-14.587-5.745-17.491a22.053,22.053,0,0,1-7.907,1.485c2.325,5.615,4.525,11.341,6.551,17.052l-.739.262c-2.058-5.805-4.3-11.626-6.666-17.328-1.647-.061-3.584-.22-4.76-1.341a2.877,2.877,0,0,1-.865-2.09c.047-2.036,2.365-2.633,3.912-1.341,1.024.855,1.5,2.234,2.241,4a21.254,21.254,0,0,0,8.029-1.462,7.186,7.186,0,0,1,0-4.315c1.819-4.85,8.491,1.506.932,4.778.638,2.275,3.124,10.178,5.754,17.526Zm-5.216-22.292a6.369,6.369,0,0,0,0,3.737c1.635-.726,2.575-1.583,2.877-2.614C2685.868,475.868,2683.465,473.865,2682.486,476.476Zm-13.721,1.9a1.774,1.774,0,0,0,.21,2.463c.943.9,2.539,1.036,3.888,1.109a8.708,8.708,0,0,0-1.881-3.373A3.173,3.173,0,0,0,2668.766,478.378Z" transform="translate(-2667.571 -474.439)" fill="#fae0b2"/>
      </g>
      <path id="Path_16988" data-name="Path 16988" d="M2702.677,526.132c.015.074.023.148.04.222l1.975,8.806a4.771,4.771,0,0,1-3.243,5.6l-5.261,1.631a4.771,4.771,0,0,1-5.842-2.786c-1.5-3.748-2.456-6.491-3.448-8.584Z" transform="translate(-52.304 -82.299)" fill="#2bdad1"/>
      <g id="Group_19029" data-name="Group 19029" transform="translate(2635.624 391.83)">
        <path id="Path_16989" data-name="Path 16989" d="M2692.689,402.377l.335-8.924a1.565,1.565,0,0,0-3.128-.117l-.335,8.924a1.565,1.565,0,0,0,3.128.117Z" transform="translate(-2689.56 -391.83)" fill="#feb426"/>
      </g>
      <g id="Group_19030" data-name="Group 19030" transform="translate(2653.23 407.315)">
        <path id="Path_16990" data-name="Path 16990" d="M2737.413,439.634l8-4.914a1.565,1.565,0,0,0-1.638-2.667l-8,4.914a1.565,1.565,0,0,0,1.639,2.667Z" transform="translate(-2735.029 -431.821)" fill="#feb426"/>
      </g>
      <g id="Group_19031" data-name="Group 19031" transform="translate(2664.507 432.519)">
        <path id="Path_16991" data-name="Path 16991" d="M2776.377,501.019a1.565,1.565,0,0,0-1-1.974,51.154,51.154,0,0,0-9.464-2.122,1.565,1.565,0,0,0-.391,3.105,48.018,48.018,0,0,1,8.882,1.991A1.565,1.565,0,0,0,2776.377,501.019Z" transform="translate(-2764.152 -496.912)" fill="#feb426"/>
      </g>
      <g id="Group_19032" data-name="Group 19032" transform="translate(2607.945 399.326)">
        <path id="Path_16992" data-name="Path 16992" d="M2628.027,424.2a1.565,1.565,0,0,0,.135-2.209A59.47,59.47,0,0,1,2621,411.98a1.565,1.565,0,0,0-2.72,1.548,62.678,62.678,0,0,0,7.537,10.533A1.565,1.565,0,0,0,2628.027,424.2Z" transform="translate(-2618.076 -411.188)" fill="#feb426"/>
      </g>
      <g id="Group_19033" data-name="Group 19033" transform="translate(2601.543 426.094)">
        <path id="Path_16993" data-name="Path 16993" d="M2614.658,481.619a1.566,1.566,0,0,0-1.809-1.276l-10.007,1.727a1.565,1.565,0,1,0,.532,3.085l10.007-1.727A1.566,1.566,0,0,0,2614.658,481.619Z" transform="translate(-2601.544 -480.32)" fill="#feb426"/>
      </g>
      <g id="Group_19034" data-name="Group 19034" transform="translate(2609.678 447.117)">
        <path id="Path_16994" data-name="Path 16994" d="M2624.817,545.173a1.548,1.548,0,0,0,.353-.242,49.06,49.06,0,0,0,6.963-7.845,1.565,1.565,0,0,0-2.55-1.816,45.972,45.972,0,0,1-6.518,7.345,1.565,1.565,0,0,0,1.752,2.558Z" transform="translate(-2622.553 -534.613)" fill="#feb426"/>
      </g>
    </g>
    <g id="Group_19053" data-name="Group 19053" transform="translate(-219.472 64.639)">
      <g id="Group_19051" data-name="Group 19051" transform="translate(545.109 -30.904)">
        <path id="Path_16978-2" data-name="Path 16978" d="M54.91,5.719c18.965,0,18.973,25.5,18.973,42.912S38.956,64.9,19.991,64.9,6.924,42.117,6.924,24.7,35.945,5.719,54.91,5.719Z" transform="translate(516.047 989.863)" fill="#2676ff"/>
      </g>
      <path id="Path_17061" data-name="Path 17061" d="M552.162,460.4a5.051,5.051,0,1,0,5.067-5.035A5.051,5.051,0,0,0,552.162,460.4Z" transform="translate(544.103 533.856)" fill="#fff"/>
      <path id="Path_17062" data-name="Path 17062" d="M483.335,460.188a5.051,5.051,0,1,0,5.067-5.035A5.051,5.051,0,0,0,483.335,460.188Z" transform="translate(596.342 534.021)" fill="#fff"/>
      <path id="Path_17063" data-name="Path 17063" d="M619.41,460.618a5.051,5.051,0,1,0,5.067-5.035A5.051,5.051,0,0,0,619.41,460.618Z" transform="translate(493.063 533.694)" fill="#fff"/>
    </g>
    <g id="Group_19056" data-name="Group 19056" transform="translate(-142.667 -720.967)">
      <g id="Group_19051-2" data-name="Group 19051" transform="translate(644.003 758.681)">
        <path id="Path_16978-3" data-name="Path 16978" d="M157.448,5.719c58.771,0,67.381,38.505,40.329,54.476S108.009,69.6,49.238,69.6-14.283,35.47,12.77,19.5,98.676,5.719,157.448,5.719Z" transform="translate(516.047 989.863)" fill="#112b46"/>
      </g>
      <g id="Group_19055" data-name="Group 19055" transform="translate(70.405 972.076)">
        <rect id="Rectangle_2656" data-name="Rectangle 2656" width="39.549" height="27.077" transform="translate(1114.719 804.542)" fill="#7abffa"/>
        <path id="Path_17059" data-name="Path 17059" d="M1114.732,854.287l19.771-15.141,19.777,15.133Z" transform="translate(-0.01 -22.664)" fill="#68b4f2"/>
        <path id="Path_17060" data-name="Path 17060" d="M1154.264,804.538l-19.771,16.871-19.778-16.864Z" fill="#a3d5ff"/>
      </g>
      <rect id="Rectangle_2657" data-name="Rectangle 2657" width="70.476" height="4.812" transform="translate(1246.985 1768.74)" fill="#fff"/>
      <rect id="Rectangle_2658" data-name="Rectangle 2658" width="98.254" height="4.812" transform="translate(1246.985 1790.441)" fill="#fff"/>
      <rect id="Rectangle_2659" data-name="Rectangle 2659" width="58.828" height="4.812" transform="translate(1246.985 1779.591)" fill="#fff"/>
      <rect id="Rectangle_2660" data-name="Rectangle 2660" width="40.19" height="4.812" transform="translate(1246.985 1801.293)" fill="#fff"/>
    </g>
  </g>
</svg>
