<svg xmlns="http://www.w3.org/2000/svg" xmlns:xlink="http://www.w3.org/1999/xlink" width="87.999" height="99.14" viewBox="0 0 87.999 99.14">
  <defs>
    <filter id="Union_3" x="0" y="0" width="87.999" height="99.14" filterUnits="userSpaceOnUse">
      <feOffset dy="2" input="SourceAlpha"/>
      <feGaussianBlur stdDeviation="3" result="blur"/>
      <feFlood flood-color="#0adae9"/>
      <feComposite operator="in" in2="blur"/>
      <feComposite in="SourceGraphic"/>
    </filter>
    <filter id="Path_14463" x="3.953" y="4.671" width="80" height="80" filterUnits="userSpaceOnUse">
      <feOffset dy="3" input="SourceAlpha"/>
      <feGaussianBlur stdDeviation="3" result="blur-2"/>
      <feFlood flood-opacity="0.161"/>
      <feComposite operator="in" in2="blur-2"/>
      <feComposite in="SourceGraphic"/>
    </filter>
  </defs>
  <g id="Group_16402" data-name="Group 16402" transform="translate(-9984.094 -2554.597)">
    <g id="Group_16400" data-name="Group 16400" transform="translate(85)">
      <g id="Group_16395" data-name="Group 16395" transform="translate(85)">
        <g id="Group_16391" data-name="Group 16391" transform="translate(89 2)">
          <g id="Group_16389" data-name="Group 16389" transform="translate(87)">
            <g id="Group_16386" data-name="Group 16386" transform="translate(186 -4)">
              <g id="Group_16381" data-name="Group 16381" transform="translate(13757.811 3656.458)">
                <g transform="matrix(1, 0, 0, 1, -4305.72, -1099.86)" filter="url(#Union_3)">
                  <path id="Union_3-2" data-name="Union 3" d="M34.713,81.12a1.464,1.464,0,0,1-1.053-.712l-6.966-11.4a35,35,0,1,1,16.483.031L36.292,80.377a1.507,1.507,0,0,1-.764.654,1.586,1.586,0,0,1-.572.107A1.559,1.559,0,0,1,34.713,81.12Z" transform="translate(9 7)" fill="#2b2b2b"/>
                </g>
                <g transform="matrix(1, 0, 0, 1, -4305.72, -1099.86)" filter="url(#Path_14463)">
                  <path id="Path_14463-2" data-name="Path 14463" d="M31,0A31,31,0,1,1,0,31,31,31,0,0,1,31,0Z" transform="translate(12.95 10.67)" fill="#0ec8ff"/>
                </g>
              </g>
            </g>
          </g>
        </g>
      </g>
    </g>
    <g id="Group_16401" data-name="Group 16401" transform="translate(10011.691 2575.503)">
      <path id="Path_1654" data-name="Path 1654" d="M-6062-9127.039l5.749-1.311,1.068.881-.375,1.151-6.013,1.867s.694-1.062.423-1.437S-6062-9127.039-6062-9127.039Z" transform="translate(6083.1 9129.045)" fill="#fff"/>
      <g id="Group_1832" data-name="Group 1832" transform="translate(0)">
        <path id="Path_1652" data-name="Path 1652" d="M-6421.6-9199.548l1.358,2.141h3.316l1.177-2.141-.925-2.956-.824-1.963h-2.744Z" transform="translate(6427.25 9206.514)" fill="#2b2b2b"/>
        <path id="Path_1653" data-name="Path 1653" d="M-6485.209-8960.369a7.063,7.063,0,0,1,1.232-.988,17.677,17.677,0,0,1,2.137-.3h1.1V-8960l.723.743h1.227l1.449-.743.16-2.008h2.886s1.8.915,1.979,1.366a6.221,6.221,0,0,1,.185,2.2c-.08.425-.1,1.812-.477,2.162s-.831.832-.35,1.471a7.29,7.29,0,0,1,.826,2l1.072,2.678-.372,1.279a5.323,5.323,0,0,1-.27,1.979c-.321.591-.373,2.679-3.691,3.288s-7.489,1.1-9.335-.556-2.832-4.6-2.378-5.618,1.789-4.653,1.9-5.055a8.725,8.725,0,0,0-.425-2.166l-.536-2.277Z" transform="translate(6487.599 8983.502)" fill="#fff"/>
        <g id="concert">
          <path id="Path_1647" data-name="Path 1647" d="M61.3,37.325h.671a2.056,2.056,0,1,0,0-4.113H53.872a2.056,2.056,0,1,0,0,4.113h.671l-.228,1.738a3.844,3.844,0,0,0-1.749-.418H50.944V27.027l1.089-1.81a1.612,1.612,0,0,0,.112-1.428l-1.611-3.978a.932.932,0,0,0-.867-.585H47.6a.931.931,0,0,0-.867.584l-1.611,3.978a1.612,1.612,0,0,0,.112,1.428l1.089,1.81V38.644H44.7a3.906,3.906,0,0,0-.7.064A.6.6,0,0,0,44.1,39.9a.62.62,0,0,0,.109-.01,2.7,2.7,0,0,1,.486-.044h1.622v1.116a1.6,1.6,0,0,0,1.6,1.6h1.42a1.6,1.6,0,0,0,1.6-1.6V39.848h1.621a2.661,2.661,0,0,1,2.249,4.088l-.012.02c-.783,1.238-1.089,1.976.382,4.853,0,.009.008.018.013.027a7.3,7.3,0,0,1,.812,3.365c0,.065,0,.13,0,.193a.6.6,0,0,0,.587.616h.015a.6.6,0,0,0,.6-.587c0-.073,0-.148,0-.222a8.492,8.492,0,0,0-.931-3.887l-.013-.027a11.821,11.821,0,0,1-.774-1.771h5.792l1.537,11.721a.6.6,0,0,0,.6.524.618.618,0,0,0,.079-.005.6.6,0,0,0,.518-.675ZM49.741,33.811H47.522V31.238h2.219Zm0-3.776H47.522V27.462h2.219Zm-2.219,4.979h2.219v2.573H47.522ZM46.233,24.24l1.543-3.811h1.71L51.03,24.24A.4.4,0,0,1,51,24.6l-1,1.662H47.26l-1-1.662A.4.4,0,0,1,46.233,24.24Zm3.108,17.123h-1.42a.4.4,0,0,1-.4-.4V38.79h2.219v2.173a.4.4,0,0,1-.4.4Zm3.678-6.095a.854.854,0,0,1,.853-.853h8.094a.853.853,0,1,1,0,1.706H53.872a.854.854,0,0,1-.853-.853Zm2.41,10.044a4.026,4.026,0,0,1,.4-.731l.012-.02a3.86,3.86,0,0,0-.424-4.659l.338-2.578h4.325l1.048,7.987Zm0,0" transform="translate(-40.05 -17.684)" fill="#2b2b2b"/>
          <path id="Path_1648" data-name="Path 1648" d="M16.8,292.126a.6.6,0,0,0-.8.292c-1.166,2.514-4.405,3.042-6.917,3.042a9.764,9.764,0,0,1-5.314-1.229A4.541,4.541,0,0,1,1.7,290.1a7.292,7.292,0,0,1,.812-3.364l.013-.026c1.47-2.877,1.165-3.616.383-4.853L2.9,281.84a2.661,2.661,0,0,1,.1-3,.6.6,0,1,0-.97-.713,3.864,3.864,0,0,0-.161,4.337l.013.022a2.043,2.043,0,0,1,.478,1.191,6.711,6.711,0,0,1-.916,2.515l-.013.026A8.487,8.487,0,0,0,.5,290.1c0,4.23,3.047,6.56,8.581,6.56a14.832,14.832,0,0,0,3.25-.328.6.6,0,0,0,1.133-.2l.018-.135a5.971,5.971,0,0,0,3.608-3.08.6.6,0,0,0-.293-.8Zm0,0" transform="translate(-0.5 -255.588)" fill="#3c3c3c"/>
          <path id="Path_1649" data-name="Path 1649" d="M75.869,333.852a2.756,2.756,0,1,0,2.756,2.756A2.759,2.759,0,0,0,75.869,333.852Zm0,4.307a1.552,1.552,0,1,1,1.552-1.552A1.554,1.554,0,0,1,75.869,338.16Zm0,0" transform="translate(-67.288 -307.068)" fill="#3c3c3c"/>
          <path id="Path_1650" data-name="Path 1650" d="M80.5,432.684a.6.6,0,1,0,0,1.2h3.219a.6.6,0,1,0,0-1.2Zm0,0" transform="translate(-73.529 -397.971)" fill="#3c3c3c"/>
          <path id="Path_1651" data-name="Path 1651" d="M231.672,16.993a.6.6,0,1,0,1.072-.546l-2.151-4.228a2.014,2.014,0,0,0-1.407-3.456,2.048,2.048,0,0,0-.336.028l-2.466-4.848,1.334-.358a1.826,1.826,0,0,0,1.347-1.626l1.037-.278A.6.6,0,0,0,229.79.519L228.753.8a1.828,1.828,0,0,0-1.979-.735l-5.113,1.37a2.513,2.513,0,1,0,.942,3.524l2.593-.7,2.582,5.077a2.014,2.014,0,0,0,.806,3.364V37.79h-1.079a1.643,1.643,0,1,0,0,3.286h3.361a1.643,1.643,0,1,0,0-3.286h-1.079v-24.5ZM227.085,1.224a.62.62,0,0,1,.759.437.638.638,0,0,1,.022.164.62.62,0,0,1-.46.6l-2.028.544-.045.012-2.357.632a2.53,2.53,0,0,0-.32-1.2ZM220.8,4.9a1.309,1.309,0,1,1,.925-1.6A1.311,1.311,0,0,1,220.8,4.9Zm10.5,34.528a.44.44,0,0,1-.44.439h-3.361a.44.44,0,1,1,0-.879h3.361a.44.44,0,0,1,.44.44Zm-2.494-29.375.006,0,.007,0a.812.812,0,0,1,.745,1.442l-.016.008-.017.009a.812.812,0,0,1-.725-1.453Zm0,0" transform="translate(-200.507 0)" fill="#2b2b2b"/>
        </g>
      </g>
    </g>
  </g>
</svg>
