<svg xmlns="http://www.w3.org/2000/svg" xmlns:xlink="http://www.w3.org/1999/xlink" width="87.999" height="99.14" viewBox="0 0 87.999 99.14">
  <defs>
    <filter id="Union_3" x="0" y="0" width="87.999" height="99.14" filterUnits="userSpaceOnUse">
      <feOffset dy="2" input="SourceAlpha"/>
      <feGaussianBlur stdDeviation="3" result="blur"/>
      <feFlood flood-color="#0adae9"/>
      <feComposite operator="in" in2="blur"/>
      <feComposite in="SourceGraphic"/>
    </filter>
    <filter id="Path_14463" x="3.953" y="4.671" width="80" height="80" filterUnits="userSpaceOnUse">
      <feOffset dy="3" input="SourceAlpha"/>
      <feGaussianBlur stdDeviation="3" result="blur-2"/>
      <feFlood flood-opacity="0.161"/>
      <feComposite operator="in" in2="blur-2"/>
      <feComposite in="SourceGraphic"/>
    </filter>
  </defs>
  <g id="Group_16393" data-name="Group 16393" transform="translate(-9814.094 -2554.597)">
    <g id="Group_16391" data-name="Group 16391" transform="translate(89 2)">
      <g id="Group_16389" data-name="Group 16389" transform="translate(87)">
        <g id="Group_16386" data-name="Group 16386" transform="translate(186 -4)">
          <g id="Group_16381" data-name="Group 16381" transform="translate(13757.811 3656.458)">
            <g transform="matrix(1, 0, 0, 1, -4305.72, -1099.86)" filter="url(#Union_3)">
              <path id="Union_3-2" data-name="Union 3" d="M34.713,81.12a1.464,1.464,0,0,1-1.053-.712l-6.966-11.4a35,35,0,1,1,16.483.031L36.292,80.377a1.507,1.507,0,0,1-.764.654,1.586,1.586,0,0,1-.572.107A1.559,1.559,0,0,1,34.713,81.12Z" transform="translate(9 7)" fill="#2b2b2b"/>
            </g>
            <g transform="matrix(1, 0, 0, 1, -4305.72, -1099.86)" filter="url(#Path_14463)">
              <path id="Path_14463-2" data-name="Path 14463" d="M31,0A31,31,0,1,1,0,31,31,31,0,0,1,31,0Z" transform="translate(12.95 10.67)" fill="#feb426"/>
            </g>
          </g>
        </g>
      </g>
    </g>
    <g id="Group_16392" data-name="Group 16392" transform="translate(9839.496 2579.255)">
      <path id="Path_1663" data-name="Path 1663" d="M-6123-8930.863l.3-8.382,2.372-3,3.512-1.457h4.432s4.021.439,4.748,1.139a11.334,11.334,0,0,1,2.2,3.562c.1.677.389,4.723.389,4.723v4.451H-6123Z" transform="translate(6141.598 8963.556)" fill="#ffdd19"/>
      <path id="Path_1662" data-name="Path 1662" d="M-6123-8930.863l.3-8.382,2.372-3,3.512-1.457h4.432s4.021.439,4.748,1.139a11.334,11.334,0,0,1,2.2,3.562c.1.677.389,4.723.389,4.723v4.451H-6123Z" transform="translate(6123.152 8963.556)" fill="#fff"/>
      <g id="brother" transform="translate(0 0)">
        <path id="Path_1655" data-name="Path 1655" d="M36.4,44.384V35.491a29.849,29.849,0,0,0-.355-4.847.546.546,0,0,0-1.077.179,28.76,28.76,0,0,1,.34,4.667v7.281a7.5,7.5,0,0,0-4.342-2.426,6.193,6.193,0,0,0,2.852-5.211V32.872a.547.547,0,0,0-.322-.5,13.186,13.186,0,0,1-5.4-4.917.546.546,0,0,0-.951,0,13.185,13.185,0,0,1-5.4,4.916.546.546,0,0,0-.322.5v2.262a6.193,6.193,0,0,0,2.852,5.211,7.5,7.5,0,0,0-4.342,2.427V35.491c0-4.424.741-7.652,2.2-9.594a6.373,6.373,0,0,1,5.48-2.442c3.555,0,5.73,1.661,6.844,5.227a.546.546,0,0,0,1.042-.326A8.593,8.593,0,0,0,32.392,23.7a8.047,8.047,0,0,0-4.768-1.334,7.4,7.4,0,0,0-6.353,2.877c-1.63,2.165-2.423,5.519-2.423,10.251v8.894q-.136.27-.25.553a7.532,7.532,0,0,0-5.683-4.584,6.226,6.226,0,0,0,2.508-3.174,2.429,2.429,0,0,0,2.019-3.774,7.925,7.925,0,0,0,1.029-6.8,6.092,6.092,0,0,0-3.7-3.891,4.518,4.518,0,0,0-2.638-.3c-.607-.686-2.2-1.984-5.219-1.315a7.526,7.526,0,0,0-4.1,2.788.546.546,0,0,0,.854.68,6.445,6.445,0,0,1,3.482-2.4c3.128-.694,4.29,1.117,4.335,1.191a.531.531,0,0,0,.378.284.486.486,0,0,0,.418-.123c.1-.046.7-.281,2.123.228a5.008,5.008,0,0,1,3.032,3.207,6.8,6.8,0,0,1-.8,5.69,2.411,2.411,0,0,0-.861-.3v-.488a.546.546,0,0,0-.34-.506,7.917,7.917,0,0,1-3.826-4.1.546.546,0,0,0-.936-.148A11.758,11.758,0,0,1,3.85,31.315a.546.546,0,0,0-.473.541v.489a2.419,2.419,0,0,0-1.147.494,7.729,7.729,0,0,1,.338-6.52.546.546,0,0,0-.982-.478A8.662,8.662,0,0,0,1.491,33.8a2.43,2.43,0,0,0,2.233,3.377,6.226,6.226,0,0,0,2.508,3.174A7.52,7.52,0,0,0,0,47.753v6.773a.546.546,0,0,0,.546.546h36.1a.546.546,0,0,0,.546-.546V47.741a7.458,7.458,0,0,0-.794-3.357Zm-7.046-3.055a2.294,2.294,0,0,1-.542,1.231,1.818,1.818,0,0,1-2.375,0,2.294,2.294,0,0,1-.542-1.231Zm-6.831-6.194V33.213a14.358,14.358,0,0,0,5.1-4.45,14.358,14.358,0,0,0,5.1,4.45v1.922a5.1,5.1,0,0,1-10.2,0Zm-11.594,6.2-1.2,2.026a.182.182,0,0,1-.313,0l-1.2-2.026Zm5.829-6.587A1.34,1.34,0,0,1,15.7,36.057a6.216,6.216,0,0,0,.068-.917V33.46A1.339,1.339,0,0,1,16.757,34.75Zm-14.367,0a1.339,1.339,0,0,1,.987-1.29v1.68a6.216,6.216,0,0,0,.068.917A1.34,1.34,0,0,1,2.39,34.75Zm2.079.39V32.307a12.847,12.847,0,0,0,6.489-3.863,8.646,8.646,0,0,0,3.72,3.769V35.14a5.1,5.1,0,0,1-10.209,0ZM1.092,47.753a6.424,6.424,0,0,1,5.862-6.392l1.519,2.56a1.274,1.274,0,0,0,2.191,0l1.52-2.56a6.424,6.424,0,0,1,5.871,6.393V53.98H15.581V48.613a.546.546,0,1,0-1.092,0V53.98H4.658V48.613a.546.546,0,1,0-1.092,0V53.98H1.092Zm21.62,5.064h5.055a.546.546,0,1,0,0-1.092H22.712V50.56h9.825v1.165H29.951a.546.546,0,1,0,0,1.092h2.586V53.98H22.712ZM36.1,53.98H33.629V48.6a.546.546,0,1,0-1.092,0v.866H22.712V48.6a.546.546,0,0,0-1.092,0V53.98H19.147V47.741a6.422,6.422,0,0,1,5.65-6.367,3.441,3.441,0,0,0,.856,1.946,2.9,2.9,0,0,0,3.942,0,3.441,3.441,0,0,0,.856-1.946A6.422,6.422,0,0,1,36.1,47.741V53.98Z" transform="translate(0 -20.917)" fill="#2b2b2b"/>
        <path id="Path_1656" data-name="Path 1656" d="M335.626,185.224a.546.546,0,0,0-.546.546v1.266a.546.546,0,1,0,1.092,0V185.77A.546.546,0,0,0,335.626,185.224Z" transform="translate(-310.738 -173.288)" fill="#2b2b2b"/>
        <path id="Path_1657" data-name="Path 1657" d="M410.973,187.582a.546.546,0,0,0,.546-.546V185.77a.546.546,0,1,0-1.092,0v1.266A.546.546,0,0,0,410.973,187.582Z" transform="translate(-380.612 -173.288)" fill="#2b2b2b"/>
        <path id="Path_1658" data-name="Path 1658" d="M87.126,185.289a.546.546,0,0,0-.546.546V187.1a.546.546,0,1,0,1.092,0v-1.267A.546.546,0,0,0,87.126,185.289Z" transform="translate(-80.29 -173.348)" fill="#2b2b2b"/>
        <path id="Path_1659" data-name="Path 1659" d="M162.506,187.649a.546.546,0,0,0,.546-.546v-1.267a.546.546,0,0,0-1.092,0V187.1A.546.546,0,0,0,162.506,187.649Z" transform="translate(-150.194 -173.349)" fill="#2b2b2b"/>
        <path id="Path_1660" data-name="Path 1660" d="M111.03,234.649a.547.547,0,1,0-1.011-.417s-.157.318-.731.318-.729-.315-.731-.318a.547.547,0,1,0-1.011.417,2.022,2.022,0,0,0,3.484,0Z" transform="translate(-99.695 -218.422)" fill="#2b2b2b"/>
        <path id="Path_1661" data-name="Path 1661" d="M358.972,234.649a.547.547,0,1,0-1.011-.417s-.157.318-.731.318-.729-.315-.731-.318a.547.547,0,0,0-1.011.417,2.022,2.022,0,0,0,3.484,0Z" transform="translate(-329.625 -218.422)" fill="#2b2b2b"/>
      </g>
    </g>
  </g>
</svg>
