<svg xmlns="http://www.w3.org/2000/svg" xmlns:xlink="http://www.w3.org/1999/xlink" width="87.999" height="99.14" viewBox="0 0 87.999 99.14">
  <defs>
    <filter id="Union_3" x="0" y="0" width="87.999" height="99.14" filterUnits="userSpaceOnUse">
      <feOffset dy="2" input="SourceAlpha"/>
      <feGaussianBlur stdDeviation="3" result="blur"/>
      <feFlood flood-color="#0adae9"/>
      <feComposite operator="in" in2="blur"/>
      <feComposite in="SourceGraphic"/>
    </filter>
    <filter id="Path_14463" x="3.953" y="4.671" width="80" height="80" filterUnits="userSpaceOnUse">
      <feOffset dy="3" input="SourceAlpha"/>
      <feGaussianBlur stdDeviation="3" result="blur-2"/>
      <feFlood flood-opacity="0.161"/>
      <feComposite operator="in" in2="blur-2"/>
      <feComposite in="SourceGraphic"/>
    </filter>
  </defs>
  <g id="Group_16403" data-name="Group 16403" transform="translate(-10069.094 -2554.597)">
    <g id="Group_16400" data-name="Group 16400" transform="translate(170)">
      <g id="Group_16395" data-name="Group 16395" transform="translate(85)">
        <g id="Group_16391" data-name="Group 16391" transform="translate(89 2)">
          <g id="Group_16389" data-name="Group 16389" transform="translate(87)">
            <g id="Group_16386" data-name="Group 16386" transform="translate(186 -4)">
              <g id="Group_16381" data-name="Group 16381" transform="translate(13757.811 3656.458)">
                <g transform="matrix(1, 0, 0, 1, -4305.72, -1099.86)" filter="url(#Union_3)">
                  <path id="Union_3-2" data-name="Union 3" d="M34.713,81.12a1.464,1.464,0,0,1-1.053-.712l-6.966-11.4a35,35,0,1,1,16.483.031L36.292,80.377a1.507,1.507,0,0,1-.764.654,1.586,1.586,0,0,1-.572.107A1.559,1.559,0,0,1,34.713,81.12Z" transform="translate(9 7)" fill="#2b2b2b"/>
                </g>
                <g transform="matrix(1, 0, 0, 1, -4305.72, -1099.86)" filter="url(#Path_14463)">
                  <path id="Path_14463-2" data-name="Path 14463" d="M31,0A31,31,0,1,1,0,31,31,31,0,0,1,31,0Z" transform="translate(12.95 10.67)" fill="#2bdad1"/>
                </g>
              </g>
            </g>
          </g>
        </g>
      </g>
    </g>
    <g id="cheers" transform="translate(10096.094 2576.597)">
      <g id="Group_122" data-name="Group 122" transform="translate(3.213 12.022)">
        <path id="Path_172" data-name="Path 172" d="M82.112,163.512a7.821,7.821,0,0,0,7.631-2.175,6.442,6.442,0,0,0,1.661-3.727l.113-1.094.222-2.127a6.992,6.992,0,0,0-7.4-.247,6.987,6.987,0,0,1-7.393-.249c-1.755,4.182,1.253,8.575,5.163,9.619Z" transform="translate(-76.438 -153.203)" fill="#fff" fill-rule="evenodd"/>
      </g>
      <g id="Group_123" data-name="Group 123" transform="translate(3.725 4.924)">
        <path id="Path_173" data-name="Path 173" d="M82.969,70.533a6.988,6.988,0,0,0,7.393.249,6.992,6.992,0,0,1,7.4.247l.3-2.861.231-2.245L86.444,62.745,83.03,70.388Z" transform="translate(-82.969 -62.745)" fill="#2bdad1" fill-rule="evenodd"/>
      </g>
      <g id="Group_124" data-name="Group 124" transform="translate(18.292 8.041)">
        <path id="Path_174" data-name="Path 174" d="M268.6,109.763a6.952,6.952,0,0,1,5.194.741,6.986,6.986,0,0,0,7.4-.249c-.02-.048-.041-.1-.063-.145l-3.411-7.641-8.6,2.306-.3,2.861Z" transform="translate(-268.6 -102.468)" fill="#2bdad1" fill-rule="evenodd"/>
      </g>
      <g id="Group_125" data-name="Group 125" transform="translate(16.518 15.137)">
        <path id="Path_175" data-name="Path 175" d="M246,197.921c.821,4.2,5.427,6.307,9.2,5.29,3.907-1.044,6.916-5.435,5.162-9.619a6.987,6.987,0,0,1-7.4.249,6.952,6.952,0,0,0-5.194-.741l-.113,1.094A6.442,6.442,0,0,1,246,197.921Z" transform="translate(-245.998 -192.902)" fill="#fff" fill-rule="evenodd"/>
      </g>
      <g id="Group_126" data-name="Group 126" transform="translate(0.783 29.367)">
        <path id="Path_176" data-name="Path 176" d="M46.646,379.229l6.938,1.86a1.4,1.4,0,0,0,1.572-2.2L51.7,374.243l-5.312,2.288A1.4,1.4,0,0,0,46.646,379.229Z" transform="translate(-45.477 -374.243)" fill="#2b2b2b" fill-rule="evenodd"/>
      </g>
      <g id="Group_127" data-name="Group 127" transform="translate(23.839 32.482)">
        <path id="Path_177" data-name="Path 177" d="M341.165,420.787l6.938-1.862a1.4,1.4,0,0,0,.26-2.7l-5.312-2.29-3.457,4.642A1.4,1.4,0,0,0,341.165,420.787Z" transform="translate(-339.289 -413.939)" fill="#2b2b2b" fill-rule="evenodd"/>
      </g>
      <g id="Group_128" data-name="Group 128" transform="translate(0 0)">
        <path id="Path_178" data-name="Path 178" d="M284.707,8.382a.782.782,0,0,0,.937-.593L286.4,4.42a.784.784,0,1,0-1.529-.345l-.758,3.369A.785.785,0,0,0,284.707,8.382Z" transform="translate(-264.588 -3.191)" fill="#2b2b2b"/>
        <path id="Path_179" data-name="Path 179" d="M221.771,4.122a.784.784,0,1,0,1.325-.839L221.254.366a.784.784,0,1,0-1.325.838Z" transform="translate(-205.345 0)" fill="#2b2b2b"/>
        <path id="Path_180" data-name="Path 180" d="M325.7,35.49a.781.781,0,0,0,.418-.122l2.916-1.846A.784.784,0,0,0,328.2,32.2l-2.916,1.846a.785.785,0,0,0,.42,1.448Z" transform="translate(-302.208 -29.557)" fill="#2b2b2b"/>
        <path id="Path_181" data-name="Path 181" d="M68.721,82.654l-4.963-2.14-1.591-5.948A8.7,8.7,0,0,0,66.922,70.2a7.341,7.341,0,0,0,.183-6.067c-.006-.014-.012-.029-.019-.043-.018-.042-.035-.084-.054-.126L63.62,56.323a.783.783,0,0,0-.918-.438L55.2,57.9l.115-1.112a.785.785,0,0,0-.571-.837l-2.455-.677a.785.785,0,0,0-.416,1.513l1.815.5-.335,3.237a7.813,7.813,0,0,0-7.163.382,6.326,6.326,0,0,1-5.981.112l2.929-6.558,1.979.531a.785.785,0,0,0,.406-1.516l-2.624-.7a.783.783,0,0,0-.918.438L38.569,60.85a7.34,7.34,0,0,0,.111,6.233,8.7,8.7,0,0,0,4.756,4.369L41.845,77.4l-4.963,2.138a2.186,2.186,0,0,0,.352,4.173l.014,0,6.938,1.86.012,0a2.787,2.787,0,0,0,.677.086,2.12,2.12,0,0,0,1.811-.929,2.258,2.258,0,0,0-.1-2.591l-3.23-4.337,1.591-5.948a8.4,8.4,0,0,0,1.391.116,8.7,8.7,0,0,0,4.909-1.518q.19-.131.37-.271a7.494,7.494,0,0,0,3.044,3.591,8.788,8.788,0,0,0,4.615,1.309,8.387,8.387,0,0,0,1.374-.113l1.591,5.948-3.23,4.337a2.258,2.258,0,0,0-.1,2.591,2.121,2.121,0,0,0,1.813.931,2.787,2.787,0,0,0,.675-.085l.013,0,6.938-1.862.013,0a2.184,2.184,0,0,0,.354-4.171ZM55.03,59.568l7.432-1.994,2.928,6.557a6.324,6.324,0,0,1-5.982-.113A7.55,7.55,0,0,0,54.675,63Zm-9.648,24.3a.723.723,0,0,1-.8.193L37.66,82.2c-.215-.063-.571-.219-.593-.567a.693.693,0,0,1,.435-.654l4.744-2.043,3.087,4.145a.692.692,0,0,1,.05.783Zm4.98-14.7a7.163,7.163,0,0,1-5.773,1.013h0a7.177,7.177,0,0,1-4.493-3.768,5.839,5.839,0,0,1-.437-3.91,7.79,7.79,0,0,0,3.479.8,7.274,7.274,0,0,0,3.9-1.069,6.315,6.315,0,0,1,6.142-.023L52.9,64.951A5.781,5.781,0,0,1,50.362,69.163Zm5.131,3.281a5.871,5.871,0,0,1-2.625-3.475,7.248,7.248,0,0,0,1.588-3.855l.053-.514a6.02,6.02,0,0,1,4.051.74,7.277,7.277,0,0,0,3.9,1.07,7.787,7.787,0,0,0,3.477-.8,5.838,5.838,0,0,1-.436,3.911,7.172,7.172,0,0,1-4.492,3.766h0A7.118,7.118,0,0,1,55.493,72.443ZM67.941,85.315l-6.924,1.858a.723.723,0,0,1-.8-.194.693.693,0,0,1,.051-.783l3.087-4.145L68.1,84.1a.689.689,0,0,1,.434.65C68.514,85.1,68.156,85.252,67.941,85.315Z" transform="translate(-35.498 -48.603)" fill="#2b2b2b"/>
        <path id="Path_182" data-name="Path 182" d="M193.466,74.551a.785.785,0,0,0,0-1.57h0a.785.785,0,0,0,0,1.57Z" transform="translate(-180.346 -67.254)" fill="#333"/>
      </g>
    </g>
  </g>
</svg>
