<svg xmlns="http://www.w3.org/2000/svg" xmlns:xlink="http://www.w3.org/1999/xlink" width="87.999" height="99.14" viewBox="0 0 87.999 99.14">
  <defs>
    <filter id="Union_3" x="0" y="0" width="87.999" height="99.14" filterUnits="userSpaceOnUse">
      <feOffset dy="2" input="SourceAlpha"/>
      <feGaussianBlur stdDeviation="3" result="blur"/>
      <feFlood flood-color="#0adae9"/>
      <feComposite operator="in" in2="blur"/>
      <feComposite in="SourceGraphic"/>
    </filter>
    <filter id="Path_14463" x="3.953" y="4.671" width="80" height="80" filterUnits="userSpaceOnUse">
      <feOffset dy="3" input="SourceAlpha"/>
      <feGaussianBlur stdDeviation="3" result="blur-2"/>
      <feFlood flood-opacity="0.161"/>
      <feComposite operator="in" in2="blur-2"/>
      <feComposite in="SourceGraphic"/>
    </filter>
  </defs>
  <g id="Group_16383" data-name="Group 16383" transform="translate(-9452.094 -2556.597)">
    <g id="Group_16381" data-name="Group 16381" transform="translate(13757.811 3656.458)">
      <g transform="matrix(1, 0, 0, 1, -4305.72, -1099.86)" filter="url(#Union_3)">
        <path id="Union_3-2" data-name="Union 3" d="M34.713,81.12a1.464,1.464,0,0,1-1.053-.712l-6.966-11.4a35,35,0,1,1,16.483.031L36.292,80.377a1.507,1.507,0,0,1-.764.654,1.586,1.586,0,0,1-.572.107A1.559,1.559,0,0,1,34.713,81.12Z" transform="translate(9 7)" fill="#2b2b2b"/>
      </g>
      <g transform="matrix(1, 0, 0, 1, -4305.72, -1099.86)" filter="url(#Path_14463)">
        <path id="Path_14463-2" data-name="Path 14463" d="M31,0A31,31,0,1,1,0,31,31,31,0,0,1,31,0Z" transform="translate(12.95 10.67)" fill="#ae71ff"/>
      </g>
    </g>
    <g id="lightbulb" transform="translate(9480.154 2578.747)">
      <path id="Path_1634" data-name="Path 1634" d="M139.648,126.995c-1.782,1.782-1.559,5.377-1.559,5.377h-9.036s.191-3.6-1.559-5.377a9.2,9.2,0,1,1,12.154,0Z" transform="translate(-117.607 -101.987)" fill="#fff"/>
      <g id="Group_1813" data-name="Group 1813" transform="translate(11.159 32.358)">
        <path id="Path_1635" data-name="Path 1635" d="M189.889,407.659a.856.856,0,0,1-.859.859h-7.859a.855.855,0,0,1-.859-.859h0a.855.855,0,0,1,.859-.859H189a.883.883,0,0,1,.891.859Z" transform="translate(-180.312 -406.8)" fill="#e5e5e5"/>
        <path id="Path_1636" data-name="Path 1636" d="M202.334,452.459a.855.855,0,0,1-.859.859h-5.5a.856.856,0,0,1-.859-.859h0a.855.855,0,0,1,.859-.859h5.5a.855.855,0,0,1,.859.859Z" transform="translate(-193.935 -448.037)" fill="#e5e5e5"/>
      </g>
      <g id="Group_1814" data-name="Group 1814" transform="translate(0)">
        <path id="Path_1637" data-name="Path 1637" d="M133.129,120.317a9.826,9.826,0,1,0-13.077.1c1.559,1.559,1.4,4.868,1.4,4.9a.76.76,0,0,0,.159.445.628.628,0,0,0,.445.191h9a.628.628,0,0,0,.445-.191.6.6,0,0,0,.159-.445c0-.032-.159-3.341,1.4-4.9C133.1,120.381,133.129,120.349,133.129,120.317Zm-.891-.8a.318.318,0,0,0-.127.159c-1.4,1.5-1.623,3.945-1.654,5.091h-7.8c-.032-1.177-.286-3.723-1.782-5.218a8.619,8.619,0,1,1,14.286-6.491A8.556,8.556,0,0,1,132.239,119.522Z" transform="translate(-110.612 -94.991)" fill="#2b2b2b"/>
        <path id="Path_1638" data-name="Path 1638" d="M233.317,135.2a.6.6,0,1,0,0,1.209,6.463,6.463,0,0,1,6.459,6.459.6.6,0,1,0,1.209,0A7.672,7.672,0,0,0,233.317,135.2Z" transform="translate(-217.385 -124.446)" fill="#2b2b2b"/>
        <path id="Path_1639" data-name="Path 1639" d="M183.5,400.664a1.46,1.46,0,0,0-1.464-1.464h-7.859a1.464,1.464,0,1,0,0,2.927H182A1.467,1.467,0,0,0,183.5,400.664Zm-1.5.255h-7.827a.255.255,0,0,1,0-.509H182a.251.251,0,0,1,.255.255C182.289,400.823,182.162,400.918,182,400.918Z" transform="translate(-162.157 -367.447)" fill="#2b2b2b"/>
        <path id="Path_1640" data-name="Path 1640" d="M194.48,444h-5.5a1.464,1.464,0,1,0,0,2.927h5.5a1.46,1.46,0,0,0,1.464-1.464A1.48,1.48,0,0,0,194.48,444Zm0,1.718h-5.5a.255.255,0,0,1,0-.509h5.5a.251.251,0,0,1,.255.255A.234.234,0,0,1,194.48,445.718Z" transform="translate(-175.78 -408.683)" fill="#2b2b2b"/>
        <path id="Path_1641" data-name="Path 1641" d="M233.921,4.677V.6a.6.6,0,0,0-1.209,0v4.1a.6.6,0,0,0,.6.6A.632.632,0,0,0,233.921,4.677Z" transform="translate(-217.385)" fill="#2b2b2b"/>
        <path id="Path_1642" data-name="Path 1642" d="M329.432,36.834a.6.6,0,0,0-.827.159l-2.259,3.4a.6.6,0,0,0,.159.827.614.614,0,0,0,.318.1.664.664,0,0,0,.509-.255l2.259-3.4A.61.61,0,0,0,329.432,36.834Z" transform="translate(-303.478 -33.811)" fill="#2b2b2b"/>
        <path id="Path_1643" data-name="Path 1643" d="M117.63,39.164a.607.607,0,0,0,.509-.923l-2.2-3.436a.6.6,0,1,0-1.018.636l2.2,3.436A.611.611,0,0,0,117.63,39.164Z" transform="translate(-108.889 -31.782)" fill="#2b2b2b"/>
        <path id="Path_1644" data-name="Path 1644" d="M40.327,115.407l3.6,1.941a.473.473,0,0,0,.286.064.656.656,0,0,0,.541-.318.6.6,0,0,0-.255-.827l-3.6-1.941a.6.6,0,0,0-.827.255A.647.647,0,0,0,40.327,115.407Z" transform="translate(-40.017 -105.162)" fill="#2b2b2b"/>
        <path id="Path_1645" data-name="Path 1645" d="M380.851,117.884a.93.93,0,0,0,.286-.064l3.6-1.941a.612.612,0,1,0-.573-1.082l-3.6,1.941a.607.607,0,0,0,.286,1.145Z" transform="translate(-353.179 -105.603)" fill="#2b2b2b"/>
      </g>
    </g>
  </g>
</svg>
