<svg xmlns="http://www.w3.org/2000/svg" xmlns:xlink="http://www.w3.org/1999/xlink" width="87.999" height="99.14" viewBox="0 0 87.999 99.14">
  <defs>
    <filter id="Union_3" x="0" y="0" width="87.999" height="99.14" filterUnits="userSpaceOnUse">
      <feOffset dy="2" input="SourceAlpha"/>
      <feGaussianBlur stdDeviation="3" result="blur"/>
      <feFlood flood-color="#0adae9"/>
      <feComposite operator="in" in2="blur"/>
      <feComposite in="SourceGraphic"/>
    </filter>
    <filter id="Path_14463" x="3.953" y="4.671" width="80" height="80" filterUnits="userSpaceOnUse">
      <feOffset dy="3" input="SourceAlpha"/>
      <feGaussianBlur stdDeviation="3" result="blur-2"/>
      <feFlood flood-opacity="0.161"/>
      <feComposite operator="in" in2="blur-2"/>
      <feComposite in="SourceGraphic"/>
    </filter>
  </defs>
  <g id="Group_19094" data-name="Group 19094" transform="translate(-10245.094 -2554.597)">
    <g id="Group_19092" data-name="Group 19092" transform="translate(81 2)">
      <g id="Group_16427" data-name="Group 16427" transform="translate(95 -2)">
        <g id="Group_16400" data-name="Group 16400" transform="translate(170)">
          <g id="Group_16395" data-name="Group 16395" transform="translate(85)">
            <g id="Group_16391" data-name="Group 16391" transform="translate(89 2)">
              <g id="Group_16389" data-name="Group 16389" transform="translate(87)">
                <g id="Group_16386" data-name="Group 16386" transform="translate(186 -4)">
                  <g id="Group_16381" data-name="Group 16381" transform="translate(13757.811 3656.458)">
                    <g transform="matrix(1, 0, 0, 1, -4305.72, -1099.86)" filter="url(#Union_3)">
                      <path id="Union_3-2" data-name="Union 3" d="M34.713,81.12a1.464,1.464,0,0,1-1.053-.712l-6.966-11.4a35,35,0,1,1,16.483.031L36.292,80.377a1.507,1.507,0,0,1-.764.654,1.586,1.586,0,0,1-.572.107A1.559,1.559,0,0,1,34.713,81.12Z" transform="translate(9 7)" fill="#2b2b2b"/>
                    </g>
                    <g transform="matrix(1, 0, 0, 1, -4305.72, -1099.86)" filter="url(#Path_14463)">
                      <path id="Path_14463-2" data-name="Path 14463" d="M31,0A31,31,0,1,1,0,31,31,31,0,0,1,31,0Z" transform="translate(12.95 10.67)" fill="#c822d4"/>
                    </g>
                  </g>
                </g>
              </g>
            </g>
          </g>
        </g>
      </g>
    </g>
    <g id="Group_19093" data-name="Group 19093" transform="translate(11235.354 4751.931)">
      <path id="Path_14491" data-name="Path 14491" d="M-579.795-2618.7l-3.277,3.484v5.488l2.309,3.417,4.519,1.382,4.354-1.382,25.538-25.854v-5.591l-2.174-2.485-2.794-1.871h-2.73l-2.286.49-2.063,1.381Z" transform="translate(-381.53 467.444)" fill="#fff"/>
      <g id="Group_13245" data-name="Group 13245" transform="translate(-965.787 -2175.787)">
        <path id="Path_14490" data-name="Path 14490" d="M-575.166-2619.239l-1.075,2.608v1.788l.689.816h2.374l2.506-1.627-4.2-3.585Z" transform="translate(600.181 2629.045)" fill="#fff"/>
        <path id="Path_14489" data-name="Path 14489" d="M-611.009-2583.74l3.742,3.161s.782-.753.977-1.011,1.27-2.149,1.27-2.149l-.977-1.885-1.724-.62-1.207.62Z" transform="translate(620.397 2609.86)" fill="#fff"/>
        <path id="Path_14488" data-name="Path 14488" d="M-573.673-2625.151l6.562,5.635,2.348-1.89-7.392-6Z" transform="translate(579.435 2651.792)" fill="#2b2b2b"/>
        <path id="Path_14487" data-name="Path 14487" d="M-582.613-2630.722l1.627,1.466,4.137-4.363-1.4-1.563Z" transform="translate(594.403 2665.52)" fill="#fff"/>
        <path id="Path_14486" data-name="Path 14486" d="M-582.613-2630.722l1.627,1.466,4.137-4.363-1.4-1.563Z" transform="translate(585.614 2656.73)" fill="#fff"/>
        <path id="Path_14485" data-name="Path 14485" d="M-582.613-2630.722l1.627,1.466,4.137-4.363-1.4-1.563Z" transform="translate(612.401 2647.104)" fill="#fff"/>
        <path id="Path_14484" data-name="Path 14484" d="M-582.613-2630.722l1.627,1.466,4.137-4.363-1.4-1.563Z" transform="translate(603.886 2638.315)" fill="#fff"/>
        <g id="Outline">
          <path id="Path_14479" data-name="Path 14479" d="M47.036,16a7.963,7.963,0,0,0-5.667,2.347l-22.5,22.5a1.3,1.3,0,0,0,0,1.841L19.9,43.718a1.3,1.3,0,0,0,1.841,0l2.334-2.334,5.588,5.588L28.635,48,24.01,43.38l-.921.921,4.625,4.625-.381.381a1.3,1.3,0,0,0,0,1.841l1.015,1.015a6.712,6.712,0,0,1-9.971-8.77l-1.093-.707a8.015,8.015,0,0,0,12.4,10.02l4.161-4.161.109-.109-.007-.007a1.3,1.3,0,0,0-.1-1.725L32.81,45.671a1.3,1.3,0,0,0-1.841,0l-.381.381-.464-.464,1.286-1.93a2.9,2.9,0,0,0-4.017-4.017l-1.93,1.286L25,40.464l.38-.382a1.3,1.3,0,0,0,0-1.841l-1.032-1.032L37.1,24.461l1.032,1.032a1.3,1.3,0,0,0,1.841,0l.381-.381.464.464-1.286,1.929a2.9,2.9,0,0,0,4.017,4.017l1.929-1.286.464.464-.381.381a1.3,1.3,0,0,0,0,1.841l1.032,1.032L34.7,45.846l.921.921L51.972,30.413l.094-.094a1.3,1.3,0,0,0,0-1.841l-1.032-1.032a1.3,1.3,0,0,0-1.841,0l-.381.381-5.588-5.588.381-.381a1.3,1.3,0,0,0,0-1.841l-1.023-1.023a6.712,6.712,0,0,1,10.137,8.595l1.1.693A8.015,8.015,0,0,0,47.036,16ZM32.921,47.623l-3.636,3.636-1.032-1.032,3.636-3.636Zm-4.806-6.9a1.595,1.595,0,0,1,2.212,2.212l-1.142,1.713L26.4,41.867ZM24.46,39.162,20.824,42.8l-1.032-1.032,3.636-3.636Zm18.363-8.722a1.595,1.595,0,0,1-2.211-2.211l1.142-1.713L44.536,29.3ZM51.146,29.4l-.094.094h0L47.51,33.034,46.478,32l3.636-3.636Zm-3.254-.651L46.859,29.78l-5.588-5.588L42.3,23.159Zm-8.843-4.175-1.032-1.032L41.652,19.9l1.032,1.032Z" transform="translate(-15.998 -16)" fill="#2b2b2b"/>
          <path id="Path_14480" data-name="Path 14480" d="M323.313,165.663a.976.976,0,1,0,.976-.976A.976.976,0,0,0,323.313,165.663Z" transform="translate(-298.31 -152.59)" fill="#2b2b2b"/>
          <path id="Path_14481" data-name="Path 14481" d="M165.266,325.663a.976.976,0,1,0-.976.976A.976.976,0,0,0,165.266,325.663Z" transform="translate(-151.327 -299.572)" fill="#2b2b2b"/>
        </g>
        <path id="Path_14483" data-name="Path 14483" d="M-573.673-2625.191l5.637,5.534,2.017-1.856-6.35-5.9Z" transform="translate(598.688 2633.795)" fill="#2b2b2b"/>
      </g>
    </g>
  </g>
</svg>
