<svg xmlns="http://www.w3.org/2000/svg" xmlns:xlink="http://www.w3.org/1999/xlink" width="87.999" height="99.14" viewBox="0 0 87.999 99.14">
  <defs>
    <filter id="Union_3" x="0" y="0" width="87.999" height="99.14" filterUnits="userSpaceOnUse">
      <feOffset dy="2" input="SourceAlpha"/>
      <feGaussianBlur stdDeviation="3" result="blur"/>
      <feFlood flood-color="#0adae9"/>
      <feComposite operator="in" in2="blur"/>
      <feComposite in="SourceGraphic"/>
    </filter>
    <filter id="Path_14463" x="3.953" y="4.671" width="80" height="80" filterUnits="userSpaceOnUse">
      <feOffset dy="3" input="SourceAlpha"/>
      <feGaussianBlur stdDeviation="3" result="blur-2"/>
      <feFlood flood-opacity="0.161"/>
      <feComposite operator="in" in2="blur-2"/>
      <feComposite in="SourceGraphic"/>
    </filter>
  </defs>
  <g id="Group_16388" data-name="Group 16388" transform="translate(-9638.094 -2552.597)">
    <g id="Group_16386" data-name="Group 16386" transform="translate(186 -4)">
      <g id="Group_16381" data-name="Group 16381" transform="translate(13757.811 3656.458)">
        <g transform="matrix(1, 0, 0, 1, -4305.72, -1099.86)" filter="url(#Union_3)">
          <path id="Union_3-2" data-name="Union 3" d="M34.713,81.12a1.464,1.464,0,0,1-1.053-.712l-6.966-11.4a35,35,0,1,1,16.483.031L36.292,80.377a1.507,1.507,0,0,1-.764.654,1.586,1.586,0,0,1-.572.107A1.559,1.559,0,0,1,34.713,81.12Z" transform="translate(9 7)" fill="#2b2b2b"/>
        </g>
        <g transform="matrix(1, 0, 0, 1, -4305.72, -1099.86)" filter="url(#Path_14463)">
          <path id="Path_14463-2" data-name="Path 14463" d="M31,0A31,31,0,1,1,0,31,31,31,0,0,1,31,0Z" transform="translate(12.95 10.67)" fill="#c822d4"/>
        </g>
      </g>
    </g>
    <g id="fitness" transform="translate(9659.057 2579.317)">
      <path id="Path_229" data-name="Path 229" d="M95.574,88.854V82.376H121.49v6.479Z" transform="translate(-85.496 -73.736)" fill="#2b2b2b"/>
      <path id="Path_230" data-name="Path 230" d="M89.465,82.746h.72V76.987h24.477v5.04h-25.2v.72h0v.72h25.916a.72.72,0,0,0,.72-.72V76.267a.719.719,0,0,0-.72-.72H89.465a.72.72,0,0,0-.72.72v6.479a.72.72,0,0,0,.72.72Z" transform="translate(-79.387 -67.628)" fill="#2b2b2b"/>
      <path id="Path_231" data-name="Path 231" d="M238.934,60.466V56.147a1.08,1.08,0,0,1,1.08-1.08h.72a1.08,1.08,0,0,1,1.08,1.08v4.319a1.08,1.08,0,0,1-1.08,1.08h-.72A1.08,1.08,0,0,1,238.934,60.466Zm0,0" transform="translate(-213.738 -49.308)" fill="#fff"/>
      <path id="Path_232" data-name="Path 232" d="M232.826,54.358h.72V50.039a.36.36,0,0,1,.36-.36h.72a.361.361,0,0,1,.36.36v4.319a.361.361,0,0,1-.36.36h-.72a.36.36,0,0,1-.36-.36h-1.44a1.8,1.8,0,0,0,1.8,1.8h.72a1.8,1.8,0,0,0,1.8-1.8V50.039a1.8,1.8,0,0,0-1.8-1.8h-.72a1.8,1.8,0,0,0-1.8,1.8v4.319Zm0,0" transform="translate(-207.63 -43.199)" fill="#2b2b2b"/>
      <path id="Path_233" data-name="Path 233" d="M211.625,60.466V56.147a1.08,1.08,0,0,1,1.08-1.08h.72a1.08,1.08,0,0,1,1.08,1.08v4.319a1.08,1.08,0,0,1-1.08,1.08h-.72A1.08,1.08,0,0,1,211.625,60.466Zm0,0" transform="translate(-189.308 -49.308)" fill="#fff"/>
      <path id="Path_234" data-name="Path 234" d="M205.52,54.358h.72V50.039a.36.36,0,0,1,.36-.36h.72a.36.36,0,0,1,.36.36v4.319a.36.36,0,0,1-.36.36h-.72a.36.36,0,0,1-.36-.36H204.8a1.8,1.8,0,0,0,1.8,1.8h.72a1.8,1.8,0,0,0,1.8-1.8V50.039a1.8,1.8,0,0,0-1.8-1.8h-.72a1.8,1.8,0,0,0-1.8,1.8v4.319Zm0,0" transform="translate(-183.204 -43.199)" fill="#2b2b2b"/>
      <path id="Path_235" data-name="Path 235" d="M184.32,59.746v-3.6a1.08,1.08,0,0,1,1.08-1.08h.72a1.08,1.08,0,0,1,1.08,1.08v3.6a1.079,1.079,0,0,1-1.08,1.08h-.72A1.079,1.079,0,0,1,184.32,59.746Zm0,0" transform="translate(-164.883 -49.307)" fill="#fff"/>
      <path id="Path_236" data-name="Path 236" d="M178.212,53.638h.72v-3.6a.36.36,0,0,1,.36-.36h.72a.36.36,0,0,1,.36.36v3.6a.36.36,0,0,1-.36.36h-.72a.36.36,0,0,1-.36-.36h-1.44a1.8,1.8,0,0,0,1.8,1.8h.72a1.8,1.8,0,0,0,1.8-1.8v-3.6a1.8,1.8,0,0,0-1.8-1.8h-.72a1.8,1.8,0,0,0-1.8,1.8v3.6Zm0,0" transform="translate(-158.775 -43.199)" fill="#2b2b2b"/>
      <path id="Path_237" data-name="Path 237" d="M157.012,66.574v-3.6a1.08,1.08,0,0,1,1.08-1.08h.72a1.08,1.08,0,0,1,1.08,1.08v3.6a1.08,1.08,0,0,1-1.08,1.08h-.72A1.08,1.08,0,0,1,157.012,66.574Zm0,0" transform="translate(-140.455 -55.416)" fill="#fff"/>
      <path id="Path_238" data-name="Path 238" d="M150.907,60.466h.72v-3.6a.36.36,0,0,1,.36-.36h.72a.36.36,0,0,1,.36.36v3.6a.36.36,0,0,1-.36.36h-.72a.36.36,0,0,1-.36-.36h-1.44a1.8,1.8,0,0,0,1.8,1.8h.72a1.8,1.8,0,0,0,1.8-1.8v-3.6a1.8,1.8,0,0,0-1.8-1.8h-.72a1.8,1.8,0,0,0-1.8,1.8v3.6Zm0,0" transform="translate(-134.35 -49.308)" fill="#2b2b2b"/>
      <path id="Path_239" data-name="Path 239" d="M166.371,124.394l.445-9.359.691-1.735a2.6,2.6,0,0,1,1.759-1.392l.012,0s2.332-4.081,2.132-4.789c0,0-2.892-4.519-3.6-4.319,0,0-1.44,0-.659,2.48l.659,1.839h-10.8l.212,4.509a3.411,3.411,0,0,0,3.41,3.41h-2.182v9.359Z" transform="translate(-140.455 -91.999)" fill="#fff"/>
      <path id="Path_240" data-name="Path 240" d="M160.985,118.323l.439-9.238.647-1.623-.669-.267.658.292a1.555,1.555,0,0,1,.492-.609,2.334,2.334,0,0,1,.8-.381l.012,0a.714.714,0,0,0,.436-.337c0-.006.543-.951,1.089-2.024.273-.538.547-1.106.76-1.616.106-.256.2-.5.267-.722a2.376,2.376,0,0,0,.123-.68,1.084,1.084,0,0,0-.039-.3.691.691,0,0,0-.087-.193c0-.007-.7-1.1-1.507-2.2a19.379,19.379,0,0,0-1.233-1.547,5.16,5.16,0,0,0-.6-.571,1.989,1.989,0,0,0-.33-.215,1.1,1.1,0,0,0-.491-.125.911.911,0,0,0-.246.034l.2.692v-.72a1.569,1.569,0,0,0-.85.275,1.635,1.635,0,0,0-.549.637,2.283,2.283,0,0,0-.213,1.016,5.017,5.017,0,0,0,.265,1.488l.009.027.314.877h-9.775a.72.72,0,0,0-.719.753l.211,4.509.719-.034h-.72a4.13,4.13,0,0,0,4.13,4.13.72.72,0,1,0,0-1.44h-2.182a.72.72,0,0,0-.72.72v9.359a.72.72,0,1,0,1.44,0V109.65h1.462a.72.72,0,1,0,0-1.44,2.691,2.691,0,0,1-2.691-2.69v-.034l-.176-3.755h10.044a.72.72,0,0,0,.678-.963l-.66-1.84-.678.243.687-.216a3.635,3.635,0,0,1-.2-1.056.868.868,0,0,1,.066-.381c.042-.078.06-.078.1-.1l.04-.012v0h0v0l-.028-.4v.4h.028l-.028-.4v.4a.719.719,0,0,0,.2-.027l-.148-.521V97.4l.148-.021-.148-.52v.207l-.154.307a.368.368,0,0,0,.154.028V97.07l-.154.307a1.374,1.374,0,0,1,.244.2,9.733,9.733,0,0,1,.857.982c.477.608.98,1.323,1.36,1.882.19.279.35.52.462.691s.174.268.175.269l.606-.388-.693.2.325-.091H164.6l.014.091.325-.091H164.6a1.661,1.661,0,0,1-.077.313,19.436,19.436,0,0,1-1.134,2.477c-.223.427-.433.813-.587,1.092s-.25.447-.251.447l.625.357-.189-.694-.012,0a3.771,3.771,0,0,0-1.292.624,3,3,0,0,0-.935,1.17l-.011.026-.691,1.735a.714.714,0,0,0-.05.232l-.445,9.359a.72.72,0,0,0,1.439.068" transform="translate(-134.349 -85.893)" fill="#2b2b2b"/>
      <path id="Path_241" data-name="Path 241" d="M40.612,29.6H35.944a1.811,1.811,0,0,1-1.811-1.811V9.092a1.811,1.811,0,0,1,1.811-1.811h4.668V29.6Z" transform="translate(-30.533 -6.561)" fill="#2b2b2b"/>
      <path id="Path_242" data-name="Path 242" d="M34.507,23.49v-.72H29.84a1.093,1.093,0,0,1-1.091-1.091V2.984A1.093,1.093,0,0,1,29.84,1.893h3.948v21.6h.72v0h.72V1.173a.72.72,0,0,0-.72-.72H29.84a2.531,2.531,0,0,0-2.531,2.531V21.679A2.531,2.531,0,0,0,29.84,24.21h4.668a.72.72,0,0,0,.72-.72Z" transform="translate(-24.429 -0.453)" fill="#2b2b2b"/>
      <path id="Path_243" data-name="Path 243" d="M346,29.6h-4.668V7.281H346a1.811,1.811,0,0,1,1.811,1.811V27.787A1.811,1.811,0,0,1,346,29.6" transform="translate(-305.338 -6.561)" fill="#2b2b2b"/>
      <path id="Path_244" data-name="Path 244" d="M339.9,23.489v-.72h-3.948V1.892H339.9a1.093,1.093,0,0,1,1.091,1.091V21.679a1.093,1.093,0,0,1-1.091,1.091v1.44a2.532,2.532,0,0,0,2.531-2.531V2.984A2.532,2.532,0,0,0,339.9.453h-4.668a.719.719,0,0,0-.72.72V23.489a.719.719,0,0,0,.72.72H339.9Z" transform="translate(-299.233 -0.453)" fill="#2b2b2b"/>
      <path id="Path_246" data-name="Path 246" d="M108.158,124.772H102.4v.72h5.04a.72.72,0,0,1,.72-.72m18.718-1.44v1.44h-3.929c.135.206.215.33.216.332a.692.692,0,0,1,.087.193,1.011,1.011,0,0,1,.035.195h3.592Z" transform="translate(-91.6 -110.374)" fill="#2b2b2b"/>
      <path id="Path_247" data-name="Path 247" d="M260.595,123.332h-1.228c.009.03.018.061.028.092l.655,1.825a.718.718,0,0,1,.042.243h2.02c-.1-.157-.234-.352-.383-.571-.321-.471-.728-1.052-1.135-1.588" transform="translate(-232.016 -110.374)" fill="#fff"/>
      <path id="Path_252" data-name="Path 252" d="M34.133,181.254v2.16a1.811,1.811,0,0,0,1.811,1.811h4.668v-2.16h-.72v1.44H35.944a1.093,1.093,0,0,1-1.091-1.091V182.7a1.808,1.808,0,0,1-.72-1.445" transform="translate(-30.533 -162.188)" fill="#2b2b2b"/>
      <path id="Path_253" data-name="Path 253" d="M353.2,194.961a1.8,1.8,0,0,1-1.091.365H348.16v1.44h3.948a1.093,1.093,0,0,0,1.091-1.091Z" transform="translate(-311.445 -174.449)" fill="#2b2b2b"/>
      <path id="Path_254" data-name="Path 254" d="M347.811,181.254a1.808,1.808,0,0,1-.72,1.445v.714A1.093,1.093,0,0,1,346,184.5h-3.948v-1.44h-.72v2.16H346a1.811,1.811,0,0,0,1.811-1.811Z" transform="translate(-305.337 -162.188)" fill="#2b2b2b"/>
      <path id="Path_255" data-name="Path 255" d="M9.707,88.854a2.88,2.88,0,0,1-2.879-2.879v-.72a2.88,2.88,0,0,1,2.879-2.879Zm0,0" transform="translate(-6.108 -73.736)" fill="#fff"/>
      <path id="Path_256" data-name="Path 256" d="M3.6,82.746v-.72a2.164,2.164,0,0,1-2.16-2.16v-.72a2.163,2.163,0,0,1,2.16-2.16v-.72H2.88v6.479H3.6v0h.72V76.267a.72.72,0,0,0-.72-.72,3.6,3.6,0,0,0-3.6,3.6v.72a3.6,3.6,0,0,0,3.6,3.6.72.72,0,0,0,.72-.72Zm0,0" transform="translate(0 -67.628)" fill="#2b2b2b"/>
      <path id="Path_257" data-name="Path 257" d="M402.773,88.854a2.88,2.88,0,0,0,2.879-2.879v-.72a2.88,2.88,0,0,0-2.879-2.879Zm0,0" transform="translate(-360.299 -73.736)" fill="#fff"/>
      <path id="Path_258" data-name="Path 258" d="M396.665,82.746v.72a3.6,3.6,0,0,0,3.6-3.6v-.72a3.6,3.6,0,0,0-3.6-3.6.72.72,0,0,0-.72.72v6.479a.72.72,0,0,0,.72.72v-.72h.72V76.267h-.72v.72a2.163,2.163,0,0,1,2.16,2.16v.72a2.164,2.164,0,0,1-2.16,2.16v.72h0Zm0,0" transform="translate(-354.191 -67.628)" fill="#2b2b2b"/>
    </g>
  </g>
</svg>
