<svg xmlns="http://www.w3.org/2000/svg" xmlns:xlink="http://www.w3.org/1999/xlink" width="87.999" height="99.14" viewBox="0 0 87.999 99.14">
  <defs>
    <filter id="Union_3" x="0" y="0" width="87.999" height="99.14" filterUnits="userSpaceOnUse">
      <feOffset dy="2" input="SourceAlpha"/>
      <feGaussianBlur stdDeviation="3" result="blur"/>
      <feFlood flood-color="#0adae9"/>
      <feComposite operator="in" in2="blur"/>
      <feComposite in="SourceGraphic"/>
    </filter>
    <filter id="Path_14463" x="3.953" y="4.671" width="80" height="80" filterUnits="userSpaceOnUse">
      <feOffset dy="3" input="SourceAlpha"/>
      <feGaussianBlur stdDeviation="3" result="blur-2"/>
      <feFlood flood-opacity="0.161"/>
      <feComposite operator="in" in2="blur-2"/>
      <feComposite in="SourceGraphic"/>
    </filter>
  </defs>
  <g id="Group_16428" data-name="Group 16428" transform="translate(-10164.094 -2552.597)">
    <g id="Group_16427" data-name="Group 16427" transform="translate(95 -2)">
      <g id="Group_16400" data-name="Group 16400" transform="translate(170)">
        <g id="Group_16395" data-name="Group 16395" transform="translate(85)">
          <g id="Group_16391" data-name="Group 16391" transform="translate(89 2)">
            <g id="Group_16389" data-name="Group 16389" transform="translate(87)">
              <g id="Group_16386" data-name="Group 16386" transform="translate(186 -4)">
                <g id="Group_16381" data-name="Group 16381" transform="translate(13757.811 3656.458)">
                  <g transform="matrix(1, 0, 0, 1, -4305.72, -1099.86)" filter="url(#Union_3)">
                    <path id="Union_3-2" data-name="Union 3" d="M34.713,81.12a1.464,1.464,0,0,1-1.053-.712l-6.966-11.4a35,35,0,1,1,16.483.031L36.292,80.377a1.507,1.507,0,0,1-.764.654,1.586,1.586,0,0,1-.572.107A1.559,1.559,0,0,1,34.713,81.12Z" transform="translate(9 7)" fill="#2b2b2b"/>
                  </g>
                  <g transform="matrix(1, 0, 0, 1, -4305.72, -1099.86)" filter="url(#Path_14463)">
                    <path id="Path_14463-2" data-name="Path 14463" d="M31,0A31,31,0,1,1,0,31,31,31,0,0,1,31,0Z" transform="translate(12.95 10.67)" fill="#02cc45"/>
                  </g>
                </g>
              </g>
            </g>
          </g>
        </g>
      </g>
    </g>
    <g id="hiking_1_" data-name="hiking(1)" transform="translate(10191.504 2573.221)">
      <g id="Group_1836" data-name="Group 1836" transform="translate(3.016 5.279)">
        <g id="Group_1835" data-name="Group 1835" transform="translate(2.262 6.787)">
          <path id="Path_1678" data-name="Path 1678" d="M106,160v2.715a4.524,4.524,0,0,0,4.525,4.525H124.1a4.524,4.524,0,0,0,4.525-4.525V160Z" transform="translate(-106 -160)" fill="none"/>
          <path id="Path_1680" data-name="Path 1680" d="M179.574,358.787v4.525H166v-4.525a6.787,6.787,0,0,1,13.574,0Z" transform="translate(-161.475 -337.521)" fill="#fff"/>
        </g>
        <path id="Path_1681" data-name="Path 1681" d="M230.525,226v2.262a2.262,2.262,0,1,1-4.525,0V226Z" transform="translate(-214.689 -214.236)" fill="#fff"/>
        <path id="Path_1682" data-name="Path 1682" d="M100.885,70H78.262A2.262,2.262,0,0,0,76,72.262v2.262a2.262,2.262,0,0,0,2.262,2.262h22.623a2.262,2.262,0,0,0,2.262-2.262V72.262A2.262,2.262,0,0,0,100.885,70Z" transform="translate(-76 -70)" fill="#fff"/>
      </g>
      <g id="Group_1837" data-name="Group 1837" transform="translate(0)">
        <path id="Path_1698" data-name="Path 1698" d="M3.564,8.134l.563,21.983v1.928l1.3,1.01,4.387.317,2.4-.758h12.6l.981-1.327-.63-23.152Z" transform="translate(1.839 4.197)" fill="#fff"/>
        <path id="Path_1684" data-name="Path 1684" d="M39.016,36.347h1.6a3.022,3.022,0,0,0,2.921,2.262H49.2a.754.754,0,1,0,0-1.508H46.557v-3.77a6.033,6.033,0,0,1,12.065,0V37.1H55.983a.754.754,0,1,0,0,1.508h5.656a3.022,3.022,0,0,0,2.921-2.262h1.6a3.02,3.02,0,0,0,3.016-3.016V28.354a5.286,5.286,0,0,0-4.525-5.224V12.724A3.022,3.022,0,0,0,66.918,9.8V7.541A3.02,3.02,0,0,0,63.9,4.525H57.869V3.016A3.02,3.02,0,0,0,54.852,0H50.328a3.02,3.02,0,0,0-3.016,3.016V4.525H41.279a3.02,3.02,0,0,0-3.016,3.016V9.8a3.022,3.022,0,0,0,2.262,2.921V23.13A5.286,5.286,0,0,0,36,28.354v4.977A3.02,3.02,0,0,0,39.016,36.347ZM42.033,12.82H63.147V14.78a3.775,3.775,0,0,1-3.77,3.77h-3.77V17.042a.754.754,0,0,0-.754-.754H50.328a.754.754,0,0,0-.754.754v1.508H45.8a3.775,3.775,0,0,1-3.77-3.77Zm16.59-6.787v5.279H46.557V6.033ZM54.1,19.3a1.508,1.508,0,1,1-3.016,0V17.8H54.1ZM52.59,25.79a7.534,7.534,0,0,0-6.033,3.021V20.059h3.112a3.017,3.017,0,0,0,5.842,0h3.112V28.8A7.513,7.513,0,0,0,52.59,25.79Zm15.082,2.564v4.977a1.51,1.51,0,0,1-1.508,1.508H64.655V24.659a3.777,3.777,0,0,1,3.016,3.695Zm-4.525,7.239A1.51,1.51,0,0,1,61.639,37.1H60.131V20a5.269,5.269,0,0,0,3.016-1.535ZM65.409,7.541V9.8A1.51,1.51,0,0,1,63.9,11.311h-3.77V6.033H63.9A1.51,1.51,0,0,1,65.409,7.541ZM48.82,3.016a1.51,1.51,0,0,1,1.508-1.508h4.525A1.51,1.51,0,0,1,56.36,3.016V4.525H48.82ZM39.77,9.8V7.541a1.51,1.51,0,0,1,1.508-1.508h3.77v5.279h-3.77A1.51,1.51,0,0,1,39.77,9.8ZM45.049,20V37.1H43.541a1.51,1.51,0,0,1-1.508-1.508V18.469A5.268,5.268,0,0,0,45.049,20Zm-7.541,8.35a3.777,3.777,0,0,1,3.016-3.695v10.18H39.016a1.51,1.51,0,0,1-1.508-1.508Z" transform="translate(-36)" fill="#2b2b2b"/>
        <path id="Path_1685" data-name="Path 1685" d="M222.033,402.754a.754.754,0,0,0-.754-.754h-4.525a.754.754,0,0,0,0,1.508h4.525A.754.754,0,0,0,222.033,402.754Z" transform="translate(-202.426 -371.686)" fill="#2b2b2b"/>
        <ellipse id="Ellipse_233" data-name="Ellipse 233" cx="0.758" cy="1.516" rx="0.758" ry="1.516" transform="translate(15.746 36.243)" fill="#2b2b2b"/>
      </g>
      <path id="Path_1752" data-name="Path 1752" d="M42.517,12.742v1.386l.825,8.12,3.177-2.522L50.5,19.36l2.856,1.435,2.073,1.884L55.264,13.1H51.881L50.5,15.2H47.834L46.258,13.36Z" transform="translate(-32.637 6.576)" fill="#2b2b2b" stroke="#2b2b2b" stroke-width="1"/>
      <path id="Path_14460" data-name="Path 14460" d="M6.546,3.6v6.22H19.737V3.6Z" transform="translate(3.378 1.857)" fill="#2b2b2b" stroke="#2b2b2b" stroke-width="1"/>
    </g>
  </g>
</svg>
