<svg xmlns="http://www.w3.org/2000/svg" width="333.896" height="348.925" viewBox="0 0 333.896 348.925">
  <g id="Group_13878" data-name="Group 13878" transform="translate(-60.281 46.032) rotate(-17)">
    <g id="Group_13265" data-name="Group 13265" transform="translate(162.849 38.901)">
      <path id="Path_1878" data-name="Path 1878" d="M2238.451,755.227s34.5-23.369,67.475,14.319c21.938,25.074-3.527,57.859-3.527,57.859Z" transform="translate(-2238.451 -748.065)" fill="#fa7269"/>
    </g>
    <g id="Group_13266" data-name="Group 13266" transform="translate(99.029 58.136)">
      <path id="Path_1879" data-name="Path 1879" d="M2158.769,824.813s38.913-10.438,41.287-11.3c13.572-3,8.312-22.51,7.891-28.518-1.323-18.824,16.429-17.441,19.193,6.656,3.283,28.634-13.431,35.862-27.728,34.913-8.221,0-39.838,5.4-39.838,5.4Z" transform="translate(-2158.769 -772.081)" fill="#ffbe9d"/>
    </g>
    <g id="Group_13267" data-name="Group 13267" transform="translate(144.002 54.198)">
      <path id="Path_1880" data-name="Path 1880" d="M2223.932,767.164c6.235,0,23.917,8.262,16.316,47.758-4.627,0-23.468-9.255-23.468-9.255S2209.434,769.642,2223.932,767.164Z" transform="translate(-2214.919 -767.164)" fill="#07053b"/>
    </g>
    <g id="Group_13270" data-name="Group 13270" transform="translate(79.773 113.987)">
      <g id="Group_13269" data-name="Group 13269">
        <g id="Group_13268" data-name="Group 13268">
          <path id="Path_1881" data-name="Path 1881" d="M2157.21,873.342c.286-1.193,3.8-10.725,4.072-11.8,1.4-5.551,3.7-9.929,2.7-13.351a7.862,7.862,0,0,0-4.26-4.942c-8.412-4.085-22.96,1.76-24.994,2.592l.375,5.507c6.846-2.8,17.575-5.619,22.326-3.311a2.541,2.541,0,0,1,1.478,1.65c.591,2.025-1.032,4.644-2.18,9.2-.277,1.091-4.365,11.991-4.657,13.2Z" transform="translate(-2134.726 -841.813)" fill="#000102"/>
        </g>
      </g>
    </g>
    <g id="Group_13272" data-name="Group 13272" transform="translate(126.836 135.414)">
      <g id="Group_13271" data-name="Group 13271">
        <path id="Path_1882" data-name="Path 1882" d="M2251.209,868.566s-37.092,12.935-53.918,24.469c-10.425,7.146,3.884,25.523,3.884,25.523l33.834,53.273,11.19-2.324s-3.262-51.86-25.006-62.533l16.931-9.833Z" transform="translate(-2193.487 -868.566)" fill="#ffbe9d"/>
      </g>
    </g>
    <g id="Group_13274" data-name="Group 13274" transform="translate(130.64 135.414)">
      <g id="Group_13273" data-name="Group 13273">
        <path id="Path_1883" data-name="Path 1883" d="M2252.153,868.566s-37.091,12.935-53.917,24.469l23.9,13.939,16.93-9.833Z" transform="translate(-2198.236 -868.566)" fill="#5b74b3"/>
      </g>
    </g>
    <g id="Group_13303" data-name="Group 13303" transform="translate(0 155.876)">
      <g id="Group_13278" data-name="Group 13278" transform="translate(156.209 89.139)">
        <g id="Group_13277" data-name="Group 13277">
          <g id="Group_13276" data-name="Group 13276">
            <g id="Group_13275" data-name="Group 13275">
              <path id="Path_1884" data-name="Path 1884" d="M2230.16,1021.849c0,.255.008.5.021.75a16.419,16.419,0,0,0,6.162,12.112,16.221,16.221,0,0,0,10.174,3.583,16.417,16.417,0,0,0,16.322-15.421c.021-.334.035-.675.035-1.023a16.422,16.422,0,0,0-16.357-16.443,16.136,16.136,0,0,0-6.62,1.411,16.477,16.477,0,0,0-9.717,14.158v.14C2230.167,1021.355,2230.16,1021.6,2230.16,1021.849Zm2.674.516c-.013-.174-.013-.342-.013-.516s0-.334.013-.5a7.382,7.382,0,0,1,.053-.776,13.711,13.711,0,0,1,5.7-9.939,13.509,13.509,0,0,1,7.927-2.555,13.749,13.749,0,0,1,13.7,13.77c0,.322-.014.636-.042.95a13.688,13.688,0,0,1-27.338-.434Z" transform="translate(-2230.16 -1005.406)" fill="#110855"/>
            </g>
          </g>
        </g>
      </g>
      <g id="Group_13281" data-name="Group 13281" transform="translate(47.026 97.576)">
        <g id="Group_13280" data-name="Group 13280">
          <g id="Group_13279" data-name="Group 13279">
            <path id="Path_1885" data-name="Path 1885" d="M2093.841,1023.946a7.962,7.962,0,1,0,7.962-8.006A7.984,7.984,0,0,0,2093.841,1023.946Z" transform="translate(-2093.841 -1015.94)" fill="#110855"/>
          </g>
        </g>
      </g>
      <g id="Group_13289" data-name="Group 13289" transform="translate(205.345 50.311)">
        <g id="Group_13284" data-name="Group 13284" transform="translate(47.036 47.266)">
          <g id="Group_13283" data-name="Group 13283">
            <g id="Group_13282" data-name="Group 13282">
              <path id="Path_1886" data-name="Path 1886" d="M2350.463,1025.823a7.962,7.962,0,1,0,5.85-9.656A7.983,7.983,0,0,0,2350.463,1025.823Z" transform="translate(-2350.234 -1015.942)" fill="#110855"/>
            </g>
          </g>
        </g>
        <g id="Group_13288" data-name="Group 13288">
          <g id="Group_13287" data-name="Group 13287">
            <g id="Group_13286" data-name="Group 13286">
              <g id="Group_13285" data-name="Group 13285">
                <path id="Path_1887" data-name="Path 1887" d="M2291.529,1013.57a54.908,54.908,0,1,0,41.952-55.093,54.474,54.474,0,0,0-13.322,5.147c-1.088.589-2.152,1.223-3.187,1.879-.436.28-.862.561-1.284.848a55.4,55.4,0,0,0-24.159,47.219Zm6.638.094a48.7,48.7,0,0,1,20.971-41.591,47.014,47.014,0,0,1,4.471-2.734c1.25-.674,2.541-1.3,3.863-1.858a48.19,48.19,0,0,1,54.029,11.276,48.354,48.354,0,1,1-83.334,34.906Z" transform="translate(-2291.508 -956.929)" fill="#110855"/>
              </g>
            </g>
          </g>
        </g>
      </g>
      <g id="Group_13293" data-name="Group 13293" transform="translate(0 50.302)">
        <g id="Group_13292" data-name="Group 13292">
          <g id="Group_13291" data-name="Group 13291">
            <g id="Group_13290" data-name="Group 13290">
              <path id="Path_1888" data-name="Path 1888" d="M2035.127,1012.2a54.987,54.987,0,1,0,76.176-51.008q-2.447-1.032-5-1.824a54.216,54.216,0,0,0-11.3-2.227q-2.416-.219-4.887-.22a54.394,54.394,0,0,0-22.7,4.933A55.366,55.366,0,0,0,2035.127,1012.2Zm6.644,0a48.33,48.33,0,0,1,62.286-46.543,47.485,47.485,0,0,1,5,1.832,48.54,48.54,0,1,1-67.286,44.711Z" transform="translate(-2035.127 -956.917)" fill="#110855"/>
            </g>
          </g>
        </g>
      </g>
      <g id="Group_13296" data-name="Group 13296" transform="translate(130.64 119.28)">
        <g id="Group_13295" data-name="Group 13295">
          <g id="Group_13294" data-name="Group 13294">
            <path id="Path_1889" data-name="Path 1889" d="M2228.638,1048.419a2.672,2.672,0,0,0-.732-5.233l-27-.147a2.669,2.669,0,0,0-.031,5.338l27,.148A2.631,2.631,0,0,0,2228.638,1048.419Z" transform="translate(-2198.236 -1043.039)" fill="#110855"/>
          </g>
        </g>
      </g>
      <g id="Group_13297" data-name="Group 13297" transform="translate(52.529 4.077)">
        <path id="Path_1890" data-name="Path 1890" d="M2100.865,999.674l28.722-80.435v0l2.408-6.808.773.26a2.328,2.328,0,0,1,1.229-.392h121.565l4.271-11.364a2.658,2.658,0,1,1,4.967,1.892l-4.335,11.532a2.612,2.612,0,0,1,.115.61,2.8,2.8,0,0,1-.208,1.058l49.774,82.426c.966,1.108-3.911,3.428-4.367,2.9L2257.7,921.724l-23.36,62.143a2.659,2.659,0,0,1-2.484,1.724,2.627,2.627,0,0,1-.94-.174,2.673,2.673,0,0,1-1.542-3.442l24.187-64.342H2135.792l-.623,1.762,69.048,64.682a2.677,2.677,0,0,1,.133,3.773,2.645,2.645,0,0,1-3.752.132l-67.367-63.107-27.361,76.586a2.657,2.657,0,1,1-5-1.787Z" transform="translate(-2100.711 -899.204)" fill="#fa7269"/>
      </g>
      <g id="Group_13300" data-name="Group 13300" transform="translate(193.203)">
        <g id="Group_13299" data-name="Group 13299">
          <g id="Group_13298" data-name="Group 13298">
            <path id="Path_1891" data-name="Path 1891" d="M2281.659,904.792h26.794a5.339,5.339,0,0,0,0-10.679h-26.794a5.339,5.339,0,0,0,0,10.679Z" transform="translate(-2276.348 -894.113)" fill="#110855"/>
          </g>
        </g>
      </g>
      <g id="Group_13302" data-name="Group 13302" transform="translate(152.415 79.986)">
        <g id="Group_13301" data-name="Group 13301">
          <path id="Path_1892" data-name="Path 1892" d="M2227.383,1018.038c.766,3.11,106.141,4.1,112.709,2.012,0-15.351-96.792-30.27-111.944-24.987C2223.411,996.715,2226,1012.414,2227.383,1018.038Z" transform="translate(-2225.423 -993.978)" fill="#e3675f"/>
        </g>
      </g>
    </g>
    <g id="Group_13310" data-name="Group 13310" transform="translate(144.619 135.414)">
      <g id="Group_13305" data-name="Group 13305" transform="translate(0 47.614)">
        <g id="Group_13304" data-name="Group 13304">
          <path id="Path_1893" data-name="Path 1893" d="M2242.739,941.1s2.525,42.373-12.931,66.089H2215.69c7.794-19.017,1.81-64.728,2.176-71.814.138-2.7,2.593-7.363,2.593-7.363Z" transform="translate(-2215.69 -928.014)" fill="#ffbe9d"/>
        </g>
      </g>
      <g id="Group_13307" data-name="Group 13307" transform="translate(4.77)">
        <g id="Group_13306" data-name="Group 13306">
          <path id="Path_1894" data-name="Path 1894" d="M2306.289,868.566c-.019,16.14-29.062,43.771-62.364,60.7l-22.28-13.087c10.406-17.152,35.168-47.614,35.168-47.614Z" transform="translate(-2221.645 -868.566)" fill="#6886cd"/>
        </g>
      </g>
      <g id="Group_13309" data-name="Group 13309" transform="translate(17.657)">
        <g id="Group_13308" data-name="Group 13308">
          <path id="Path_1895" data-name="Path 1895" d="M2239.8,924.961c15.072-9.561,29.851-24.359,39.82-35.378,8.313-9.188,14.683-17.271,17.556-21.016h-2.683c-7.9,10.156-32.3,40.051-56.753,55.184Z" transform="translate(-2237.735 -868.566)" fill="#07053b"/>
        </g>
      </g>
    </g>
    <g id="Group_13311" data-name="Group 13311" transform="translate(132.058 30.021)">
      <path id="Path_1896" data-name="Path 1896" d="M2215.652,736.979,2230.8,753.02l-15.118,14.319-15.673-20.97Z" transform="translate(-2200.006 -736.979)" fill="#ffbe9d"/>
    </g>
    <g id="Group_13312" data-name="Group 13312" transform="translate(146.229 46.055)">
      <path id="Path_1897" data-name="Path 1897" d="M2305.5,846.357c-.071-18.456-30.5-90.213-71.183-89.352l-16.62,13.534c2.03,6.505,5,14.434,5,14.434l33.334,61.384Z" transform="translate(-2217.699 -756.997)" fill="#0b0754"/>
    </g>
    <g id="Group_13313" data-name="Group 13313" transform="translate(97.846 55.442)">
      <path id="Path_1898" data-name="Path 1898" d="M2158.475,824.143s45.037-3.166,47.672-4.6c15.41-5.868,10.348-28.289,9.753-35.409-1.867-22.311,19.216-20.95,22.874,7.595,4.346,33.919-14.176,41.882-31.123,43.244-9.648,1.424-50.361-1.338-50.361-1.338Z" transform="translate(-2157.291 -768.717)" fill="#ffbe9d"/>
    </g>
    <g id="Group_13314" data-name="Group 13314" transform="translate(78.996 110.157)">
      <path id="Path_1899" data-name="Path 1899" d="M2147.16,848.669c-3.173-.551-5.272-5.558-6.081-5.747a1.658,1.658,0,0,0-1.887.625q-.648.932-1.727,2.543-1.094,1.606-.793,2.193a5.5,5.5,0,0,1,.044,2.1,4.372,4.372,0,0,1-.953,2.539q-.834.952-1.127-1.329t-.88-5.047q.847-2.674,1.652-4.792,1.57-4.071,3.133-4.395c9.516-1.012,15.319.709,17.838.119,1.252,5.013,2.646,7.977,1.189,8.525C2156.08,846.616,2150.333,849.213,2147.16,848.669Z" transform="translate(-2133.756 -837.031)" fill="#ffbe9d"/>
    </g>
    <g id="Group_13315" data-name="Group 13315" transform="translate(114.323 16.038)">
      <path id="Path_1900" data-name="Path 1900" d="M2177.906,744.23c.55-2.281,2.232-7.758,2.232-7.758a140.373,140.373,0,0,1-1.744-14.736l28.683-2.216s1.949,15.988,1.162,24.755c-1.061,13.917-20.869,25.676-26.117,2.163l-.271-1.135C2179.717,745.456,2177.531,745.789,2177.906,744.23Z" transform="translate(-2177.864 -719.52)" fill="#ffbe9d"/>
    </g>
    <g id="Group_13316" data-name="Group 13316" transform="translate(111.033)">
      <path id="Path_1901" data-name="Path 1901" d="M2216.27,707.755c-11.561-17.82-52.825-3.546-40.107,12.134,6.207,7.652,28.13-3.279,28.509,3.649.654,11.93,4.279,16.859,4.279,16.859C2216.234,738.167,2225.572,722.094,2216.27,707.755Z" transform="translate(-2173.756 -699.496)" fill="#263238"/>
    </g>
    <g id="Group_13317" data-name="Group 13317" transform="translate(135.408 18.082)">
      <path id="Path_1902" data-name="Path 1902" d="M2212.635,729.169l-2.529,8.085-2.364.243s-1.436-11.263-3.021-13.626C2201.663,719.306,2212.78,724.3,2212.635,729.169Z" transform="translate(-2204.189 -722.072)" fill="#263238"/>
    </g>
    <g id="Group_13318" data-name="Group 13318" transform="translate(120.602 31.759)">
      <path id="Path_1903" data-name="Path 1903" d="M2185.713,741.054a1.569,1.569,0,1,0,1.372-1.9A1.662,1.662,0,0,0,2185.713,741.054Z" transform="translate(-2185.703 -739.148)" fill="#020202"/>
    </g>
    <g id="Group_13321" data-name="Group 13321" transform="translate(79.07 114.096)">
      <g id="Group_13320" data-name="Group 13320">
        <g id="Group_13319" data-name="Group 13319">
          <path id="Path_1904" data-name="Path 1904" d="M2134.926,851.375a5.946,5.946,0,0,0,8.3,1.486,6.013,6.013,0,0,0,1.472-8.347,5.949,5.949,0,0,0-8.306-1.487A6.011,6.011,0,0,0,2134.926,851.375Z" transform="translate(-2133.848 -841.949)" fill="#737a78"/>
        </g>
      </g>
    </g>
    <g id="Group_13322" data-name="Group 13322" transform="translate(83.725 141.297)">
      <path id="Path_1905" data-name="Path 1905" d="M2139.661,908.435H2149.9l12.145-32.525h-10.236Z" transform="translate(-2139.661 -875.91)" fill="#fa7269"/>
    </g>
    <g id="Group_13323" data-name="Group 13323" transform="translate(118.154 39.567)">
      <path id="Path_1906" data-name="Path 1906" d="M2182.737,751.4c.836-2.669,18.518-6.338,21.962,7.809,1.889,4.893-1,14.293-8.485,10.833S2181.768,754.5,2182.737,751.4Z" transform="translate(-2182.646 -748.896)" fill="#263238"/>
    </g>
    <g id="Group_13325" data-name="Group 13325" transform="translate(118.585 28.239)">
      <g id="Group_13324" data-name="Group 13324">
        <path id="Path_1907" data-name="Path 1907" d="M2189.867,738.13a1.032,1.032,0,0,0,.625-1.855,6.8,6.8,0,0,0-6.7-1.082,1.032,1.032,0,0,0,.839,1.886,4.77,4.77,0,0,1,4.61.84A1.022,1.022,0,0,0,2189.867,738.13Z" transform="translate(-2183.185 -734.753)" fill="#fff"/>
      </g>
    </g>
    <g id="Group_13327" data-name="Group 13327" transform="translate(151.253 43.078)">
      <g id="Group_13326" data-name="Group 13326">
        <path id="Path_1908" data-name="Path 1908" d="M2298.781,824.528c2.779,0,2.688.025,3.019,0l1.245-7.933c-.388.031-39.384,2.605-61.757-21-6.785-7.16-9.965-13.8-9.452-19.739.692-8.019,8.159-13.576,11.747-16.248.619-.46,2.887-1.64,3.934-1.524l-5.779-4.8a59.132,59.132,0,0,0-6.026,2.891c-4.152,3.089-10.662,7.5-11.655,19.009-.713,8.258,3.177,16.932,11.564,25.783C2255.86,822.323,2286.858,824.527,2298.781,824.528Z" transform="translate(-2223.973 -753.28)" fill="#fa7269"/>
      </g>
    </g>
    <g id="Group_13328" data-name="Group 13328" transform="translate(121.641 46.476)">
      <path id="Path_1909" data-name="Path 1909" d="M2187,762.041a11.269,11.269,0,0,0,5.392-4.518c0,1.412-.787,4.266-4.1,6.3C2187.994,763.462,2187,762.041,2187,762.041Z" transform="translate(-2187.001 -757.523)" fill="#fff"/>
    </g>
    <g id="Group_13329" data-name="Group 13329" transform="translate(153.836 54.198)">
      <path id="Path_1910" data-name="Path 1910" d="M2236.21,767.164c6.236,0,23.919,8.262,16.317,47.758-4.627,0-23.469-9.255-23.469-9.255S2221.713,769.642,2236.21,767.164Z" transform="translate(-2227.197 -767.164)" fill="#07053b"/>
    </g>
    <g id="Group_13330" data-name="Group 13330" transform="translate(137.875 26.241)">
      <path id="Path_1911" data-name="Path 1911" d="M2208.07,735.1c-1.469,2.547-.862,5.652,1.359,6.934s5.215.257,6.685-2.291.863-5.652-1.358-6.934S2209.542,732.554,2208.07,735.1Z" transform="translate(-2207.269 -732.259)" fill="#ffbe9d"/>
    </g>
    <g id="Group_13333" data-name="Group 13333" transform="translate(260.349 224.058)">
      <g id="Group_13331" data-name="Group 13331">
        <path id="Path_1912" data-name="Path 1912" d="M2383.488,1045.759c30.264-20.888,13.381-69.038-23.3-66.415C2393.994,982.58,2407.85,1022.128,2383.488,1045.759Z" transform="translate(-2360.183 -979.241)" fill="#fff"/>
      </g>
      <g id="Group_13332" data-name="Group 13332" transform="translate(0.033 11.937)">
        <path id="Path_1913" data-name="Path 1913" d="M2375.831,1038.809c21.238-13.148,9.287-47.484-15.607-44.48C2382.314,997.3,2391.192,1022.745,2375.831,1038.809Z" transform="translate(-2360.224 -994.144)" fill="#fff"/>
      </g>
    </g>
    <g id="Group_13336" data-name="Group 13336" transform="translate(22.849 264.933)">
      <g id="Group_13334" data-name="Group 13334" transform="translate(0 0.835)">
        <path id="Path_1914" data-name="Path 1914" d="M2063.655,1049.769c18.65,31.692,67.894,18.328,67.925-18.452C2125.911,1064.805,2085.467,1075.771,2063.655,1049.769Z" transform="translate(-2063.655 -1031.317)" fill="#fff"/>
      </g>
      <g id="Group_13335" data-name="Group 13335" transform="translate(10.445)">
        <path id="Path_1915" data-name="Path 1915" d="M2076.7,1042.632c11.581,22.13,46.69,12.69,45.489-12.357C2117.63,1052.093,2091.611,1059.112,2076.7,1042.632Z" transform="translate(-2076.696 -1030.275)" fill="#fff"/>
      </g>
    </g>
    <g id="Group_13337" data-name="Group 13337" transform="translate(117.925 255.436)">
      <path id="Path_1916" data-name="Path 1916" d="M2182.4,1039.081c31.406-.921,44.464-1.018,44.464-1.018a118.192,118.192,0,0,0-2.084-15.682s-2.333,2.176-7.926.976c-5.728-1.233-5.8-4.938-5.8-4.938a15.438,15.438,0,0,1-5.432,4.767,25.233,25.233,0,0,1-3.088,1.414c-1.048.4-2.125.748-3.208,1.068-1.112.327-2.233.621-3.339.909C2188.56,1028.511,2181.8,1030.136,2182.4,1039.081Z" transform="translate(-2182.361 -1018.418)" fill="#07082f"/>
    </g>
    <g id="Group_13338" data-name="Group 13338" transform="translate(138.099 260.204)">
      <path id="Path_1917" data-name="Path 1917" d="M2207.549,1025.784l2.339,3.42a1.674,1.674,0,0,0,2.764-1.889l-2.015-2.945A25.164,25.164,0,0,1,2207.549,1025.784Z" transform="translate(-2207.549 -1024.37)" fill="#fff"/>
    </g>
    <g id="Group_13339" data-name="Group 13339" transform="translate(131.553 262.686)">
      <path id="Path_1918" data-name="Path 1918" d="M2199.376,1028.378l2.22,3.849a1.675,1.675,0,0,0,2.9-1.673l-1.785-3.084C2201.6,1027.8,2200.48,1028.089,2199.376,1028.378Z" transform="translate(-2199.376 -1027.469)" fill="#fff"/>
    </g>
  </g>
</svg>
