<svg xmlns="http://www.w3.org/2000/svg" xmlns:xlink="http://www.w3.org/1999/xlink" width="1920.758" height="935.375" viewBox="0 0 1920.758 935.375">
  <defs>
    <clipPath id="clip-path">
      <rect x="328" width="1920.758" height="935.375" fill="none"/>
    </clipPath>
    <clipPath id="clip-path-2">
      <rect x="-231" width="1698.831" height="532.601" fill="none"/>
    </clipPath>
  </defs>
  <g id="Scroll_Group_18" data-name="Scroll Group 18" transform="translate(-328)" clip-path="url(#clip-path)" style="isolation: isolate">
    <g id="Group_16430" data-name="Group 16430" transform="translate(327.128 -2989.208)">
      <g id="Scroll_Group_15" data-name="Scroll Group 15" transform="translate(451.951 3193.187)" clip-path="url(#clip-path-2)" style="isolation: isolate">
        <g id="Group_16363" data-name="Group 16363" transform="translate(-451.952 -3193.187)">
          <g id="Group_16362" data-name="Group 16362">
            <path id="Path_15381" data-name="Path 15381" d="M258.19,1297.7c37-24,73.264-74.051,302.574-12.373,0,0,272.57-225.052,314.413-225.052,64.132,0,339.376,206.383,449.778,262.93,0,0,120.354-128.515,180.531-113.093,53.7,13.763,130.326,88.932,214.993,95.246,23.307,103.243-7.238,198.566-86.84,265.777H404.959C368.075,1540.393,187.19,1419.7,192.19,1395.7S221.19,1321.7,258.19,1297.7Z" transform="translate(217.688 2154.655)" fill="#a8dce0"/>
            <path id="Path_15413" data-name="Path 15413" d="M411.372,806.262c7.439,2.368,23.6,14.614,44.047,32.444,1.635,6.222,4.89,13.953,12.167,23.147,18,22.738-6.419,33.266,28.554,68.464s5.143,51.829,9.257,91.915,29.829,59.554,8.229,45.268c0,0-47.315-39.948-39.087-96.549,0,0-6.171-22.859-50.4-69.525s19.543-16.4,11.314-54.234C433.115,838,438.249,828.076,411.372,806.262Z" transform="translate(-200.688 2936.934) rotate(-31)" fill="#70b7bd"/>
            <path id="Path_15848" data-name="Path 15848" d="M8919.523,5857.149s12.853,18.237,17.7,22.235,37.927,14.541,37.927,14.541,13.329-2,0-14.541-22.6-8.482-29.869-16.177-21.645-17.328-25.757-12.905S8919.523,5857.149,8919.523,5857.149Z" transform="translate(-8260 -2411)" fill="#fff"/>
          </g>
          <path id="Path_15412" data-name="Path 15412" d="M1140.475,1475.041s-20.733,3.525-35.9,0c0,0-6.55-12.916-12.793-16.661-1.114-.875-19.959,1.781-72.513-7.513,0,0,33.659-14.775,26.405-36.219s-19.156-35.011-44.509-49.467c.04-3.077-.931-27.557-24.159-72.065h0c7.789,6.534,16.822,16.026,29.309,27.211,0,0,20.669,42.137,49.176,70.279C1080.842,1415.63,1093.5,1435.649,1140.475,1475.041Z" transform="translate(-67.401 2094.402) rotate(-9)" fill="#70b7bd"/>
          <path id="Path_15847" data-name="Path 15847" d="M9499.173,5749.968s-38.344-27.251-49.922-37.255-20.007-16.3-24.732-22.605-16.3-20.951-5.749-18.352,18.431,12.6,30.481,18.352,38.96,28.277,49.922,32.53,29.944,6.3,26.242,16.3,0,17.328,0,17.328Z" transform="translate(-8260 -2411)" fill="#fff"/>
        </g>
      </g>
      <path id="Path_15057" data-name="Path 15057" d="M14215,3215.428s439.782-98.8,591.084-104.525,385.039,62.928,562.854,0,333.077-85.938,461.066-85.938,310.626,85.938,310.626,85.938v285.882s-417.208,66.613-898.616,74.162S14215,3453.8,14215,3453.8Z" transform="translate(-14215 412.03)" fill="#a1d5ac"/>
      <g id="Group_15753" data-name="Group 15753" transform="translate(-542.516 355.252)">
        <g id="Group_15453" data-name="Group 15453" transform="translate(542.516 2796.77)">
          <path id="Path_14526" data-name="Path 14526" d="M475.356,124.024c1.736-12.408-16.053-22.617-29.421-23.678-6.375-.5-13,.454-19.035-1.618-13.086-4.49-16.906-15.841-29.673-21.142a34.407,34.407,0,0,0-29,.987A57.6,57.6,0,0,1,335.4,84.3c-8.992.566-15.718,6.983-23.586,11.308-5.861,3.222-10.886-3.734-19.864-2.017s-8.71,3.971-16.047,8.884-11.654,5.8-17.628,8.492-10.912,8.909-9.673,15.26Z" transform="translate(-248.406 -74.853)" fill="#ebebeb"/>
        </g>
      </g>
      <g id="Group_15805" data-name="Group 15805" transform="translate(1113.523 192.438)">
        <g id="Group_15453-2" data-name="Group 15453" transform="translate(542.516 2796.77)">
          <path id="Path_14526-2" data-name="Path 14526" d="M418.221,111.645c1.3-9.284-12.012-16.923-22.014-17.717-4.77-.378-9.725.339-14.243-1.211-9.792-3.359-12.65-11.853-22.2-15.82a25.745,25.745,0,0,0-21.7.739,43.1,43.1,0,0,1-24.57,4.287c-6.728.424-11.761,5.225-17.648,8.461-4.386,2.411-8.145-2.794-14.863-1.509s-6.517,2.971-12.008,6.647-8.72,4.339-13.19,6.354-8.165,6.666-7.237,11.418Z" transform="translate(-248.406 -74.853)" fill="#ebebeb"/>
        </g>
      </g>
      <path id="Path_15843" data-name="Path 15843" d="M5980,6317.389s137.033-49.66,234.349-43.935,147.835,51.521,147.835,51.521,36.495-4.723,54.526-7.585,205.079,7.585,205.079,7.585,102.346,21.873,150.753,42.66,43.854,58.934,43.854,58.934-287.541,7.063-496.4-8-340-70.7-340-70.7Z" transform="translate(-6627.236 -2181.862) rotate(-3)" fill="#54a2a8"/>
      <g id="Group_16365" data-name="Group 16365">
        <path id="Path_15857" data-name="Path 15857" d="M8411.385,6088.255c2.726,0,8.371-.539,6.413-2.611s-7.163-6.413-10.981-5.107-3.916,2.611-8.485,3.264-17.085.555-18.276,0-24.15-2.285-29.7-.767a90.939,90.939,0,0,1-21.327,2.611c-6.315-.1-41.9.016-37.646,4.8s10.36,6.086,12.091,5.32S8411.385,6088.255,8411.385,6088.255Z" transform="translate(-8260 -2411)" fill="#fff"/>
        <g id="Group_16262" data-name="Group 16262" transform="translate(25.084 3674.169) rotate(-4)">
          <g id="Group_16220" data-name="Group 16220" transform="translate(9.692 39.799)">
            <rect id="Rectangle_2054" data-name="Rectangle 2054" width="102.731" height="87.619" fill="#2ee6dc"/>
            <rect id="Rectangle_2055" data-name="Rectangle 2055" width="102.731" height="87.619" fill="#fff" opacity="0.5"/>
          </g>
          <g id="Group_16221" data-name="Group 16221" transform="translate(0 12.041)">
            <path id="Path_15826" data-name="Path 15826" d="M122.114,31.565,105.106,0h-88.1L0,31.565Z" fill="#2ee6dc"/>
            <path id="Path_15827" data-name="Path 15827" d="M122.114,31.565,105.106,0h-88.1L0,31.565Z" opacity="0.3"/>
          </g>
          <g id="Group_16222" data-name="Group 16222" transform="translate(30.022 39.799)">
            <rect id="Rectangle_2056" data-name="Rectangle 2056" width="102.731" height="87.619" fill="#2ee6dc"/>
            <rect id="Rectangle_2057" data-name="Rectangle 2057" width="102.731" height="87.619" fill="#fff" opacity="0.8"/>
          </g>
          <g id="Group_16223" data-name="Group 16223" transform="translate(102.335 0)">
            <path id="Path_15828" data-name="Path 15828" d="M9.534,0H0V3.765H1.556v9.465H7.977V3.765H9.534Z" transform="translate(0 0)" fill="#2ee6dc"/>
          </g>
          <g id="Group_16224" data-name="Group 16224" transform="translate(20.33 12.041)">
            <path id="Path_15829" data-name="Path 15829" d="M122.114,31.565,105.106,0h-88.1L0,31.565Z" transform="translate(0 0)" fill="#2ee6dc"/>
            <path id="Path_15830" data-name="Path 15830" d="M122.114,31.565,105.106,0h-88.1L0,31.565Z" transform="translate(0 0)" opacity="0.2"/>
          </g>
          <g id="Group_16226" data-name="Group 16226" transform="translate(68.152 87.73)">
            <g id="Group_16225" data-name="Group 16225" transform="translate(3.07 6.875)">
              <rect id="Rectangle_2058" data-name="Rectangle 2058" width="20.332" height="32.813" fill="#2ee6dc"/>
              <rect id="Rectangle_2059" data-name="Rectangle 2059" width="20.332" height="32.813" fill="#fff" opacity="0.4"/>
            </g>
            <path id="Path_15831" data-name="Path 15831" d="M22.142,0H4.329L0,8.035H26.471Z" fill="#2ee6dc"/>
          </g>
          <g id="Group_16227" data-name="Group 16227" transform="translate(74.772 100.179)">
            <rect id="Rectangle_2060" data-name="Rectangle 2060" width="6.226" height="8.501" fill="#263238"/>
            <rect id="Rectangle_2061" data-name="Rectangle 2061" width="6.226" height="8.501" transform="translate(7.004 0)" fill="#263238"/>
            <rect id="Rectangle_2062" data-name="Rectangle 2062" width="6.226" height="8.502" transform="translate(0 9.369)" fill="#263238"/>
            <rect id="Rectangle_2063" data-name="Rectangle 2063" width="6.226" height="8.502" transform="translate(7.004 9.369)" fill="#263238"/>
            <rect id="Rectangle_2064" data-name="Rectangle 2064" width="6.226" height="8.501" transform="translate(0 18.738)" fill="#263238"/>
            <rect id="Rectangle_2065" data-name="Rectangle 2065" width="6.226" height="8.501" transform="translate(7.004 18.738)" fill="#263238"/>
          </g>
          <g id="Group_16234" data-name="Group 16234" transform="translate(34.659 50.824)">
            <g id="Group_16228" data-name="Group 16228" transform="translate(0 0)">
              <rect id="Rectangle_2066" data-name="Rectangle 2066" width="29.574" height="18.056" transform="translate(6.226)" fill="#2ee6dc"/>
              <rect id="Rectangle_2067" data-name="Rectangle 2067" width="29.574" height="18.056" transform="translate(6.226)" fill="#fff" opacity="0.4"/>
              <rect id="Rectangle_2068" data-name="Rectangle 2068" width="5.448" height="6.693" transform="translate(8.172 1.946)" fill="#263238"/>
              <rect id="Rectangle_2069" data-name="Rectangle 2069" width="5.448" height="6.693" transform="translate(14.398 1.946)" fill="#263238"/>
              <rect id="Rectangle_2070" data-name="Rectangle 2070" width="5.448" height="6.693" transform="translate(8.172 9.418)" fill="#263238"/>
              <rect id="Rectangle_2071" data-name="Rectangle 2071" width="5.448" height="6.693" transform="translate(14.398 9.418)" fill="#263238"/>
              <rect id="Rectangle_2072" data-name="Rectangle 2072" width="6.226" height="16.499" transform="translate(0 0.778)" fill="#2ee6dc"/>
              <rect id="Rectangle_2073" data-name="Rectangle 2073" width="6.226" height="16.499" transform="translate(35.8 0.778)" fill="#2ee6dc"/>
              <rect id="Rectangle_2074" data-name="Rectangle 2074" width="5.448" height="6.693" transform="translate(22.18 1.946)" fill="#263238"/>
              <rect id="Rectangle_2075" data-name="Rectangle 2075" width="5.448" height="6.693" transform="translate(28.407 1.946)" fill="#263238"/>
              <rect id="Rectangle_2076" data-name="Rectangle 2076" width="5.448" height="6.693" transform="translate(22.18 9.418)" fill="#263238"/>
              <rect id="Rectangle_2077" data-name="Rectangle 2077" width="5.448" height="6.693" transform="translate(28.407 9.418)" fill="#263238"/>
            </g>
            <g id="Group_16229" data-name="Group 16229" transform="translate(51.43 0)">
              <rect id="Rectangle_2078" data-name="Rectangle 2078" width="29.574" height="18.056" transform="translate(6.226 0)" fill="#2ee6dc"/>
              <rect id="Rectangle_2079" data-name="Rectangle 2079" width="29.574" height="18.056" transform="translate(6.226 0)" fill="#fff" opacity="0.4"/>
              <rect id="Rectangle_2080" data-name="Rectangle 2080" width="5.448" height="6.693" transform="translate(8.172 1.946)" fill="#263238"/>
              <rect id="Rectangle_2081" data-name="Rectangle 2081" width="5.448" height="6.693" transform="translate(14.398 1.946)" fill="#263238"/>
              <rect id="Rectangle_2082" data-name="Rectangle 2082" width="5.448" height="6.693" transform="translate(8.172 9.418)" fill="#263238"/>
              <rect id="Rectangle_2083" data-name="Rectangle 2083" width="5.448" height="6.693" transform="translate(14.398 9.418)" fill="#263238"/>
              <rect id="Rectangle_2084" data-name="Rectangle 2084" width="6.226" height="16.499" transform="translate(0 0.778)" fill="#2ee6dc"/>
              <rect id="Rectangle_2085" data-name="Rectangle 2085" width="6.226" height="16.499" transform="translate(35.8 0.778)" fill="#2ee6dc"/>
              <rect id="Rectangle_2086" data-name="Rectangle 2086" width="5.448" height="6.693" transform="translate(22.18 1.946)" fill="#263238"/>
              <rect id="Rectangle_2087" data-name="Rectangle 2087" width="5.448" height="6.693" transform="translate(28.406 1.946)" fill="#263238"/>
              <rect id="Rectangle_2088" data-name="Rectangle 2088" width="5.448" height="6.693" transform="translate(22.18 9.418)" fill="#263238"/>
              <rect id="Rectangle_2089" data-name="Rectangle 2089" width="5.448" height="6.693" transform="translate(28.406 9.418)" fill="#263238"/>
            </g>
            <g id="Group_16231" data-name="Group 16231" transform="translate(0 37.746)">
              <rect id="Rectangle_2090" data-name="Rectangle 2090" width="6.226" height="16.499" transform="translate(0 0.779)" fill="#2ee6dc"/>
              <rect id="Rectangle_2091" data-name="Rectangle 2091" width="6.226" height="16.499" transform="translate(21.791 0.779)" fill="#2ee6dc"/>
              <rect id="Rectangle_2092" data-name="Rectangle 2092" width="15.565" height="18.056" transform="translate(6.226 0)" fill="#2ee6dc"/>
              <g id="Group_16230" data-name="Group 16230" transform="translate(6.226 0)">
                <rect id="Rectangle_2093" data-name="Rectangle 2093" width="15.565" height="18.056" fill="#fff" opacity="0.4"/>
              </g>
              <rect id="Rectangle_2094" data-name="Rectangle 2094" width="5.448" height="6.694" transform="translate(8.172 1.946)" fill="#263238"/>
              <rect id="Rectangle_2095" data-name="Rectangle 2095" width="5.448" height="6.694" transform="translate(14.398 1.946)" fill="#263238"/>
              <rect id="Rectangle_2096" data-name="Rectangle 2096" width="5.448" height="6.693" transform="translate(8.172 9.418)" fill="#263238"/>
              <rect id="Rectangle_2097" data-name="Rectangle 2097" width="5.448" height="6.693" transform="translate(14.398 9.418)" fill="#263238"/>
            </g>
            <g id="Group_16233" data-name="Group 16233" transform="translate(65.439 37.746)">
              <rect id="Rectangle_2098" data-name="Rectangle 2098" width="6.226" height="16.499" transform="translate(0 0.779)" fill="#2ee6dc"/>
              <rect id="Rectangle_2099" data-name="Rectangle 2099" width="6.226" height="16.499" transform="translate(21.791 0.779)" fill="#2ee6dc"/>
              <rect id="Rectangle_2100" data-name="Rectangle 2100" width="15.565" height="18.056" transform="translate(6.226 0)" fill="#2ee6dc"/>
              <g id="Group_16232" data-name="Group 16232" transform="translate(6.226 0)">
                <rect id="Rectangle_2101" data-name="Rectangle 2101" width="15.565" height="18.056" fill="#fff" opacity="0.4"/>
              </g>
              <rect id="Rectangle_2102" data-name="Rectangle 2102" width="5.448" height="6.694" transform="translate(8.172 1.946)" fill="#263238"/>
              <rect id="Rectangle_2103" data-name="Rectangle 2103" width="5.448" height="6.694" transform="translate(14.398 1.946)" fill="#263238"/>
              <rect id="Rectangle_2104" data-name="Rectangle 2104" width="5.448" height="6.693" transform="translate(8.172 9.418)" fill="#263238"/>
              <rect id="Rectangle_2105" data-name="Rectangle 2105" width="5.448" height="6.693" transform="translate(14.398 9.418)" fill="#263238"/>
            </g>
          </g>
          <path id="Path_15832" data-name="Path 15832" d="M33.48,26.169V0H0L14.1,26.169Z" transform="translate(57.092 12.041)" fill="#2ee6dc"/>
          <path id="Path_15833" data-name="Path 15833" d="M33.48,26.169V0H0L14.1,26.169Z" transform="translate(57.092 12.041)" fill="#fff" opacity="0.5"/>
          <rect id="Rectangle_2106" data-name="Rectangle 2106" width="20.332" height="20.332" transform="translate(71.221 17.878)" fill="#2ee6dc"/>
          <rect id="Rectangle_2107" data-name="Rectangle 2107" width="20.332" height="20.332" transform="translate(71.221 17.878)" fill="#fff" opacity="0.8"/>
          <g id="Group_16235" data-name="Group 16235" transform="translate(75.696 21.374)">
            <path id="Rectangle_2108" data-name="Rectangle 2108" d="M0,0H11.382a0,0,0,0,1,0,0V1.134a1.3,1.3,0,0,1-1.3,1.3H1.3A1.3,1.3,0,0,1,0,1.134V0A0,0,0,0,1,0,0Z" transform="translate(0 11.943)" fill="#2ee6dc"/>
            <rect id="Rectangle_2109" data-name="Rectangle 2109" width="3.308" height="3.308" transform="translate(2.091 4.168)" fill="#263238"/>
            <rect id="Rectangle_2110" data-name="Rectangle 2110" width="3.308" height="3.308" transform="translate(5.983 4.168)" fill="#263238"/>
            <rect id="Rectangle_2111" data-name="Rectangle 2111" width="3.308" height="3.308" transform="translate(2.091 8.059)" fill="#263238"/>
            <rect id="Rectangle_2112" data-name="Rectangle 2112" width="3.308" height="3.308" transform="translate(5.983 8.059)" fill="#263238"/>
            <path id="Path_15834" data-name="Path 15834" d="M0,3.6a3.6,3.6,0,0,1,7.2,0Z" transform="translate(2.092 0)" fill="#263238"/>
          </g>
          <path id="Path_15835" data-name="Path 15835" d="M20.7,7l-3.77-7H0L3.77,7Z" transform="translate(57.092 12.041)" fill="#2ee6dc"/>
          <path id="Path_15836" data-name="Path 15836" d="M20.7,7l-3.77-7H0L3.77,7Z" transform="translate(57.092 12.041)" opacity="0.3"/>
          <path id="Path_15837" data-name="Path 15837" d="M3.77,0,0,7H26.471L22.7,0Z" transform="translate(68.152 12.041)" fill="#2ee6dc"/>
        </g>
        <path id="Path_15858" data-name="Path 15858" d="M8387.022,6077.6s-3.263,1.42-3.916,0,1.926-6.43,6.185-6.642,10.655,1.875,10.77,3.492-3.149,3.15-3.149,3.15Z" transform="translate(-8260 -2411)" fill="#fff"/>
      </g>
      <g id="Group_16336" data-name="Group 16336" transform="translate(-1129.512 168.205)">
        <g id="Group_16328" data-name="Group 16328" transform="translate(8.278 20.279)">
          <path id="Path_15994" data-name="Path 15994" d="M10107.038,6052.687v20.948" transform="translate(-8260 -2690)" fill="none" stroke="#765056" stroke-linecap="round" stroke-width="2"/>
          <path id="Path_15995" data-name="Path 15995" d="M182.855,123.825c3.533-2.3,11.98-13.976,11.98-13.976s-8.908,3.072-5.529.154,9.523-13.976,9.523-13.976-5.683,1.843-4.915,1.075c.741-.741,9.493-16.663,10.105-17.739.465-.869,2.095,3.64,4.007,6.958,2.736,4.749,6,10.345,6.437,10.781.768.768-4.915-1.075-4.915-1.075S215.69,107.084,219.07,110s-5.529-.154-5.529-.154,8.447,11.673,11.98,13.976c2.483,1.62-5.962,2.86-12.8,2.919-6.459.3-16.938.588-22.672-.287C185.074,125.992,181.038,125.01,182.855,123.825Z" transform="translate(1642.851 3248.177)" fill="#376b61"/>
        </g>
        <path id="Path_15996" data-name="Path 15996" d="M9459.248,6057.9c-1.939.471-.124,9.773,3.041,12.515s4.5,6.974,7.756,7.935,5.275-1.636,5.275-4.09-5.275-5.726-5.275-5.726S9461.187,6057.427,9459.248,6057.9Z" transform="translate(-4225.516 12851.132) rotate(-90)" fill="#fff"/>
        <path id="Path_15997" data-name="Path 15997" d="M9459.248,6057.9c-1.939.471-.124,9.773,3.041,12.515s4.5,6.974,7.756,7.935,5.275-1.636,5.275-4.09-5.275-5.726-5.275-5.726S9461.187,6057.427,9459.248,6057.9Z" transform="matrix(-0.995, -0.105, 0.105, -0.995, 10645.51, 10396.221)" fill="#fff"/>
      </g>
      <g id="Group_16337" data-name="Group 16337" transform="translate(-531.88 195.903)">
        <g id="Group_16330" data-name="Group 16330" transform="translate(-158.247 46.799)">
          <path id="Path_15994-2" data-name="Path 15994" d="M10107.038,6052.687v20.948" transform="translate(-8260 -2690)" fill="none" stroke="#765056" stroke-linecap="round" stroke-width="2"/>
          <path id="Path_15995-2" data-name="Path 15995" d="M182.855,123.825c3.533-2.3,11.98-13.976,11.98-13.976s-8.908,3.072-5.529.154,9.523-13.976,9.523-13.976-5.683,1.843-4.915,1.075c.741-.741,9.493-16.663,10.105-17.739.465-.869,2.095,3.64,4.007,6.958,2.736,4.749,6,10.345,6.437,10.781.768.768-4.915-1.075-4.915-1.075S215.69,107.084,219.07,110s-5.529-.154-5.529-.154,8.447,11.673,11.98,13.976c2.483,1.62-5.962,2.86-12.8,2.919-6.459.3-16.938.588-22.672-.287C185.074,125.992,181.038,125.01,182.855,123.825Z" transform="translate(1642.851 3248.177)" fill="#376b61"/>
        </g>
        <path id="Path_15998" data-name="Path 15998" d="M9458.867,6057.894c-1.014.317-.064,6.59,1.59,8.438s2.351,4.7,4.054,5.35,2.758-1.1,2.758-2.758-2.758-3.861-2.758-3.861S9459.881,6057.576,9458.867,6057.894Z" transform="translate(-7769.658 -2686.197)" fill="#fff"/>
        <path id="Path_15999" data-name="Path 15999" d="M9442.3,6083.455s4.639,6.756,4.088,11,0,6.067,0,6.067-5.847-1.269-6.784-4.026-3.694-13.458-1.488-14.726S9442.3,6083.455,9442.3,6083.455Z" transform="translate(3590.242 -7660.098) rotate(67)" fill="#fff"/>
      </g>
      <g id="Group_16338" data-name="Group 16338" transform="translate(-1101.046 172.499)">
        <g id="Group_16330-2" data-name="Group 16330" transform="translate(-158.247 46.799)">
          <path id="Path_15994-3" data-name="Path 15994" d="M10107.038,6052.687v20.948" transform="translate(-8260 -2690)" fill="none" stroke="#765056" stroke-linecap="round" stroke-width="2"/>
          <path id="Path_15995-3" data-name="Path 15995" d="M182.855,123.825c3.533-2.3,11.98-13.976,11.98-13.976s-8.908,3.072-5.529.154,9.523-13.976,9.523-13.976-5.683,1.843-4.915,1.075c.741-.741,9.493-16.663,10.105-17.739.465-.869,2.095,3.64,4.007,6.958,2.736,4.749,6,10.345,6.437,10.781.768.768-4.915-1.075-4.915-1.075S215.69,107.084,219.07,110s-5.529-.154-5.529-.154,8.447,11.673,11.98,13.976c2.483,1.62-5.962,2.86-12.8,2.919-6.459.3-16.938.588-22.672-.287C185.074,125.992,181.038,125.01,182.855,123.825Z" transform="translate(1642.851 3248.177)" fill="#376b61"/>
        </g>
        <path id="Path_15998-2" data-name="Path 15998" d="M9458.867,6057.894c-1.014.317-.064,6.59,1.59,8.438s2.351,4.7,4.054,5.35,2.758-1.1,2.758-2.758-2.758-3.861-2.758-3.861S9459.881,6057.576,9458.867,6057.894Z" transform="translate(-7769.658 -2686.197)" fill="#fff"/>
        <path id="Path_15999-2" data-name="Path 15999" d="M9442.3,6083.455s4.639,6.756,4.088,11,0,6.067,0,6.067-5.847-1.269-6.784-4.026-3.694-13.458-1.488-14.726S9442.3,6083.455,9442.3,6083.455Z" transform="translate(3590.242 -7660.098) rotate(67)" fill="#fff"/>
      </g>
      <g id="Group_16339" data-name="Group 16339" transform="translate(-1034.476 240.736)">
        <g id="Group_16330-3" data-name="Group 16330" transform="translate(-158.247 46.799)">
          <path id="Path_15994-4" data-name="Path 15994" d="M10107.038,6052.687v20.948" transform="translate(-8260 -2690)" fill="none" stroke="#765056" stroke-linecap="round" stroke-width="2"/>
          <path id="Path_15995-4" data-name="Path 15995" d="M182.855,123.825c3.533-2.3,11.98-13.976,11.98-13.976s-8.908,3.072-5.529.154,9.523-13.976,9.523-13.976-5.683,1.843-4.915,1.075c.741-.741,9.493-16.663,10.105-17.739.465-.869,2.095,3.64,4.007,6.958,2.736,4.749,6,10.345,6.437,10.781.768.768-4.915-1.075-4.915-1.075S215.69,107.084,219.07,110s-5.529-.154-5.529-.154,8.447,11.673,11.98,13.976c2.483,1.62-5.962,2.86-12.8,2.919-6.459.3-16.938.588-22.672-.287C185.074,125.992,181.038,125.01,182.855,123.825Z" transform="translate(1642.851 3248.177)" fill="#376b61"/>
        </g>
        <path id="Path_15998-3" data-name="Path 15998" d="M9458.867,6057.894c-1.014.317-.064,6.59,1.59,8.438s2.351,4.7,4.054,5.35,2.758-1.1,2.758-2.758-2.758-3.861-2.758-3.861S9459.881,6057.576,9458.867,6057.894Z" transform="translate(-7769.658 -2686.197)" fill="#fff"/>
        <path id="Path_15999-3" data-name="Path 15999" d="M9442.3,6083.455s4.639,6.756,4.088,11,0,6.067,0,6.067-5.847-1.269-6.784-4.026-3.694-13.458-1.488-14.726S9442.3,6083.455,9442.3,6083.455Z" transform="translate(3590.242 -7660.098) rotate(67)" fill="#fff"/>
      </g>
      <g id="Group_16340" data-name="Group 16340" transform="translate(-1284.929 323.461)">
        <g id="Group_16328-2" data-name="Group 16328" transform="translate(8.278 20.279)">
          <path id="Path_15994-5" data-name="Path 15994" d="M10107.038,6052.687v20.948" transform="translate(-8260 -2690)" fill="none" stroke="#765056" stroke-linecap="round" stroke-width="2"/>
          <path id="Path_15995-5" data-name="Path 15995" d="M182.855,123.825c3.533-2.3,11.98-13.976,11.98-13.976s-8.908,3.072-5.529.154,9.523-13.976,9.523-13.976-5.683,1.843-4.915,1.075c.741-.741,9.493-16.663,10.105-17.739.465-.869,2.095,3.64,4.007,6.958,2.736,4.749,6,10.345,6.437,10.781.768.768-4.915-1.075-4.915-1.075S215.69,107.084,219.07,110s-5.529-.154-5.529-.154,8.447,11.673,11.98,13.976c2.483,1.62-5.962,2.86-12.8,2.919-6.459.3-16.938.588-22.672-.287C185.074,125.992,181.038,125.01,182.855,123.825Z" transform="translate(1642.851 3248.177)" fill="#376b61"/>
        </g>
        <path id="Path_15996-2" data-name="Path 15996" d="M9459.248,6057.9c-1.939.471-.124,9.773,3.041,12.515s4.5,6.974,7.756,7.935,5.275-1.636,5.275-4.09-5.275-5.726-5.275-5.726S9461.187,6057.427,9459.248,6057.9Z" transform="translate(-4225.516 12851.132) rotate(-90)" fill="#fff"/>
        <path id="Path_15997-2" data-name="Path 15997" d="M9459.248,6057.9c-1.939.471-.124,9.773,3.041,12.515s4.5,6.974,7.756,7.935,5.275-1.636,5.275-4.09-5.275-5.726-5.275-5.726S9461.187,6057.427,9459.248,6057.9Z" transform="matrix(-0.995, -0.105, 0.105, -0.995, 10645.51, 10396.221)" fill="#fff"/>
      </g>
      <g id="Group_16342" data-name="Group 16342" transform="translate(-1656.298 385.045)">
        <g id="Group_16328-3" data-name="Group 16328" transform="translate(8.278 20.279)">
          <path id="Path_15994-6" data-name="Path 15994" d="M10107.038,6052.687v20.948" transform="translate(-8260 -2690)" fill="none" stroke="#765056" stroke-linecap="round" stroke-width="2"/>
          <path id="Path_15995-6" data-name="Path 15995" d="M182.855,123.825c3.533-2.3,11.98-13.976,11.98-13.976s-8.908,3.072-5.529.154,9.523-13.976,9.523-13.976-5.683,1.843-4.915,1.075c.741-.741,9.493-16.663,10.105-17.739.465-.869,2.095,3.64,4.007,6.958,2.736,4.749,6,10.345,6.437,10.781.768.768-4.915-1.075-4.915-1.075S215.69,107.084,219.07,110s-5.529-.154-5.529-.154,8.447,11.673,11.98,13.976c2.483,1.62-5.962,2.86-12.8,2.919-6.459.3-16.938.588-22.672-.287C185.074,125.992,181.038,125.01,182.855,123.825Z" transform="translate(1642.851 3248.177)" fill="#376b61"/>
        </g>
        <path id="Path_15996-3" data-name="Path 15996" d="M9459.248,6057.9c-1.939.471-.124,9.773,3.041,12.515s4.5,6.974,7.756,7.935,5.275-1.636,5.275-4.09-5.275-5.726-5.275-5.726S9461.187,6057.427,9459.248,6057.9Z" transform="translate(-4225.516 12851.132) rotate(-90)" fill="#fff"/>
        <path id="Path_15997-3" data-name="Path 15997" d="M9459.248,6057.9c-1.939.471-.124,9.773,3.041,12.515s4.5,6.974,7.756,7.935,5.275-1.636,5.275-4.09-5.275-5.726-5.275-5.726S9461.187,6057.427,9459.248,6057.9Z" transform="matrix(-0.995, -0.105, 0.105, -0.995, 10645.51, 10396.221)" fill="#fff"/>
      </g>
      <g id="Group_16344" data-name="Group 16344" transform="translate(-1674.165 249.99)">
        <g id="Group_16328-4" data-name="Group 16328" transform="translate(8.278 20.279)">
          <path id="Path_15994-7" data-name="Path 15994" d="M10107.038,6052.687v20.948" transform="translate(-8260 -2690)" fill="none" stroke="#765056" stroke-linecap="round" stroke-width="2"/>
          <path id="Path_15995-7" data-name="Path 15995" d="M182.855,123.825c3.533-2.3,11.98-13.976,11.98-13.976s-8.908,3.072-5.529.154,9.523-13.976,9.523-13.976-5.683,1.843-4.915,1.075c.741-.741,9.493-16.663,10.105-17.739.465-.869,2.095,3.64,4.007,6.958,2.736,4.749,6,10.345,6.437,10.781.768.768-4.915-1.075-4.915-1.075S215.69,107.084,219.07,110s-5.529-.154-5.529-.154,8.447,11.673,11.98,13.976c2.483,1.62-5.962,2.86-12.8,2.919-6.459.3-16.938.588-22.672-.287C185.074,125.992,181.038,125.01,182.855,123.825Z" transform="translate(1642.851 3248.177)" fill="#376b61"/>
        </g>
        <path id="Path_15996-4" data-name="Path 15996" d="M9459.248,6057.9c-1.939.471-.124,9.773,3.041,12.515s4.5,6.974,7.756,7.935,5.275-1.636,5.275-4.09-5.275-5.726-5.275-5.726S9461.187,6057.427,9459.248,6057.9Z" transform="translate(-4225.516 12851.132) rotate(-90)" fill="#fff"/>
        <path id="Path_15997-4" data-name="Path 15997" d="M9459.248,6057.9c-1.939.471-.124,9.773,3.041,12.515s4.5,6.974,7.756,7.935,5.275-1.636,5.275-4.09-5.275-5.726-5.275-5.726S9461.187,6057.427,9459.248,6057.9Z" transform="matrix(-0.995, -0.105, 0.105, -0.995, 10645.51, 10396.221)" fill="#fff"/>
      </g>
      <g id="Group_16429" data-name="Group 16429" transform="translate(217.957 320.565)">
        <g id="Group_15453-3" data-name="Group 15453" transform="translate(542.516 2796.77)">
          <path id="Path_14526-3" data-name="Path 14526" d="M475.356,124.024c1.736-12.408-16.053-22.617-29.421-23.678-6.375-.5-13,.454-19.035-1.618-13.086-4.49-16.906-15.841-29.673-21.142a34.407,34.407,0,0,0-29,.987A57.6,57.6,0,0,1,335.4,84.3c-8.992.566-15.718,6.983-23.586,11.308-5.861,3.222-10.886-3.734-19.864-2.017s-8.71,3.971-16.047,8.884-11.654,5.8-17.628,8.492-10.912,8.909-9.673,15.26Z" transform="translate(-248.406 -74.853)" fill="#ebebeb"/>
        </g>
      </g>
    </g>
  </g>
</svg>
