<svg id="Group_16349" data-name="Group 16349" xmlns="http://www.w3.org/2000/svg" width="150.974" height="241.273" viewBox="0 0 150.974 241.273">
  <g id="Group_13450" data-name="Group 13450" transform="translate(60.839 32.598)">
    <g id="path227_fill" data-name="path227 fill" transform="translate(2.689 45.608)">
      <path id="Path_1992" data-name="Path 1992" d="M2923.95,1214.869c7.344-1.651,25-15.07,30.317-19.091-2.939-2.989-8.671-1.978-10.343-5.76,0,0-16.341,2.425-30.6,10.9C2909.564,1203.154,2906.964,1220.008,2923.95,1214.869Z" transform="translate(-2910.546 -1190.018)" fill="#ffbe9d"/>
    </g>
    <g id="Vector" transform="translate(34.857 18.318)">
      <g id="Group_13446" data-name="Group 13446">
        <g id="path226_fill" data-name="path226 fill">
          <path id="Path_1993" data-name="Path 1993" d="M3027.065,1100.561c-3.936,6.992-7.671,19.4-11.04,27.553-.721,4.64,10.121,6.5,11.519,5.5,4.724-9.572,5.608-20.886,5.035-31.589Z" transform="translate(-3015.991 -1100.561)" fill="#ffbe9d"/>
        </g>
      </g>
    </g>
    <g id="Group_13447" data-name="Group 13447" transform="translate(0 49.713)">
      <path id="Path_1994" data-name="Path 1994" d="M2901.931,1218.671c.578,3.309,4.038,12.591,25.811,4.236-1-7.765-6.368-19.431-6.368-19.431S2899.428,1204.337,2901.931,1218.671Z" transform="translate(-2901.732 -1203.475)" fill="#e3675f"/>
    </g>
    <g id="Group_13449" data-name="Group 13449" transform="translate(44.587)">
      <g id="Group_13448" data-name="Group 13448">
        <path id="Path_1995" data-name="Path 1995" d="M3059.534,1054.446a26.2,26.2,0,0,1-5.174,6.708l-5.389-1.48c-2.213-5.293-.414-11.473-.042-12.108.965-1.65,1.316-2.485,1.61-2.46s1.522.44.619,3.073c-1.976,5.761,2.409,2.65,4.367-6.285.4-1.838,4.025-1.758,4.9-.233C3062.047,1044.469,3062.963,1047.036,3059.534,1054.446Z" transform="translate(-3047.887 -1040.515)" fill="#ffbe9d"/>
      </g>
    </g>
  </g>
  <g id="Group_13452" data-name="Group 13452" transform="translate(61.304 146.546)">
    <g id="Group_13451" data-name="Group 13451">
      <path id="Path_1996" data-name="Path 1996" d="M2916.824,1414.041s3.609,13.679,2.828,26a130.235,130.235,0,0,0,.688,23.792l-10.033,1.017c-1.2-8.917-4.911-14.079-6.984-27.518-1.139-7.4,12.6-23.759,13.482-23.288Z" transform="translate(-2903.256 -1414.035)" fill="#ffbe9d"/>
    </g>
  </g>
  <g id="Group_13454" data-name="Group 13454" transform="translate(89.64 139.666)">
    <g id="Group_13453" data-name="Group 13453">
      <path id="Path_1997" data-name="Path 1997" d="M3013.274,1391.482s-6.48,29.928-7.676,37.783l-9.458-3.251c1.3-8.9-.833-14.888.885-28.377Z" transform="translate(-2996.14 -1391.482)" fill="#ffbe9d"/>
    </g>
  </g>
  <g id="Group_13464" data-name="Group 13464" transform="translate(32.958 163.071)">
    <g id="Group_13459" data-name="Group 13459" transform="translate(37.959 40.703)">
      <g id="Group_13456" data-name="Group 13456" transform="translate(54.876)">
        <g id="Group_13455" data-name="Group 13455">
          <path id="Path_1998" data-name="Path 1998" d="M3115.184,1608.882a5.01,5.01,0,1,0,2.236-6.723A5.009,5.009,0,0,0,3115.184,1608.882Z" transform="translate(-3114.653 -1601.628)" fill="#2c2858"/>
        </g>
      </g>
      <g id="Group_13458" data-name="Group 13458" transform="translate(0 27.478)">
        <g id="Group_13457" data-name="Group 13457">
          <path id="Path_1999" data-name="Path 1999" d="M2944.26,1694.467a5.009,5.009,0,1,1-6.722-2.237A5.01,5.01,0,0,1,2944.26,1694.467Z" transform="translate(-2934.77 -1691.699)" fill="#2c2858"/>
        </g>
      </g>
    </g>
    <g id="Group_13461" data-name="Group 13461" transform="translate(1.286 2.567)">
      <g id="Group_13460" data-name="Group 13460">
        <path id="Path_2000" data-name="Path 2000" d="M2814.857,1538.331c-1.852-8.477,5.059-13.175,13.16-14.438,1.907-.3,8.366-1.3,12.31-3.4,1.555-.8,5.81-2.947,13.808-6.921,13.38-6.644,41.218-20.468,45.1-23.1a22.253,22.253,0,0,0,5.771-5.421,2.763,2.763,0,0,0-.167.271s9.2-13.236,20.5-7.071c12.3,6.754,1.715,21.646,1.715,21.646-1.588,2-2.955,5.929-12.934,12.529-4.146,2.742-19.473,10.563-48.235,24.856-6.354,3.161-11.831,5.878-13.153,6.576-9.221,4.906-20.721,6.2-22,6.359C2827.223,1550.8,2817.068,1548.52,2814.857,1538.331Z" transform="translate(-2814.554 -1476.618)" fill="#2c2858"/>
      </g>
    </g>
    <g id="Group_13463" data-name="Group 13463">
      <g id="Group_13462" data-name="Group 13462">
        <path id="Path_2001" data-name="Path 2001" d="M2810.643,1529.916c-1.852-8.476,5.06-13.174,13.16-14.437,1.908-.3,8.367-1.3,12.311-3.4,1.555-.8,5.809-2.948,13.807-6.922,13.38-6.643,41.218-20.468,45.1-23.1a22.266,22.266,0,0,0,5.771-5.421,2.67,2.67,0,0,0-.167.272s9.2-13.236,20.5-7.071c12.3,6.754,1.716,21.646,1.716,21.646-1.588,2-2.954,5.929-12.934,12.529-4.146,2.741-19.473,10.563-48.235,24.855-6.354,3.162-11.831,5.879-13.153,6.577-9.221,4.905-20.721,6.2-22,6.359C2823.01,1542.38,2812.854,1540.106,2810.643,1529.916Z" transform="translate(-2810.34 -1468.203)" fill="#125956"/>
      </g>
    </g>
  </g>
  <g id="Group_13465" data-name="Group 13465" transform="translate(23.981 119.651)">
    <path id="Path_2002" data-name="Path 2002" d="M2826.752,1325.878s34.747-.627,38.454,10.028l-4.491,35.312-14.5-2.011-1.344-19.7s-66.505.658-63.882-7.13Z" transform="translate(-2780.913 -1325.871)" fill="#030421"/>
  </g>
  <g id="Group_13466" data-name="Group 13466" transform="translate(22.035 131.369)">
    <path id="Path_2003" data-name="Path 2003" d="M2809.184,1366.061c10.923,3.053,19.781,7.051,20.74,15.515.452,3.992,1.061,12.448,1.709,31.872a18.366,18.366,0,0,0-17.158,3.59c-1.5,1.281-7.355-24.562-7.355-24.562-21.284-2.776-35.395-3.264-32.114-23.438C2775.005,1369.029,2795.5,1360.754,2809.184,1366.061Z" transform="translate(-2774.532 -1364.284)" fill="#050632"/>
  </g>
  <g id="Group_13467" data-name="Group 13467" transform="translate(17.898 84.035)">
    <path id="Path_2004" data-name="Path 2004" d="M2814.479,1245l4.5-14.661-4.631-21.216s-34.7,9.686-46.7,19.5c-12.278,10.068-3.86,45.993-3.86,45.993s10.362-18.346,28.258-18.062C2805.427,1256.784,2809.8,1251.083,2814.479,1245Z" transform="translate(-2760.974 -1209.123)" fill="#fa7269"/>
  </g>
  <g id="Group_13468" data-name="Group 13468" transform="translate(46.777 87.449)">
    <path id="Path_2005" data-name="Path 2005" d="M2875.689,1220.316l.226,11.251s-3.2,12.624-17.355,6.216a13.117,13.117,0,0,1-2.922-6.219Z" transform="translate(-2855.638 -1220.316)" fill="#de623c"/>
  </g>
  <g id="Group_13484" data-name="Group 13484" transform="translate(27.348 0)">
    <g id="Group_13469" data-name="Group 13469" transform="translate(15.966)">
      <path id="Path_2006" data-name="Path 2006" d="M2844.585,984.537c-.76-8.9-1.249-23.4,13.863-25.43s12.617-8.245,21.184-17.442c13.329-14.308,23.383-6.284,28.232-.149a4.048,4.048,0,0,1-1.921,6.35c-4.772,1.57-10.707,4.354-7.574,7.865,4.946,5.543,8.866,25.483-15.355,22.461-18.77-2.343-25.436,10.068-25.436,10.068Z" transform="translate(-2844.284 -933.659)" fill="#0d0640"/>
    </g>
    <g id="Group_13470" data-name="Group 13470" transform="translate(1.105 52.193)">
      <path id="Path_2007" data-name="Path 2007" d="M2796.226,1133.434c2.812,13.368,13.262,22.647,22.677,20.732,10.855-2.206,19.387-15.621,16.575-28.988s-13.878-22.356-24.717-20.076S2793.414,1120.067,2796.226,1133.434Z" transform="translate(-2795.571 -1104.748)" fill="#ffbe9d"/>
    </g>
    <g id="Group_13471" data-name="Group 13471" transform="translate(24.226 79.733)">
      <path id="Path_2008" data-name="Path 2008" d="M2873.689,1198.844a1.932,1.932,0,1,0-2.288-1.493A1.933,1.933,0,0,0,2873.689,1198.844Z" transform="translate(-2871.359 -1195.021)"/>
    </g>
    <g id="Group_13472" data-name="Group 13472" transform="translate(7.811 83.3)">
      <path id="Path_2009" data-name="Path 2009" d="M2819.883,1210.537a1.932,1.932,0,1,0-2.288-1.493A1.932,1.932,0,0,0,2819.883,1210.537Z" transform="translate(-2817.553 -1206.714)"/>
    </g>
    <g id="Group_13474" data-name="Group 13474" transform="translate(4.96 80.184)">
      <g id="Group_13473" data-name="Group 13473">
        <path id="Path_2010" data-name="Path 2010" d="M2809.3,1200.545a.953.953,0,0,0,.7-.563,2.727,2.727,0,0,1,1.417-1.608,3.65,3.65,0,0,1,2.338-.017,1,1,0,0,0,1.217-.472.774.774,0,0,0-.46-1.079,5.69,5.69,0,0,0-3.8.057,4.488,4.488,0,0,0-2.447,2.62.783.783,0,0,0,.551,1.046A1.009,1.009,0,0,0,2809.3,1200.545Z" transform="translate(-2808.207 -1196.499)" fill="#201d40"/>
      </g>
    </g>
    <g id="Group_13476" data-name="Group 13476" transform="translate(22.34 76.457)">
      <g id="Group_13475" data-name="Group 13475">
        <path id="Path_2011" data-name="Path 2011" d="M2872.244,1187.127a1,1,0,0,0,.53-.3.772.772,0,0,0-.1-1.171,5.955,5.955,0,0,0-4.379-1.329,4.839,4.839,0,0,0-2.932,1.578.769.769,0,0,0,.183,1.159,1.006,1.006,0,0,0,1.289-.212,2.863,2.863,0,0,1,1.683-.88,4.174,4.174,0,0,1,2.952,1A.975.975,0,0,0,2872.244,1187.127Z" transform="translate(-2865.177 -1184.282)" fill="#201d40"/>
      </g>
    </g>
    <g id="Group_13477" data-name="Group 13477" transform="translate(16.171 91.324)">
      <path id="Path_2012" data-name="Path 2012" d="M2856.283,1233.894c.148-.522-.342-1.039-.792-.831a34.588,34.588,0,0,1-10.09,3.081.644.644,0,0,0-.192,1.132,6.511,6.511,0,0,0,11.074-3.382Z" transform="translate(-2844.958 -1233.016)" fill="#fff"/>
    </g>
    <g id="Group_13478" data-name="Group 13478" transform="translate(16.614 86.249)">
      <path id="Path_2013" data-name="Path 2013" d="M2847.635,1216.381a18.371,18.371,0,0,1-1.226,4.45c1.2,1.056,4.153.436,4.153.436l-2.5-1.307A8.237,8.237,0,0,0,2847.635,1216.381Z" transform="translate(-2846.409 -1216.381)" fill="#de623c"/>
    </g>
    <g id="Group_13479" data-name="Group 13479" transform="translate(0 50.452)">
      <path id="Path_2014" data-name="Path 2014" d="M2832.96,1121.21s-7.471,4.969-15.727-5.815c-1.21,7.771-24.016,13.876-24.016,13.876s-7.74-23.25,15-29.805C2824.692,1096.882,2830.9,1106.259,2832.96,1121.21Z" transform="translate(-2791.948 -1099.038)" fill="#110855"/>
    </g>
    <g id="Group_13483" data-name="Group 13483" transform="translate(37.141 68.9)">
      <g id="Group_13480" data-name="Group 13480">
        <path id="Path_2015" data-name="Path 2015" d="M2914.605,1163.708c-1.649,3.321-.992,7.006,1.47,8.228s5.795-.479,7.445-3.8.991-7.005-1.47-8.228S2916.255,1160.386,2914.605,1163.708Z" transform="translate(-2913.697 -1159.511)" fill="#ffbe9d"/>
      </g>
      <g id="Group_13482" data-name="Group 13482" transform="translate(2.489 2.781)">
        <g id="Group_13481" data-name="Group 13481">
          <path id="Path_2016" data-name="Path 2016" d="M2923.543,1175.781a.682.682,0,0,0,.419-1.057,2.816,2.816,0,0,1-.6-2.693c.488-1.171,2.082-1.835,3.3-2.049a.682.682,0,0,0-.236-1.344c-1.63.286-3.62,1.19-4.319,2.868a4.042,4.042,0,0,0,.739,4A.681.681,0,0,0,2923.543,1175.781Z" transform="translate(-2921.855 -1168.627)" fill="#de623c"/>
        </g>
      </g>
    </g>
  </g>
  <g id="Group_13489" data-name="Group 13489" transform="translate(0 101.977)">
    <g id="path227_fill-2" data-name="path227 fill" transform="translate(0.059 1.192)">
      <path id="Path_2017" data-name="Path 2017" d="M2722.476,1275.594c-6.209,4.254-16.533,18.978-19.98,24.683,3.837,1.687,7.684,2.907,10.639,5.8,0,0,14.278-8.307,24.383-21.468C2740.178,1281.144,2736.348,1264.527,2722.476,1275.594Z" transform="translate(-2702.495 -1271.844)" fill="#ffbe9d"/>
    </g>
    <g id="Vector-2" data-name="Vector" transform="translate(0 26.977)">
      <g id="Group_13485" data-name="Group 13485">
        <g id="path226_fill-2" data-name="path226 fill">
          <path id="Path_2018" data-name="Path 2018" d="M2718.322,1388.038c.171-8.022-2.393-20.726-3.268-29.5-1.554-4.432-11.989-.953-12.75.588.352,10.669,4.91,21.061,10.467,30.228Z" transform="translate(-2702.303 -1356.367)" fill="#ffbe9d"/>
        </g>
      </g>
    </g>
    <g id="Group_13486" data-name="Group 13486" transform="translate(11.316)">
      <path id="Path_2019" data-name="Path 2019" d="M2764.938,1272.144c-1.763-2.859-8.417-10.2-25.542,5.631,3.806,6.842,14.32,15.544,14.32,15.544S2772.575,1284.53,2764.938,1272.144Z" transform="translate(-2739.396 -1267.937)" fill="#e3675f"/>
    </g>
    <g id="Group_13488" data-name="Group 13488" transform="translate(8.987 57.786)">
      <g id="Group_13487" data-name="Group 13487">
        <path id="Path_2020" data-name="Path 2020" d="M2731.78,1466.95a26.179,26.179,0,0,1,1.4-8.355l5.449-1.238c4.449,3.623,5.778,9.92,5.75,10.655-.072,1.911.012,2.813-.259,2.928s-1.55.331-2-2.417c-.976-6.012-3.375-1.2-.884,7.6.513,1.81-2.72,3.449-4.213,2.52C2734.273,1476.932,2732.253,1475.1,2731.78,1466.95Z" transform="translate(-2731.762 -1457.357)" fill="#ffbe9d"/>
      </g>
    </g>
  </g>
  <g id="Group_13490" data-name="Group 13490" transform="translate(89.594 165.204)">
    <path id="Path_2021" data-name="Path 2021" d="M3006.344,1483.518l1.667-7.349-11.564-.974-.458,9.64,4.424,3.693Z" transform="translate(-2995.989 -1475.195)" fill="#fff"/>
  </g>
  <g id="Group_13491" data-name="Group 13491" transform="translate(65.574 183.466)">
    <path id="Path_2022" data-name="Path 2022" d="M2929.807,1544.7l-.515-9.4s-8.991-1.427-12.038,2.67c.588,2.223,2.383,8.712,2.383,8.712Z" transform="translate(-2917.254 -1535.058)" fill="#fff"/>
  </g>
  <g id="Group_13494" data-name="Group 13494" transform="translate(85.295 173.275)">
    <g id="Group_13492" data-name="Group 13492" transform="translate(0.508)">
      <path id="Path_2023" data-name="Path 2023" d="M2992.58,1504.242a5.88,5.88,0,0,1,5.284-2.51c3.134,8.923,17.816,8.686,14.3,18.308-20.164-6.5-28.6-9.022-28.6-9.022a72.591,72.591,0,0,1,3.934-9.364l.994.519Z" transform="translate(-2983.561 -1501.653)" fill="#07082f"/>
    </g>
    <g id="Group_13493" data-name="Group 13493" transform="translate(0 9.095)">
      <path id="Path_2024" data-name="Path 2024" d="M3009.014,1543l-26.252-8.282a1.237,1.237,0,0,1-.807-1.552l.535-1.695,28.611,9.026-.535,1.694A1.237,1.237,0,0,1,3009.014,1543Z" transform="translate(-2981.897 -1531.467)" fill="#fff"/>
    </g>
  </g>
  <g id="Group_13501" data-name="Group 13501" transform="translate(66.506 191.885)">
    <g id="Group_13495" data-name="Group 13495" transform="translate(0.239)">
      <path id="Path_2025" data-name="Path 2025" d="M2937.1,1575.136s-2.435-6.1-2.679-6.892c-.278-.9-1.032-3.018-1.265-4.121a9.191,9.191,0,0,0-5.381-1.436c-3,.359-5.526,2.421-5.543,2.756a67.042,67.042,0,0,1-.154,6.734c-.247,1.574-.985,5.26-.985,5.26Z" transform="translate(-2921.093 -1562.653)" fill="#07082f"/>
    </g>
    <g id="Group_13500" data-name="Group 13500" transform="translate(0 11.993)">
      <g id="Group_13499" data-name="Group 13499">
        <g id="Group_13498" data-name="Group 13498">
          <g id="Group_13497" data-name="Group 13497">
            <g id="Group_13496" data-name="Group 13496">
              <path id="Path_2026" data-name="Path 2026" d="M2936.5,1601.967c-.246,1.3-5.273.43-8.816.85-2.975.353-6.688,1.962-7.179,1.565-.588,1.4.346,4.052.346,4.052s3.12-.207,6.82-.807,8.025-.872,9.587-1.544C2938.076,1604.254,2936.5,1601.967,2936.5,1601.967Z" transform="translate(-2920.31 -1601.967)" fill="#fff"/>
            </g>
          </g>
        </g>
      </g>
    </g>
  </g>
</svg>
