<svg width="18" height="18" xmlns="http://www.w3.org/2000/svg" viewBox="0 0 18 18" fill="currentColor" class="icon-instagram"><path d="M9 4.9C6.73 4.9 4.9 6.73 4.9 9s1.83 4.1 4.1 4.1 4.1-1.83 4.1-4.1S11.27 4.9 9 4.9zm0 6.77c-1.47 0-2.67-1.2-2.67-2.67S7.53 6.33 9 6.33s2.67 1.2 2.67 2.67-1.2 2.67-2.67 2.67zm5.23-6.94a.96.96 0 11-1.92 0 .96.96 0 011.92 0zm2.72.97c-.06-1.28-.35-2.42-1.29-3.35-.94-.94-2.07-1.23-3.35-1.29-1.32-.07-5.28-.07-6.6 0-1.29.06-2.42.35-3.36 1.29S1.12 4.42 1.05 5.7c-.07 1.32-.07 5.28 0 6.6.06 1.28.35 2.42 1.29 3.35.94.94 2.07 1.23 3.35 1.29 1.32.07 5.28.07 6.6 0 1.28-.06 2.42-.35 3.35-1.29.94-.94 1.23-2.07 1.29-3.35.09-1.32.09-5.28.02-6.6zm-1.71 8.02c-.28.7-.82 1.24-1.52 1.52-1.05.42-3.55.32-4.72.32s-3.67.09-4.72-.32c-.7-.28-1.24-.82-1.52-1.52-.41-1.06-.32-3.56-.32-4.72s-.09-3.67.32-4.72c.28-.7.82-1.24 1.52-1.52 1.06-.41 3.56-.32 4.72-.32s3.67-.09 4.72.32c.7.28 1.24.82 1.52 1.52.42 1.05.32 3.55.32 4.72s.1 3.67-.32 4.72z" fill="#020203"></path></svg>