<svg xmlns="http://www.w3.org/2000/svg" width="37.765" height="40.909" viewBox="0 0 37.765 40.909">
  <g id="Group_18630" data-name="Group 18630" transform="translate(-59 -397.091)">
    <g id="Group_18358" data-name="Group 18358" transform="translate(763.627 -10870.82)">
      <path id="Path_16764" data-name="Path 16764" d="M1612.906,983.813,1611.218,989l-.125.383-.783,2.407-.006.017-2.524-.056-9.684-.219-.708-2.027-.119-.339-1.874-5.351C1601.209,985.826,1606,981.425,1612.906,983.813Z" transform="translate(-2289.752 10284.83)" fill="#efb933"/>
      <path id="Path_16765" data-name="Path 16765" d="M1647.083,1103.063l-.783,2.407-2.529-.039-9.684-.219-.708-2.027C1636.708,1103.126,1642.436,1103.049,1647.083,1103.063Z" transform="translate(-2325.743 10171.146)" opacity="0.51" style="mix-blend-mode: soft-light;isolation: isolate"/>
      <path id="Path_16766" data-name="Path 16766" d="M1436.5,1173.673a7.61,7.61,0,0,1-7.263,5.337H1407.3a7.052,7.052,0,0,1-6.8-5.178,22.124,22.124,0,0,1-.788-5.348c0-.172-.005-.344-.005-.516q0-.305.008-.61a21.943,21.943,0,0,1,8.416-16.516l5.247-4.154,12.008.278,6.6,6.316a14.554,14.554,0,0,1,2.419,2.982,21.369,21.369,0,0,1,2.088,17.41Z" transform="translate(-2104.335 10129.811)" fill="#efb933"/>
      <rect id="Rectangle_2606" data-name="Rectangle 2606" width="19.541" height="3.098" rx="1.549" transform="translate(-695.225 11275.641)" fill="#562500"/>
      <path id="Path_16768" data-name="Path 16768" d="M1436.595,1421.465a7.611,7.611,0,0,1-7.263,5.337H1407.4a7.052,7.052,0,0,1-6.8-5.178,22.119,22.119,0,0,1-.789-5.348c3.629,3.46,7.9,7.983,17.9,8.122,12.411.172,17.76-5.645,18.721-16.193A21.342,21.342,0,0,1,1436.595,1421.465Z" transform="translate(-2104.435 9882.019)" opacity="0.52" style="mix-blend-mode: soft-light;isolation: isolate"/>
    </g>
    <g id="Group_18363" data-name="Group 18363" transform="translate(27.268 297.386)">
      <g id="Group_18327" data-name="Group 18327" transform="translate(42 115)">
        <g id="Group_1781" data-name="Group 1781" transform="translate(0 0)">
          <path id="Path_16769" data-name="Path 16769" d="M8.614,0A8.614,8.614,0,1,1,0,8.614,8.614,8.614,0,0,1,8.614,0Z" fill="#f6d738" stroke="#562500" stroke-width="0.5"/>
        </g>
        <g id="Group_1782" data-name="Group 1782" transform="translate(1.279 1.27)">
          <circle id="Ellipse_230" data-name="Ellipse 230" cx="7.177" cy="7.177" r="7.177" fill="#f3cc30"/>
        </g>
        <g id="Group_1783" data-name="Group 1783" transform="translate(2.409 2.321)">
          <path id="Path_1629" data-name="Path 1629" d="M343.737,331.017a7.178,7.178,0,0,1-9.8,9.983,7.177,7.177,0,1,0,9.8-9.983Z" transform="translate(-333.935 -331.017)" fill="#edbd31"/>
        </g>
        <g id="Group_1784" data-name="Group 1784" transform="translate(2.065 2.064)">
          <path id="Path_1630" data-name="Path 1630" d="M321.511,328.388a6.335,6.335,0,0,1,11.357-3.862,6.336,6.336,0,1,0-10.515,7.019A6.306,6.306,0,0,1,321.511,328.388Z" transform="translate(-321.039 -321.348)" fill="#f7db5e"/>
        </g>
      </g>
      <g id="Group_18328" data-name="Group 18328" transform="translate(46.524 119.544)">
        <path id="Subtraction_65" data-name="Subtraction 65" d="M1.652,3.3A1.651,1.651,0,1,1,3.184,1.04L3.8,2.573l-1.533.612A1.642,1.642,0,0,1,1.652,3.3ZM1.712.86a.792.792,0,1,0,.792.791A.792.792,0,0,0,1.712.86Z" transform="translate(0 1.311)" fill="#215aa7" stroke="rgba(0,0,0,0)" stroke-miterlimit="10" stroke-width="1"/>
        <path id="Subtraction_66" data-name="Subtraction 66" d="M1.642,3.773h0A1.641,1.641,0,0,1,1.033.608L2.557,0l.608,1.524A1.642,1.642,0,0,1,1.642,3.773Zm.067-2.5a.792.792,0,1,0,.791.791A.792.792,0,0,0,1.709,1.274Z" transform="translate(1.292 4.045)" fill="#ffa216" stroke="rgba(0,0,0,0)" stroke-miterlimit="10" stroke-width="1"/>
        <path id="Subtraction_67" data-name="Subtraction 67" d="M.723,3.821h0L.112,2.288A1.671,1.671,0,0,1,1.073.127a1.672,1.672,0,0,1,2.184.906A1.671,1.671,0,0,1,2.3,3.194L.723,3.821ZM1.684.883a.792.792,0,1,0,.791.791A.792.792,0,0,0,1.684.883Z" transform="translate(3.23 0)" fill="#49b9b7" stroke="rgba(0,0,0,0)" stroke-miterlimit="10" stroke-width="1"/>
        <path id="Subtraction_68" data-name="Subtraction 68" d="M2.145,3.3A1.663,1.663,0,0,1,.608,2.274L0,.75,1.563.127a1.662,1.662,0,0,1,2.171.9,1.661,1.661,0,0,1-.955,2.147A1.653,1.653,0,0,1,2.145,3.3ZM2.228.788a.792.792,0,1,0,.791.792A.792.792,0,0,0,2.228.788Z" transform="translate(4.025 3.224)" fill="#8b378c" stroke="rgba(0,0,0,0)" stroke-miterlimit="10" stroke-width="1"/>
      </g>
    </g>
  </g>
</svg>
