<svg id="like" xmlns="http://www.w3.org/2000/svg" width="70.172" height="60.147" viewBox="0 0 70.172 60.147">
  <g id="Group_119" data-name="Group 119" transform="translate(0 0)">
    <path id="Path_170" data-name="Path 170" d="M51.533,30a16.933,16.933,0,0,0-10.376,3.482,23.105,23.105,0,0,0-6.071,7.088,23.1,23.1,0,0,0-6.071-7.088A16.933,16.933,0,0,0,18.639,30C8.013,30,0,38.439,0,49.63c0,12.09,10,20.362,25.132,32.884,2.57,2.127,5.483,4.537,8.511,7.108a2.243,2.243,0,0,0,2.887,0c3.028-2.571,5.941-4.981,8.513-7.109,15.133-12.521,25.13-20.793,25.13-32.883C70.172,38.439,62.159,30,51.533,30Z" transform="translate(0 -30)" fill="#13dbd2"/>
  </g>
</svg>
