<svg xmlns="http://www.w3.org/2000/svg" width="765.038" height="428.288" viewBox="0 0 765.038 428.288">
  <g id="Group_16354" data-name="Group 16354" transform="translate(-1185.949 -1301.494)">
    <path id="Path_15005" data-name="Path 15005" d="M11135.949,1628.8s75.093,77.773,301.89,80.815,249.625-35.172,340.395-46.178,109.7-11.006,109.7-11.006l-20.473-223.314s-129.35-32.426-153.847,11.834-64.733,65.444-81.3,42.6-4.615-65.562-27.574-54.438-20.354,63.077-63.076,54.438-116.1,30.769-141.3,29.231S11135.949,1628.8,11135.949,1628.8Z" transform="translate(-9950 20)" fill="#26bfb8"/>
    <g id="Group_15312" data-name="Group 15312" transform="translate(1584.795 1430.758)">
      <path id="Path_2441" data-name="Path 2441" d="M677.515,198.225c-10.119-12.743-26.565-17.448-39.886-6.339-6.046,5.044-10.909,12.848-16.119,18.761-5.822,6.608-11.04,12.535-17.88,18.238-7.533,6.279-15.1,14.483-14.612,24.276.269,5.426,3.012,10.361,4.99,15.42s3.149,11.03.43,15.731c-2.055,3.549-5.883,5.606-9.034,8.228-9.986,8.309-13.095,23.175-9.206,35.569s13.84,22.274,25.4,28.2,24.64,8.265,37.6,9.157c17.472,1.2,35.484-.186,51.524-7.216s29.918-20.295,34.787-37.116c2.21-7.638,2.329-16.483-2.368-22.9-2.992-4.087-7.558-6.7-11.123-10.3a27.846,27.846,0,0,1-7.711-22.925c.782-5.869,3.428-11.3,5.178-16.955s2.529-12.073-.279-17.285c-4.242-7.875-14.681-9.909-20.985-16.254C683.626,209.9,681.565,203.33,677.515,198.225Z" transform="translate(-574.574 -185.643)" fill="#a1d5ac"/>
      <path id="Path_2442" data-name="Path 2442" d="M663.536,244.975a1.463,1.463,0,0,0-2.057.275l-33.088,43.268a19.616,19.616,0,0,0-1.891,3.06c-.226-24.854-.572-49.692-1.1-74.38a1.465,1.465,0,0,0-1.465-1.436l-.032,0a1.466,1.466,0,0,0-1.434,1.5q.712,32.978,1.018,66.227a19.422,19.422,0,0,0-1.826-2.937,63.47,63.47,0,0,0-5.19-5.7c-1.016-1.028-2.032-2.055-3-3.121a52.569,52.569,0,0,1-13.345-38.191,1.468,1.468,0,1,0-2.929-.194,55.569,55.569,0,0,0,14.1,40.363c1,1.095,2.042,2.151,3.087,3.208a60.047,60.047,0,0,1,4.955,5.426c2.428,3.145,3.834,7.549,4.275,13.345.024,3.02.073,6.034.095,9.054-4.467-10.693-14.153-18.818-22.953-26.167l-.491-.41a1.467,1.467,0,0,0-1.883,2.25l.493.41c10.854,9.068,23.157,19.343,24.325,33.914a1.457,1.457,0,0,0,.549,1.014c.135,26.339.123,52.666-.091,78.821a1.47,1.47,0,0,0,1.457,1.481h.012a1.467,1.467,0,0,0,1.467-1.455c.242-29.575.259-59.361.057-89.15.186-6.465.925-11.036,4.075-15.153l33.088-43.27A1.467,1.467,0,0,0,663.536,244.975Z" transform="translate(-551.62 -154.917)" fill="#765056"/>
    </g>
    <g id="Group_16151" data-name="Group 16151" transform="translate(1753.75 1240.927)">
      <rect id="Rectangle_1579" data-name="Rectangle 1579" width="109.197" height="335.284" transform="translate(0 94.295)" fill="#1f9993"/>
      <g id="Group_16000" data-name="Group 16000" transform="translate(27.079 60.567)">
        <g id="Group_15997" data-name="Group 15997">
          <rect id="Rectangle_1580" data-name="Rectangle 1580" width="81.709" height="33.728" fill="#125956"/>
          <g id="Group_15996" data-name="Group 15996" transform="translate(6.803 5.203)">
            <rect id="Rectangle_1581" data-name="Rectangle 1581" width="6.985" height="23.321" fill="#1f9993"/>
            <rect id="Rectangle_1582" data-name="Rectangle 1582" width="6.985" height="23.321" transform="translate(12.224)" fill="#1f9993"/>
            <rect id="Rectangle_1583" data-name="Rectangle 1583" width="6.985" height="23.321" transform="translate(24.447)" fill="#1f9993"/>
            <rect id="Rectangle_1584" data-name="Rectangle 1584" width="6.985" height="23.321" transform="translate(36.671)" fill="#1f9993"/>
            <rect id="Rectangle_1585" data-name="Rectangle 1585" width="6.985" height="23.321" transform="translate(48.894)" fill="#1f9993"/>
            <rect id="Rectangle_1586" data-name="Rectangle 1586" width="6.985" height="23.321" transform="translate(61.118)" fill="#1f9993"/>
          </g>
        </g>
        <g id="Group_15999" data-name="Group 15999" transform="translate(81.709)">
          <rect id="Rectangle_1587" data-name="Rectangle 1587" width="37.155" height="33.728" fill="#1f9993"/>
          <g id="Group_15998" data-name="Group 15998" transform="translate(5.209 5.203)">
            <rect id="Rectangle_1588" data-name="Rectangle 1588" width="5.942" height="23.321" fill="#125956"/>
            <rect id="Rectangle_1589" data-name="Rectangle 1589" width="5.942" height="23.321" transform="translate(10.398)" fill="#125956"/>
            <rect id="Rectangle_1590" data-name="Rectangle 1590" width="5.942" height="23.321" transform="translate(20.795)" fill="#125956"/>
          </g>
        </g>
      </g>
      <g id="Group_16001" data-name="Group 16001" transform="translate(108.788 94.295)">
        <rect id="Rectangle_1591" data-name="Rectangle 1591" width="55.578" height="335.284" fill="#125956"/>
      </g>
      <g id="Group_16003" data-name="Group 16003" transform="translate(22.352 117.388)">
        <rect id="Rectangle_1595" data-name="Rectangle 1595" width="20.155" height="30.863" fill="#2bdad1"/>
        <rect id="Rectangle_1596" data-name="Rectangle 1596" width="20.155" height="30.863" transform="translate(41.027)" fill="#2bdad1"/>
        <rect id="Rectangle_1597" data-name="Rectangle 1597" width="20.155" height="30.863" transform="translate(0 48.635)" fill="#2bdad1"/>
        <rect id="Rectangle_1598" data-name="Rectangle 1598" width="20.155" height="30.863" transform="translate(41.027 48.635)" fill="#2bdad1"/>
        <rect id="Rectangle_1599" data-name="Rectangle 1599" width="20.155" height="30.863" transform="translate(0 97.271)" fill="#2bdad1"/>
        <rect id="Rectangle_1600" data-name="Rectangle 1600" width="20.155" height="30.863" transform="translate(41.027 97.271)" fill="#2bdad1"/>
        <rect id="Rectangle_1601" data-name="Rectangle 1601" width="20.155" height="30.863" transform="translate(0 145.906)" fill="#2bdad1"/>
        <rect id="Rectangle_1602" data-name="Rectangle 1602" width="20.155" height="30.863" transform="translate(41.027 145.906)" fill="#2bdad1"/>
        <rect id="Rectangle_1603" data-name="Rectangle 1603" width="20.155" height="30.863" transform="translate(0 194.542)" fill="#2bdad1"/>
        <rect id="Rectangle_1604" data-name="Rectangle 1604" width="20.155" height="30.863" transform="translate(41.027 194.542)" fill="#2bdad1"/>
        <rect id="Rectangle_1605" data-name="Rectangle 1605" width="20.155" height="30.863" transform="translate(0 243.177)" fill="#2bdad1"/>
        <rect id="Rectangle_1606" data-name="Rectangle 1606" width="20.155" height="30.863" transform="translate(41.027 243.177)" fill="#2bdad1"/>
      </g>
      <g id="Group_16004" data-name="Group 16004" transform="translate(118.997 117.388)">
        <rect id="Rectangle_1607" data-name="Rectangle 1607" width="11.583" height="30.863" fill="#2bdad1"/>
        <rect id="Rectangle_1608" data-name="Rectangle 1608" width="11.583" height="30.863" transform="translate(23.577)" fill="#2bdad1"/>
        <rect id="Rectangle_1609" data-name="Rectangle 1609" width="11.583" height="30.863" transform="translate(0 48.635)" fill="#2bdad1"/>
        <rect id="Rectangle_1610" data-name="Rectangle 1610" width="11.583" height="30.863" transform="translate(23.577 48.635)" fill="#2bdad1"/>
        <rect id="Rectangle_1611" data-name="Rectangle 1611" width="11.583" height="30.863" transform="translate(0 97.271)" fill="#2bdad1"/>
        <rect id="Rectangle_1612" data-name="Rectangle 1612" width="11.583" height="30.863" transform="translate(23.577 97.271)" fill="#2bdad1"/>
        <rect id="Rectangle_1613" data-name="Rectangle 1613" width="11.583" height="30.863" transform="translate(0 145.906)" fill="#2bdad1"/>
        <rect id="Rectangle_1614" data-name="Rectangle 1614" width="11.583" height="30.863" transform="translate(23.577 145.906)" fill="#2bdad1"/>
        <rect id="Rectangle_1615" data-name="Rectangle 1615" width="11.583" height="30.863" transform="translate(0 194.542)" fill="#2bdad1"/>
        <rect id="Rectangle_1616" data-name="Rectangle 1616" width="11.583" height="30.863" transform="translate(23.577 194.542)" fill="#2bdad1"/>
        <rect id="Rectangle_1617" data-name="Rectangle 1617" width="11.583" height="30.863" transform="translate(0 243.177)" fill="#2bdad1"/>
        <rect id="Rectangle_1618" data-name="Rectangle 1618" width="11.583" height="30.863" transform="translate(23.577 243.177)" fill="#2bdad1"/>
      </g>
    </g>
    <path id="Path_15783" data-name="Path 15783" d="M9956.966,4337.106c2.507-6.74,17.983-16.25,58.11-14.777s58.065,7.541,82.9,6.674,59.5-1.43,70.764,0,17.046,7.494-23.876,12.566-84.344,6.487-139.811,7.722S9954.459,4343.846,9956.966,4337.106Z" transform="translate(-8226 -2663.908)" fill="#26bfb8"/>
  </g>
</svg>
