<svg xmlns="http://www.w3.org/2000/svg" width="163.081" height="43.071" viewBox="0 0 163.081 43.071">
  <g id="Group_14294" data-name="Group 14294" transform="translate(-248.406 -66.595)">
    <path id="Path_14526" data-name="Path 14526" d="M411.4,107.96c1.247-9.6-11.529-17.5-21.13-18.326-4.578-.391-9.334.351-13.671-1.253-9.4-3.475-13.152-16.354-22.321-20.457-6.855-3.068-14.747-.337-21.394,3.211s-13.213,8.015-20.638,8.519c-6.458.438-13.472-2.1-19.122,1.244-4.21,2.494-6.415,7.641-10.3,10.677-3.8,2.972-8.748,3.6-13.459,3.872s-9.588.322-13.879,2.407-7.837,6.895-6.947,11.811Z" transform="translate(0 0)" fill="#ebebeb"/>
  </g>
</svg>
