<svg xmlns="http://www.w3.org/2000/svg" width="406.97" height="99.227" viewBox="0 0 406.97 99.227">
  <g id="Group_15298" data-name="Group 15298" transform="translate(-248.406 -74.853)">
    <path id="Path_14526" data-name="Path 14526" d="M655.165,169.823c3.112-23.965-28.772-43.684-52.73-45.732-11.426-.975-23.294.876-34.116-3.126-23.454-8.671-30.3-30.6-53.182-40.835a57.67,57.67,0,0,0-51.97,1.906c-16.582,8.855-37.26,14.132-58.852,11.065-16.116,1.094-28.171,13.487-42.272,21.841-10.505,6.224-19.511-7.211-35.6-3.9s-15.61,7.67-28.762,17.158-20.887,11.2-31.594,16.4-19.558,17.206-17.336,29.474Z" transform="translate(0 0)" fill="#ebebeb"/>
  </g>
</svg>
