<svg xmlns="http://www.w3.org/2000/svg" width="244.312" height="59.568" viewBox="0 0 244.312 59.568">
  <g id="Group_15418" data-name="Group 15418" transform="translate(-248.406 -74.853)">
    <path id="Path_14526" data-name="Path 14526" d="M492.591,131.865c1.868-14.387-17.272-26.224-31.655-27.454-6.859-.585-13.984.526-20.481-1.876-14.08-5.206-18.19-18.367-31.926-24.514a34.621,34.621,0,0,0-31.2,1.145A58.118,58.118,0,0,1,342,85.808c-9.674.657-16.912,8.1-25.377,13.112-6.306,3.736-11.713-4.329-21.372-2.339s-9.371,4.6-17.266,10.3-12.539,6.723-18.966,9.846-11.741,10.329-10.407,17.694Z" transform="translate(0 0)" fill="#ebebeb"/>
  </g>
</svg>
