<svg xmlns="http://www.w3.org/2000/svg" width="567.223" height="330.943" viewBox="0 0 567.223 330.943">
  <g id="Group_16371" data-name="Group 16371" transform="translate(-742.777 -122.255)">
    <g id="Group_16356" data-name="Group 16356">
      <g id="Group_16138" data-name="Group 16138" transform="translate(1017.119 86.887)">
        <rect id="Rectangle_1579" data-name="Rectangle 1579" width="64.291" height="197.403" transform="translate(0 80.425)" fill="#1f9993"/>
        <g id="Group_16000" data-name="Group 16000" transform="translate(15.943 60.567)">
          <g id="Group_15997" data-name="Group 15997">
            <rect id="Rectangle_1580" data-name="Rectangle 1580" width="48.107" height="19.858" fill="#125956"/>
            <g id="Group_15996" data-name="Group 15996" transform="translate(4.006 3.064)">
              <rect id="Rectangle_1581" data-name="Rectangle 1581" width="4.112" height="13.731" fill="#1f9993"/>
              <rect id="Rectangle_1582" data-name="Rectangle 1582" width="4.112" height="13.731" transform="translate(7.197)" fill="#1f9993"/>
              <rect id="Rectangle_1583" data-name="Rectangle 1583" width="4.112" height="13.731" transform="translate(14.394)" fill="#1f9993"/>
              <rect id="Rectangle_1584" data-name="Rectangle 1584" width="4.112" height="13.731" transform="translate(21.59)" fill="#1f9993"/>
              <rect id="Rectangle_1585" data-name="Rectangle 1585" width="4.112" height="13.731" transform="translate(28.787)" fill="#1f9993"/>
              <rect id="Rectangle_1586" data-name="Rectangle 1586" width="4.112" height="13.731" transform="translate(35.984)" fill="#1f9993"/>
            </g>
          </g>
          <g id="Group_15999" data-name="Group 15999" transform="translate(48.107)">
            <rect id="Rectangle_1587" data-name="Rectangle 1587" width="21.876" height="19.858" fill="#1f9993"/>
            <g id="Group_15998" data-name="Group 15998" transform="translate(3.067 3.064)">
              <rect id="Rectangle_1588" data-name="Rectangle 1588" width="3.498" height="13.731" fill="#125956"/>
              <rect id="Rectangle_1589" data-name="Rectangle 1589" width="3.498" height="13.731" transform="translate(6.122)" fill="#125956"/>
              <rect id="Rectangle_1590" data-name="Rectangle 1590" width="3.498" height="13.731" transform="translate(12.244)" fill="#125956"/>
            </g>
          </g>
        </g>
        <g id="Group_16001" data-name="Group 16001" transform="translate(64.05 80.425)">
          <rect id="Rectangle_1591" data-name="Rectangle 1591" width="32.722" height="197.403" fill="#125956"/>
        </g>
        <g id="Group_16003" data-name="Group 16003" transform="translate(13.16 94.021)">
          <rect id="Rectangle_1595" data-name="Rectangle 1595" width="11.867" height="18.171" fill="#2bdad1"/>
          <rect id="Rectangle_1596" data-name="Rectangle 1596" width="11.867" height="18.171" transform="translate(24.155)" fill="#2bdad1"/>
          <rect id="Rectangle_1597" data-name="Rectangle 1597" width="11.867" height="18.171" transform="translate(0 28.635)" fill="#2bdad1"/>
          <rect id="Rectangle_1598" data-name="Rectangle 1598" width="11.867" height="18.171" transform="translate(24.155 28.635)" fill="#2bdad1"/>
          <rect id="Rectangle_1599" data-name="Rectangle 1599" width="11.867" height="18.171" transform="translate(0 57.269)" fill="#2bdad1"/>
          <rect id="Rectangle_1600" data-name="Rectangle 1600" width="11.867" height="18.171" transform="translate(24.155 57.269)" fill="#2bdad1"/>
          <rect id="Rectangle_1601" data-name="Rectangle 1601" width="11.867" height="18.171" transform="translate(0 85.904)" fill="#2bdad1"/>
          <rect id="Rectangle_1602" data-name="Rectangle 1602" width="11.867" height="18.171" transform="translate(24.155 85.904)" fill="#2bdad1"/>
          <rect id="Rectangle_1603" data-name="Rectangle 1603" width="11.867" height="18.171" transform="translate(0 114.539)" fill="#2bdad1"/>
          <rect id="Rectangle_1604" data-name="Rectangle 1604" width="11.867" height="18.171" transform="translate(24.155 114.539)" fill="#2bdad1"/>
          <rect id="Rectangle_1605" data-name="Rectangle 1605" width="11.867" height="18.171" transform="translate(0 143.174)" fill="#2bdad1"/>
          <rect id="Rectangle_1606" data-name="Rectangle 1606" width="11.867" height="18.171" transform="translate(24.155 143.174)" fill="#2bdad1"/>
        </g>
        <g id="Group_16004" data-name="Group 16004" transform="translate(70.061 94.021)">
          <rect id="Rectangle_1607" data-name="Rectangle 1607" width="6.819" height="18.171" fill="#2bdad1"/>
          <rect id="Rectangle_1608" data-name="Rectangle 1608" width="6.819" height="18.171" transform="translate(13.881)" fill="#2bdad1"/>
          <rect id="Rectangle_1609" data-name="Rectangle 1609" width="6.819" height="18.171" transform="translate(0 28.635)" fill="#2bdad1"/>
          <rect id="Rectangle_1610" data-name="Rectangle 1610" width="6.819" height="18.171" transform="translate(13.881 28.635)" fill="#2bdad1"/>
          <rect id="Rectangle_1611" data-name="Rectangle 1611" width="6.819" height="18.171" transform="translate(0 57.269)" fill="#2bdad1"/>
          <rect id="Rectangle_1612" data-name="Rectangle 1612" width="6.819" height="18.171" transform="translate(13.881 57.269)" fill="#2bdad1"/>
          <rect id="Rectangle_1613" data-name="Rectangle 1613" width="6.819" height="18.171" transform="translate(0 85.904)" fill="#2bdad1"/>
          <rect id="Rectangle_1614" data-name="Rectangle 1614" width="6.819" height="18.171" transform="translate(13.881 85.904)" fill="#2bdad1"/>
          <rect id="Rectangle_1615" data-name="Rectangle 1615" width="6.819" height="18.171" transform="translate(0 114.539)" fill="#2bdad1"/>
          <rect id="Rectangle_1616" data-name="Rectangle 1616" width="6.819" height="18.171" transform="translate(13.881 114.539)" fill="#2bdad1"/>
          <rect id="Rectangle_1617" data-name="Rectangle 1617" width="6.819" height="18.171" transform="translate(0 143.174)" fill="#2bdad1"/>
          <rect id="Rectangle_1618" data-name="Rectangle 1618" width="6.819" height="18.171" transform="translate(13.881 143.174)" fill="#2bdad1"/>
        </g>
      </g>
      <g id="Group_16136" data-name="Group 16136" transform="translate(1113.892 155.585)">
        <g id="Group_15980" data-name="Group 15980">
          <rect id="Rectangle_1443" data-name="Rectangle 1443" width="62.932" height="238.671" transform="translate(0 15.829)" fill="#ebebeb"/>
          <rect id="Rectangle_1444" data-name="Rectangle 1444" width="53.981" height="15.829" transform="translate(8.951)" fill="#c7c7c7"/>
          <g id="Group_15979" data-name="Group 15979" transform="translate(6.9 24.091)">
            <rect id="Rectangle_1445" data-name="Rectangle 1445" width="49.132" height="178.422" fill="#dbdbdb"/>
            <g id="Group_15978" data-name="Group 15978" transform="translate(0 17.027)">
              <rect id="Rectangle_1446" data-name="Rectangle 1446" width="49.132" height="4.216" fill="#fff"/>
              <rect id="Rectangle_1447" data-name="Rectangle 1447" width="49.132" height="4.216" transform="translate(0 17.464)" fill="#fff"/>
              <rect id="Rectangle_1448" data-name="Rectangle 1448" width="49.132" height="4.216" transform="translate(0 34.929)" fill="#fff"/>
              <rect id="Rectangle_1449" data-name="Rectangle 1449" width="49.132" height="4.217" transform="translate(0 52.393)" fill="#fff"/>
              <rect id="Rectangle_1450" data-name="Rectangle 1450" width="49.132" height="4.216" transform="translate(0 69.857)" fill="#fff"/>
              <rect id="Rectangle_1451" data-name="Rectangle 1451" width="49.132" height="4.217" transform="translate(0 87.321)" fill="#fff"/>
              <rect id="Rectangle_1452" data-name="Rectangle 1452" width="49.132" height="4.216" transform="translate(0 104.786)" fill="#fff"/>
              <rect id="Rectangle_1453" data-name="Rectangle 1453" width="49.132" height="4.216" transform="translate(0 122.25)" fill="#fff"/>
              <rect id="Rectangle_1454" data-name="Rectangle 1454" width="49.132" height="4.216" transform="translate(0 139.714)" fill="#fff"/>
              <rect id="Rectangle_1455" data-name="Rectangle 1455" width="49.132" height="4.216" transform="translate(0 157.179)" fill="#fff"/>
            </g>
          </g>
        </g>
        <g id="Group_15983" data-name="Group 15983" transform="translate(62.932)">
          <rect id="Rectangle_1456" data-name="Rectangle 1456" width="39.418" height="238.671" transform="translate(0 15.829)" fill="#dbdbdb"/>
          <rect id="Rectangle_1457" data-name="Rectangle 1457" width="33.503" height="15.829" fill="#a6a6a6"/>
          <g id="Group_15982" data-name="Group 15982" transform="translate(5.434 24.091)">
            <rect id="Rectangle_1458" data-name="Rectangle 1458" width="30.307" height="178.422" fill="#c7c7c7"/>
            <g id="Group_15981" data-name="Group 15981" transform="translate(0 17.027)">
              <rect id="Rectangle_1459" data-name="Rectangle 1459" width="30.307" height="4.216" fill="#fff"/>
              <rect id="Rectangle_1460" data-name="Rectangle 1460" width="30.307" height="4.216" transform="translate(0 17.464)" fill="#fff"/>
              <rect id="Rectangle_1461" data-name="Rectangle 1461" width="30.307" height="4.216" transform="translate(0 34.929)" fill="#fff"/>
              <rect id="Rectangle_1462" data-name="Rectangle 1462" width="30.307" height="4.217" transform="translate(0 52.393)" fill="#fff"/>
              <rect id="Rectangle_1463" data-name="Rectangle 1463" width="30.307" height="4.216" transform="translate(0 69.857)" fill="#fff"/>
              <rect id="Rectangle_1464" data-name="Rectangle 1464" width="30.307" height="4.217" transform="translate(0 87.321)" fill="#fff"/>
              <rect id="Rectangle_1465" data-name="Rectangle 1465" width="30.307" height="4.216" transform="translate(0 104.786)" fill="#fff"/>
              <rect id="Rectangle_1466" data-name="Rectangle 1466" width="30.307" height="4.216" transform="translate(0 122.25)" fill="#fff"/>
              <rect id="Rectangle_1467" data-name="Rectangle 1467" width="30.307" height="4.216" transform="translate(0 139.714)" fill="#fff"/>
              <rect id="Rectangle_1468" data-name="Rectangle 1468" width="30.307" height="4.216" transform="translate(0 157.179)" fill="#fff"/>
            </g>
          </g>
        </g>
      </g>
      <g id="Group_16133" data-name="Group 16133" transform="translate(940.468 139.585)">
        <g id="Group_15939" data-name="Group 15939">
          <rect id="Rectangle_1233" data-name="Rectangle 1233" width="45.391" height="237.937" fill="#dbdbdb"/>
          <g id="Group_15938" data-name="Group 15938" transform="translate(7.045 7.729)">
            <rect id="Rectangle_1234" data-name="Rectangle 1234" width="8.824" height="9.085" fill="#ebebeb"/>
            <rect id="Rectangle_1235" data-name="Rectangle 1235" width="8.824" height="9.085" transform="translate(11.287)" fill="#ebebeb"/>
            <rect id="Rectangle_1236" data-name="Rectangle 1236" width="8.824" height="9.085" transform="translate(0 15.425)" fill="#ebebeb"/>
            <rect id="Rectangle_1237" data-name="Rectangle 1237" width="8.824" height="9.085" transform="translate(11.287 15.425)" fill="#ebebeb"/>
            <rect id="Rectangle_1238" data-name="Rectangle 1238" width="8.824" height="9.085" transform="translate(0 30.849)" fill="#ebebeb"/>
            <rect id="Rectangle_1239" data-name="Rectangle 1239" width="8.824" height="9.085" transform="translate(11.287 30.849)" fill="#ebebeb"/>
            <rect id="Rectangle_1240" data-name="Rectangle 1240" width="8.824" height="9.085" transform="translate(0 46.274)" fill="#ebebeb"/>
            <rect id="Rectangle_1241" data-name="Rectangle 1241" width="8.824" height="9.085" transform="translate(11.287 46.274)" fill="#ebebeb"/>
            <rect id="Rectangle_1242" data-name="Rectangle 1242" width="8.824" height="9.085" transform="translate(0 61.698)" fill="#ebebeb"/>
            <rect id="Rectangle_1243" data-name="Rectangle 1243" width="8.824" height="9.085" transform="translate(11.287 61.698)" fill="#ebebeb"/>
            <rect id="Rectangle_1244" data-name="Rectangle 1244" width="8.824" height="9.085" transform="translate(0 77.123)" fill="#ebebeb"/>
            <rect id="Rectangle_1245" data-name="Rectangle 1245" width="8.824" height="9.085" transform="translate(11.287 77.123)" fill="#ebebeb"/>
            <rect id="Rectangle_1246" data-name="Rectangle 1246" width="8.824" height="9.085" transform="translate(0 92.548)" fill="#ebebeb"/>
            <rect id="Rectangle_1247" data-name="Rectangle 1247" width="8.824" height="9.085" transform="translate(11.287 92.548)" fill="#ebebeb"/>
            <rect id="Rectangle_1248" data-name="Rectangle 1248" width="8.824" height="9.085" transform="translate(0 107.972)" fill="#ebebeb"/>
            <rect id="Rectangle_1249" data-name="Rectangle 1249" width="8.824" height="9.085" transform="translate(11.287 107.972)" fill="#ebebeb"/>
            <rect id="Rectangle_1250" data-name="Rectangle 1250" width="8.824" height="9.085" transform="translate(0 123.397)" fill="#ebebeb"/>
            <rect id="Rectangle_1251" data-name="Rectangle 1251" width="8.824" height="9.085" transform="translate(11.287 123.397)" fill="#ebebeb"/>
            <rect id="Rectangle_1252" data-name="Rectangle 1252" width="8.824" height="9.085" transform="translate(0 138.821)" fill="#ebebeb"/>
            <rect id="Rectangle_1253" data-name="Rectangle 1253" width="8.824" height="9.085" transform="translate(11.287 138.821)" fill="#ebebeb"/>
            <rect id="Rectangle_1254" data-name="Rectangle 1254" width="8.824" height="9.085" transform="translate(0 154.246)" fill="#ebebeb"/>
            <rect id="Rectangle_1255" data-name="Rectangle 1255" width="8.824" height="9.085" transform="translate(11.287 154.246)" fill="#ebebeb"/>
            <rect id="Rectangle_1256" data-name="Rectangle 1256" width="8.824" height="9.085" transform="translate(0 169.671)" fill="#ebebeb"/>
            <rect id="Rectangle_1257" data-name="Rectangle 1257" width="8.824" height="9.085" transform="translate(11.287 169.671)" fill="#ebebeb"/>
            <rect id="Rectangle_1258" data-name="Rectangle 1258" width="8.824" height="9.085" transform="translate(0 185.095)" fill="#ebebeb"/>
            <rect id="Rectangle_1259" data-name="Rectangle 1259" width="8.824" height="9.085" transform="translate(11.287 185.095)" fill="#ebebeb"/>
            <rect id="Rectangle_1260" data-name="Rectangle 1260" width="8.824" height="9.085" transform="translate(0 200.52)" fill="#ebebeb"/>
            <rect id="Rectangle_1261" data-name="Rectangle 1261" width="8.824" height="9.085" transform="translate(31.3 209.605) rotate(180)" fill="#ebebeb"/>
            <rect id="Rectangle_1262" data-name="Rectangle 1262" width="8.824" height="9.085" transform="translate(31.3 194.181) rotate(180)" fill="#ebebeb"/>
            <rect id="Rectangle_1263" data-name="Rectangle 1263" width="8.824" height="9.085" transform="translate(31.3 178.756) rotate(180)" fill="#ebebeb"/>
            <rect id="Rectangle_1264" data-name="Rectangle 1264" width="8.824" height="9.085" transform="translate(31.3 163.331) rotate(180)" fill="#ebebeb"/>
            <rect id="Rectangle_1265" data-name="Rectangle 1265" width="8.824" height="9.085" transform="translate(31.3 147.907) rotate(180)" fill="#ebebeb"/>
            <rect id="Rectangle_1266" data-name="Rectangle 1266" width="8.824" height="9.085" transform="translate(31.3 132.482) rotate(180)" fill="#ebebeb"/>
            <rect id="Rectangle_1267" data-name="Rectangle 1267" width="8.824" height="9.085" transform="translate(31.3 117.057) rotate(180)" fill="#ebebeb"/>
            <rect id="Rectangle_1268" data-name="Rectangle 1268" width="8.824" height="9.085" transform="translate(31.3 101.633) rotate(180)" fill="#ebebeb"/>
            <rect id="Rectangle_1269" data-name="Rectangle 1269" width="8.824" height="9.085" transform="translate(31.3 86.208) rotate(180)" fill="#ebebeb"/>
            <rect id="Rectangle_1270" data-name="Rectangle 1270" width="8.824" height="9.085" transform="translate(31.3 70.784) rotate(180)" fill="#ebebeb"/>
            <rect id="Rectangle_1271" data-name="Rectangle 1271" width="8.824" height="9.085" transform="translate(31.3 55.359) rotate(180)" fill="#ebebeb"/>
            <rect id="Rectangle_1272" data-name="Rectangle 1272" width="8.824" height="9.085" transform="translate(31.3 39.934) rotate(180)" fill="#ebebeb"/>
            <rect id="Rectangle_1273" data-name="Rectangle 1273" width="8.824" height="9.085" transform="translate(31.3 24.51) rotate(180)" fill="#ebebeb"/>
            <rect id="Rectangle_1274" data-name="Rectangle 1274" width="8.824" height="9.085" transform="translate(31.3 9.085) rotate(180)" fill="#ebebeb"/>
            <rect id="Rectangle_1275" data-name="Rectangle 1275" width="8.824" height="9.085" transform="translate(11.287 200.52)" fill="#ebebeb"/>
          </g>
        </g>
        <g id="Group_15941" data-name="Group 15941" transform="translate(45.391)">
          <rect id="Rectangle_1276" data-name="Rectangle 1276" width="35.788" height="237.937" fill="#a6a6a6"/>
          <g id="Group_15940" data-name="Group 15940" transform="translate(6.25 7.729)">
            <rect id="Rectangle_1277" data-name="Rectangle 1277" width="7.287" height="9.085" transform="translate(25.848 209.605) rotate(180)" fill="#c7c7c7"/>
            <rect id="Rectangle_1278" data-name="Rectangle 1278" width="7.286" height="9.085" transform="translate(16.527 209.605) rotate(180)" fill="#c7c7c7"/>
            <rect id="Rectangle_1279" data-name="Rectangle 1279" width="7.287" height="9.085" transform="translate(25.848 194.181) rotate(180)" fill="#c7c7c7"/>
            <rect id="Rectangle_1280" data-name="Rectangle 1280" width="7.286" height="9.085" transform="translate(16.527 194.181) rotate(180)" fill="#c7c7c7"/>
            <rect id="Rectangle_1281" data-name="Rectangle 1281" width="7.287" height="9.085" transform="translate(25.848 178.756) rotate(180)" fill="#c7c7c7"/>
            <rect id="Rectangle_1282" data-name="Rectangle 1282" width="7.286" height="9.085" transform="translate(16.527 178.756) rotate(180)" fill="#c7c7c7"/>
            <rect id="Rectangle_1283" data-name="Rectangle 1283" width="7.287" height="9.085" transform="translate(25.848 163.331) rotate(180)" fill="#c7c7c7"/>
            <rect id="Rectangle_1284" data-name="Rectangle 1284" width="7.286" height="9.085" transform="translate(16.527 163.331) rotate(180)" fill="#c7c7c7"/>
            <rect id="Rectangle_1285" data-name="Rectangle 1285" width="7.287" height="9.085" transform="translate(25.848 147.907) rotate(180)" fill="#c7c7c7"/>
            <rect id="Rectangle_1286" data-name="Rectangle 1286" width="7.286" height="9.085" transform="translate(16.527 147.907) rotate(180)" fill="#c7c7c7"/>
            <rect id="Rectangle_1287" data-name="Rectangle 1287" width="7.287" height="9.085" transform="translate(25.848 132.482) rotate(180)" fill="#c7c7c7"/>
            <rect id="Rectangle_1288" data-name="Rectangle 1288" width="7.286" height="9.085" transform="translate(16.527 132.482) rotate(180)" fill="#c7c7c7"/>
            <rect id="Rectangle_1289" data-name="Rectangle 1289" width="7.287" height="9.085" transform="translate(25.848 117.057) rotate(180)" fill="#c7c7c7"/>
            <rect id="Rectangle_1290" data-name="Rectangle 1290" width="7.286" height="9.085" transform="translate(16.527 117.057) rotate(180)" fill="#c7c7c7"/>
            <rect id="Rectangle_1291" data-name="Rectangle 1291" width="7.287" height="9.085" transform="translate(25.848 101.633) rotate(180)" fill="#c7c7c7"/>
            <rect id="Rectangle_1292" data-name="Rectangle 1292" width="7.286" height="9.085" transform="translate(16.527 101.633) rotate(180)" fill="#c7c7c7"/>
            <rect id="Rectangle_1293" data-name="Rectangle 1293" width="7.287" height="9.085" transform="translate(25.848 86.208) rotate(180)" fill="#c7c7c7"/>
            <rect id="Rectangle_1294" data-name="Rectangle 1294" width="7.286" height="9.085" transform="translate(16.527 86.208) rotate(180)" fill="#c7c7c7"/>
            <rect id="Rectangle_1295" data-name="Rectangle 1295" width="7.287" height="9.085" transform="translate(25.848 70.784) rotate(180)" fill="#c7c7c7"/>
            <rect id="Rectangle_1296" data-name="Rectangle 1296" width="7.286" height="9.085" transform="translate(16.527 70.784) rotate(180)" fill="#c7c7c7"/>
            <rect id="Rectangle_1297" data-name="Rectangle 1297" width="7.287" height="9.085" transform="translate(25.848 55.359) rotate(180)" fill="#c7c7c7"/>
            <rect id="Rectangle_1298" data-name="Rectangle 1298" width="7.286" height="9.085" transform="translate(16.527 55.359) rotate(180)" fill="#c7c7c7"/>
            <rect id="Rectangle_1299" data-name="Rectangle 1299" width="7.287" height="9.085" transform="translate(25.848 39.934) rotate(180)" fill="#c7c7c7"/>
            <rect id="Rectangle_1300" data-name="Rectangle 1300" width="7.286" height="9.085" transform="translate(16.527 39.934) rotate(180)" fill="#c7c7c7"/>
            <rect id="Rectangle_1301" data-name="Rectangle 1301" width="7.287" height="9.085" transform="translate(25.848 24.51) rotate(180)" fill="#c7c7c7"/>
            <rect id="Rectangle_1302" data-name="Rectangle 1302" width="7.286" height="9.085" transform="translate(16.527 24.51) rotate(180)" fill="#c7c7c7"/>
            <rect id="Rectangle_1303" data-name="Rectangle 1303" width="7.287" height="9.085" transform="translate(25.848 9.085) rotate(180)" fill="#c7c7c7"/>
            <rect id="Rectangle_1304" data-name="Rectangle 1304" width="7.286" height="9.085" fill="#c7c7c7"/>
            <rect id="Rectangle_1305" data-name="Rectangle 1305" width="7.286" height="9.085" transform="translate(0 15.425)" fill="#c7c7c7"/>
            <rect id="Rectangle_1306" data-name="Rectangle 1306" width="7.286" height="9.085" transform="translate(0 30.849)" fill="#c7c7c7"/>
            <rect id="Rectangle_1307" data-name="Rectangle 1307" width="7.286" height="9.085" transform="translate(0 46.274)" fill="#c7c7c7"/>
            <rect id="Rectangle_1308" data-name="Rectangle 1308" width="7.286" height="9.085" transform="translate(0 61.698)" fill="#c7c7c7"/>
            <rect id="Rectangle_1309" data-name="Rectangle 1309" width="7.286" height="9.085" transform="translate(0 77.123)" fill="#c7c7c7"/>
            <rect id="Rectangle_1310" data-name="Rectangle 1310" width="7.286" height="9.085" transform="translate(0 92.548)" fill="#c7c7c7"/>
            <rect id="Rectangle_1311" data-name="Rectangle 1311" width="7.286" height="9.085" transform="translate(0 107.972)" fill="#c7c7c7"/>
            <rect id="Rectangle_1312" data-name="Rectangle 1312" width="7.286" height="9.085" transform="translate(0 123.397)" fill="#c7c7c7"/>
            <rect id="Rectangle_1313" data-name="Rectangle 1313" width="7.286" height="9.085" transform="translate(0 138.821)" fill="#c7c7c7"/>
            <rect id="Rectangle_1314" data-name="Rectangle 1314" width="7.286" height="9.085" transform="translate(0 154.246)" fill="#c7c7c7"/>
            <rect id="Rectangle_1315" data-name="Rectangle 1315" width="7.286" height="9.085" transform="translate(0 169.671)" fill="#c7c7c7"/>
            <rect id="Rectangle_1316" data-name="Rectangle 1316" width="7.286" height="9.085" transform="translate(0 185.095)" fill="#c7c7c7"/>
            <rect id="Rectangle_1317" data-name="Rectangle 1317" width="7.286" height="9.085" transform="translate(0 200.52)" fill="#c7c7c7"/>
            <rect id="Rectangle_1318" data-name="Rectangle 1318" width="7.286" height="9.085" transform="translate(16.527 9.085) rotate(180)" fill="#c7c7c7"/>
          </g>
        </g>
      </g>
      <g id="Group_16132" data-name="Group 16132" transform="translate(838.521 201.72)">
        <g id="Group_15991" data-name="Group 15991">
          <rect id="Rectangle_1531" data-name="Rectangle 1531" width="59.912" height="120.291" transform="translate(0 20.292)" fill="#c7c7c7"/>
          <g id="Group_15990" data-name="Group 15990" transform="translate(9.422 30.704)">
            <rect id="Rectangle_1532" data-name="Rectangle 1532" width="10.603" height="7.37" fill="#dbdbdb"/>
            <rect id="Rectangle_1533" data-name="Rectangle 1533" width="10.603" height="7.37" transform="translate(0 15.741)" fill="#dbdbdb"/>
            <rect id="Rectangle_1534" data-name="Rectangle 1534" width="10.603" height="7.37" transform="translate(0 31.482)" fill="#dbdbdb"/>
            <rect id="Rectangle_1535" data-name="Rectangle 1535" width="10.603" height="7.37" transform="translate(0 47.224)" fill="#dbdbdb"/>
            <rect id="Rectangle_1536" data-name="Rectangle 1536" width="10.603" height="7.37" transform="translate(0 62.965)" fill="#dbdbdb"/>
            <rect id="Rectangle_1537" data-name="Rectangle 1537" width="10.603" height="7.37" transform="translate(0 78.706)" fill="#dbdbdb"/>
            <rect id="Rectangle_1538" data-name="Rectangle 1538" width="10.603" height="7.37" transform="translate(0 94.448)" fill="#dbdbdb"/>
            <rect id="Rectangle_1539" data-name="Rectangle 1539" width="10.603" height="7.37" transform="translate(15.252)" fill="#dbdbdb"/>
            <rect id="Rectangle_1540" data-name="Rectangle 1540" width="10.603" height="7.37" transform="translate(15.252 15.741)" fill="#dbdbdb"/>
            <rect id="Rectangle_1541" data-name="Rectangle 1541" width="10.603" height="7.37" transform="translate(15.252 31.482)" fill="#dbdbdb"/>
            <rect id="Rectangle_1542" data-name="Rectangle 1542" width="10.603" height="7.37" transform="translate(15.252 47.224)" fill="#dbdbdb"/>
            <rect id="Rectangle_1543" data-name="Rectangle 1543" width="10.603" height="7.37" transform="translate(15.252 62.965)" fill="#dbdbdb"/>
            <rect id="Rectangle_1544" data-name="Rectangle 1544" width="10.603" height="7.37" transform="translate(15.252 78.706)" fill="#dbdbdb"/>
            <rect id="Rectangle_1545" data-name="Rectangle 1545" width="10.603" height="7.37" transform="translate(15.252 94.448)" fill="#dbdbdb"/>
            <rect id="Rectangle_1546" data-name="Rectangle 1546" width="10.603" height="7.37" transform="translate(30.466)" fill="#dbdbdb"/>
            <rect id="Rectangle_1547" data-name="Rectangle 1547" width="10.603" height="7.37" transform="translate(30.466 15.741)" fill="#dbdbdb"/>
            <rect id="Rectangle_1548" data-name="Rectangle 1548" width="10.603" height="7.37" transform="translate(30.466 31.482)" fill="#dbdbdb"/>
            <rect id="Rectangle_1549" data-name="Rectangle 1549" width="10.603" height="7.37" transform="translate(30.466 47.224)" fill="#dbdbdb"/>
            <rect id="Rectangle_1550" data-name="Rectangle 1550" width="10.603" height="7.37" transform="translate(30.466 62.965)" fill="#dbdbdb"/>
            <rect id="Rectangle_1551" data-name="Rectangle 1551" width="10.603" height="7.37" transform="translate(30.466 78.706)" fill="#dbdbdb"/>
            <rect id="Rectangle_1552" data-name="Rectangle 1552" width="10.603" height="7.37" transform="translate(30.466 94.448)" fill="#dbdbdb"/>
          </g>
          <rect id="Rectangle_1553" data-name="Rectangle 1553" width="39.888" height="12.533" transform="translate(20.025 7.759)" fill="#dbdbdb"/>
          <rect id="Rectangle_1554" data-name="Rectangle 1554" width="25.288" height="7.759" transform="translate(34.624)" fill="#ebebeb"/>
        </g>
        <g id="Group_15993" data-name="Group 15993" transform="translate(59.912)">
          <rect id="Rectangle_1555" data-name="Rectangle 1555" width="42.035" height="120.291" transform="translate(0 20.292)" fill="#a6a6a6"/>
          <g id="Group_15992" data-name="Group 15992" transform="translate(4.302 29.529)">
            <rect id="Rectangle_1556" data-name="Rectangle 1556" width="8.631" height="7.37" transform="translate(33.43 101.818) rotate(180)" fill="#c7c7c7"/>
            <rect id="Rectangle_1557" data-name="Rectangle 1557" width="8.631" height="7.37" transform="translate(33.43 86.076) rotate(180)" fill="#c7c7c7"/>
            <rect id="Rectangle_1558" data-name="Rectangle 1558" width="8.631" height="7.37" transform="translate(33.43 70.335) rotate(180)" fill="#c7c7c7"/>
            <rect id="Rectangle_1559" data-name="Rectangle 1559" width="8.631" height="7.37" transform="translate(33.43 54.594) rotate(180)" fill="#c7c7c7"/>
            <rect id="Rectangle_1560" data-name="Rectangle 1560" width="8.631" height="7.37" transform="translate(33.43 38.852) rotate(180)" fill="#c7c7c7"/>
            <rect id="Rectangle_1561" data-name="Rectangle 1561" width="8.631" height="7.37" transform="translate(33.43 23.111) rotate(180)" fill="#c7c7c7"/>
            <rect id="Rectangle_1562" data-name="Rectangle 1562" width="8.631" height="7.37" transform="translate(33.43 7.37) rotate(180)" fill="#c7c7c7"/>
            <rect id="Rectangle_1563" data-name="Rectangle 1563" width="8.631" height="7.37" transform="translate(21.015 101.818) rotate(180)" fill="#c7c7c7"/>
            <rect id="Rectangle_1564" data-name="Rectangle 1564" width="8.631" height="7.37" transform="translate(21.015 86.076) rotate(180)" fill="#c7c7c7"/>
            <rect id="Rectangle_1565" data-name="Rectangle 1565" width="8.631" height="7.37" transform="translate(21.015 70.335) rotate(180)" fill="#c7c7c7"/>
            <rect id="Rectangle_1566" data-name="Rectangle 1566" width="8.631" height="7.37" transform="translate(21.015 54.594) rotate(180)" fill="#c7c7c7"/>
            <rect id="Rectangle_1567" data-name="Rectangle 1567" width="8.631" height="7.37" transform="translate(21.015 38.852) rotate(180)" fill="#c7c7c7"/>
            <rect id="Rectangle_1568" data-name="Rectangle 1568" width="8.631" height="7.37" transform="translate(21.015 23.111) rotate(180)" fill="#c7c7c7"/>
            <rect id="Rectangle_1569" data-name="Rectangle 1569" width="8.631" height="7.37" transform="translate(21.015 7.37) rotate(180)" fill="#c7c7c7"/>
            <rect id="Rectangle_1570" data-name="Rectangle 1570" width="8.631" height="7.37" transform="translate(8.631 101.818) rotate(180)" fill="#c7c7c7"/>
            <rect id="Rectangle_1571" data-name="Rectangle 1571" width="8.631" height="7.37" transform="translate(8.631 86.076) rotate(180)" fill="#c7c7c7"/>
            <rect id="Rectangle_1572" data-name="Rectangle 1572" width="8.631" height="7.37" transform="translate(8.631 70.335) rotate(180)" fill="#c7c7c7"/>
            <rect id="Rectangle_1573" data-name="Rectangle 1573" width="8.631" height="7.37" transform="translate(8.631 54.594) rotate(180)" fill="#c7c7c7"/>
            <rect id="Rectangle_1574" data-name="Rectangle 1574" width="8.631" height="7.37" transform="translate(8.631 38.852) rotate(180)" fill="#c7c7c7"/>
            <rect id="Rectangle_1575" data-name="Rectangle 1575" width="8.631" height="7.37" transform="translate(8.631 23.111) rotate(180)" fill="#c7c7c7"/>
            <rect id="Rectangle_1576" data-name="Rectangle 1576" width="8.631" height="7.37" transform="translate(8.631 7.37) rotate(180)" fill="#c7c7c7"/>
          </g>
          <rect id="Rectangle_1577" data-name="Rectangle 1577" width="35.667" height="12.533" transform="translate(0 7.759)" fill="#c7c7c7"/>
          <rect id="Rectangle_1578" data-name="Rectangle 1578" width="19.328" height="7.759" fill="#dbdbdb"/>
        </g>
      </g>
      <g id="Group_13883" data-name="Group 13883" transform="translate(807.978 256.795)">
        <rect id="Rectangle_926" data-name="Rectangle 926" width="48" height="5" transform="translate(326.022 42.643)" fill="#fff"/>
        <rect id="Rectangle_927" data-name="Rectangle 927" width="48" height="5" transform="translate(326.022 52.643)" fill="#fff"/>
        <path id="Path_1829" data-name="Path 1829" d="M2537.571,679.2V820.631l-10.676-.18-2.959-.046-38.108-.648-3.035-.054-10.133-.172-3.034-.051h0l-5-.088h0l-1.278-.021-12.419-.21-3.036-.05-37.6-.635-3.035-.055-7.418-.126-7.343-.122h0l-13.874-.235-.138,0h0l-3.093-.05-3.035-.055-37.6-.635-3.034-.05-31.875-.542-3.035-.055-37.6-.639-3.034-.046-31.875-.542-3.035-.055-37.6-.639-3.035-.047-31.875-.542-3.03-.055s-52.31.559-76.238-17.11c-19.771-14.6-30.619-40.659-22.309-59.547l9.6-21.818c5.767-17.711-13.525-36.326-20.031-53.861a42.729,42.729,0,0,1-1.168-9.574c0-31.19,42.009-34.326,66.7-18.565,13.555,8.649,27.643,14.088,44.77,14.294,17.45.21,18.783,10.671,32.191,13.6,7.628,1.669,21.7-9.041,29.265-10.9,51.835-12.731,44.989,29.278,52.68,56.58.458,1.647.979,3.24,1.564,4.762,3.161,8.221,8.322,14.445,18.014,16.274,10.167,1.921,13-4.573,16.114-12.592.463-1.2.934-2.438,1.442-3.682.492-1.223,1.013-2.45,1.6-3.673.172-.366.349-.731.533-1.089,5.2-10.281,14.849-19.258,43.644-13.6,18.346,3.61,13.807-10.024,15.451-15.971,4.888-17.724,27.5-25.323,52.679-28.248,16.7-1.938,34.536-1.824,49.078-1.248a133.118,133.118,0,0,1,34.523,8.46,259.844,259.844,0,0,1,24.016,11.26c3.2,1.631,6.322,3.194,9.423,4.628A27.077,27.077,0,0,1,2537.571,679.2Z" transform="translate(-2035.549 -624.228)" fill="#26bfb8"/>
      </g>
    </g>
    <g id="Group_14295" data-name="Group 14295" transform="translate(557.076 76.374)">
      <path id="Path_14526" data-name="Path 14526" d="M363.332,95.761c.879-6.771-8.129-12.343-14.9-12.921-3.228-.275-6.582.248-9.639-.883-6.627-2.45-9.273-11.531-15.738-14.424-4.834-2.163-10.4-.238-15.084,2.264s-9.317,5.651-14.552,6.007c-4.553.309-9.5-1.483-13.483.877-2.968,1.759-4.523,5.387-7.26,7.528-2.676,2.1-6.168,2.539-9.49,2.73s-6.761.227-9.786,1.7-5.526,4.861-4.9,8.328Z" transform="translate(0)" fill="#ebebeb"/>
    </g>
    <path id="Path_15752" data-name="Path 15752" d="M385.088,168.176a63.347,63.347,0,0,0-8.021-3.435,33.481,33.481,0,0,0-8.742-2.018,7.505,7.505,0,0,0-2.714.3,4.163,4.163,0,0,0-.836.4c-.22.14-.35.255-.536.386-.356.25-.626.511-.936.771a40.025,40.025,0,0,0-3.179,3.214c-1.973,2.213-3.725,4.516-5.478,6.885l2.173-.761a66.834,66.834,0,0,0-8.927-1.878,36.281,36.281,0,0,0-4.661-.331,17.148,17.148,0,0,0-2.483.175,9.7,9.7,0,0,0-1.332.325,10.425,10.425,0,0,0-1.332.636,15.6,15.6,0,0,0-3.525,3.38,43.049,43.049,0,0,0-2.639,3.725,58.161,58.161,0,0,0-4.156,7.966c1.918-2.293,3.77-4.606,5.743-6.774.966-1.092,1.953-2.168,2.994-3.134a14.361,14.361,0,0,1,3.144-2.438,8.044,8.044,0,0,1,3.495-.345,32.342,32.342,0,0,1,4.166.571c2.8.5,5.663,1.2,8.412,1.948l1.377.37.8-1.132c1.6-2.3,3.345-4.581,5.087-6.764a36.6,36.6,0,0,1,2.689-3.1c.23-.22.466-.471.691-.646l.316-.275c.04-.01.03-.05.13-.085a4.507,4.507,0,0,1,1.532-.305,42.724,42.724,0,0,1,8.252.806C379.411,167.06,382.229,167.645,385.088,168.176Z" transform="translate(415.013 -40.459)" fill="#263238"/>
  </g>
</svg>
