<svg xmlns="http://www.w3.org/2000/svg" width="32.911" height="35.111" viewBox="0 0 32.911 35.111">
  <g id="google-play" transform="translate(-16.043 0)">
    <path id="Path_15026" data-name="Path 15026" d="M34.276,33.628,17.294,50.61a4.026,4.026,0,0,1-1.251-2.962V21.012a4.081,4.081,0,0,1,1.294-3.006Z" transform="translate(0 -16.772)" fill="#2196f3"/>
    <path id="Path_15027" data-name="Path 15027" d="M296.641,160.409a4.164,4.164,0,0,1-2.216,3.664L289.6,166.75l-5.99-5.529-1.646-1.514,6.341-6.341,6.121,3.379A4.164,4.164,0,0,1,296.641,160.409Z" transform="translate(-247.687 -142.851)" fill="#ffc107"/>
    <path id="Path_15028" data-name="Path 15028" d="M51.861,16.856,34.923,1.234a4.368,4.368,0,0,1,.79-.592A4.417,4.417,0,0,1,40.189.576L58.2,10.515Z" transform="translate(-17.585 0)" fill="#4caf50"/>
    <path id="Path_15029" data-name="Path 15029" d="M58.9,252.889,39.593,263.53a4.37,4.37,0,0,1-2.194.57,4.275,4.275,0,0,1-2.282-.636,3.991,3.991,0,0,1-.834-.636l16.982-16.982,1.646,1.514Z" transform="translate(-16.989 -228.99)" fill="#f44336"/>
  </g>
</svg>
