<svg xmlns="http://www.w3.org/2000/svg" width="85.649" height="36" viewBox="0 0 85.649 36">
  <g id="Group_16357" data-name="Group 16357" transform="translate(-9362.993 2601.754)">
    <g id="app-store" transform="translate(9362.993 -2601.754)">
      <path id="Path_15019" data-name="Path 15019" d="M28.617,36H7.383A7.391,7.391,0,0,1,0,28.617V7.383A7.391,7.391,0,0,1,7.383,0H28.617A7.391,7.391,0,0,1,36,7.383V28.617A7.391,7.391,0,0,1,28.617,36Z" fill="#00c3ff"/>
      <path id="Path_15020" data-name="Path 15020" d="M266.617,0H256V36h10.617A7.391,7.391,0,0,0,274,28.617V7.383A7.391,7.391,0,0,0,266.617,0Z" transform="translate(-238)" fill="#00aaf0"/>
      <g id="Group_15359" data-name="Group 15359" transform="translate(6.012 7.383)">
        <path id="Path_15021" data-name="Path 15021" d="M114.283,363.357a1.759,1.759,0,0,1-2.4.643h0a1.76,1.76,0,0,1-.643-2.4l.346-.6h4.059Z" transform="translate(-109.21 -343.001)" fill="#fff"/>
        <path id="Path_15022" data-name="Path 15022" d="M87.258,121.6a1.758,1.758,0,0,1,0-3.516h3.458l4.743-8.215-1.285-2.226a1.76,1.76,0,0,1,.643-2.4h0a1.76,1.76,0,0,1,2.4.643l.271.469.271-.469a1.758,1.758,0,1,1,3.045,1.758l-6.028,10.441h3.8l2.03,3.516Z" transform="translate(-85.5 -105.007)" fill="#fff"/>
      </g>
      <g id="Group_15360" data-name="Group 15360" transform="translate(18 7.383)">
        <path id="Path_15023" data-name="Path 15023" d="M276.965,204.489h-1.428l1.158,2a1.758,1.758,0,1,1-3.045,1.758l-6.1-10.571,2.03-3.516,3.931,6.809h3.458a1.758,1.758,0,0,1,0,3.516Z" transform="translate(-266.734 -187.896)" fill="#f2f2f2"/>
        <path id="Path_15024" data-name="Path 15024" d="M256,291v3.516h3.119L257.089,291Z" transform="translate(-256 -277.922)" fill="#f2f2f2"/>
        <path id="Path_15025" data-name="Path 15025" d="M259.491,106.309a1.758,1.758,0,0,0-3.22-.424l-.271.469h0v7.031l3.315-5.742A1.746,1.746,0,0,0,259.491,106.309Z" transform="translate(-256 -105.006)" fill="#f2f2f2"/>
      </g>
    </g>
    <g id="google-play" transform="translate(9399.688 -2600.865)">
      <path id="Path_15026" data-name="Path 15026" d="M34.276,33.628,17.294,50.61a4.026,4.026,0,0,1-1.251-2.962V21.012a4.081,4.081,0,0,1,1.294-3.006Z" transform="translate(0 -16.772)" fill="#2196f3"/>
      <path id="Path_15027" data-name="Path 15027" d="M296.641,160.409a4.164,4.164,0,0,1-2.216,3.664L289.6,166.75l-5.99-5.529-1.646-1.514,6.341-6.341,6.121,3.379A4.164,4.164,0,0,1,296.641,160.409Z" transform="translate(-247.687 -142.851)" fill="#ffc107"/>
      <path id="Path_15028" data-name="Path 15028" d="M51.861,16.856,34.923,1.234a4.368,4.368,0,0,1,.79-.592A4.417,4.417,0,0,1,40.189.576L58.2,10.515Z" transform="translate(-17.585 0)" fill="#4caf50"/>
      <path id="Path_15029" data-name="Path 15029" d="M58.9,252.889,39.593,263.53a4.37,4.37,0,0,1-2.194.57,4.275,4.275,0,0,1-2.282-.636,3.991,3.991,0,0,1-.834-.636l16.982-16.982,1.646,1.514Z" transform="translate(-16.989 -228.99)" fill="#f44336"/>
    </g>
  </g>
</svg>
