<svg id="Group_15461" data-name="Group 15461" xmlns="http://www.w3.org/2000/svg" width="122.659" height="123.272" viewBox="0 0 122.659 123.272">
  <g id="Group_15160" data-name="Group 15160" transform="translate(10.113 8.77)">
    <g id="Group_15081" data-name="Group 15081" transform="translate(0.069 60.217)">
      <g id="Group_15080" data-name="Group 15080">
        <path id="Path_14932" data-name="Path 14932" d="M294.143,220.158v5.474h5.474V214.684h-5.474Z" transform="translate(-294.143 -214.684)" fill="#263238"/>
      </g>
    </g>
    <g id="Group_15083" data-name="Group 15083" transform="translate(0.069 32.845)">
      <g id="Group_15082" data-name="Group 15082">
        <rect id="Rectangle_1035" data-name="Rectangle 1035" width="5.474" height="5.474" fill="#263238"/>
      </g>
    </g>
    <g id="Group_15085" data-name="Group 15085" transform="translate(33.896 93.118)">
      <g id="Group_15084" data-name="Group 15084">
        <rect id="Rectangle_1036" data-name="Rectangle 1036" width="5.474" height="5.474" fill="#263238"/>
      </g>
    </g>
    <g id="Group_15087" data-name="Group 15087" transform="translate(0.069 38.32)">
      <g id="Group_15086" data-name="Group 15086">
        <path id="Path_14933" data-name="Path 14933" d="M299.617,195.393v5.474h-5.474v5.474h5.474v5.474h10.948v5.474h5.474v-5.474h5.474V200.868H316.04v5.474H305.091V189.919h-5.474Z" transform="translate(-294.143 -189.919)" fill="#263238"/>
      </g>
    </g>
    <g id="Group_15089" data-name="Group 15089" transform="translate(11.017 32.845)">
      <g id="Group_15088" data-name="Group 15088">
        <path id="Path_14934" data-name="Path 14934" d="M312,183.728h-5.474V189.2h10.948v-5.474Z" transform="translate(-306.525 -183.728)" fill="#263238"/>
      </g>
    </g>
    <g id="Group_15091" data-name="Group 15091" transform="translate(38.185 71.379)">
      <g id="Group_15090" data-name="Group 15090">
        <path id="Path_14935" data-name="Path 14935" d="M340.192,232.782h2.941v-5.474h-5.882v5.474Z" transform="translate(-337.251 -227.308)" fill="#263238"/>
      </g>
    </g>
    <g id="Group_15093" data-name="Group 15093" transform="translate(21.966 38.32)">
      <g id="Group_15092" data-name="Group 15092">
        <rect id="Rectangle_1037" data-name="Rectangle 1037" width="5.474" height="5.474" fill="#263238"/>
      </g>
    </g>
    <g id="Group_15095" data-name="Group 15095" transform="translate(60.286 60.217)">
      <g id="Group_15094" data-name="Group 15094">
        <rect id="Rectangle_1038" data-name="Rectangle 1038" width="5.474" height="5.474" fill="#263238"/>
      </g>
    </g>
    <g id="Group_15097" data-name="Group 15097" transform="translate(65.76)">
      <g id="Group_15096" data-name="Group 15096">
        <rect id="Rectangle_1039" data-name="Rectangle 1039" width="5.474" height="5.474" fill="#263238"/>
      </g>
    </g>
    <g id="Group_15099" data-name="Group 15099" transform="translate(27.44 27.371)">
      <g id="Group_15098" data-name="Group 15098">
        <path id="Path_14936" data-name="Path 14936" d="M336.047,193.959v-5.474h5.474v-5.474h-5.474v-5.474h-5.474v5.474H325.1v5.474h5.474v21.9h5.474V199.434h5.474v-5.474Z" transform="translate(-325.099 -177.537)" fill="#263238"/>
      </g>
    </g>
    <g id="Group_15101" data-name="Group 15101" transform="translate(60.286 93.063)">
      <g id="Group_15100" data-name="Group 15100">
        <path id="Path_14937" data-name="Path 14937" d="M367.72,257.306h5.474v-5.474H362.246v5.474Z" transform="translate(-362.246 -251.831)" fill="#263238"/>
      </g>
    </g>
    <g id="Group_15103" data-name="Group 15103" transform="translate(54.812)">
      <g id="Group_15102" data-name="Group 15102">
        <rect id="Rectangle_1040" data-name="Rectangle 1040" width="5.474" height="5.474" fill="#263238"/>
      </g>
    </g>
    <g id="Group_15105" data-name="Group 15105" transform="translate(42.494 32.846)">
      <g id="Group_15104" data-name="Group 15104">
        <path id="Path_14938" data-name="Path 14938" d="M358.548,194.676V189.2h-5.474v-5.474H347.6v10.948h-5.474v5.474h10.949v-5.474Z" transform="translate(-342.125 -183.728)" fill="#263238"/>
      </g>
    </g>
    <g id="Group_15107" data-name="Group 15107" transform="translate(84.341 32.846)">
      <g id="Group_15106" data-name="Group 15106">
        <rect id="Rectangle_1041" data-name="Rectangle 1041" width="5.474" height="5.474" fill="#263238"/>
      </g>
    </g>
    <g id="Group_15109" data-name="Group 15109" transform="translate(27.598 60.217)">
      <g id="Group_15108" data-name="Group 15108">
        <rect id="Rectangle_1042" data-name="Rectangle 1042" width="5.474" height="5.474" fill="#263238"/>
      </g>
    </g>
    <g id="Group_15111" data-name="Group 15111" transform="translate(43.863 5.474)">
      <g id="Group_15110" data-name="Group 15110">
        <path id="Path_14939" data-name="Path 14939" d="M354.621,174.669v-5.474H360.1V163.72h10.949v-5.474H365.57v-5.474H360.1v5.474h-5.474v5.474h-5.474v5.474h-5.474v5.474h10.948Z" transform="translate(-343.673 -152.772)" fill="#263238"/>
      </g>
    </g>
    <g id="Group_15113" data-name="Group 15113" transform="translate(43.863 54.743)">
      <g id="Group_15112" data-name="Group 15112">
        <path id="Path_14940" data-name="Path 14940" d="M354.621,219.441v-5.474H360.1v-5.474H349.147v5.474h-5.474v5.474h10.948Z" transform="translate(-343.673 -208.493)" fill="#263238"/>
      </g>
    </g>
    <g id="Group_15115" data-name="Group 15115" transform="translate(38.389 76.637)">
      <g id="Group_15114" data-name="Group 15114">
        <path id="Path_14941" data-name="Path 14941" d="M370.327,244.2v-5.474H359.379v-5.474H353.9v5.474H348.43V244.2H337.481v5.474H353.9V244.2h5.474v5.474h5.474V244.2Z" transform="translate(-337.481 -233.254)" fill="#263238"/>
      </g>
    </g>
    <g id="Group_15117" data-name="Group 15117" transform="translate(32.914)">
      <g id="Group_15116" data-name="Group 15116">
        <path id="Path_14942" data-name="Path 14942" d="M347.713,152.055v-5.474H336.765v5.474H331.29v5.474h10.949v-5.474Z" transform="translate(-331.29 -146.581)" fill="#263238"/>
      </g>
    </g>
    <g id="Group_15119" data-name="Group 15119" transform="translate(43.863 10.948)">
      <g id="Group_15118" data-name="Group 15118">
        <rect id="Rectangle_1043" data-name="Rectangle 1043" width="5.474" height="5.474" fill="#263238"/>
      </g>
    </g>
    <g id="Group_15121" data-name="Group 15121" transform="translate(57.549 21.897)">
      <g id="Group_15120" data-name="Group 15120">
        <path id="Path_14943" data-name="Path 14943" d="M364.625,182.294h-5.474v16.423H370.1v-5.474h-5.474v-5.474H370.1v-5.474h5.474V176.82H370.1v-5.474h-5.474v10.948Z" transform="translate(-359.151 -171.345)" fill="#263238"/>
      </g>
    </g>
    <g id="Group_15123" data-name="Group 15123" transform="translate(38.389 16.423)">
      <g id="Group_15122" data-name="Group 15122">
        <rect id="Rectangle_1044" data-name="Rectangle 1044" width="5.474" height="5.474" fill="#263238"/>
      </g>
    </g>
    <g id="Group_15125" data-name="Group 15125" transform="translate(60.286 65.691)">
      <g id="Group_15124" data-name="Group 15124">
        <path id="Path_14944" data-name="Path 14944" d="M362.246,226.35v5.474h10.949V226.35h10.948v-5.474H367.72v5.474Z" transform="translate(-362.246 -220.875)" fill="#263238"/>
      </g>
    </g>
    <g id="Group_15127" data-name="Group 15127" transform="translate(84.341 49.268)">
      <g id="Group_15126" data-name="Group 15126">
        <rect id="Rectangle_1045" data-name="Rectangle 1045" width="5.474" height="5.474" fill="#263238"/>
      </g>
    </g>
    <g id="Group_15129" data-name="Group 15129" transform="translate(65.76 54.743)">
      <g id="Group_15128" data-name="Group 15128">
        <rect id="Rectangle_1046" data-name="Rectangle 1046" width="5.474" height="5.474" fill="#263238"/>
      </g>
    </g>
    <g id="Group_15131" data-name="Group 15131" transform="translate(73.972 38.32)">
      <g id="Group_15130" data-name="Group 15130">
        <path id="Path_14945" data-name="Path 14945" d="M388.673,189.919H377.724v5.474H383.2v5.474h5.474V189.919Z" transform="translate(-377.724 -189.919)" fill="#263238"/>
      </g>
    </g>
    <g id="Group_15133" data-name="Group 15133" transform="translate(76.709 54.743)">
      <g id="Group_15132" data-name="Group 15132">
        <rect id="Rectangle_1047" data-name="Rectangle 1047" width="5.474" height="5.474" fill="#263238"/>
      </g>
    </g>
    <g id="Group_15135" data-name="Group 15135" transform="translate(11.017 65.685)">
      <g id="Group_15134" data-name="Group 15134">
        <path id="Path_14946" data-name="Path 14946" d="M317.474,242.874H333.9V220.868H311.9v5.48h-5.371v5.475H311.9V237.3h-5.371v5.474H311.9v.1h.1v5.372h-5.475v10.949H312V253.72h5.474V242.874Zm12.214-17.791v13.686H316V225.083Z" transform="translate(-306.525 -220.868)" fill="#263238"/>
      </g>
    </g>
    <g id="Group_15137" data-name="Group 15137" transform="translate(82.183 60.217)">
      <g id="Group_15136" data-name="Group 15136">
        <path id="Path_14947" data-name="Path 14947" d="M397.96,220.158h5.474v-5.474H387.011v5.474H397.96Z" transform="translate(-387.011 -214.684)" fill="#263238"/>
      </g>
    </g>
    <g id="Group_15139" data-name="Group 15139" transform="translate(93.131 32.845)">
      <g id="Group_15138" data-name="Group 15138">
        <path id="Path_14948" data-name="Path 14948" d="M399.394,194.676h5.474V183.728h-5.474v10.949Z" transform="translate(-399.394 -183.728)" fill="#263238"/>
      </g>
    </g>
    <g id="Group_15141" data-name="Group 15141" transform="translate(44.067 71.379)">
      <g id="Group_15140" data-name="Group 15140">
        <path id="Path_14949" data-name="Path 14949" d="M349.378,227.308H343.9v10.949h5.474V227.308Z" transform="translate(-343.904 -227.308)" fill="#263238"/>
      </g>
    </g>
    <g id="Group_15143" data-name="Group 15143" transform="translate(98.606 65.691)">
      <g id="Group_15142" data-name="Group 15142">
        <rect id="Rectangle_1048" data-name="Rectangle 1048" width="5.474" height="5.474" fill="#263238"/>
      </g>
    </g>
    <g id="Group_15145" data-name="Group 15145" transform="translate(98.606 49.268)">
      <g id="Group_15144" data-name="Group 15144">
        <path id="Path_14950" data-name="Path 14950" d="M411.059,207.776V202.3h-5.474V213.25h5.474Z" transform="translate(-405.585 -202.302)" fill="#263238"/>
      </g>
    </g>
    <g id="Group_15147" data-name="Group 15147" transform="translate(0.069 93.063)">
      <g id="Group_15146" data-name="Group 15146">
        <path id="Path_14951" data-name="Path 14951" d="M299.617,251.831h-5.474V262.78h5.474V251.831Z" transform="translate(-294.143 -251.831)" fill="#263238"/>
      </g>
    </g>
    <g id="Group_15149" data-name="Group 15149" transform="translate(76.709 0)">
      <g id="Group_15148" data-name="Group 15148">
        <path id="Path_14952" data-name="Path 14952" d="M408.191,173.952V146.581H380.82v27.371Zm-23.265-4.106v-19.16h19.16v19.16Z" transform="translate(-380.82 -146.581)" fill="#263238"/>
      </g>
    </g>
    <g id="Group_15151" data-name="Group 15151" transform="translate(84.92 8.211)">
      <g id="Group_15150" data-name="Group 15150">
        <rect id="Rectangle_1049" data-name="Rectangle 1049" width="10.948" height="10.949" fill="#263238"/>
      </g>
    </g>
    <g id="Group_15153" data-name="Group 15153" transform="translate(76.709 76.64)">
      <g id="Group_15152" data-name="Group 15152">
        <path id="Path_14953" data-name="Path 14953" d="M408.191,233.258H380.82v27.371h27.371Zm-23.265,23.265v-19.16h19.16v19.16Z" transform="translate(-380.82 -233.258)" fill="#263238"/>
      </g>
    </g>
    <g id="Group_15155" data-name="Group 15155" transform="translate(84.92 84.851)">
      <g id="Group_15154" data-name="Group 15154">
        <rect id="Rectangle_1050" data-name="Rectangle 1050" width="10.948" height="10.949" fill="#263238"/>
      </g>
    </g>
    <g id="Group_15157" data-name="Group 15157" transform="translate(0 0)">
      <g id="Group_15156" data-name="Group 15156">
        <path id="Path_14954" data-name="Path 14954" d="M294.065,146.581v27.371h27.372V146.581Zm23.266,4.105v19.16h-19.16v-19.16Z" transform="translate(-294.065 -146.581)" fill="#263238"/>
      </g>
    </g>
    <g id="Group_15159" data-name="Group 15159" transform="translate(8.212 8.211)">
      <g id="Group_15158" data-name="Group 15158">
        <rect id="Rectangle_1051" data-name="Rectangle 1051" width="10.949" height="10.949" fill="#263238"/>
      </g>
    </g>
  </g>
  <g id="Group_15163" data-name="Group 15163" transform="translate(1.059 0.025)">
    <g id="Group_15162" data-name="Group 15162">
      <g id="Group_15161" data-name="Group 15161">
        <path id="Path_14955" data-name="Path 14955" d="M285.073,164.517v-19.44a7.171,7.171,0,0,1,1.541-4.955,6.739,6.739,0,0,1,5.327-2.208h20.442a.612.612,0,0,0,0-1.223H292.167a8.553,8.553,0,0,0-4.874,1.232,7.713,7.713,0,0,0-3.442,6.384c-.057,3.2,0,6.4,0,9.6v10.608a.611.611,0,0,0,1.222,0Z" transform="translate(-283.826 -136.691)" fill="#ff725e"/>
      </g>
    </g>
  </g>
  <g id="Group_15166" data-name="Group 15166" transform="translate(0 94.124)">
    <g id="Group_15165" data-name="Group 15165">
      <g id="Group_15164" data-name="Group 15164">
        <path id="Path_14956" data-name="Path 14956" d="M310.454,271.014h-19.44a7.17,7.17,0,0,1-4.955-1.541,6.739,6.739,0,0,1-2.208-5.327V243.7a.612.612,0,0,0-1.223,0V263.92a8.556,8.556,0,0,0,1.232,4.875,7.718,7.718,0,0,0,6.384,3.442c3.2.057,6.4,0,9.6,0h10.608a.612.612,0,0,0,0-1.223Z" transform="translate(-282.628 -243.113)" fill="#ff725e"/>
      </g>
    </g>
  </g>
  <g id="Group_15169" data-name="Group 15169" transform="translate(93.51 93.93)">
    <g id="Group_15168" data-name="Group 15168">
      <g id="Group_15167" data-name="Group 15167">
        <path id="Path_14957" data-name="Path 14957" d="M416.286,243.485v19.441a7.17,7.17,0,0,1-1.541,4.955,6.743,6.743,0,0,1-5.328,2.208H388.976a.612.612,0,0,0,0,1.223h20.216a8.553,8.553,0,0,0,4.874-1.232,7.714,7.714,0,0,0,3.442-6.384c.057-3.2,0-6.4,0-9.6V243.485a.611.611,0,0,0-1.222,0Z" transform="translate(-388.385 -242.895)" fill="#ff725e"/>
      </g>
    </g>
  </g>
  <g id="Group_15172" data-name="Group 15172" transform="translate(93.863 0)">
    <g id="Group_15171" data-name="Group 15171">
      <g id="Group_15170" data-name="Group 15170">
        <path id="Path_14958" data-name="Path 14958" d="M389.375,137.911h19.441a7.166,7.166,0,0,1,4.955,1.541,6.739,6.739,0,0,1,2.208,5.327V165.22a.612.612,0,0,0,1.223,0V145a8.56,8.56,0,0,0-1.232-4.874,7.716,7.716,0,0,0-6.384-3.442c-3.2-.057-6.4,0-9.6,0H389.375a.612.612,0,0,0,0,1.223Z" transform="translate(-388.784 -136.663)" fill="#ff725e"/>
      </g>
    </g>
  </g>
</svg>
