<svg xmlns="http://www.w3.org/2000/svg" xmlns:xlink="http://www.w3.org/1999/xlink" width="1948.607" height="1682.063" viewBox="0 0 1948.607 1682.063">
  <defs>
    <filter id="Union_13" x="0" y="0" width="1948.607" height="1682.063" filterUnits="userSpaceOnUse">
      <feOffset dx="1" dy="6" input="SourceAlpha"/>
      <feGaussianBlur stdDeviation="3" result="blur"/>
      <feFlood flood-opacity="0.4"/>
      <feComposite operator="in" in2="blur"/>
      <feComposite in="SourceGraphic"/>
    </filter>
  </defs>
  <g id="Group_16352" data-name="Group 16352" transform="translate(18.107 -571.006)">
    <g id="Group_16351" data-name="Group 16351">
      <g id="Group_13263" data-name="Group 13263" transform="translate(1248.346 574.898)">
        <g id="Group_13261" data-name="Group 13261" transform="translate(168.456 44.144)">
          <path id="Path_1875" data-name="Path 1875" d="M2779.363,1568.053v153.61l-148.745,45.217c-10.089,4.16-155.475,43.531-155.484,43.535-.034,0-38.007,16.576-38.041,16.585l-100.237,37.546-60.691,12.184,231.773-158.962,29.535-16.288,7.463-4.118,17.1-9.437,98.463-54.31,8.24-4.545,63.99-35.3,11.726-6.468Z" transform="translate(-2276.166 -1568.053)" fill="#adebee"/>
        </g>
        <g id="Group_13262" data-name="Group 13262" transform="translate(0)">
          <g transform="matrix(1, 0, 0, 1, -1266.45, -3.89)" filter="url(#Union_13)">
            <path id="Union_13-2" data-name="Union 13" d="M-9507.932-1846.519s371.2-124.277,662.212-209.276,461.2-105.735,497.733-216.934-177.088-221.841-182.734-356.365c-5.605-133.49,252.976-249.833,256.953-251.614,23.829-14.22,296.759-178.489,296.759-178.489s115.767-47.437,225.418-101.835l.167-.081c18.85-9.35,38.049-19.12,57.257-29.222,0,0,0,0,0,0q4.371-2.295,8.737-4.615,16.871-8.963,33.639-18.235,2.281-1.264,4.563-2.532l.437-.243q2.309-1.289,4.62-2.582c15.421-8.648,30.654-17.466,45.521-26.4.212-.126.422-.251.635-.384q8.734-5.255,17.29-10.565v72.356c-56.882,30.883-123.339,64.762-184.019,91.662-7.338,3.255-24.523,1.706-107.983,52.384-78.776,47.838-229.476,147.73-246.085,158.768h.822s-201.311,131.83-191.068,214.266,315.572,142.416,271.068,420.4-346.337,288.689-727.941,414.763-743.071,236.331-744,238.064c0,.006-.007.009-.01.009C-9508.858-1593.242-9507.932-1846.519-9507.932-1846.519Z" transform="translate(9516.83 3259.79)" fill="#7c9af2" stroke="rgba(0,0,0,0)" stroke-miterlimit="10" stroke-width="1"/>
          </g>
        </g>
      </g>
      <path id="Path_2871" data-name="Path 2871" d="M4608.707,1871.837s-112,24.891-120.074,24.34c-8.289-.566-3.706-5.592-1.509-6.79s91.882-18.207,117.782-23.45,80.225-23.788,104.067-24.02c5.96-.058,5,4.375,1.726,5.064" transform="matrix(0.995, -0.105, 0.105, 0.995, -4587.738, 656.853)" fill="#fff"/>
      <path id="Path_2868" data-name="Path 2868" d="M5107.66,1734.617c6.085,3.672,95.57-44.613,107.569-61.576s48.337-85.917,39.58-91.916-42.579,79.987-60.024,91.916S5101.575,1730.945,5107.66,1734.617Z" transform="matrix(0.998, -0.07, 0.07, 0.998, -4075.021, 367.498)" fill="#fff"/>
      <path id="Path_2869" data-name="Path 2869" d="M5279.564,1531.478c5.516,2.276,30-42.269,9.723-71.713s-56.516-90.123-65.287-81.849,52.392,79.987,55.564,101.57S5274.048,1529.2,5279.564,1531.478Z" transform="translate(-4204 993.407) rotate(-11)" fill="#fff"/>
      <path id="Path_14960" data-name="Path 14960" d="M4608.707,1871.837s-112,24.891-120.074,24.34c-8.289-.566-3.706-5.592-1.509-6.79s91.882-18.207,117.782-23.45,80.225-23.788,104.067-24.02c5.96-.058,5,4.375,1.726,5.064" transform="matrix(0.996, -0.087, 0.087, 0.996, -3820.266, 332.906)" fill="#fff"/>
      <path id="Path_16007" data-name="Path 16007" d="M5088.547,1688.945c-1.861,9.6,104.776,3.878,126.682-15.9s48.337-85.917,39.58-91.916-15.685,64.746-59.491,85.743S5090.408,1679.348,5088.547,1688.945Z" transform="matrix(-0.545, 0.839, -0.839, -0.545, 5318.438, -2261.688)" fill="#fff"/>
      <path id="Path_16008" data-name="Path 16008" d="M4523.97,1879.7c-11.035,4.261-33.137,20.248-37.517,19.665-4.5-.6-2.011-5.92-.819-7.188s19.5-15.123,33.551-20.674,73.884-29.339,86.82-29.585c3.234-.061,2.712,4.633.937,5.362" transform="translate(-3608.566 188.862) rotate(-13)" fill="#fff"/>
      <path id="Path_16009" data-name="Path 16009" d="M4534.851,1865.76s-45.741,19.836-49.038,19.4c-3.386-.451-1.514-4.456-.617-5.411s37.524-14.509,48.1-18.687,32.764-18.957,42.5-19.142c2.434-.046,2.041,3.487.7,4.036" transform="translate(-3349.335 -256.129) rotate(-9)" fill="#fff"/>
      <path id="Path_16010" data-name="Path 16010" d="M4534.851,1863.894s-45.741,18.284-49.038,17.879c-3.386-.416-1.514-4.108-.617-4.988s37.524-13.374,48.1-17.225,32.764-17.474,42.5-17.645c2.434-.042,2.041,3.214.7,3.72" transform="translate(-2858.224 -795.618) rotate(-5)" fill="#fff"/>
      <path id="Path_16011" data-name="Path 16011" d="M4510.3,1876.36s-21.193,9.235-24.49,8.8c-3.386-.451-1.514-4.456-.617-5.411s15.419-6.449,26-10.627" transform="matrix(0.993, -0.122, 0.122, 0.993, -2784.972, -698.531)" fill="#fff"/>
      <path id="Path_16012" data-name="Path 16012" d="M4531.356,1858.339s-42.246,23.839-45.543,23.434c-3.386-.416-1.514-4.108-.617-4.988s34.19-19.615,44.768-23.466,35.012-12.943,44.749-13.114c2.434-.042.7,3.72.7,3.72" transform="translate(-3119.322 -669.827) rotate(-5)" fill="#fff"/>
      <path id="Path_16013" data-name="Path 16013" d="M4534.851,1863.894s-45.741,18.284-49.038,17.879c-3.386-.416-1.514-4.108-.617-4.988s37.524-13.374,48.1-17.225,32.764-17.474,42.5-17.645c2.434-.042,2.041,3.214.7,3.72" transform="translate(-2990.503 -729.26) rotate(-5)" fill="#fff"/>
    </g>
    <path id="Path_2866" data-name="Path 2866" d="M4608.707,1871.837s-112,24.891-120.074,24.34c-8.289-.566-3.706-5.592-1.509-6.79s91.882-18.207,117.782-23.45,80.225-23.788,104.067-24.02c5.96-.058,5,4.375,1.726,5.064" transform="matrix(0.996, -0.087, 0.087, 0.996, -4202.399, 452.906)" fill="#fff"/>
  </g>
</svg>
