<svg xmlns="http://www.w3.org/2000/svg" xmlns:xlink="http://www.w3.org/1999/xlink" width="1624.443" height="2022.968" viewBox="0 0 1624.443 2022.968">
  <defs>
    <filter id="Path_15071" x="0" y="0" width="1624.443" height="2016.186" filterUnits="userSpaceOnUse">
      <feOffset dy="3" input="SourceAlpha"/>
      <feGaussianBlur stdDeviation="3" result="blur"/>
      <feFlood flood-opacity="0.161"/>
      <feComposite operator="in" in2="blur"/>
      <feComposite in="SourceGraphic"/>
    </filter>
  </defs>
  <g id="Group_16361" data-name="Group 16361" transform="translate(-10465.532 -5381.675)">
    <g transform="matrix(1, 0, 0, 1, 10465.53, 5381.68)" filter="url(#Path_15071)">
      <path id="Path_15071-2" data-name="Path 15071" d="M14629.893,2551.625s587.209,24.131,988.8,167.523,622.4,264.466,617.564,406.045-311.907,181.493-460.285,262.868-510.92,258.531-392.437,566.613,227.066,371.5,682.824,595.136h-491.2s-409.988-296.8-457.125-595.136,119.192-426.016,368.329-591.86,484.262-150.451,494.315-266.465-121.729-161.331-457.176-264.414-881.384-126.5-881.384-126.5Z" transform="translate(-14620.89 -2545.63)" fill="#7c9af2"/>
    </g>
    <path id="Path_15064" data-name="Path 15064" d="M15180.425,3051.333c47.926,36.4,112.578,61.844,120,53.242s-70.863-30.968-113.33-62.471-85.552-81.711-94.653-75.286S15132.5,3014.934,15180.425,3051.333Z" transform="translate(16113.046 -8337.968) rotate(97)" fill="#fff"/>
    <path id="Path_15063" data-name="Path 15063" d="M14786.785,2979.829c-3.4,3.767-29.653-39.654-20.591-71.575s37.01-104.165,44.573-96.432-31.317,70.375-35.113,103.23S14790.185,2976.062,14786.785,2979.829Z" transform="translate(19770.295 18855.578) rotate(-133)" fill="#fff"/>
    <path id="Path_15433" data-name="Path 15433" d="M4687.139,1854.647a690.663,690.663,0,0,1-83.081,22.291c-43.566,8.54-107.537,19.776-115.426,19.238-8.289-.566-3.706-5.592-1.509-6.79s90.522-13.587,116.423-18.83,81.584-28.408,105.426-28.64c5.96-.058,5,4.375,1.726,5.064" transform="translate(14646.018 9057.097) rotate(-157)" fill="#fff"/>
    <path id="Path_16044" data-name="Path 16044" d="M4603.312,1870.062s-106.6,26.665-114.679,26.114c-8.289-.566-3.706-5.592-1.509-6.79s90.449-21.372,116.349-26.615,81.658-20.623,105.5-20.856c5.96-.058,5,4.375,1.726,5.064" transform="translate(8626.264 1549.26) rotate(33)" fill="#fff"/>
    <path id="Path_16045" data-name="Path 16045" d="M4603.342,1865.652c-28.635,7.379-106.636,31.076-114.709,30.525-8.289-.566-3.706-5.592-1.509-6.79s90.527-26.88,116.428-32.123,81.58-15.115,105.421-15.347c5.96-.058,5,4.375,1.726,5.064" transform="translate(9515.46 1320.053) rotate(41)" fill="#fff"/>
    <path id="Path_16046" data-name="Path 16046" d="M4603.312,1870.062s-106.6,26.665-114.679,26.114c-8.289-.566-3.706-5.592-1.509-6.79s90.449-21.372,116.349-26.615,85.646-14.315,109.488-14.547c5.96-.058,5,4.375,1.726,5.064" transform="translate(6623.477 5395.976) rotate(-13)" fill="#fff"/>
    <path id="Path_16048" data-name="Path 16048" d="M15180.425,3051.333c47.926,36.4,109.878,49.9,117.3,41.3s-68.163-19.022-110.63-50.526-85.552-81.711-94.653-75.286S15132.5,3014.934,15180.425,3051.333Z" transform="translate(2968.632 -6404.973) rotate(47)" fill="#fff"/>
    <path id="Path_16049" data-name="Path 16049" d="M15180.425,3051.333c47.926,36.4,107.984,68.228,115.41,59.626s-66.27-37.352-108.736-68.856-85.552-81.711-94.653-75.286S15132.5,3014.934,15180.425,3051.333Z" transform="translate(-3138.96 1472.839) rotate(10)" fill="#fff"/>
    <path id="Path_16050" data-name="Path 16050" d="M15192.118,3038.706c47.926,36.4,55.609,32.978,55.609,32.978s24.963,3.555,25.108,2.639c1.39-7.823-31.915-16.49-71.366-45.757-42.467-31.5-104.757-78.8-107.8-68.187S15144.192,3002.306,15192.118,3038.706Z" transform="translate(-3807.879 5924.718) rotate(-6)" fill="#fff"/>
    <path id="Path_16055" data-name="Path 16055" d="M4687.139,1854.647a690.663,690.663,0,0,1-83.081,22.291c-43.566,8.54-107.537,19.776-115.426,19.238-8.289-.566-3.706-5.592-1.509-6.79s90.522-13.587,116.423-18.83,81.584-28.408,105.426-28.64c5.96-.058,5,4.375,1.726,5.064" transform="matrix(-0.94, -0.342, 0.342, -0.94, 14490.298, 8821.257)" fill="#fff"/>
  </g>
</svg>
