<svg xmlns="http://www.w3.org/2000/svg" width="1055.533" height="361.463" viewBox="0 0 1055.533 361.463">
  <path id="Path_14959" data-name="Path 14959" d="M6156.867,2171.463l373.8-121.929s216.4-69.333,228.867-74.667,200.867-57.333,200.867-57.333L7168.867,1850l-28-40a363.716,363.716,0,0,1-49.333,26.667c-28,12.4-75.6,27.533-116,40.867s-58.6,23.133-92.4,35.133-79.533,15.933-126.667,31.067-76.067,40.933-121.4,53.8-100.467,23.933-164.867,43.533-96,38.266-145.333,55.133-90.2,16.467-134.667,28.467-76.866,46.8-76.866,46.8Z" transform="translate(-6113.333 -1810)" fill="#7c9af2"/>
</svg>
