<svg xmlns="http://www.w3.org/2000/svg" width="179.681" height="273.129" viewBox="0 0 179.681 273.129">
  <g id="Group_16353" data-name="Group 16353" transform="translate(-781.045 -1278.199)">
    <g id="Group_16150" data-name="Group 16150" transform="translate(879.547 1313.392)">
      <g id="Group_15939" data-name="Group 15939">
        <rect id="Rectangle_1233" data-name="Rectangle 1233" width="45.391" height="237.937" fill="#dbdbdb"/>
        <g id="Group_15938" data-name="Group 15938" transform="translate(7.045 7.729)">
          <rect id="Rectangle_1234" data-name="Rectangle 1234" width="8.824" height="9.085" fill="#ebebeb"/>
          <rect id="Rectangle_1235" data-name="Rectangle 1235" width="8.824" height="9.085" transform="translate(11.287)" fill="#ebebeb"/>
          <rect id="Rectangle_1236" data-name="Rectangle 1236" width="8.824" height="9.085" transform="translate(0 15.425)" fill="#ebebeb"/>
          <rect id="Rectangle_1237" data-name="Rectangle 1237" width="8.824" height="9.085" transform="translate(11.287 15.425)" fill="#ebebeb"/>
          <rect id="Rectangle_1238" data-name="Rectangle 1238" width="8.824" height="9.085" transform="translate(0 30.849)" fill="#ebebeb"/>
          <rect id="Rectangle_1239" data-name="Rectangle 1239" width="8.824" height="9.085" transform="translate(11.287 30.849)" fill="#ebebeb"/>
          <rect id="Rectangle_1240" data-name="Rectangle 1240" width="8.824" height="9.085" transform="translate(0 46.274)" fill="#ebebeb"/>
          <rect id="Rectangle_1241" data-name="Rectangle 1241" width="8.824" height="9.085" transform="translate(11.287 46.274)" fill="#ebebeb"/>
          <rect id="Rectangle_1242" data-name="Rectangle 1242" width="8.824" height="9.085" transform="translate(0 61.698)" fill="#ebebeb"/>
          <rect id="Rectangle_1243" data-name="Rectangle 1243" width="8.824" height="9.085" transform="translate(11.287 61.698)" fill="#ebebeb"/>
          <rect id="Rectangle_1244" data-name="Rectangle 1244" width="8.824" height="9.085" transform="translate(0 77.123)" fill="#ebebeb"/>
          <rect id="Rectangle_1245" data-name="Rectangle 1245" width="8.824" height="9.085" transform="translate(11.287 77.123)" fill="#ebebeb"/>
          <rect id="Rectangle_1246" data-name="Rectangle 1246" width="8.824" height="9.085" transform="translate(0 92.548)" fill="#ebebeb"/>
          <rect id="Rectangle_1247" data-name="Rectangle 1247" width="8.824" height="9.085" transform="translate(11.287 92.548)" fill="#ebebeb"/>
          <rect id="Rectangle_1248" data-name="Rectangle 1248" width="8.824" height="9.085" transform="translate(0 107.972)" fill="#ebebeb"/>
          <rect id="Rectangle_1249" data-name="Rectangle 1249" width="8.824" height="9.085" transform="translate(11.287 107.972)" fill="#ebebeb"/>
          <rect id="Rectangle_1250" data-name="Rectangle 1250" width="8.824" height="9.085" transform="translate(0 123.397)" fill="#ebebeb"/>
          <rect id="Rectangle_1251" data-name="Rectangle 1251" width="8.824" height="9.085" transform="translate(11.287 123.397)" fill="#ebebeb"/>
          <rect id="Rectangle_1252" data-name="Rectangle 1252" width="8.824" height="9.085" transform="translate(0 138.821)" fill="#ebebeb"/>
          <rect id="Rectangle_1253" data-name="Rectangle 1253" width="8.824" height="9.085" transform="translate(11.287 138.821)" fill="#ebebeb"/>
          <rect id="Rectangle_1254" data-name="Rectangle 1254" width="8.824" height="9.085" transform="translate(0 154.246)" fill="#ebebeb"/>
          <rect id="Rectangle_1255" data-name="Rectangle 1255" width="8.824" height="9.085" transform="translate(11.287 154.246)" fill="#ebebeb"/>
          <rect id="Rectangle_1256" data-name="Rectangle 1256" width="8.824" height="9.085" transform="translate(0 169.671)" fill="#ebebeb"/>
          <rect id="Rectangle_1257" data-name="Rectangle 1257" width="8.824" height="9.085" transform="translate(11.287 169.671)" fill="#ebebeb"/>
          <rect id="Rectangle_1258" data-name="Rectangle 1258" width="8.824" height="9.085" transform="translate(0 185.095)" fill="#ebebeb"/>
          <rect id="Rectangle_1259" data-name="Rectangle 1259" width="8.824" height="9.085" transform="translate(11.287 185.095)" fill="#ebebeb"/>
          <rect id="Rectangle_1260" data-name="Rectangle 1260" width="8.824" height="9.085" transform="translate(0 200.52)" fill="#ebebeb"/>
          <rect id="Rectangle_1261" data-name="Rectangle 1261" width="8.824" height="9.085" transform="translate(31.3 209.605) rotate(180)" fill="#ebebeb"/>
          <rect id="Rectangle_1262" data-name="Rectangle 1262" width="8.824" height="9.085" transform="translate(31.3 194.181) rotate(180)" fill="#ebebeb"/>
          <rect id="Rectangle_1263" data-name="Rectangle 1263" width="8.824" height="9.085" transform="translate(31.3 178.756) rotate(180)" fill="#ebebeb"/>
          <rect id="Rectangle_1264" data-name="Rectangle 1264" width="8.824" height="9.085" transform="translate(31.3 163.331) rotate(180)" fill="#ebebeb"/>
          <rect id="Rectangle_1265" data-name="Rectangle 1265" width="8.824" height="9.085" transform="translate(31.3 147.907) rotate(180)" fill="#ebebeb"/>
          <rect id="Rectangle_1266" data-name="Rectangle 1266" width="8.824" height="9.085" transform="translate(31.3 132.482) rotate(180)" fill="#ebebeb"/>
          <rect id="Rectangle_1267" data-name="Rectangle 1267" width="8.824" height="9.085" transform="translate(31.3 117.057) rotate(180)" fill="#ebebeb"/>
          <rect id="Rectangle_1268" data-name="Rectangle 1268" width="8.824" height="9.085" transform="translate(31.3 101.633) rotate(180)" fill="#ebebeb"/>
          <rect id="Rectangle_1269" data-name="Rectangle 1269" width="8.824" height="9.085" transform="translate(31.3 86.208) rotate(180)" fill="#ebebeb"/>
          <rect id="Rectangle_1270" data-name="Rectangle 1270" width="8.824" height="9.085" transform="translate(31.3 70.784) rotate(180)" fill="#ebebeb"/>
          <rect id="Rectangle_1271" data-name="Rectangle 1271" width="8.824" height="9.085" transform="translate(31.3 55.359) rotate(180)" fill="#ebebeb"/>
          <rect id="Rectangle_1272" data-name="Rectangle 1272" width="8.824" height="9.085" transform="translate(31.3 39.934) rotate(180)" fill="#ebebeb"/>
          <rect id="Rectangle_1273" data-name="Rectangle 1273" width="8.824" height="9.085" transform="translate(31.3 24.51) rotate(180)" fill="#ebebeb"/>
          <rect id="Rectangle_1274" data-name="Rectangle 1274" width="8.824" height="9.085" transform="translate(31.3 9.085) rotate(180)" fill="#ebebeb"/>
          <rect id="Rectangle_1275" data-name="Rectangle 1275" width="8.824" height="9.085" transform="translate(11.287 200.52)" fill="#ebebeb"/>
        </g>
      </g>
      <g id="Group_15941" data-name="Group 15941" transform="translate(45.391)">
        <rect id="Rectangle_1276" data-name="Rectangle 1276" width="35.788" height="237.937" fill="#a6a6a6"/>
        <g id="Group_15940" data-name="Group 15940" transform="translate(6.25 7.729)">
          <rect id="Rectangle_1277" data-name="Rectangle 1277" width="7.287" height="9.085" transform="translate(25.848 209.605) rotate(180)" fill="#c7c7c7"/>
          <rect id="Rectangle_1278" data-name="Rectangle 1278" width="7.286" height="9.085" transform="translate(16.527 209.605) rotate(180)" fill="#c7c7c7"/>
          <rect id="Rectangle_1279" data-name="Rectangle 1279" width="7.287" height="9.085" transform="translate(25.848 194.181) rotate(180)" fill="#c7c7c7"/>
          <rect id="Rectangle_1280" data-name="Rectangle 1280" width="7.286" height="9.085" transform="translate(16.527 194.181) rotate(180)" fill="#c7c7c7"/>
          <rect id="Rectangle_1281" data-name="Rectangle 1281" width="7.287" height="9.085" transform="translate(25.848 178.756) rotate(180)" fill="#c7c7c7"/>
          <rect id="Rectangle_1282" data-name="Rectangle 1282" width="7.286" height="9.085" transform="translate(16.527 178.756) rotate(180)" fill="#c7c7c7"/>
          <rect id="Rectangle_1283" data-name="Rectangle 1283" width="7.287" height="9.085" transform="translate(25.848 163.331) rotate(180)" fill="#c7c7c7"/>
          <rect id="Rectangle_1284" data-name="Rectangle 1284" width="7.286" height="9.085" transform="translate(16.527 163.331) rotate(180)" fill="#c7c7c7"/>
          <rect id="Rectangle_1285" data-name="Rectangle 1285" width="7.287" height="9.085" transform="translate(25.848 147.907) rotate(180)" fill="#c7c7c7"/>
          <rect id="Rectangle_1286" data-name="Rectangle 1286" width="7.286" height="9.085" transform="translate(16.527 147.907) rotate(180)" fill="#c7c7c7"/>
          <rect id="Rectangle_1287" data-name="Rectangle 1287" width="7.287" height="9.085" transform="translate(25.848 132.482) rotate(180)" fill="#c7c7c7"/>
          <rect id="Rectangle_1288" data-name="Rectangle 1288" width="7.286" height="9.085" transform="translate(16.527 132.482) rotate(180)" fill="#c7c7c7"/>
          <rect id="Rectangle_1289" data-name="Rectangle 1289" width="7.287" height="9.085" transform="translate(25.848 117.057) rotate(180)" fill="#c7c7c7"/>
          <rect id="Rectangle_1290" data-name="Rectangle 1290" width="7.286" height="9.085" transform="translate(16.527 117.057) rotate(180)" fill="#c7c7c7"/>
          <rect id="Rectangle_1291" data-name="Rectangle 1291" width="7.287" height="9.085" transform="translate(25.848 101.633) rotate(180)" fill="#c7c7c7"/>
          <rect id="Rectangle_1292" data-name="Rectangle 1292" width="7.286" height="9.085" transform="translate(16.527 101.633) rotate(180)" fill="#c7c7c7"/>
          <rect id="Rectangle_1293" data-name="Rectangle 1293" width="7.287" height="9.085" transform="translate(25.848 86.208) rotate(180)" fill="#c7c7c7"/>
          <rect id="Rectangle_1294" data-name="Rectangle 1294" width="7.286" height="9.085" transform="translate(16.527 86.208) rotate(180)" fill="#c7c7c7"/>
          <rect id="Rectangle_1295" data-name="Rectangle 1295" width="7.287" height="9.085" transform="translate(25.848 70.784) rotate(180)" fill="#c7c7c7"/>
          <rect id="Rectangle_1296" data-name="Rectangle 1296" width="7.286" height="9.085" transform="translate(16.527 70.784) rotate(180)" fill="#c7c7c7"/>
          <rect id="Rectangle_1297" data-name="Rectangle 1297" width="7.287" height="9.085" transform="translate(25.848 55.359) rotate(180)" fill="#c7c7c7"/>
          <rect id="Rectangle_1298" data-name="Rectangle 1298" width="7.286" height="9.085" transform="translate(16.527 55.359) rotate(180)" fill="#c7c7c7"/>
          <rect id="Rectangle_1299" data-name="Rectangle 1299" width="7.287" height="9.085" transform="translate(25.848 39.934) rotate(180)" fill="#c7c7c7"/>
          <rect id="Rectangle_1300" data-name="Rectangle 1300" width="7.286" height="9.085" transform="translate(16.527 39.934) rotate(180)" fill="#c7c7c7"/>
          <rect id="Rectangle_1301" data-name="Rectangle 1301" width="7.287" height="9.085" transform="translate(25.848 24.51) rotate(180)" fill="#c7c7c7"/>
          <rect id="Rectangle_1302" data-name="Rectangle 1302" width="7.286" height="9.085" transform="translate(16.527 24.51) rotate(180)" fill="#c7c7c7"/>
          <rect id="Rectangle_1303" data-name="Rectangle 1303" width="7.287" height="9.085" transform="translate(25.848 9.085) rotate(180)" fill="#c7c7c7"/>
          <rect id="Rectangle_1304" data-name="Rectangle 1304" width="7.286" height="9.085" fill="#c7c7c7"/>
          <rect id="Rectangle_1305" data-name="Rectangle 1305" width="7.286" height="9.085" transform="translate(0 15.425)" fill="#c7c7c7"/>
          <rect id="Rectangle_1306" data-name="Rectangle 1306" width="7.286" height="9.085" transform="translate(0 30.849)" fill="#c7c7c7"/>
          <rect id="Rectangle_1307" data-name="Rectangle 1307" width="7.286" height="9.085" transform="translate(0 46.274)" fill="#c7c7c7"/>
          <rect id="Rectangle_1308" data-name="Rectangle 1308" width="7.286" height="9.085" transform="translate(0 61.698)" fill="#c7c7c7"/>
          <rect id="Rectangle_1309" data-name="Rectangle 1309" width="7.286" height="9.085" transform="translate(0 77.123)" fill="#c7c7c7"/>
          <rect id="Rectangle_1310" data-name="Rectangle 1310" width="7.286" height="9.085" transform="translate(0 92.548)" fill="#c7c7c7"/>
          <rect id="Rectangle_1311" data-name="Rectangle 1311" width="7.286" height="9.085" transform="translate(0 107.972)" fill="#c7c7c7"/>
          <rect id="Rectangle_1312" data-name="Rectangle 1312" width="7.286" height="9.085" transform="translate(0 123.397)" fill="#c7c7c7"/>
          <rect id="Rectangle_1313" data-name="Rectangle 1313" width="7.286" height="9.085" transform="translate(0 138.821)" fill="#c7c7c7"/>
          <rect id="Rectangle_1314" data-name="Rectangle 1314" width="7.286" height="9.085" transform="translate(0 154.246)" fill="#c7c7c7"/>
          <rect id="Rectangle_1315" data-name="Rectangle 1315" width="7.286" height="9.085" transform="translate(0 169.671)" fill="#c7c7c7"/>
          <rect id="Rectangle_1316" data-name="Rectangle 1316" width="7.286" height="9.085" transform="translate(0 185.095)" fill="#c7c7c7"/>
          <rect id="Rectangle_1317" data-name="Rectangle 1317" width="7.286" height="9.085" transform="translate(0 200.52)" fill="#c7c7c7"/>
          <rect id="Rectangle_1318" data-name="Rectangle 1318" width="7.286" height="9.085" transform="translate(16.527 9.085) rotate(180)" fill="#c7c7c7"/>
        </g>
      </g>
    </g>
    <g id="Group_16146" data-name="Group 16146" transform="translate(781.045 1278.199)">
      <g id="Group_15980" data-name="Group 15980">
        <rect id="Rectangle_1443" data-name="Rectangle 1443" width="62.932" height="238.671" transform="translate(0 15.829)" fill="#ebebeb"/>
        <rect id="Rectangle_1444" data-name="Rectangle 1444" width="53.981" height="15.829" transform="translate(8.951)" fill="#c7c7c7"/>
        <g id="Group_15979" data-name="Group 15979" transform="translate(6.9 24.091)">
          <rect id="Rectangle_1445" data-name="Rectangle 1445" width="49.132" height="178.422" fill="#dbdbdb"/>
          <g id="Group_15978" data-name="Group 15978" transform="translate(0 17.027)">
            <rect id="Rectangle_1446" data-name="Rectangle 1446" width="49.132" height="4.216" fill="#fff"/>
            <rect id="Rectangle_1447" data-name="Rectangle 1447" width="49.132" height="4.216" transform="translate(0 17.464)" fill="#fff"/>
            <rect id="Rectangle_1448" data-name="Rectangle 1448" width="49.132" height="4.216" transform="translate(0 34.929)" fill="#fff"/>
            <rect id="Rectangle_1449" data-name="Rectangle 1449" width="49.132" height="4.217" transform="translate(0 52.393)" fill="#fff"/>
            <rect id="Rectangle_1450" data-name="Rectangle 1450" width="49.132" height="4.216" transform="translate(0 69.857)" fill="#fff"/>
            <rect id="Rectangle_1451" data-name="Rectangle 1451" width="49.132" height="4.217" transform="translate(0 87.321)" fill="#fff"/>
            <rect id="Rectangle_1452" data-name="Rectangle 1452" width="49.132" height="4.216" transform="translate(0 104.786)" fill="#fff"/>
            <rect id="Rectangle_1453" data-name="Rectangle 1453" width="49.132" height="4.216" transform="translate(0 122.25)" fill="#fff"/>
            <rect id="Rectangle_1454" data-name="Rectangle 1454" width="49.132" height="4.216" transform="translate(0 139.714)" fill="#fff"/>
            <rect id="Rectangle_1455" data-name="Rectangle 1455" width="49.132" height="4.216" transform="translate(0 157.179)" fill="#fff"/>
          </g>
        </g>
      </g>
      <g id="Group_15983" data-name="Group 15983" transform="translate(62.932)">
        <rect id="Rectangle_1456" data-name="Rectangle 1456" width="39.418" height="238.671" transform="translate(0 15.829)" fill="#dbdbdb"/>
        <rect id="Rectangle_1457" data-name="Rectangle 1457" width="33.503" height="15.829" fill="#a6a6a6"/>
        <g id="Group_15982" data-name="Group 15982" transform="translate(5.434 24.091)">
          <rect id="Rectangle_1458" data-name="Rectangle 1458" width="30.307" height="178.422" fill="#c7c7c7"/>
          <g id="Group_15981" data-name="Group 15981" transform="translate(0 17.027)">
            <rect id="Rectangle_1459" data-name="Rectangle 1459" width="30.307" height="4.216" fill="#fff"/>
            <rect id="Rectangle_1460" data-name="Rectangle 1460" width="30.307" height="4.216" transform="translate(0 17.464)" fill="#fff"/>
            <rect id="Rectangle_1461" data-name="Rectangle 1461" width="30.307" height="4.216" transform="translate(0 34.929)" fill="#fff"/>
            <rect id="Rectangle_1462" data-name="Rectangle 1462" width="30.307" height="4.217" transform="translate(0 52.393)" fill="#fff"/>
            <rect id="Rectangle_1463" data-name="Rectangle 1463" width="30.307" height="4.216" transform="translate(0 69.857)" fill="#fff"/>
            <rect id="Rectangle_1464" data-name="Rectangle 1464" width="30.307" height="4.217" transform="translate(0 87.321)" fill="#fff"/>
            <rect id="Rectangle_1465" data-name="Rectangle 1465" width="30.307" height="4.216" transform="translate(0 104.786)" fill="#fff"/>
            <rect id="Rectangle_1466" data-name="Rectangle 1466" width="30.307" height="4.216" transform="translate(0 122.25)" fill="#fff"/>
            <rect id="Rectangle_1467" data-name="Rectangle 1467" width="30.307" height="4.216" transform="translate(0 139.714)" fill="#fff"/>
            <rect id="Rectangle_1468" data-name="Rectangle 1468" width="30.307" height="4.216" transform="translate(0 157.179)" fill="#fff"/>
          </g>
        </g>
      </g>
    </g>
  </g>
</svg>
