<svg xmlns="http://www.w3.org/2000/svg" width="598.999" height="442.96" viewBox="0 0 598.999 442.96">
  <g id="Group_18934" data-name="Group 18934" transform="translate(-1076.457 -924.664)">
    <g id="Group_13864" data-name="Group 13864" transform="matrix(-0.035, -0.999, 0.999, -0.035, 1433.297, 1042.065)">
      <path id="Path_2821" data-name="Path 2821" d="M600.226,310.935a10.982,10.982,0,0,0,2.43-1.529c.961-.982,1.224-2.347,1.742-3.573a4.341,4.341,0,0,1,1.114-1.694,23.049,23.049,0,0,0,2.127-1.415,1.262,1.262,0,0,0,.466-.937,1.11,1.11,0,0,0-.625-.807,3.206,3.206,0,0,0-2.018-.312c-2.716.381-4.654,2.922-6.852,4.328.826-.528,1.006-2.463,1.112-3.313a33.674,33.674,0,0,1,.963-4.309c.734-2.8,1.637-5.549,2.539-8.3a13.276,13.276,0,0,0,.814-2.877,1.613,1.613,0,0,0-.293-1.318c-.521-.495-1.432.106-1.836.509a6.155,6.155,0,0,0-1.164,1.936l-3.421,7.7c.781-4.065,3-7.709,4.126-11.694a3.568,3.568,0,0,0,.156-1.838,1.355,1.355,0,0,0-1.332-1.079,1.889,1.889,0,0,0-1.223.97c-2.345,3.5-2.821,7.929-4.695,11.705-.14.279-.371.6-.679.54-.66-.128,2.624-10.127,2.333-11.109-.175-.584-.6-1.2-1.207-1.2a1.2,1.2,0,0,0-.92.5,3.583,3.583,0,0,0-.476.975c-.653,1.794-1.273,3.6-1.822,5.426-.542,1.8-.838,3.7-1.436,5.463-.1.31-.646,1.23-.578,1.524L589,289.313a4.187,4.187,0,0,0-.359-1.566,1.429,1.429,0,0,0-1.285-.828c-1.264.092-1.247,1.389-1.266,2.288-.031,1.46-.062,2.884-.021,4.349.052,1.919-.582,3.88-.393,5.752.218,2.165.745,4.335.752,6.516a81.078,81.078,0,0,1-.75,14.086.686.686,0,0,0,.1.629.642.642,0,0,0,.391.132c2.856.315,5.759-.279,8.577-.67,2.357-.324,1.424-2.863,1.971-4.579A8.068,8.068,0,0,1,600.226,310.935Z" transform="translate(-585.643 -280.409)" fill="#f79c6d"/>
    </g>
    <path id="Path_16766" data-name="Path 16766" d="M871.472,11167.926l-35.272,18.522s-12.827,2.129-22.984,1.874-47.326-.229-48.273-5.58-4.15-13.142,0-14.816,39.024-.693,49.254-2.4,62.4-21.878,62.4-21.878Z" transform="translate(702.605 -10143)" fill="#7fccba"/>
    <g id="Group_18434" data-name="Group 18434" transform="translate(85.649 -32.672)">
      <path id="Path_16893" data-name="Path 16893" d="M20,0H219a20,20,0,0,1,20,20s-20,210.163-20,299.663S239,378,239,378a20,20,0,0,1-20,20L86.415,404.092S42.917,407.249,20,378-2.858,345.4-5.251,287.1,12.78,183.532,10.429,144.775C6.339,77.355,0,20,0,20A20,20,0,0,1,20,0Z" transform="translate(1395 981) rotate(90)" fill="#26bfb8"/>
    </g>
    <path id="Path_2820" data-name="Path 2820" d="M642.422,355.889a19.367,19.367,0,0,1-5.205-3.66,27.138,27.138,0,0,1-4.74-5.021c-.8-1.216-1.209-3.173-2.442-4.048-3.294-2.333-10.508,2.34-13.619,3.651-1.136-2.456-.093-5.331,1.107-7.756,3.632-7.354,8.634-16.111,15.314-20.969a55.388,55.388,0,0,1,25.559-10.16c7.264-.909,11.717,3.064,11.145,10.492a3.045,3.045,0,0,0,.076,1.261,3.692,3.692,0,0,0,1.122,1.313c4.595,4.24,5.17,11.516,3.923,17.221a30.673,30.673,0,0,1-3.547,9.654c-2.643,4.283-7.73,8.476-12.964,8.677-2.021.08-3.982-.369-6.025-.18C648.775,356.672,645.654,357.269,642.422,355.889Z" transform="translate(953.272 658.539)" fill="#9cddcf"/>
    <path id="Path_2823" data-name="Path 2823" d="M670.986,374.383a22.858,22.858,0,0,1,4.988,1.834c6.7,3.4,11.568,10.5,11.618,18.011.031,4.531-1.576,8.894-3.159,13.139q-7.052,18.9-14.1,37.787c-3.93,10.532-6.847,22.533-12.907,32.042s-22.486,28.881-35.769,22.656c-15.5-7.264-6.557-35.071-4.2-46.689,3.552-17.472,9.02-34.475,14.462-51.428,2.129-6.628,3.62-13.4,5.565-20.074,1.484-5.087,4.654-7.238,10.411-7.4,5.052-.137,8.8.1,13.908-.435A27.02,27.02,0,0,1,670.986,374.383Z" transform="translate(927.123 736.415)" fill="#0d3b5e"/>
    <path id="Path_2824" data-name="Path 2824" d="M52.246,67.539a277.41,277.41,0,0,1,9.036,27.8,129.352,129.352,0,0,1,3.159,14.254c.551,3.85-2.593,7.368-3.44,11.064-.5,2.158-.355,4.411-.92,6.578-1.112,4.25-3.736,5.984-7.3,2.648-6.121-5.729-9.365-16.433-13.51-23.714C30.522,90.812,22.829,74.89,15.514,58.815,11.846,50.76,8.28,42.659,4.714,34.559.446,24.865-2.644,15.114,3.3,5.056,6.465-.308,10.038-.7,15.566.674c13,3.232,17.526,15.394,22.277,26.588a131.936,131.936,0,0,1,5.776,17.609c1.372,5.142,3.762,9.365,5.546,14.351C50.149,61.976,51.193,64.749,52.246,67.539Z" transform="matrix(0.719, 0.695, -0.695, 0.719, 1562.386, 1185.396)" fill="#0d3b5e"/>
    <path id="Path_2825" data-name="Path 2825" d="M13.631,21.127c-1.254.449-4.971,2.212-6.124,1.422a4.255,4.255,0,0,1-1.3-1.978A98.137,98.137,0,0,0,0,8.232c2.347-.88,5.042-1.081,7.432-1.95A74.706,74.706,0,0,0,20.55,0c-.9.5,7.378,13.787,4.782,15.785-1.427,1.1-3.6,1.164-5.182,2.231A29.4,29.4,0,0,1,13.631,21.127Z" transform="matrix(0.719, 0.695, -0.695, 0.719, 1519.079, 1292.619)" fill="#f79c6d"/>
    <path id="Path_2826" data-name="Path 2826" d="M47.155,23.921c1.207-1.663,1.5-3.615-.149-6-2.026-2.917-5.6-4.2-7.458-7.34C38,7.963,37.186,4.843,35.3,2.4,35,2.015,32.111-.533,31.839.1c-.819,1.914.627,4.25-.215,6.154C30.881,7.94,28.77,8.437,26.95,8.723L19.438,9.9a1.922,1.922,0,0,0-.951.327,1.942,1.942,0,0,0-.532,1.174q-.334,1.647-.667,3.3a1.471,1.471,0,0,1-.3.743,1.821,1.821,0,0,1-1.067.362,5.211,5.211,0,0,0-3.623,3.178,20.286,20.286,0,0,0-1.178,4.865A42.155,42.155,0,0,1,3.942,40.9c-1.425,2-4.068,3.9-3.937,6.552.095,1.966,1.51,3.639,2.856,4.966a2.274,2.274,0,0,0,.8.57c1.8.641,3.7-.575,5.083-1.507,2.054-1.387,4.337-2.482,6.443-3.8,5.5-3.44,10.364-7.543,15.569-11.353q3.8-2.779,7.439-5.769C40.4,28.738,45.1,26.751,47.155,23.921Z" transform="matrix(0.719, 0.695, -0.695, 0.719, 1508.203, 1288.413)" fill="#765056"/>
    <path id="Path_2827" data-name="Path 2827" d="M133.947,21.29c4.858,4.647,7.212,9.654,4.806,18.423a28.623,28.623,0,0,1-8.968,14.109c-5.757,4.91-13.205,7.319-20.543,9.162-13.066,3.284-27.229,5.863-40.757,5.584-10.151-.208-19.145,2.364-29.3,2.749C27.934,71.746,2.642,69.266.2,54.8c-2.846-16.88,25.107-25.349,36-30.017C52.6,17.76,69.687,12.578,86.728,7.405,93.388,5.385,99.808,2.756,106.4.558c10.837-3.613,15.77,11.308,22.829,16.762A59.181,59.181,0,0,1,133.947,21.29Z" transform="matrix(0.259, -0.966, 0.966, 0.259, 1549.827, 1222.245)" fill="#0f4573"/>
    <path id="Path_2828" data-name="Path 2828" d="M73.554,40.632A277.115,277.115,0,0,1,95.228,60.245a129.335,129.335,0,0,1,9.834,10.79c2.4,3.067,1.42,7.68,2.525,11.31.644,2.118,1.888,4,2.475,6.161,1.152,4.24-.26,7.051-5.014,5.932-8.161-1.921-16.3-9.592-23.522-13.842C66.3,71.634,51.7,61.651,37.354,51.351,30.166,46.19,23.041,40.94,15.914,35.689,7.389,29.4-.147,22.486,0,10.8.08,4.577,2.981,2.457,8.459.9,21.347-2.772,31.323,5.526,41.015,12.87a131.783,131.783,0,0,1,13.776,12.4c3.748,3.776,7.924,6.251,11.954,9.687C68.971,36.853,71.254,38.739,73.554,40.632Z" transform="matrix(0.616, 0.788, -0.788, 0.616, 1607.462, 1178.595)" fill="#0f4573"/>
    <path id="Path_2829" data-name="Path 2829" d="M18.243,21.768c-.864,1.013-3.211,4.392-4.6,4.28a4.235,4.235,0,0,1-2.115-1.067A98.377,98.377,0,0,0,0,17.367c1.6-1.933,3.835-3.448,5.475-5.39A74.6,74.6,0,0,0,13.726,0C13.2.878,26.988,8.286,25.732,11.308c-.691,1.666-2.541,2.8-3.386,4.517A29.491,29.491,0,0,1,18.243,21.768Z" transform="matrix(0.588, 0.809, -0.809, 0.588, 1608.65, 1296.786)" fill="#f79c6d"/>
    <path id="Path_2830" data-name="Path 2830" d="M34.987,16.378c.48-2,.009-3.916-2.428-5.487-2.986-1.924-6.777-1.744-9.694-3.937-2.435-1.831-4.375-4.406-7.046-5.946C15.4.764,11.749-.485,11.74.206c-.026,2.08,2.2,3.687,2.151,5.769-.045,1.841-1.805,3.107-3.379,4.065L4.017,13.993a1.949,1.949,0,0,0-.755.667,1.959,1.959,0,0,0-.045,1.287l.641,3.3a1.444,1.444,0,0,1,0,.8c-.137.357-.521.54-.845.743A5.209,5.209,0,0,0,.877,25.112a20.29,20.29,0,0,0,.769,4.945,42.194,42.194,0,0,1-.128,18.5C.964,50.95-.753,53.712.378,56.116c.84,1.782,2.785,2.787,4.536,3.5a2.263,2.263,0,0,0,.956.222c1.907-.095,3.2-1.945,4.122-3.332,1.37-2.066,3.062-3.952,4.505-5.975,3.767-5.276,6.7-10.927,10.061-16.433q2.449-4.021,4.673-8.17C30.581,23.408,34.166,19.779,34.987,16.378Z" transform="matrix(0.588, 0.809, -0.809, 0.588, 1609.595, 1304.009)" fill="#765056"/>
    <path id="Path_2831" data-name="Path 2831" d="M617.2,335.165c-.052-.064-.1-.13-.154-.2-1.5-2.054-1.112-5.674-.379-7.92a67.231,67.231,0,0,0,1.484-6.819,27.045,27.045,0,0,1,7.233-12.768,6.913,6.913,0,0,1,3.923-2.253c7.952-.8,4.264,10.253,2.877,14.062a37.469,37.469,0,0,1-9.394,14.384C621.248,335.111,618.982,337.3,617.2,335.165Z" transform="translate(953.399 654.942)" fill="#765056"/>
    <path id="Path_2832" data-name="Path 2832" d="M600.3,305.269" transform="translate(931.918 655.085)" fill="none" stroke="#222e46" stroke-miterlimit="10" stroke-width="0.706"/>
    <g id="Group_13867" data-name="Group 13867" transform="translate(1542.655 999.605)">
      <path id="Path_2833" data-name="Path 2833" d="M625.089,331.4c.17-3.23-2.57-9.335-6.372-9.517-4.086-.194-8.714.71-11.268,4.207A14.83,14.83,0,0,0,605,332.307a13.92,13.92,0,0,0,.074,5.979,7.782,7.782,0,0,0,3.417,4.777c3.064,1.794,7.06.688,10.014-1.28C622.041,339.425,624.866,335.644,625.089,331.4Z" transform="translate(-604.709 -321.858)" fill="#ec545a"/>
      <path id="Path_2834" data-name="Path 2834" d="M618.653,329.234c.1-1.881-1.5-5.442-3.715-5.546-2.383-.116-5.083.412-6.571,2.451a8.7,8.7,0,0,0-1.429,3.625,8.125,8.125,0,0,0,.045,3.485,4.538,4.538,0,0,0,1.99,2.787c1.786,1.046,4.117.4,5.84-.748A8.129,8.129,0,0,0,618.653,329.234Z" transform="translate(-601.892 -319.378)" fill="#feb8a5"/>
    </g>
    <path id="Path_2836" data-name="Path 2836" d="M632.43,330.8a14.892,14.892,0,0,0,7.752,5.215,20.671,20.671,0,0,0,5.281.336c2.1-.045,2.943-.213,3.667,1.869.913,2.622,1.957,4.735,1.85,7.6a34.927,34.927,0,0,1-5.674,16.785c-4.889,7.494-17.316,10-24.871,4.638-9.084-6.455-1.261-18.546-5.054-26.816-1.394-3.036-4.366-5.454-5.615-8.393-1-2.352.021-3.485,1.64-5.49,1.881-2.328,4.356-4.2,6.09-6.639,2-2.816,1.718-6.005,2.6-9.126-.17.6,1.744,3.173,2.08,3.779q1.129,2.034,2.281,4.048,2.314,4.029,4.849,7.917A41.377,41.377,0,0,0,632.43,330.8Z" transform="translate(944.313 662.617)" fill="#dc7554"/>
    <path id="Path_2837" data-name="Path 2837" d="M625.4,295.661c-7.43-.471-14.77.239-18.025,7.645-3.542,8.059-4.408,17.14-4.174,25.841.225,8.291,1.053,16.913,6.72,23.607,10.981,12.966,28.145-3.651,32.305-14.15,4.843-12.224,6.436-34.51-8.906-41.268A23.237,23.237,0,0,0,625.4,295.661Z" transform="translate(935.835 641.804)" fill="#f79c6d"/>
    <path id="Path_2838" data-name="Path 2838" d="M625.481,308.007c6.445-1.836,4.437,16.376-4.209,16.208a2.223,2.223,0,0,1-2.215-1.73,3.351,3.351,0,0,1,.1-1.072c.9-4.4.639-10.2,5.021-12.822A5.488,5.488,0,0,1,625.481,308.007Z" transform="translate(957.528 658.648)" fill="#f79c6d"/>
    <g id="Group_13872" data-name="Group 13872" transform="translate(1538.234 955.605)">
      <g id="Group_13869" data-name="Group 13869">
        <path id="Path_2839" data-name="Path 2839" d="M620.336,307.9c.024-1-1.633-2.695-2.454-3.149a8,8,0,0,0-4.4-.842,3.578,3.578,0,0,0-3.112,1.519.781.781,0,0,0-.023.89.8.8,0,0,0,.357.192c1.188.374,2.323-.116,3.492.083a7.082,7.082,0,0,1,3.01,1.126c.518.4,1.273,1.306,1.957,1.349A1.168,1.168,0,0,0,620.336,307.9Z" transform="translate(-592.76 -302.416)" fill="#603940"/>
        <path id="Path_2840" data-name="Path 2840" d="M611.258,312.369a4.226,4.226,0,0,1,.558-5.187,1.933,1.933,0,0,1,1.607-.44,2.064,2.064,0,0,1,1.3,1.73,4.2,4.2,0,0,1-.88,3.9,1.928,1.928,0,0,1-1.424.617A1.681,1.681,0,0,1,611.258,312.369Z" transform="translate(-592.222 -298.564)" fill="#603940"/>
        <path id="Path_2841" data-name="Path 2841" d="M602.863,305.83a.906.906,0,0,1,.194-.759c1.4-1.945,4.266-2.061,6.318-1.55,1.25.312,2.577.854,3.024,2.1a.748.748,0,0,1-.144.885.893.893,0,0,1-.416.123c-1.337.142-2.454-.559-3.734-.585a10.494,10.494,0,0,0-2.056.133,12.365,12.365,0,0,1-1.76.438A1.379,1.379,0,0,1,602.863,305.83Z" transform="translate(-602.841 -303.262)" fill="#603940"/>
        <path id="Path_2842" data-name="Path 2842" d="M606.763,312.064a4.026,4.026,0,0,0,.393-5.241,2.173,2.173,0,0,0-1.625-.741,2.14,2.14,0,0,0-1.716,1.462,3.986,3.986,0,0,0,.2,4.034,2.127,2.127,0,0,0,1.4.883A1.888,1.888,0,0,0,606.763,312.064Z" transform="translate(-602.125 -299.411)" fill="#603940"/>
      </g>
      <path id="Path_2843" data-name="Path 2843" d="M606.063,314.2c-.412-1.346.935-2.688,2.1-3.71a4.038,4.038,0,0,0-.393,3.209,5.814,5.814,0,0,0,2.111,2.636c-.239-.163-1.155-.066-1.5-.173a4.245,4.245,0,0,1-1.538-.854A2.424,2.424,0,0,1,606.063,314.2Z" transform="translate(-598.542 -293.385)" fill="#dc7554"/>
      <g id="Group_13871" data-name="Group 13871" transform="translate(10.766 24.814)">
        <g id="Group_13870" data-name="Group 13870">
          <path id="Path_2844" data-name="Path 2844" d="M613.058,320.864a6.411,6.411,0,0,1-5.587-3.28.677.677,0,0,1,1.193-.641,4.893,4.893,0,0,0,9.2-2.492.679.679,0,0,1,.653-.7.691.691,0,0,1,.7.653,6.381,6.381,0,0,1-4.609,6.261A5.973,5.973,0,0,1,613.058,320.864Z" transform="translate(-607.391 -313.749)" fill="#dc7554"/>
        </g>
      </g>
    </g>
    <path id="Path_2845" data-name="Path 2845" d="M648.737,335.687c2.037-1.223,4.507-1.02,4.995,1.588a7.071,7.071,0,0,0,4.519-4.751,15.311,15.311,0,0,0,.3-6.765,5.691,5.691,0,0,0,2.534-9.812,8.158,8.158,0,0,0,1.616-9.957,7.087,7.087,0,0,0-10.44-2.3,10.523,10.523,0,0,0-1.815-5.229,7.21,7.21,0,0,0-5.783-2.934c-1.273.014-5.321.8-5.537,2.541a7.225,7.225,0,0,0-5.326-7.754,6.482,6.482,0,0,0-7.57,5.191c-2-2.3-4.912-4.018-7.953-3.8s-5.951,2.83-5.788,5.873c-2.761-.156-5.146,2.243-5.925,4.9s-.334,5.5.132,8.225c-2.3.274-4.962,1.353-5.485,3.831-.544,2.572.75,5.594,3.235,6.45a14.582,14.582,0,0,0,1.268,13.312c.34-2.1.61-4.233,1.027-6.322.4-1.992,1.1-3.466.672-5.589,2.364-1.524,2.333-3.956,2.777-6.408a16.749,16.749,0,0,0,7.179,3.078c2.612.3,5.509-.627,6.919-2.844a9.4,9.4,0,0,0,5.421,3.374,6.941,6.941,0,0,0,6.045-1.682,3.336,3.336,0,0,0,5.437,2.936c-.9,3.353-1.682,7.576-.972,11.033l.019.092c.234,1.065.731,2.021.942,3.1.25,1.283.163,2.8,1.649,3.339C644.986,339.179,647.1,336.669,648.737,335.687Z" transform="translate(933.007 634.479)" fill="#765056"/>
    <path id="Path_2846" data-name="Path 2846" d="M623.435,416.731c-3.007-20.19-16.3-40.281-13.679-60.926.979-7.711,3.7-15.094,6.769-22.235q2.016,3.109,4.034,6.214a2.826,2.826,0,0,0,1.152,1.178,2.857,2.857,0,0,0,2.513-.648c6.327-4.072,13.113-8.741,15.25-15.955.386-1.306.731-2.832,1.94-3.459a3.918,3.918,0,0,1,1.756-.334c7.584-.137,14.788,3.061,18.306,9.331,6.881,12.254,16.209,25.157,21.788,37.955,5.343,12.257,4.292,25.626,8.882,38.184a97.169,97.169,0,0,1,4.337,50.361c-.636,3.533-2.378,7.823-5.967,7.908-1.763.043-3.334-1.029-4.768-2.056-9.263-6.627-18.695-13.217-29.092-17.964-11.422-5.217-22.649-6.308-35.1-5.941A42.393,42.393,0,0,0,623.435,416.731Z" transform="translate(944.376 675.979)" fill="#9cddcf"/>
    <path id="Path_2848" data-name="Path 2848" d="M622.292,324.666a10.289,10.289,0,0,0-.854.7.331.331,0,0,1-.215.116.327.327,0,0,1-.215-.132c-1.027-1.115-1.846-2.43-2.809-3.6a.6.6,0,0,1-.2-.506.615.615,0,0,1,.21-.272,22.853,22.853,0,0,1,5.691-3.556,30.508,30.508,0,0,1,7.711-2.137,4.968,4.968,0,0,1,3.372.691,3.755,3.755,0,0,1,2.08,2.738.584.584,0,0,1-.04.4.633.633,0,0,1-.48.206A29.192,29.192,0,0,0,622.292,324.666Z" transform="translate(956.088 668.66)" fill="#0d3b5e"/>
    <path id="Path_2849" data-name="Path 2849" d="M632.391,321.618a9.552,9.552,0,0,1-2.3,9.3c-1.1-.788-2.548-.776-3.859-1.088-.208-.05-.447-.14-.495-.348-.042-.187.095-.362.215-.511,1.607-1.971,1.559-4.775,1.328-7.307a12.706,12.706,0,0,0-.755-3.731,4.968,4.968,0,0,0-2.517-2.693c1.611-.44,3.788.705,5.042,1.659A9.451,9.451,0,0,1,632.391,321.618Z" transform="translate(964.313 668.571)" fill="#0f4573"/>
    <path id="Path_2850" data-name="Path 2850" d="M639.274,329.751a12.184,12.184,0,0,0-.66-7.1,6.667,6.667,0,0,0-2.837-3.611,6.558,6.558,0,0,0-3.062-.492,23.783,23.783,0,0,0-5.385.743c-4.924,1.266-7.631,6.545-8.475,11.306a13.957,13.957,0,0,0,.076,5.979,7.794,7.794,0,0,0,3.417,4.78c3.064,1.791,7.061.686,10.014-1.282A16.563,16.563,0,0,0,639.274,329.751Z" transform="translate(956.879 673.216)" fill="#ec545a"/>
    <path id="Path_2852" data-name="Path 2852" d="M7.875,0A176.236,176.236,0,0,1,23.21,12.7c4.692,4.295,9.647,8.473,13.664,13.283a2.72,2.72,0,0,1,.83,1.636,2.752,2.752,0,0,1-.923,1.7Q30.723,36,24.67,42.689a1.625,1.625,0,0,1-.909.62,1.727,1.727,0,0,1-1.069-.33Q11.345,36.4,0,29.816" transform="matrix(0.588, 0.809, -0.809, 0.588, 1616.249, 1262.569)" fill="none" stroke="#cecece" stroke-linecap="round" stroke-miterlimit="10" stroke-width="0.5" style="mix-blend-mode: multiply;isolation: isolate"/>
    <g id="Group_13873" data-name="Group 13873" transform="matrix(0.719, 0.695, -0.695, 0.719, 1503.693, 1294.96)">
      <path id="Path_2853" data-name="Path 2853" d="M0,32.1c4.255-1.058,8.1-3.315,11.812-5.648a195.667,195.667,0,0,0,24.8-18.34C39.333,5.726,42.03,3.192,43.734,0" transform="translate(0 8.975)" fill="none" stroke="#603b42" stroke-linecap="round" stroke-miterlimit="10" stroke-width="0.5"/>
      <path id="Path_2854" data-name="Path 2854" d="M8.885,0c1.365,2.759.677,6.05-.147,9.017C7.191,14.59,4.931,20.5,0,23.522" transform="translate(7.558 8.757)" fill="none" stroke="#603b42" stroke-linecap="round" stroke-miterlimit="10" stroke-width="0.5"/>
      <path id="Path_2855" data-name="Path 2855" d="M0,0C2.347,4.108,4.855,8.383,8.887,10.858a3.581,3.581,0,0,0,1.685.632" transform="translate(31.262 0)" fill="none" stroke="#603b42" stroke-linecap="round" stroke-miterlimit="10" stroke-width="0.5"/>
      <path id="Path_2856" data-name="Path 2856" d="M0,8.636A23.234,23.234,0,0,0,14.8,0" transform="translate(17.533 2.439)" fill="none" stroke="#603b42" stroke-linecap="round" stroke-miterlimit="10" stroke-width="0.5"/>
    </g>
    <g id="Group_13874" data-name="Group 13874" transform="matrix(0.588, 0.809, -0.809, 0.588, 1603.638, 1310.132)">
      <path id="Path_2857" data-name="Path 2857" d="M0,46.414c3.521-2.61,6.211-6.169,8.743-9.749A195.593,195.593,0,0,0,24.61,10.219C26.21,6.975,27.731,3.6,28.079,0" transform="translate(0 3.507)" fill="none" stroke="#603b42" stroke-linecap="round" stroke-miterlimit="10" stroke-width="0.5"/>
      <path id="Path_2858" data-name="Path 2858" d="M0,0C2.319,2.025,2.946,5.331,3.322,8.385c.71,5.74.885,12.06-2.508,16.745" transform="translate(2.792 13.769)" fill="none" stroke="#603b42" stroke-linecap="round" stroke-miterlimit="10" stroke-width="0.5"/>
      <path id="Path_2859" data-name="Path 2859" d="M0,0C3.743,2.891,7.7,5.88,12.37,6.62a3.593,3.593,0,0,0,1.8-.064" transform="translate(13.12 0)" fill="none" stroke="#603b42" stroke-linecap="round" stroke-miterlimit="10" stroke-width="0.5"/>
      <path id="Path_2860" data-name="Path 2860" d="M0,13.655A23.235,23.235,0,0,0,10.364,0" transform="translate(4.687 1.838)" fill="none" stroke="#603b42" stroke-linecap="round" stroke-miterlimit="10" stroke-width="0.5"/>
    </g>
    <path id="Path_2861" data-name="Path 2861" d="M611.1,331.223a73.764,73.764,0,0,0,5.222,46.062" transform="translate(944.529 690.543)" fill="none" stroke="#cecece" stroke-linecap="round" stroke-miterlimit="10" stroke-width="0.5" style="mix-blend-mode: multiply;isolation: isolate"/>
    <path id="Path_2863" data-name="Path 2863" d="M626.44,321.2a68.135,68.135,0,0,1,11.287-6.928,22.887,22.887,0,0,1,12.91-2.1,2.407,2.407,0,0,1,1.54.7,2.5,2.5,0,0,1,.322,1.782,13.586,13.586,0,0,1-3.535,8.743c-3.9,4.633-8.144,9.313-13.776,11.54" transform="translate(967.633 664.2)" fill="none" stroke="#cecece" stroke-linecap="round" stroke-miterlimit="10" stroke-width="0.5" style="mix-blend-mode: multiply;isolation: isolate"/>
    <path id="Path_16765" data-name="Path 16765" d="M779.955,10906.146a74.23,74.23,0,0,1,9.47,14.031c3.685,7.461,3.435,10.729,5.271,15.814" transform="translate(826.62 -9889.275)" fill="none" stroke="#75bbaa" stroke-width="0.3"/>
    <path id="Path_16780" data-name="Path 16780" d="M874.931,10933.729c1.368,9.541-27.742,14.22-59.659,21.247s-83.8,8.2-85.912,7.535-5.252-19.568-2.46-19.994,67.156-8.052,81.565-11.567,42.527-26.611,49.2-27,10.067,10.822,11.747,13.535S873.563,10924.188,874.931,10933.729Z" transform="translate(745.724 -9887.567)" fill="#7fccba"/>
    <g id="Group_18344" data-name="Group 18344" transform="matrix(0.087, 0.996, -0.996, 0.087, 1478.61, 1051.221)">
      <path id="Path_2835" data-name="Path 2835" d="M6.782,11.3a10.954,10.954,0,0,0-2.236,1.8c-.84,1.088-.944,2.475-1.316,3.75a4.326,4.326,0,0,1-.911,1.813,22.557,22.557,0,0,0-1.95,1.652,1.275,1.275,0,0,0-.355.984,1.113,1.113,0,0,0,.715.729,3.2,3.2,0,0,0,2.04.078c2.655-.7,4.285-3.443,6.306-5.094-.759.62-.714,2.565-.722,3.421A33.87,33.87,0,0,1,7.9,24.821c-.4,2.865-.985,5.7-1.559,8.537a13.173,13.173,0,0,0-.476,2.951,1.608,1.608,0,0,0,.445,1.278c.572.431,1.408-.272,1.765-.719A6.162,6.162,0,0,0,9,34.811q1.253-4.025,2.506-8.045c-.3,4.127-2.085,8-2.742,12.091A3.557,3.557,0,0,0,8.821,40.7a1.358,1.358,0,0,0,1.448.918,1.89,1.89,0,0,0,1.1-1.105c1.924-3.75,1.884-8.2,3.308-12.171.106-.293.3-.639.61-.615.672.052-1.431,10.364-1.029,11.305.241.561.731,1.119,1.337,1.058a1.2,1.2,0,0,0,.857-.608,3.517,3.517,0,0,0,.36-1.024c.44-1.855.847-3.72,1.183-5.6.329-1.846.4-3.767.793-5.594.068-.319.5-1.3.4-1.581l1.25,5.79a4.214,4.214,0,0,0,.537,1.514,1.432,1.432,0,0,0,1.372.674c1.245-.241,1.076-1.526.991-2.421-.137-1.453-.272-2.873-.483-4.323-.272-1.9.13-3.921-.274-5.759-.466-2.125-1.243-4.219-1.5-6.386A80.95,80.95,0,0,1,20.188.7a.689.689,0,0,0-.17-.615.668.668,0,0,0-.4-.085c-2.875.019-5.688.944-8.445,1.659-2.3.6-1.084,3.01-1.425,4.777A8.081,8.081,0,0,1,6.782,11.3Z" fill="#f79c6d"/>
    </g>
  </g>
</svg>
