<svg id="Group_19209" data-name="Group 19209" xmlns="http://www.w3.org/2000/svg" width="166.711" height="203.57" viewBox="0 0 166.711 203.57">
  <g id="Group_13430" data-name="Group 13430">
    <g id="Group_13392" data-name="Group 13392" transform="translate(26.187 102.235)">
      <g id="Group_13387" data-name="Group 13387" transform="translate(18.434 2.254)">
        <path id="Path_1950" data-name="Path 1950" d="M1747.293,1315.57a33.667,33.667,0,0,0-.655-8.634c10.865-5.736,24.638-28.247,28.258-38.341,1-2.785-15.581-19.94-28.1-1.437s-18.716,26.61-17.89,34.59c.492,4.746,3.5,44.885,3.5,44.885l10.148.4C1741.625,1330.805,1746.593,1326.208,1747.293,1315.57Z" transform="translate(-1728.83 -1258.686)" fill="#ffbe9d"/>
      </g>
      <g id="Group_13390" data-name="Group 13390" transform="translate(0 82.199)">
        <g id="Group_13388" data-name="Group 13388" transform="translate(0.235)">
          <path id="Path_1951" data-name="Path 1951" d="M1711.424,1453.937c-.938-4.212-3.951-5.039-3.951-5.039-7.011,7.783-21.01.752-21.945,12.333,22.285,2.6,31.52,3.884,31.52,3.884a87.975,87.975,0,0,0,.42-11.506l-1.187.077Z" transform="translate(-1685.529 -1448.898)" fill="#07082f"/>
        </g>
        <g id="Group_13389" data-name="Group 13389" transform="translate(0 12.014)">
          <path id="Path_1952" data-name="Path 1952" d="M1686.16,1481.041l28.841,3.553a1.356,1.356,0,0,0,1.511-1.18l.252-2.047-31.532-3.885-.253,2.048A1.356,1.356,0,0,0,1686.16,1481.041Z" transform="translate(-1684.969 -1477.482)" fill="#fff"/>
        </g>
      </g>
      <g id="Group_13391" data-name="Group 13391" transform="translate(18.685)">
        <path id="Path_1953" data-name="Path 1953" d="M1768.266,1282.778l-15.8,21.285s-15.359-6.8-23.04-18.212c5.705-7.242,12.946-23.48,21.285-29.843S1788.894,1253.1,1768.266,1282.778Z" transform="translate(-1729.427 -1253.323)" fill="#5b74b3"/>
      </g>
    </g>
    <g id="Group_13400" data-name="Group 13400" transform="translate(73.606 94.919)">
      <g id="Group_13393" data-name="Group 13393" transform="translate(3.838 2.171)">
        <path id="Path_1954" data-name="Path 1954" d="M1824.066,1241.477c7.235,7.916,17.348,28.748,17.345,41.033.021.006-4.356,13.046-9.557,16.632-7.009-3.3-12.017-14.418-22.185-33.487C1799.158,1245.94,1822.071,1239.294,1824.066,1241.477Z" transform="translate(-1806.923 -1241.08)" fill="#ffbe9d"/>
      </g>
      <g id="Group_13398" data-name="Group 13398" transform="translate(28.398 25.328)">
        <g id="Group_13394" data-name="Group 13394" transform="translate(0 3.567)">
          <path id="Path_1955" data-name="Path 1955" d="M1871.986,1316.84c2.43-1.675,4.444-4.365,7.025-5.289,10.037-3.592,16.812.423,31.328-6.887l2.869,8.964s-37.775,22.1-47.477,22.374C1863.642,1336.06,1871.04,1323.094,1871.986,1316.84Z" transform="translate(-1865.36 -1304.664)" fill="#ffbe9d"/>
        </g>
        <g id="Group_13397" data-name="Group 13397" transform="translate(41.866)">
          <g id="Group_13395" data-name="Group 13395" transform="translate(0 0.674)">
            <path id="Path_1956" data-name="Path 1956" d="M1968.039,1307.393c-3.49,2.537-3.049,5.629-3.049,5.629,9.931,3.334,9.054,18.974,20.049,15.221-6.491-21.475-8.986-30.461-8.986-30.461a88.158,88.158,0,0,0-10.723,4.2l.544,1.059Z" transform="translate(-1964.972 -1297.781)" fill="#07082f"/>
          </g>
          <g id="Group_13396" data-name="Group 13396" transform="translate(10.775)">
            <path id="Path_1957" data-name="Path 1957" d="M2002.64,1325.644l-8.516-28.867a.836.836,0,0,0-1.038-.566l-2.478.73,8.99,30.472,2.477-.731A.837.837,0,0,0,2002.64,1325.644Z" transform="translate(-1990.608 -1296.176)" fill="#fff"/>
          </g>
        </g>
      </g>
      <g id="Group_13399" data-name="Group 13399">
        <path id="Path_1958" data-name="Path 1958" d="M1822.161,1240.87l16.9,27.868s-18.871,21.943-25.015,19.968c-2.15-.692-15.8-32.037-16.238-37.084S1810.092,1226.827,1822.161,1240.87Z" transform="translate(-1797.793 -1235.915)" fill="#6886cd"/>
      </g>
    </g>
    <g id="Group_13406" data-name="Group 13406" transform="translate(0 57.351)">
      <g id="Group_13402" data-name="Group 13402" transform="translate(17.243 2.375)">
        <g id="path227_fill" data-name="path227 fill" transform="translate(20.826)">
          <path id="Path_1959" data-name="Path 1959" d="M1736.518,1164.9c-2.561,6.035-12.4,18.98-16.96,21.044-2.1-2.985-3.336-1.964-6.315-3.987,0,0,.12-5.865,1.839-8.391,1.471-2.162,1.651-9.057,11.145-19.954C1728.727,1150.738,1743.575,1151.142,1736.518,1164.9Z" transform="translate(-1713.243 -1152.181)" fill="#ffbe9d"/>
        </g>
        <g id="Vector" transform="translate(0 21.958)">
          <g id="Group_13401" data-name="Group 13401">
            <g id="path226_fill" data-name="path226 fill">
              <path id="Path_1960" data-name="Path 1960" d="M1664.322,1205c6.933-.882,15.448-.467,23.13-.512,3.98.941,8.29,4.908,7.011,8.042-.507,1.342-2.367,2.9-3.63,3.7-9.274.672-18.693-2.327-27.142-6.3Z" transform="translate(-1663.691 -1204.425)" fill="#ffbe9d"/>
            </g>
          </g>
        </g>
      </g>
      <g id="Group_13403" data-name="Group 13403" transform="translate(42.929)">
        <path id="Path_1961" data-name="Path 1961" d="M1740.947,1147.133c2.722,1.072,10.159,5.427-.4,22.779-6.5-2.07-15.74-9.545-15.74-9.545S1730.79,1143.132,1740.947,1147.133Z" transform="translate(-1724.805 -1146.53)" fill="#e3675f"/>
      </g>
      <g id="Group_13405" data-name="Group 13405" transform="translate(0 20.955)">
        <g id="Group_13404" data-name="Group 13404">
          <path id="Path_1962" data-name="Path 1962" d="M1633.618,1207.211a22.8,22.8,0,0,0,7.11-1.975l.574-4.833a15.689,15.689,0,0,0-9.756-4.006c-1.648.238-2.437.247-2.513.493s-.144,1.373,2.276,1.508c5.3.3,1.349,2.813-6.5,1.461-1.615-.278-2.739,2.671-1.8,3.881C1624.743,1205.964,1626.514,1207.547,1633.618,1207.211Z" transform="translate(-1622.664 -1196.387)" fill="#ffbe9d"/>
        </g>
      </g>
    </g>
    <g id="Group_13407" data-name="Group 13407" transform="translate(58.69 38.433)">
      <path id="Path_1963" data-name="Path 1963" d="M1773.21,1101.519l2.538,15.872a54.874,54.874,0,0,1-12.96,3.424c-.469-.526-.484-6.624-.484-6.624Z" transform="translate(-1762.305 -1101.519)" fill="#ffbe9d"/>
    </g>
    <g id="Group_13408" data-name="Group 13408" transform="translate(51.932 51.964)">
      <path id="Path_1964" data-name="Path 1964" d="M1753.14,1137.185s6.119,4.15,11.792-3.431c0,0,9.718-1.484,14.9,13.341,8.089,23.133,18.928,36.142,18.928,36.142s-23.245,22.224-47.88,14.752C1750.163,1195.906,1739.47,1147.91,1753.14,1137.185Z" transform="translate(-1746.226 -1133.713)" fill="#fa7269"/>
    </g>
    <g id="Group_13423" data-name="Group 13423" transform="translate(26.496)">
      <g id="Group_13409" data-name="Group 13409" transform="translate(7.332 6.572)">
        <path id="Path_1965" data-name="Path 1965" d="M1703.181,1048.121c-.559,12.821,6.787,23.7,15.8,24.157,10.393.523,21.286-9.7,21.846-22.516s-7.416-23.582-17.812-24.035S1703.739,1035.3,1703.181,1048.121Z" transform="translate(-1703.151 -1025.713)" fill="#ffbe9d"/>
      </g>
      <g id="Group_13410" data-name="Group 13410" transform="translate(29.439 32.811)">
        <path id="Path_1966" data-name="Path 1966" d="M1757.664,1092.148a2,2,0,1,0-1.913-2.088A2,2,0,0,0,1757.664,1092.148Z" transform="translate(-1755.749 -1088.145)"/>
      </g>
      <g id="Group_13411" data-name="Group 13411" transform="translate(12.041 32.169)">
        <path id="Path_1967" data-name="Path 1967" d="M1716.269,1090.62a2,2,0,1,0-1.913-2.088A2,2,0,0,0,1716.269,1090.62Z" transform="translate(-1714.354 -1086.616)"/>
      </g>
      <g id="Group_13413" data-name="Group 13413" transform="translate(9.678 28.418)">
        <g id="Group_13412" data-name="Group 13412">
          <path id="Path_1968" data-name="Path 1968" d="M1709.651,1081.49a.962.962,0,0,0,.848-.435,2.871,2.871,0,0,1,1.844-1.406,3.471,3.471,0,0,1,2.348.64.962.962,0,0,0,1.167-1.529,5.413,5.413,0,0,0-3.828-1.01,4.7,4.7,0,0,0-3.142,2.253.963.963,0,0,0,.762,1.488Z" transform="translate(-1708.732 -1077.691)"/>
        </g>
      </g>
      <g id="Group_13415" data-name="Group 13415" transform="translate(28.385 28.983)">
        <g id="Group_13414" data-name="Group 13414">
          <path id="Path_1969" data-name="Path 1969" d="M1760.168,1083.327a.961.961,0,0,0,.817-1.529,6.023,6.023,0,0,0-4.043-2.731,4.7,4.7,0,0,0-3.355.945.962.962,0,0,0,1.228,1.481,2.765,2.765,0,0,1,1.92-.513,4.248,4.248,0,0,1,2.7,1.954A.961.961,0,0,0,1760.168,1083.327Z" transform="translate(-1753.242 -1079.036)"/>
        </g>
      </g>
      <g id="Group_13416" data-name="Group 13416" transform="translate(17.154 44.338)">
        <path id="Path_1970" data-name="Path 1970" d="M1737.509,1116.517c.256-.441-.069-1.024-.526-.94a32.482,32.482,0,0,1-9.9.45c-.463-.042-.734.57-.438.986a6.116,6.116,0,0,0,10.866-.5Z" transform="translate(-1726.52 -1115.569)" fill="#fff"/>
      </g>
      <g id="Group_13417" data-name="Group 13417" transform="translate(18.79 36.421)">
        <path id="Path_1971" data-name="Path 1971" d="M1732.566,1096.732a17.276,17.276,0,0,1-2.153,3.764c.85,1.242,3.677,1.365,3.677,1.365l-1.972-1.774A7.731,7.731,0,0,0,1732.566,1096.732Z" transform="translate(-1730.413 -1096.732)" fill="#de623c"/>
      </g>
      <g id="Group_13418" data-name="Group 13418">
        <path id="Path_1972" data-name="Path 1972" d="M1728.751,1039.258c-5.693-5.476-13.952-.432-16-6.5s-9.317-1.087-12.275,1.318-11.217,7.449-13.264,3.592-3.07-10.6,4.049-13.929,6.772-1.514,7.617-6.674c1.133-6.924,10.116-8.554,15.339-5.557s7.815,3.009,10.318,1.818c5.861-2.79,11.734,7.049,9.332,11.509s1.992,5.878,2.887,8.442S1732.7,1043.053,1728.751,1039.258Z" transform="translate(-1685.705 -1010.077)" fill="#0a0932"/>
      </g>
      <g id="Group_13422" data-name="Group 13422" transform="translate(40.31 27.745)">
        <g id="Group_13419" data-name="Group 13419">
          <path id="Path_1973" data-name="Path 1973" d="M1783.506,1078.707c-2.276,2.638-2.536,6.144-.582,7.83s5.385.916,7.662-1.722,2.537-6.144.582-7.831S1785.783,1076.068,1783.506,1078.707Z" transform="translate(-1781.613 -1076.091)" fill="#ffbe9d"/>
        </g>
        <g id="Group_13421" data-name="Group 13421" transform="translate(2.589 2.75)">
          <g id="Group_13420" data-name="Group 13420">
            <path id="Path_1974" data-name="Path 1974" d="M1788.714,1088.484a.643.643,0,0,0,.629-.865,2.644,2.644,0,0,1,.082-2.59c.717-.952,2.323-1.185,3.477-1.1a.641.641,0,0,0,.1-1.278c-1.549-.12-3.572.239-4.6,1.6a3.8,3.8,0,0,0-.26,3.809A.643.643,0,0,0,1788.714,1088.484Z" transform="translate(-1787.774 -1082.633)" fill="#de623c"/>
          </g>
        </g>
      </g>
    </g>
    <g id="Group_13429" data-name="Group 13429" transform="translate(70.177 54.118)">
      <g id="Group_13425" data-name="Group 13425" transform="translate(1.899 1.86)">
        <g id="path227_fill-2" data-name="path227 fill">
          <path id="Path_1975" data-name="Path 1975" d="M1803.267,1143.761c6.445-1.2,22.674-.16,26.913,2.5-1.325,3.4.208,3.865.17,7.466,0,0-4.953,3.143-8.008,3.108-2.614-.03-8.459,3.633-22.788,1.748C1795.78,1158.082,1787.907,1145.487,1803.267,1143.761Z" transform="translate(-1794.154 -1143.265)" fill="#ffbe9d"/>
        </g>
        <g id="Vector-2" data-name="Vector" transform="translate(27.47 1.93)">
          <g id="Group_13424" data-name="Group 13424">
            <g id="path226_fill-2" data-name="path226 fill">
              <path id="Path_1976" data-name="Path 1976" d="M1873.371,1177.216c-4.568-5.289-8.932-12.614-13.216-18.989-1.418-3.838-.494-9.622,2.824-10.289,1.4-.32,3.722.37,5.089.98,5.687,7.356,8.4,16.861,9.758,26.1Z" transform="translate(-1859.513 -1147.857)" fill="#ffbe9d"/>
            </g>
          </g>
        </g>
      </g>
      <g id="Group_13426" data-name="Group 13426">
        <path id="Path_1977" data-name="Path 1977" d="M1789.834,1151.1c-.612-2.861-1.1-11.465,19.2-12.261,1.868,6.558.75,18.393.75,18.393S1792.118,1161.776,1789.834,1151.1Z" transform="translate(-1789.635 -1138.84)" fill="#e3675f"/>
      </g>
      <g id="Group_13428" data-name="Group 13428" transform="translate(43.014 30.687)">
        <g id="Group_13427" data-name="Group 13427">
          <path id="Path_1978" data-name="Path 1978" d="M1902.12,1216.618a22.813,22.813,0,0,0-5.634-4.764l-4.318,2.246a15.687,15.687,0,0,0,2.179,10.319c1.124,1.229,1.576,1.875,1.821,1.8s1.216-.653-.035-2.73c-2.737-4.544,1.567-2.7,4.868,4.553.679,1.491,3.75.76,4.219-.7C1906.085,1224.655,1906.4,1222.3,1902.12,1216.618Z" transform="translate(-1891.978 -1211.853)" fill="#ffbe9d"/>
        </g>
      </g>
    </g>
  </g>
</svg>
