<svg xmlns="http://www.w3.org/2000/svg" width="99.616" height="98.956" viewBox="0 0 99.616 98.956">
  <g id="Group_19229" data-name="Group 19229" transform="translate(-8073.734 -2257.374)">
    <path id="Subtraction_134" data-name="Subtraction 134" d="M20.694,41.376A20.688,20.688,0,1,1,39.9,13.025l7.664,19.211L28.351,39.9A20.58,20.58,0,0,1,20.694,41.376Zm.763-30.605a9.918,9.918,0,1,0,9.918,9.917A9.929,9.929,0,0,0,21.457,10.771Z" transform="translate(8074.234 2274.298)" fill="#2676ff" stroke="rgba(0,0,0,0)" stroke-miterlimit="10" stroke-width="1"/>
    <path id="Subtraction_135" data-name="Subtraction 135" d="M20.573,47.278h0a20.559,20.559,0,0,1-7.626-39.66L32.044,0l7.617,19.1A20.571,20.571,0,0,1,20.573,47.278Zm.836-31.31a9.918,9.918,0,1,0,9.918,9.917A9.929,9.929,0,0,0,21.409,15.968Z" transform="translate(8090.425 2308.552)" fill="#feb426" stroke="rgba(0,0,0,0)" stroke-miterlimit="10" stroke-width="1"/>
    <path id="Subtraction_136" data-name="Subtraction 136" d="M9.063,47.876h0L1.4,28.666A20.935,20.935,0,0,1,13.439,1.6,20.947,20.947,0,0,1,40.806,12.946a20.936,20.936,0,0,1-12.04,27.07l-19.7,7.859ZM21.1,11.059a9.918,9.918,0,1,0,9.918,9.917A9.929,9.929,0,0,0,21.1,11.059Z" transform="translate(8114.706 2257.874)" fill="#2bdad1" stroke="rgba(0,0,0,0)" stroke-miterlimit="10" stroke-width="1"/>
    <path id="Subtraction_137" data-name="Subtraction 137" d="M26.871,41.363A20.833,20.833,0,0,1,7.618,28.495L0,9.4,19.586,1.586a20.822,20.822,0,0,1,27.2,11.283A20.81,20.81,0,0,1,34.82,39.778,20.707,20.707,0,0,1,26.871,41.363ZM27.923,9.869a9.918,9.918,0,1,0,9.917,9.918A9.929,9.929,0,0,0,27.923,9.869Z" transform="translate(8124.671 2298.273)" fill="#c822d4" stroke="rgba(0,0,0,0)" stroke-miterlimit="10" stroke-width="1"/>
  </g>
</svg>
