<svg xmlns="http://www.w3.org/2000/svg" width="72.198" height="170.497" viewBox="0 0 72.198 170.497">
  <g id="Group_19227" data-name="Group 19227" transform="translate(-78.238 -101.546)">
    <g id="Group_19217" data-name="Group 19217" transform="translate(78.81 101.546)">
      <rect id="Rectangle_2685" data-name="Rectangle 2685" width="66.299" height="19.202" transform="translate(2.376 14.849)" fill="#f03"/>
      <rect id="Rectangle_2686" data-name="Rectangle 2686" width="66.299" height="3" transform="translate(2.376 31.05)" fill="#88181f"/>
      <rect id="Rectangle_2687" data-name="Rectangle 2687" width="66.299" height="1.517" transform="translate(2.376 15.966)" fill="#88181f"/>
      <g id="Group_19214" data-name="Group 19214" transform="translate(6.231 18.219)">
        <g id="Group_19212" data-name="Group 19212">
          <g id="Group_19211" data-name="Group 19211">
            <path id="Path_17168" data-name="Path 17168" d="M88.324,137.623l-.853.851h58.59v-12.2l-.85.852Z" transform="translate(-87.471 -126.274)" fill="#ff8594"/>
            <path id="Path_17169" data-name="Path 17169" d="M87.471,138.474l.853-.851,56.886-10.5.85-.852H87.471Z" transform="translate(-87.471 -126.274)" fill="#aa162b"/>
          </g>
        </g>
        <path id="Path_17170" data-name="Path 17170" d="M145.515,127.43v10.5H88.629v-10.5Z" transform="translate(-87.776 -126.579)" fill="#e9f4f0"/>
        <g id="Group_19213" data-name="Group 19213" transform="translate(4.471 3.319)">
          <path id="Path_17171" data-name="Path 17171" d="M95.7,131.31h-.964a4.316,4.316,0,0,0-.59.035c-.111.016-.167.119-.167.3,0,.137,0,.256-.01.36l0,.078h-.427v-1.1h5.179v1.1h-.427l-.008-.078c-.007-.1-.013-.223-.013-.36,0-.185-.053-.287-.162-.3a4.37,4.37,0,0,0-.59-.035h-.962v4.652a1.268,1.268,0,0,0,.1.658c.062.077.257.123.58.14l.177.005v.253H94.849v-.253l.172-.005c.324-.017.518-.063.585-.14a1.338,1.338,0,0,0,.1-.658Z" transform="translate(-93.539 -130.833)" fill="#aa162b"/>
          <path id="Path_17172" data-name="Path 17172" d="M105.68,137.019h-4.348v-.253l.077-.005c.329-.021.525-.068.584-.14a1.306,1.306,0,0,0,.091-.658V132.04a1.287,1.287,0,0,0-.091-.656c-.06-.071-.256-.117-.584-.139l-.077-.008v-.252h4.127v1.056H105l-.008-.079a1.816,1.816,0,0,0-.082-.607,2.227,2.227,0,0,0-.654-.043h-1.317v2.411l1.1,0a1.373,1.373,0,0,0,.45-.04c.055-.024.089-.15.1-.383l0-.073h.329v1.323H104.6l0-.072c-.01-.2-.044-.326-.1-.367a1.03,1.03,0,0,0-.45-.058h-1.1v1.913a.952.952,0,0,0,.113.589c.071.077.267.115.579.115h.644a2.226,2.226,0,0,0,.817-.073c.069-.045.11-.249.13-.607l0-.073h.452Z" transform="translate(-95.59 -130.833)" fill="#aa162b"/>
          <path id="Path_17173" data-name="Path 17173" d="M112.392,137.019h-4.359v-.253l.077-.005c.33-.021.524-.068.586-.14a1.3,1.3,0,0,0,.094-.658V132.04a1.283,1.283,0,0,0-.094-.656c-.062-.071-.256-.117-.586-.139l-.077-.008v-.252H110.4v.252l-.078.008q-.5.033-.589.139a1.375,1.375,0,0,0-.088.656v3.923a1.259,1.259,0,0,0,.08.623,1.285,1.285,0,0,0,.628.08h.623a2.166,2.166,0,0,0,.847-.083c.069-.055.116-.285.138-.69l0-.083h.427Z" transform="translate(-97.354 -130.833)" fill="#aa162b"/>
          <path id="Path_17174" data-name="Path 17174" d="M118.981,137.019h-4.348v-.253l.078-.005c.328-.021.522-.068.582-.14a1.29,1.29,0,0,0,.1-.658V132.04a1.271,1.271,0,0,0-.1-.656q-.091-.106-.582-.139l-.078-.008v-.252h4.124v1.056h-.452l-.007-.079a1.792,1.792,0,0,0-.085-.607,2.209,2.209,0,0,0-.653-.043h-1.319v2.411l1.106,0a1.4,1.4,0,0,0,.451-.04c.053-.024.088-.15.1-.383l0-.073h.326v1.323H117.9l0-.072c-.012-.2-.046-.326-.1-.367a1.048,1.048,0,0,0-.451-.058h-1.106v1.913a.97.97,0,0,0,.112.589.926.926,0,0,0,.583.115h.643a2.234,2.234,0,0,0,.818-.073c.066-.045.108-.249.127-.607l0-.073h.452Z" transform="translate(-99.092 -130.833)" fill="#aa162b"/>
          <path id="Path_17175" data-name="Path 17175" d="M122.936,134.49v1.462a1.268,1.268,0,0,0,.1.658c.064.077.256.123.584.14l.172.005v.253h-2.458v-.253l.079-.005a1.01,1.01,0,0,0,.585-.14,1.34,1.34,0,0,0,.09-.658V132.03a1.32,1.32,0,0,0-.09-.656,1.037,1.037,0,0,0-.585-.139l-.079-.008v-.252h1.78l.593-.022.278-.006q1.746,0,1.745,1.59A1.733,1.733,0,0,1,125.1,134a3.1,3.1,0,0,1-1.909.491Zm0-.276h.3a1.588,1.588,0,0,0,1.2-.414,1.755,1.755,0,0,0,.4-1.243,1.386,1.386,0,0,0-.3-1.009,1.4,1.4,0,0,0-1.013-.3h-.576Z" transform="translate(-100.856 -130.823)" fill="#aa162b"/>
          <path id="Path_17176" data-name="Path 17176" d="M129.719,134.057v1.905a1.34,1.34,0,0,0,.09.658c.062.072.255.119.587.14l.078.005v.253h-2.366v-.253l.081-.005c.326-.021.52-.068.581-.14a1.341,1.341,0,0,0,.094-.658V132.04a1.321,1.321,0,0,0-.094-.656c-.061-.071-.256-.117-.581-.139l-.081-.008v-.252h2.366v.252l-.078.008c-.332.022-.525.069-.587.139a1.32,1.32,0,0,0-.09.656v1.668h2.868V132.04a1.3,1.3,0,0,0-.091-.656c-.061-.071-.256-.117-.588-.139l-.074-.008v-.252H134.2v.252l-.08.008a1.031,1.031,0,0,0-.587.139,1.369,1.369,0,0,0-.088.656v3.923a1.389,1.389,0,0,0,.088.658c.062.072.258.119.587.14l.08.005v.253h-2.367v-.253l.074-.005c.335-.021.53-.068.589-.138a1.344,1.344,0,0,0,.09-.66v-1.905Z" transform="translate(-102.639 -130.833)" fill="#aa162b"/>
          <path id="Path_17177" data-name="Path 17177" d="M140.3,137.116a2.625,2.625,0,0,1-2.069-.85,3.934,3.934,0,0,1,0-4.639,2.949,2.949,0,0,1,4.138,0,3.928,3.928,0,0,1,0,4.639A2.62,2.62,0,0,1,140.3,137.116Zm0-.276a1.608,1.608,0,0,0,1.413-.766,4.68,4.68,0,0,0,0-4.254,1.683,1.683,0,0,0-2.823,0,4.668,4.668,0,0,0,0,4.254A1.6,1.6,0,0,0,140.3,136.84Z" transform="translate(-105.104 -130.779)" fill="#aa162b"/>
          <path id="Path_17178" data-name="Path 17178" d="M151.008,137.1l-3.648-5.055v3.919a1.329,1.329,0,0,0,.091.658c.06.069.256.115.589.14l.074.005v.253h-1.889v-.253l.075-.005a1.078,1.078,0,0,0,.592-.14,1.356,1.356,0,0,0,.088-.658V132.04a1.378,1.378,0,0,0-.088-.661,1.064,1.064,0,0,0-.589-.135l-.078-.008v-.252h1.367l3.345,4.683V132.04a1.34,1.34,0,0,0-.088-.656q-.092-.106-.59-.139l-.074-.008v-.252h1.879v.252l-.077.008c-.332.022-.53.069-.587.139a1.325,1.325,0,0,0-.087.656V137.1Z" transform="translate(-107.408 -130.833)" fill="#aa162b"/>
          <path id="Path_17179" data-name="Path 17179" d="M159.373,137.019H155.02v-.253l.079-.005c.331-.021.524-.068.586-.14a1.365,1.365,0,0,0,.091-.658V132.04a1.344,1.344,0,0,0-.091-.656c-.062-.071-.255-.117-.586-.139l-.079-.008v-.252h4.127v1.056H158.7l-.008-.079a1.67,1.67,0,0,0-.086-.607,2.19,2.19,0,0,0-.652-.043h-1.318v2.411l1.1,0a1.4,1.4,0,0,0,.452-.04c.055-.024.089-.15.1-.383l0-.073h.326v1.323h-.326l0-.072c-.01-.2-.044-.326-.1-.367a1.05,1.05,0,0,0-.452-.058h-1.1v1.913a.952.952,0,0,0,.113.589.919.919,0,0,0,.579.115h.646a2.22,2.22,0,0,0,.818-.073c.066-.045.108-.249.127-.607l0-.073h.454Z" transform="translate(-109.723 -130.833)" fill="#aa162b"/>
        </g>
      </g>
      <g id="Group_19216" data-name="Group 19216" transform="translate(0)">
        <path id="Path_17180" data-name="Path 17180" d="M150.066,118.346c-5.992-9.89-19.64-16.8-35.527-16.8s-29.531,6.909-35.525,16.8Z" transform="translate(-79.014 -101.546)" fill="#ff8594"/>
        <path id="Path_17181" data-name="Path 17181" d="M150.066,118.58c-5.992-9.89-18.986-16.143-34.87-16.143S85.008,108.69,79.014,118.58Z" transform="translate(-79.014 -101.781)" fill="#c7223c"/>
        <path id="Path_17182" data-name="Path 17182" d="M127.993,118.58h34.966c-5.992-9.89-18.986-16.143-34.87-16.143h-.1Z" transform="translate(-91.907 -101.781)" fill="#af1e2c"/>
        <path id="Path_17183" data-name="Path 17183" d="M115.244,107.041c-15,0-27.892,5.246-33.553,12.751H148.8c-5.661-7.505-18.552-12.751-33.553-12.751Z" transform="translate(-79.719 -102.992)" fill="#f03"/>
        <path id="Path_17184" data-name="Path 17184" d="M116.719,109.486a54.916,54.916,0,0,1,19.631,3.438,32.39,32.39,0,0,1,9.791,5.711H87.295a32.461,32.461,0,0,1,9.8-5.711,54.9,54.9,0,0,1,19.629-3.438Z" transform="translate(-81.194 -103.636)" fill="#f03"/>
        <g id="Group_19215" data-name="Group 19215" transform="translate(6.101 5.85)">
          <path id="Path_17185" data-name="Path 17185" d="M90.838,120.276l-3.543,1.2h58.846l-3.539-1.2Z" transform="translate(-87.295 -112.326)" fill="#ff8594"/>
          <path id="Path_17186" data-name="Path 17186" d="M116.719,109.486a54.9,54.9,0,0,0-19.629,3.438,32.461,32.461,0,0,0-9.8,5.711l3.543-1.2a34.909,34.909,0,0,1,6.687-3.393,56.574,56.574,0,0,1,38.391,0,34.945,34.945,0,0,1,6.686,3.393l3.539,1.2a32.39,32.39,0,0,0-9.791-5.711A54.916,54.916,0,0,0,116.719,109.486Z" transform="translate(-87.295 -109.486)" fill="#af1e2c"/>
        </g>
      </g>
    </g>
    <g id="Group_19218" data-name="Group 19218" transform="translate(79.836 133.346)">
      <rect id="Rectangle_2688" data-name="Rectangle 2688" width="48.399" height="105.895" transform="translate(10.3 9.102)" fill="none"/>
      <path id="Path_17187" data-name="Path 17187" d="M147.13,151.63H85.218v130.8H147.13Zm-6.758,109.9h-48.4v-105.9h48.4Z" transform="translate(-81.673 -146.53)" fill="#f03"/>
      <path id="Path_17188" data-name="Path 17188" d="M80.406,144.708V280.6h1.745v-132.6h65.511V280.6h1.743v-135.9Z" transform="translate(-80.406 -144.708)" fill="#f03"/>
      <path id="Path_17189" data-name="Path 17189" d="M148.285,149.186H82.774v132.6h1.8v-130.8h61.912v130.8h1.8v-132.6Z" transform="translate(-81.03 -145.887)" fill="#d92138"/>
    </g>
    <g id="Group_19219" data-name="Group 19219" transform="translate(82.588 137.795)">
      <path id="Path_17190" data-name="Path 17190" d="M170.077,150.746h-.05l-.651.651v130.8h.7Z" transform="translate(-106.578 -150.746)" fill="#b01f2d"/>
      <path id="Path_17191" data-name="Path 17191" d="M84.468,150.746l.648.651h61.909l.651-.651Z" transform="translate(-84.227 -150.746)" fill="#ff8594"/>
      <path id="Path_17192" data-name="Path 17192" d="M84.382,150.746h-.24V282.194h.889V151.4Z" transform="translate(-84.142 -150.746)" fill="#ff8594"/>
    </g>
    <g id="Group_19221" data-name="Group 19221" transform="translate(89.165 253.39)">
      <g id="Group_19220" data-name="Group 19220">
        <path id="Path_17193" data-name="Path 17193" d="M94.27,320.886l48.693-12.2H94.27Z" transform="translate(-93.385 -307.916)" fill="#c7223c"/>
        <path id="Path_17194" data-name="Path 17194" d="M142.964,320.886v-12.2l-48.693,12.2Z" transform="translate(-93.385 -307.916)" fill="#c7223c"/>
        <path id="Path_17195" data-name="Path 17195" d="M93.954,321.422h49.581V307.788l-.888.662v12.2H93.954l-.886.664v.109Z" transform="translate(-93.068 -307.68)" fill="#c7223c"/>
        <path id="Path_17196" data-name="Path 17196" d="M93.954,308.411h48.693l.888-.662v-.108H93.068v13.634l.886-.664Z" transform="translate(-93.068 -307.641)" fill="#ff8594"/>
      </g>
      <rect id="Rectangle_2689" data-name="Rectangle 2689" width="48.693" height="12.2" transform="translate(0.886 0.77)" fill="#f03"/>
    </g>
    <g id="Group_19222" data-name="Group 19222" transform="translate(87.208 155.193)">
      <rect id="Rectangle_2690" data-name="Rectangle 2690" width="1.751" height="9.652" transform="translate(0 0)" fill="#ac2533"/>
      <rect id="Rectangle_2691" data-name="Rectangle 2691" width="0.8" height="9.652" transform="translate(0.95 0)" fill="#671719"/>
    </g>
    <g id="Group_19223" data-name="Group 19223" transform="translate(87.208 230.196)">
      <rect id="Rectangle_2692" data-name="Rectangle 2692" width="1.751" height="9.647" transform="translate(0)" fill="#ac2533"/>
      <rect id="Rectangle_2693" data-name="Rectangle 2693" width="0.8" height="9.647" transform="translate(0.95)" fill="#671719"/>
    </g>
    <path id="Path_17197" data-name="Path 17197" d="M166.926,230.369c0,4.061-.853,7.351-1.9,7.351s-1.9-3.29-1.9-7.351.851-7.349,1.9-7.349S166.926,226.31,166.926,230.369Z" transform="translate(-22.345 -31.976)" fill="#ad1e30"/>
    <path id="Path_17198" data-name="Path 17198" d="M166.087,230.327c0,3.285-.609,5.949-1.364,5.949s-1.361-2.664-1.361-5.949.61-5.948,1.361-5.948S166.087,227.042,166.087,230.327Z" transform="translate(-22.408 -32.334)" fill="#450b07"/>
    <g id="Group_19225" data-name="Group 19225" transform="translate(88.636 140.946)">
      <g id="Group_19224" data-name="Group 19224">
        <path id="Path_17199" data-name="Path 17199" d="M142.249,157.047V262.42H93.85v-.526l-.448.976-1.051,1.051h51.4v-108.9l-1.051,1.05Z" transform="translate(-92.351 -155.023)" fill="#b01f2d"/>
        <path id="Path_17200" data-name="Path 17200" d="M93.85,155.023h-1.5v108.9L93.4,262.87l.448-.976V156.525h48.4v.522l.452-.974,1.051-1.05H93.85Z" transform="translate(-92.351 -155.023)" fill="#ff8594"/>
      </g>
      <path id="Path_17201" data-name="Path 17201" d="M142.785,157.061v105.9h-48.4v-105.9Z" transform="translate(-92.886 -155.56)" fill="#c3d9e6" opacity="0.5"/>
      <path id="Path_17202" data-name="Path 17202" d="M94.386,157.061v105.9h48.4v-105.9Zm42.966,100.5H99.221v-94.5h38.13Z" transform="translate(-92.886 -155.56)" fill="#d4edfc" style="mix-blend-mode: multiply;isolation: isolate"/>
      <path id="Path_17203" data-name="Path 17203" d="M143.215,262.852v-106H94.3v106Zm-15.733-105.1H142.7V178.1h-15.22Zm0,21.087H142.7v20.371h-15.22Zm0,21.114H142.7v20.372h-15.22Zm0,21.113H142.7V241.44h-15.22Zm0,21.116H142.7v20.568h-15.22Zm-15.952-84.431h14.841V178.1H111.531Zm0,21.087h14.841v20.371H111.531Zm0,21.114h14.841v20.372H111.531Zm0,21.113h14.841V241.44H111.531Zm0,21.116h14.841v20.568H111.531ZM95.2,157.753H110.42V178.1H95.2Zm0,21.087H110.42v20.371H95.2Zm0,21.114H110.42v20.372H95.2Zm0,21.113H110.42V241.44H95.2Zm0,21.116H110.42v20.568H95.2Z" transform="translate(-92.864 -155.504)" fill="#8b9ba4" style="mix-blend-mode: multiply;isolation: isolate"/>
      <path id="Path_17204" data-name="Path 17204" d="M93.777,156.448v106.8h49.3v-106.8Zm48.4,21.243H126.959V157.347h15.218Zm-31.169,63.345V220.661h14.84v20.375Zm14.84.741v20.567h-14.84V241.778Zm0-63.344V198.81h-14.84V178.434Zm-14.84-.743V157.347h14.84v20.344Zm14.84,21.858V219.92h-14.84V199.549Zm-15.954-.739H94.677V178.434h15.216Zm0,.739V219.92H94.677V199.549Zm0,21.113v20.375H94.677V220.661Zm17.066,0h15.218v20.375H126.959Zm0-.741V199.549h15.218V219.92Zm0-21.11V178.434h15.218V198.81Zm-17.066-41.463v20.344H94.677V157.347ZM94.677,241.778h15.216v20.567H94.677Zm32.281,20.567V241.778h15.218v20.567Z" transform="translate(-92.726 -155.398)" fill="#f03"/>
    </g>
    <g id="Group_19226" data-name="Group 19226" transform="translate(78.238 268.044)">
      <rect id="Rectangle_2694" data-name="Rectangle 2694" width="72.198" height="3.999" fill="#474746"/>
      <rect id="Rectangle_2695" data-name="Rectangle 2695" width="72.198" height="2.4" transform="translate(0 1.599)" fill="#1d1d1b"/>
    </g>
  </g>
</svg>
